<svg xmlns="http://www.w3.org/2000/svg" width="27" height="28" viewBox="0 0 27 28" fill="none">
  <path d="M16.3989 10.7625V15.2062C16.3989 15.3187 16.3145 15.4062 16.206 15.4062H15.519C15.4527 15.4062 15.3924 15.3687 15.3623 15.325L13.3975 12.575V15.2125C13.3975 15.325 13.3132 15.4125 13.2047 15.4125H12.5176C12.4092 15.4125 12.3248 15.325 12.3248 15.2125V10.7688C12.3248 10.6563 12.4092 10.5688 12.5176 10.5688H13.1987C13.2589 10.5688 13.3252 10.6 13.3554 10.6563L15.3201 13.4063V10.7688C15.3201 10.6563 15.4045 10.5688 15.5129 10.5688H16.2C16.3085 10.5625 16.3989 10.6563 16.3989 10.7625ZM11.4569 10.5625H10.7699C10.6614 10.5625 10.577 10.65 10.577 10.7625V15.2062C10.577 15.3187 10.6614 15.4062 10.7699 15.4062H11.4569C11.5654 15.4062 11.6498 15.3187 11.6498 15.2062V10.7625C11.6498 10.6563 11.5654 10.5625 11.4569 10.5625ZM9.79956 14.2875H7.92523V10.7625C7.92523 10.65 7.84085 10.5625 7.73237 10.5625H7.04532C6.93684 10.5625 6.85246 10.65 6.85246 10.7625V15.2062C6.85246 15.2625 6.87054 15.3062 6.9067 15.3437C6.94286 15.375 6.98505 15.4 7.03929 15.4H9.79353C9.90201 15.4 9.98639 15.3125 9.98639 15.2V14.4875C9.98639 14.3812 9.90201 14.2875 9.79956 14.2875ZM20.0149 10.5625H17.2607C17.1583 10.5625 17.0679 10.65 17.0679 10.7625V15.2062C17.0679 15.3125 17.1522 15.4062 17.2607 15.4062H20.0149C20.1234 15.4062 20.2078 15.3187 20.2078 15.2062V14.4937C20.2078 14.3812 20.1234 14.2938 20.0149 14.2938H18.1406V13.5437H20.0149C20.1234 13.5437 20.2078 13.4563 20.2078 13.3438V12.625C20.2078 12.5125 20.1234 12.425 20.0149 12.425H18.1406V11.675H20.0149C20.1234 11.675 20.2078 11.5875 20.2078 11.475V10.7625C20.2018 10.6563 20.1174 10.5625 20.0149 10.5625ZM27 5.10626V22.9375C26.994 25.7375 24.7821 28.0062 22.0761 28H4.8817C2.18171 27.9937 -0.00601436 25.6937 1.24222e-05 22.8937V5.06251C0.0060392 2.26251 2.22389 -0.00623711 4.92389 1.28823e-05H22.1183C24.8183 0.00626288 27.006 2.30001 27 5.10626ZM23.2875 12.7688C23.2875 8.20626 18.8759 4.49376 13.4578 4.49376C8.03974 4.49376 3.62813 8.20626 3.62813 12.7688C3.62813 16.8562 7.12367 20.2812 11.8487 20.9312C12.9998 21.1875 12.8672 21.625 12.608 23.2312C12.5658 23.4875 12.4092 24.2375 13.4578 23.7812C14.5065 23.325 19.117 20.325 21.1841 17.8625C22.6065 16.2375 23.2875 14.5938 23.2875 12.7688Z" fill="white"/>
</svg>