<svg width="249" height="292" viewBox="0 0 249 292" fill="none" xmlns="http://www.w3.org/2000/svg">
<path d="M117.719 164.808C117.613 164.808 117.506 164.755 117.427 164.675L104.712 149.322C104.633 149.216 104.606 149.07 104.646 148.951L111.421 130.111C111.461 129.979 111.58 129.886 111.713 129.873L131.202 126.386C131.335 126.359 131.467 126.412 131.547 126.518L144.261 141.871C144.341 141.977 144.367 142.123 144.328 142.242L137.553 161.082C137.513 161.215 137.394 161.308 137.261 161.321L117.772 164.808C117.772 164.808 117.732 164.808 117.705 164.808H117.719ZM105.428 149.004L117.864 164.025L136.93 160.618L143.559 142.189L131.122 127.168L112.057 130.575L105.428 149.004Z" fill="url(#paint0_linear_1_1122)"/>
<path d="M115.597 165.299C115.478 165.299 115.359 165.232 115.292 165.14L103.214 147.679C103.135 147.573 103.121 147.427 103.188 147.308L112.084 127.977C112.137 127.858 112.256 127.778 112.389 127.765L133.363 125.909C133.496 125.909 133.628 125.962 133.694 126.068L145.773 143.529C145.852 143.635 145.865 143.781 145.799 143.9L136.903 163.231C136.85 163.35 136.731 163.429 136.598 163.443L115.624 165.299H115.597ZM103.943 147.414L115.77 164.517L136.32 162.687L145.043 143.754L133.217 126.651L112.667 128.481L103.943 147.414Z" fill="url(#paint1_linear_1_1122)"/>
<path d="M135.696 165.616H113.303C113.171 165.616 113.052 165.55 112.985 165.43L101.782 145.782C101.716 145.663 101.716 145.517 101.782 145.397L112.985 125.749C113.052 125.63 113.171 125.563 113.303 125.563H135.696C135.829 125.563 135.948 125.63 136.015 125.749L147.218 145.397C147.284 145.517 147.284 145.663 147.218 145.782L136.015 165.43C135.948 165.55 135.829 165.616 135.696 165.616ZM113.516 164.86H135.484L146.462 145.596L135.484 126.332H113.516L102.538 145.596L113.516 164.86Z" fill="url(#paint2_linear_1_1122)"/>
<path d="M134.57 167.844H134.543L110.811 165.736C110.678 165.736 110.559 165.643 110.506 165.524L100.43 143.648C100.377 143.529 100.39 143.383 100.457 143.277L114.126 123.509C114.205 123.403 114.338 123.337 114.457 123.35L138.189 125.458C138.322 125.458 138.441 125.551 138.494 125.67L148.57 147.546C148.623 147.665 148.61 147.811 148.544 147.917L134.874 167.685C134.808 167.791 134.689 167.844 134.57 167.844ZM111.076 164.993L134.384 167.062L147.801 147.652L137.911 126.174L114.603 124.105L101.186 143.515L111.076 164.993Z" fill="url(#paint3_linear_1_1122)"/>
<path d="M133.164 170.097C133.164 170.097 133.124 170.097 133.098 170.097L108.133 165.629C108 165.603 107.894 165.51 107.841 165.391L99.1704 141.261C99.1307 141.128 99.1439 140.996 99.2367 140.89L115.518 121.228C115.597 121.122 115.73 121.069 115.862 121.095L140.827 125.563C140.96 125.59 141.066 125.683 141.119 125.802L149.79 149.932C149.83 150.064 149.816 150.197 149.723 150.303L133.443 169.965C133.376 170.058 133.27 170.097 133.151 170.097H133.164ZM108.478 164.913L133.018 169.302L149.021 149.972L140.496 126.253L115.955 121.864L99.9526 141.195L108.478 164.913Z" fill="url(#paint4_linear_1_1122)"/>
<path d="M131.48 172.352C131.48 172.352 131.414 172.352 131.388 172.352L105.335 165.272C105.203 165.232 105.11 165.139 105.07 165.007L98.0832 138.623C98.0435 138.49 98.0832 138.358 98.176 138.252L117.228 118.948C117.321 118.855 117.453 118.815 117.586 118.855L143.638 125.935C143.771 125.975 143.863 126.068 143.903 126.2L150.89 152.584C150.93 152.716 150.89 152.849 150.797 152.955L131.746 172.259C131.679 172.325 131.573 172.365 131.48 172.365V172.352ZM105.746 164.582L131.374 171.556L150.121 152.557L143.24 126.598L117.612 119.624L98.8655 138.623L105.746 164.582Z" fill="url(#paint5_linear_1_1122)"/>
<path d="M129.492 174.593C129.492 174.593 129.412 174.593 129.359 174.566L102.405 164.609C102.286 164.569 102.193 164.45 102.167 164.318L97.1685 135.693C97.142 135.561 97.195 135.428 97.301 135.335L119.256 116.668C119.362 116.575 119.495 116.562 119.628 116.602L146.581 126.558C146.701 126.598 146.793 126.718 146.82 126.85L151.818 155.474C151.845 155.607 151.792 155.74 151.686 155.832L129.73 174.5C129.664 174.553 129.571 174.593 129.492 174.593ZM102.869 163.973L129.425 173.784L151.049 155.395L146.131 127.208L119.575 117.397L97.9507 135.786L102.869 163.973Z" fill="url(#paint6_linear_1_1122)"/>
<path d="M127.171 176.767C127.171 176.767 127.065 176.767 127.012 176.727L99.3561 163.642C99.2367 163.589 99.1572 163.469 99.1439 163.337L96.4658 132.538C96.4658 132.406 96.5188 132.273 96.6249 132.194L121.603 114.481C121.709 114.401 121.855 114.388 121.974 114.454L149.631 127.54C149.75 127.593 149.83 127.712 149.843 127.845L152.521 158.643C152.521 158.776 152.468 158.909 152.362 158.988L127.384 176.701C127.384 176.701 127.251 176.767 127.171 176.767ZM99.8731 163.058L127.145 175.958L151.765 158.498L149.127 128.137L121.855 115.237L97.2348 132.697L99.8731 163.058Z" fill="url(#paint7_linear_1_1122)"/>
<path d="M124.52 178.861C124.52 178.861 124.387 178.848 124.334 178.808L96.2139 162.342C96.0946 162.275 96.0283 162.143 96.0283 162.01L96.0018 129.117C96.0018 128.984 96.0681 128.852 96.1874 128.786L124.281 112.359C124.401 112.293 124.533 112.293 124.652 112.359L152.773 128.825C152.892 128.892 152.959 129.024 152.959 129.157L152.985 162.05C152.985 162.183 152.919 162.315 152.799 162.382L124.706 178.808C124.706 178.808 124.586 178.861 124.52 178.861ZM96.7708 161.798L124.507 178.053L152.229 161.851L152.203 129.395L124.467 113.141L96.7442 129.342L96.7708 161.798Z" fill="url(#paint8_linear_1_1122)"/>
<path d="M121.51 180.837C121.431 180.837 121.364 180.811 121.298 180.771L93.0054 160.672C92.8993 160.592 92.833 160.46 92.8463 160.327L95.8294 125.472C95.8294 125.339 95.9222 125.22 96.0415 125.167L127.317 110.397C127.437 110.344 127.582 110.357 127.689 110.424L155.981 130.523C156.087 130.602 156.154 130.735 156.14 130.868L153.157 165.723C153.157 165.856 153.064 165.975 152.945 166.028L121.669 180.798C121.669 180.798 121.563 180.837 121.51 180.837ZM93.6152 160.168L121.55 180.015L152.428 165.431L155.371 131L127.437 111.153L96.5585 125.737L93.6152 160.168Z" fill="url(#paint9_linear_1_1122)"/>
<path d="M118.143 182.64C118.05 182.64 117.97 182.614 117.904 182.548L89.7572 158.59C89.6511 158.497 89.6114 158.365 89.6246 158.232L95.962 121.574C95.9885 121.441 96.0813 121.335 96.2006 121.282L130.685 108.581C130.804 108.541 130.95 108.554 131.056 108.647L159.203 132.604C159.309 132.697 159.349 132.83 159.336 132.962L152.998 169.621C152.972 169.754 152.879 169.86 152.76 169.913L118.275 182.614C118.275 182.614 118.196 182.64 118.143 182.64ZM90.4068 158.153L118.222 181.832L152.309 169.276L158.58 133.042L130.764 109.363L96.6779 121.918L90.4068 158.153Z" fill="url(#paint10_linear_1_1122)"/>
<path d="M114.417 184.231C114.324 184.231 114.218 184.191 114.152 184.125L86.5091 156.084C86.4162 155.991 86.3765 155.845 86.4162 155.713L96.4924 117.45C96.5322 117.318 96.6249 117.211 96.7575 117.185L134.464 106.963C134.596 106.923 134.729 106.963 134.821 107.056L162.465 135.097C162.557 135.189 162.597 135.335 162.557 135.468L152.481 173.731C152.441 173.863 152.349 173.969 152.216 173.996L114.51 184.218C114.51 184.218 114.444 184.218 114.417 184.218V184.231ZM87.1985 155.7L114.537 183.436L151.832 173.333L161.788 135.494L134.45 107.758L97.1553 117.861L87.1985 155.7Z" fill="url(#paint11_linear_1_1122)"/>
<path d="M110.32 185.569C110.214 185.569 110.108 185.516 110.029 185.437L83.3005 153.127C83.221 153.021 83.1945 152.888 83.2343 152.756L97.4071 113.154C97.4469 113.021 97.5662 112.928 97.6988 112.915L138.6 105.636C138.733 105.61 138.865 105.663 138.945 105.769L165.673 138.079C165.753 138.185 165.779 138.318 165.739 138.45L151.566 178.052C151.527 178.185 151.407 178.277 151.275 178.291L110.374 185.569C110.374 185.569 110.334 185.569 110.307 185.569H110.32ZM84.0165 152.795L110.466 184.774L150.943 177.561L164.97 138.371L138.52 106.392L98.0435 113.604L84.0165 152.795Z" fill="url(#paint12_linear_1_1122)"/>
<path d="M105.853 186.604C105.733 186.604 105.614 186.538 105.548 186.445L80.1716 149.681C80.0921 149.575 80.0788 149.429 80.1451 149.309L98.786 108.673C98.839 108.554 98.9583 108.475 99.0909 108.461L143.108 104.59C143.24 104.59 143.373 104.643 143.439 104.749L168.815 141.514C168.895 141.62 168.908 141.766 168.842 141.885L150.201 182.521C150.148 182.64 150.028 182.733 149.896 182.733L105.879 186.604H105.853ZM80.9141 149.429L106.038 185.835L149.617 182.004L168.073 141.766L142.949 105.359L99.3693 109.191L80.9141 149.429Z" fill="url(#paint13_linear_1_1122)"/>
<path d="M148.026 187.321L101.027 187.281C100.894 187.281 100.775 187.215 100.708 187.095L77.1753 145.743C77.109 145.624 77.109 145.478 77.1753 145.359L100.642 104.047C100.708 103.927 100.828 103.861 100.96 103.861L147.96 103.901C148.093 103.901 148.212 103.967 148.278 104.086L171.811 145.438C171.878 145.558 171.878 145.704 171.811 145.823L148.345 187.135C148.278 187.254 148.159 187.321 148.026 187.321ZM101.239 186.525L147.801 186.565L171.056 145.637L147.735 104.67L101.172 104.63L77.9177 145.558L101.239 186.525Z" fill="url(#paint14_linear_1_1122)"/>
<path d="M145.653 192H145.627L95.8294 187.546C95.6968 187.546 95.5775 187.453 95.5245 187.334L74.3646 141.302C74.3115 141.182 74.3248 141.036 74.3911 140.93L103.042 99.3531C103.121 99.247 103.254 99.1806 103.386 99.1939L153.184 103.649C153.316 103.649 153.436 103.741 153.489 103.861L174.649 149.893C174.702 150.012 174.688 150.158 174.622 150.264L145.971 191.841C145.905 191.947 145.786 192 145.667 192H145.653ZM96.0945 186.803L145.468 191.232L173.866 150.012L152.892 104.378L103.519 99.9629L75.1203 141.182L96.0945 186.817V186.803Z" fill="url(#paint15_linear_1_1122)"/>
<path d="M142.71 196.747C142.71 196.747 142.67 196.747 142.644 196.747L90.2742 187.333C90.1416 187.307 90.0356 187.214 89.9825 187.095L71.766 136.316C71.7262 136.184 71.7394 136.051 71.8322 135.945L105.985 94.5798C106.065 94.4737 106.197 94.4207 106.33 94.4473L158.699 103.86C158.832 103.887 158.938 103.98 158.991 104.099L177.207 154.878C177.247 155.01 177.234 155.143 177.141 155.249L142.988 196.614C142.922 196.707 142.816 196.747 142.697 196.747H142.71ZM90.6189 186.617L142.564 195.951L176.438 154.917L158.368 104.55L106.423 95.2162L72.5482 136.25L90.6189 186.617Z" fill="url(#paint16_linear_1_1122)"/>
<path d="M139.157 201.493C139.157 201.493 139.091 201.493 139.064 201.493L84.4142 186.591C84.2816 186.552 84.1888 186.459 84.1491 186.326L69.4856 130.801C69.4459 130.669 69.4856 130.536 69.5784 130.43L109.552 89.8073C109.644 89.7145 109.777 89.6747 109.91 89.7145L164.559 104.617C164.692 104.656 164.785 104.749 164.825 104.882L179.488 160.407C179.528 160.539 179.488 160.672 179.395 160.778L139.422 201.401C139.356 201.467 139.25 201.507 139.157 201.507V201.493ZM84.812 185.902L139.038 200.685L178.706 160.367L164.148 105.266L109.923 90.4835L70.2546 130.801L84.812 185.902Z" fill="url(#paint17_linear_1_1122)"/>
<path d="M134.954 206.187C134.954 206.187 134.861 206.187 134.821 206.16L78.2756 185.226C78.1563 185.173 78.0635 185.067 78.0369 184.934L67.5763 124.716C67.5498 124.583 67.6029 124.451 67.7089 124.358L113.794 85.0609C113.9 84.9681 114.033 84.9548 114.165 84.9946L170.711 105.929C170.83 105.969 170.923 106.088 170.95 106.221L181.41 166.439C181.437 166.572 181.384 166.704 181.278 166.797L135.193 206.094C135.126 206.147 135.033 206.187 134.954 206.187ZM78.7396 184.603L134.888 205.378L180.641 166.373L170.247 106.579L114.099 85.8033L68.3453 124.809L78.7396 184.603Z" fill="url(#paint18_linear_1_1122)"/>
<path d="M130.075 210.774C130.075 210.774 129.969 210.774 129.916 210.734L71.8985 183.237C71.7792 183.184 71.6997 183.064 71.6864 182.932L66.0915 118.126C66.0915 117.994 66.1445 117.861 66.2506 117.781L118.673 80.4732C118.779 80.3937 118.925 80.3805 119.044 80.4468L177.062 107.944C177.181 107.997 177.26 108.116 177.274 108.249L182.869 173.054C182.869 173.187 182.816 173.32 182.71 173.399L130.287 210.707C130.287 210.707 130.155 210.774 130.075 210.774ZM72.4156 182.653L130.035 209.965L182.113 172.909L176.558 108.541L118.938 81.2289L66.8604 118.285L72.4156 182.653Z" fill="url(#paint19_linear_1_1122)"/>
<path d="M124.493 215.176C124.493 215.176 124.361 215.162 124.308 215.123L65.3358 180.519C65.2165 180.453 65.1502 180.32 65.1502 180.188V110.98C65.1502 110.848 65.2165 110.715 65.3358 110.649L124.308 76.0454C124.427 75.9792 124.56 75.9792 124.679 76.0454L183.651 110.649C183.77 110.715 183.837 110.848 183.837 110.98V180.188C183.837 180.32 183.77 180.453 183.651 180.519L124.679 215.123C124.679 215.123 124.56 215.176 124.493 215.176ZM65.8927 179.976L124.493 214.354L183.094 179.976V111.206L124.493 76.8276L65.8927 111.206V179.976Z" fill="url(#paint20_linear_1_1122)"/>
<path d="M118.169 219.312C118.09 219.312 118.023 219.285 117.957 219.246L58.6273 177.032C58.5212 176.952 58.4549 176.82 58.4682 176.687L64.7923 103.344C64.7923 103.211 64.8851 103.092 65.0044 103.039L130.658 71.9087C130.778 71.8556 130.924 71.8688 131.03 71.9351L190.36 114.149C190.466 114.228 190.532 114.361 190.519 114.494L184.195 187.837C184.195 187.97 184.102 188.089 183.982 188.142L118.328 219.272C118.328 219.272 118.222 219.312 118.169 219.312ZM59.2239 176.528L118.209 218.49L183.479 187.546L189.763 114.639L130.778 72.6776L65.5082 103.622L59.2239 176.528Z" fill="url(#paint21_linear_1_1122)"/>
<path d="M111.089 223.104C110.997 223.104 110.917 223.077 110.851 223.011L51.8258 172.684C51.7198 172.591 51.68 172.458 51.6933 172.326L65.0972 95.1901C65.1237 95.0575 65.2165 94.9514 65.3358 94.8983L137.765 68.0905C137.884 68.0508 138.03 68.064 138.136 68.1568L197.161 118.485C197.267 118.577 197.307 118.71 197.294 118.842L183.89 195.978C183.863 196.111 183.77 196.217 183.651 196.27L111.222 223.077C111.222 223.077 111.143 223.104 111.089 223.104ZM52.4755 172.259L111.169 222.309L183.187 195.646L196.525 118.949L137.831 68.8993L65.8131 95.5612L52.4755 172.259Z" fill="url(#paint22_linear_1_1122)"/>
<path d="M103.241 226.458C103.148 226.458 103.042 226.418 102.975 226.352L45.0244 167.473C44.9316 167.38 44.8918 167.234 44.9316 167.102L66.1843 86.625C66.2241 86.4924 66.3169 86.3863 66.4495 86.3598L145.653 64.7624C145.786 64.7227 145.918 64.7624 146.011 64.8552L203.962 123.734C204.055 123.827 204.095 123.973 204.055 124.106L182.802 204.595C182.763 204.728 182.67 204.834 182.537 204.861L103.333 226.458C103.333 226.458 103.267 226.458 103.241 226.458ZM45.7006 167.075L103.347 225.649L182.14 204.158L203.286 124.092L145.64 65.5181L66.8472 87.0094L45.7006 167.075Z" fill="url(#paint23_linear_1_1122)"/>
<path d="M94.6096 229.268C94.5035 229.268 94.3975 229.215 94.3179 229.136L38.2893 161.281C38.2097 161.175 38.1832 161.029 38.223 160.91L68.1067 77.6092C68.1465 77.4766 68.2658 77.3838 68.3984 77.3705L154.311 61.9248C154.443 61.8983 154.576 61.9514 154.655 62.0575L210.684 129.912C210.764 130.018 210.79 130.151 210.75 130.283L180.867 213.584C180.827 213.717 180.708 213.809 180.575 213.823L94.6626 229.268C94.6626 229.268 94.6229 229.268 94.5964 229.268H94.6096ZM39.0052 160.949L94.7687 228.473L180.257 213.107L209.995 130.217L154.231 62.6938L68.7431 78.0599L39.0052 160.949Z" fill="url(#paint24_linear_1_1122)"/>
<path d="M85.2096 231.43C85.0902 231.43 84.9709 231.363 84.9047 231.271L31.7265 154.082C31.6469 153.976 31.6337 153.83 31.7 153.711L70.9837 68.2491C71.0367 68.1298 71.156 68.0502 71.2886 68.037L163.75 59.7507C163.883 59.7507 164.016 59.8038 164.095 59.9098L217.273 137.098C217.353 137.204 217.366 137.35 217.3 137.47L178.016 222.931C177.963 223.05 177.844 223.13 177.711 223.143L85.2493 231.43H85.2228H85.2096ZM32.4557 153.83L85.3952 230.661L177.433 222.414L216.531 137.35L163.591 60.5197L71.5538 68.7662L32.4557 153.83Z" fill="url(#paint25_linear_1_1122)"/>
<path d="M75.0539 232.848C74.9213 232.848 74.802 232.781 74.7357 232.662L25.4289 145.861C25.3626 145.742 25.3626 145.596 25.4289 145.477L74.8683 58.5968C74.9346 58.4774 75.0539 58.4112 75.1865 58.4112L173.933 58.3317C174.065 58.3317 174.185 58.3979 174.251 58.5172L223.558 145.318C223.624 145.437 223.624 145.583 223.558 145.702L174.118 232.583C174.052 232.702 173.933 232.768 173.8 232.768L75.0539 232.848ZM26.1714 145.676L75.266 232.092L173.588 232.013L222.815 145.517L173.721 59.1006L75.3986 59.1801L26.1714 145.676Z" fill="url(#paint26_linear_1_1122)"/>
<path d="M168.815 242.593H168.789L64.1293 233.392C63.9968 233.392 63.8774 233.299 63.8244 233.18L19.5026 136.555C19.4496 136.436 19.4628 136.29 19.5291 136.184L79.8667 48.76C79.9462 48.6539 80.0655 48.5876 80.1981 48.6009L184.857 57.802C184.99 57.802 185.109 57.8947 185.162 58.0141L229.484 154.639C229.537 154.758 229.524 154.904 229.458 155.01L169.12 242.434C169.054 242.54 168.934 242.593 168.815 242.593ZM64.4077 232.65L168.643 241.824L228.728 154.758L184.592 58.5312L80.3572 49.3566L20.2716 136.422L64.4077 232.65Z" fill="url(#paint27_linear_1_1122)"/>
<path d="M162.637 252.55C162.637 252.55 162.597 252.55 162.57 252.55L52.5019 232.954C52.3694 232.928 52.2633 232.835 52.2103 232.715L14.0667 126.147C14.027 126.014 14.0402 125.882 14.133 125.776L86.0714 38.8027C86.1509 38.6966 86.2968 38.6436 86.4161 38.6702L196.485 58.2788C196.617 58.3053 196.723 58.3981 196.776 58.5175L234.92 165.086C234.96 165.218 234.946 165.351 234.854 165.457L162.915 252.43C162.849 252.523 162.743 252.563 162.624 252.563L162.637 252.55ZM52.8334 232.225L162.478 251.754L234.138 165.112L196.14 58.955L86.4956 39.4259L14.8357 126.067L52.8334 232.225Z" fill="url(#paint28_linear_1_1122)"/>
<path d="M155.173 262.507C155.173 262.507 155.106 262.507 155.08 262.507L40.2117 231.377C40.0791 231.337 39.9864 231.244 39.9466 231.111L9.26737 114.573C9.2276 114.44 9.26738 114.308 9.36019 114.202L93.5357 28.793C93.6285 28.7002 93.7744 28.6605 93.8937 28.7002L208.762 59.8302C208.894 59.87 208.987 59.9628 209.027 60.0954L239.706 176.634C239.746 176.766 239.706 176.899 239.613 177.005L155.438 262.414C155.371 262.48 155.265 262.52 155.173 262.52V262.507ZM40.6227 230.687L155.066 261.698L238.937 176.607L208.364 60.4931L93.9202 29.4825L10.0496 114.573L40.6227 230.687Z" fill="url(#paint29_linear_1_1122)"/>
<path d="M146.356 272.357C146.356 272.357 146.276 272.357 146.223 272.331L27.3381 228.539C27.2188 228.499 27.126 228.38 27.0995 228.248L5.23686 101.858C5.21034 101.726 5.26338 101.593 5.36945 101.5L102.392 18.9025C102.498 18.8097 102.631 18.7964 102.763 18.8362L221.649 62.6277C221.768 62.6675 221.861 62.7867 221.887 62.9193L243.75 189.309C243.776 189.441 243.723 189.574 243.617 189.667L146.595 272.251C146.528 272.304 146.435 272.344 146.356 272.344V272.357ZM27.8021 227.903L146.276 271.548L242.968 189.242L221.171 63.2906L102.697 19.6449L6.00585 101.951L27.8021 227.903Z" fill="url(#paint30_linear_1_1122)"/>
<path d="M136.121 281.969C136.121 281.969 136.015 281.969 135.962 281.93L13.974 224.336C13.8547 224.283 13.7751 224.164 13.7619 224.032L2.13452 88.0301C2.13452 87.8975 2.18755 87.7649 2.29361 87.6854L112.654 9.27717C112.76 9.19762 112.906 9.18433 113.025 9.25062L235.013 66.8437C235.132 66.8968 235.212 67.0161 235.225 67.1486L246.852 203.15C246.852 203.283 246.799 203.415 246.693 203.495L136.333 281.903C136.333 281.903 136.2 281.969 136.121 281.969ZM14.4778 223.74L136.081 281.147L246.096 202.991L234.509 67.4271L112.906 10.0196L2.89024 88.1759L14.4778 223.74Z" fill="url(#paint31_linear_1_1122)"/>
<path d="M124.387 291.197C124.387 291.197 124.255 291.184 124.202 291.144L0.185592 218.636C0.0662694 218.569 0 218.437 0 218.304L0.106047 73.0884C0.106047 72.9559 0.172357 72.8233 0.291679 72.757L124.427 0.0497178C124.546 -0.0165726 124.679 -0.0165726 124.798 0.0497178L248.814 72.5582C248.934 72.6245 249 72.757 249 72.8896L248.894 218.105C248.894 218.238 248.828 218.37 248.708 218.437L124.573 291.144C124.573 291.144 124.454 291.197 124.387 291.197ZM0.742449 218.079L124.387 290.375L248.138 217.88L248.244 73.1017L124.599 0.805438L0.848496 73.3006L0.742449 218.079Z" fill="url(#paint32_linear_1_1122)"/>
<defs>
<linearGradient id="paint0_linear_1_1122" x1="104.633" y1="145.597" x2="144.354" y2="145.597" gradientUnits="userSpaceOnUse">
<stop stop-color="#83A4D4"/>
<stop offset="0.95" stop-color="#B4F7FD"/>
<stop offset="1" stop-color="#B6FBFF"/>
</linearGradient>
<linearGradient id="paint1_linear_1_1122" x1="103.148" y1="145.597" x2="145.839" y2="145.597" gradientUnits="userSpaceOnUse">
<stop stop-color="#83A4D4"/>
<stop offset="0.95" stop-color="#B4F7FD"/>
<stop offset="1" stop-color="#B6FBFF"/>
</linearGradient>
<linearGradient id="paint2_linear_1_1122" x1="101.729" y1="145.596" x2="147.257" y2="145.596" gradientUnits="userSpaceOnUse">
<stop stop-color="#83A4D4"/>
<stop offset="0.95" stop-color="#B4F7FD"/>
<stop offset="1" stop-color="#B6FBFF"/>
</linearGradient>
<linearGradient id="paint3_linear_1_1122" x1="100.39" y1="145.597" x2="148.597" y2="145.597" gradientUnits="userSpaceOnUse">
<stop stop-color="#83A4D4"/>
<stop offset="0.95" stop-color="#B4F7FD"/>
<stop offset="1" stop-color="#B6FBFF"/>
</linearGradient>
<linearGradient id="paint4_linear_1_1122" x1="99.1572" y1="145.596" x2="149.83" y2="145.596" gradientUnits="userSpaceOnUse">
<stop stop-color="#83A4D4"/>
<stop offset="0.95" stop-color="#B4F7FD"/>
<stop offset="1" stop-color="#B6FBFF"/>
</linearGradient>
<linearGradient id="paint5_linear_1_1122" x1="98.07" y1="145.597" x2="150.917" y2="145.597" gradientUnits="userSpaceOnUse">
<stop stop-color="#83A4D4"/>
<stop offset="0.95" stop-color="#B4F7FD"/>
<stop offset="1" stop-color="#B6FBFF"/>
</linearGradient>
<linearGradient id="paint6_linear_1_1122" x1="97.1685" y1="145.597" x2="151.818" y2="145.597" gradientUnits="userSpaceOnUse">
<stop stop-color="#83A4D4"/>
<stop offset="0.95" stop-color="#B4F7FD"/>
<stop offset="1" stop-color="#B6FBFF"/>
</linearGradient>
<linearGradient id="paint7_linear_1_1122" x1="96.4658" y1="145.597" x2="152.521" y2="145.597" gradientUnits="userSpaceOnUse">
<stop stop-color="#83A4D4"/>
<stop offset="0.95" stop-color="#B4F7FD"/>
<stop offset="1" stop-color="#B6FBFF"/>
</linearGradient>
<linearGradient id="paint8_linear_1_1122" x1="96.0018" y1="145.597" x2="152.985" y2="145.597" gradientUnits="userSpaceOnUse">
<stop stop-color="#83A4D4"/>
<stop offset="0.95" stop-color="#B4F7FD"/>
<stop offset="1" stop-color="#B6FBFF"/>
</linearGradient>
<linearGradient id="paint9_linear_1_1122" x1="92.8463" y1="145.597" x2="156.14" y2="145.597" gradientUnits="userSpaceOnUse">
<stop stop-color="#83A4D4"/>
<stop offset="0.95" stop-color="#B4F7FD"/>
<stop offset="1" stop-color="#B6FBFF"/>
</linearGradient>
<linearGradient id="paint10_linear_1_1122" x1="89.6246" y1="145.597" x2="159.349" y2="145.597" gradientUnits="userSpaceOnUse">
<stop stop-color="#83A4D4"/>
<stop offset="0.95" stop-color="#B4F7FD"/>
<stop offset="1" stop-color="#B6FBFF"/>
</linearGradient>
<linearGradient id="paint11_linear_1_1122" x1="86.403" y1="145.597" x2="162.584" y2="145.597" gradientUnits="userSpaceOnUse">
<stop stop-color="#83A4D4"/>
<stop offset="0.95" stop-color="#B4F7FD"/>
<stop offset="1" stop-color="#B6FBFF"/>
</linearGradient>
<linearGradient id="paint12_linear_1_1122" x1="83.221" y1="145.596" x2="165.766" y2="145.596" gradientUnits="userSpaceOnUse">
<stop stop-color="#83A4D4"/>
<stop offset="0.95" stop-color="#B4F7FD"/>
<stop offset="1" stop-color="#B6FBFF"/>
</linearGradient>
<linearGradient id="paint13_linear_1_1122" x1="80.1053" y1="145.597" x2="168.881" y2="145.597" gradientUnits="userSpaceOnUse">
<stop stop-color="#83A4D4"/>
<stop offset="0.95" stop-color="#B4F7FD"/>
<stop offset="1" stop-color="#B6FBFF"/>
</linearGradient>
<linearGradient id="paint14_linear_1_1122" x1="77.1222" y1="145.597" x2="171.864" y2="145.597" gradientUnits="userSpaceOnUse">
<stop stop-color="#83A4D4"/>
<stop offset="0.95" stop-color="#B4F7FD"/>
<stop offset="1" stop-color="#B6FBFF"/>
</linearGradient>
<linearGradient id="paint15_linear_1_1122" x1="74.3115" y1="145.597" x2="174.662" y2="145.597" gradientUnits="userSpaceOnUse">
<stop stop-color="#83A4D4"/>
<stop offset="0.95" stop-color="#B4F7FD"/>
<stop offset="1" stop-color="#B6FBFF"/>
</linearGradient>
<linearGradient id="paint16_linear_1_1122" x1="71.7527" y1="145.597" x2="177.234" y2="145.597" gradientUnits="userSpaceOnUse">
<stop stop-color="#83A4D4"/>
<stop offset="0.95" stop-color="#B4F7FD"/>
<stop offset="1" stop-color="#B6FBFF"/>
</linearGradient>
<linearGradient id="paint17_linear_1_1122" x1="69.4724" y1="145.597" x2="179.514" y2="145.597" gradientUnits="userSpaceOnUse">
<stop stop-color="#83A4D4"/>
<stop offset="0.95" stop-color="#B4F7FD"/>
<stop offset="1" stop-color="#B6FBFF"/>
</linearGradient>
<linearGradient id="paint18_linear_1_1122" x1="67.5763" y1="145.597" x2="181.41" y2="145.597" gradientUnits="userSpaceOnUse">
<stop stop-color="#83A4D4"/>
<stop offset="0.95" stop-color="#B4F7FD"/>
<stop offset="1" stop-color="#B6FBFF"/>
</linearGradient>
<linearGradient id="paint19_linear_1_1122" x1="66.1047" y1="145.597" x2="182.882" y2="145.597" gradientUnits="userSpaceOnUse">
<stop stop-color="#83A4D4"/>
<stop offset="0.95" stop-color="#B4F7FD"/>
<stop offset="1" stop-color="#B6FBFF"/>
</linearGradient>
<linearGradient id="paint20_linear_1_1122" x1="65.1502" y1="145.597" x2="183.837" y2="145.597" gradientUnits="userSpaceOnUse">
<stop stop-color="#83A4D4"/>
<stop offset="0.95" stop-color="#B4F7FD"/>
<stop offset="1" stop-color="#B6FBFF"/>
</linearGradient>
<linearGradient id="paint21_linear_1_1122" x1="58.4682" y1="145.597" x2="190.519" y2="145.597" gradientUnits="userSpaceOnUse">
<stop stop-color="#83A4D4"/>
<stop offset="0.95" stop-color="#B4F7FD"/>
<stop offset="1" stop-color="#B6FBFF"/>
</linearGradient>
<linearGradient id="paint22_linear_1_1122" x1="51.6933" y1="145.597" x2="197.293" y2="145.597" gradientUnits="userSpaceOnUse">
<stop stop-color="#83A4D4"/>
<stop offset="0.95" stop-color="#B4F7FD"/>
<stop offset="1" stop-color="#B6FBFF"/>
</linearGradient>
<linearGradient id="paint23_linear_1_1122" x1="44.9184" y1="145.597" x2="204.068" y2="145.597" gradientUnits="userSpaceOnUse">
<stop stop-color="#83A4D4"/>
<stop offset="0.95" stop-color="#B4F7FD"/>
<stop offset="1" stop-color="#B6FBFF"/>
</linearGradient>
<linearGradient id="paint24_linear_1_1122" x1="38.2097" y1="145.597" x2="210.777" y2="145.597" gradientUnits="userSpaceOnUse">
<stop stop-color="#83A4D4"/>
<stop offset="0.95" stop-color="#B4F7FD"/>
<stop offset="1" stop-color="#B6FBFF"/>
</linearGradient>
<linearGradient id="paint25_linear_1_1122" x1="31.6602" y1="145.597" x2="217.326" y2="145.597" gradientUnits="userSpaceOnUse">
<stop stop-color="#83A4D4"/>
<stop offset="0.95" stop-color="#B4F7FD"/>
<stop offset="1" stop-color="#B6FBFF"/>
</linearGradient>
<linearGradient id="paint26_linear_1_1122" x1="25.3759" y1="145.596" x2="223.611" y2="145.596" gradientUnits="userSpaceOnUse">
<stop stop-color="#83A4D4"/>
<stop offset="0.95" stop-color="#B4F7FD"/>
<stop offset="1" stop-color="#B6FBFF"/>
</linearGradient>
<linearGradient id="paint27_linear_1_1122" x1="19.4629" y1="145.597" x2="229.524" y2="145.597" gradientUnits="userSpaceOnUse">
<stop stop-color="#83A4D4"/>
<stop offset="0.95" stop-color="#B4F7FD"/>
<stop offset="1" stop-color="#B6FBFF"/>
</linearGradient>
<linearGradient id="paint28_linear_1_1122" x1="14.0402" y1="145.597" x2="234.933" y2="145.597" gradientUnits="userSpaceOnUse">
<stop stop-color="#83A4D4"/>
<stop offset="0.95" stop-color="#B4F7FD"/>
<stop offset="1" stop-color="#B6FBFF"/>
</linearGradient>
<linearGradient id="paint29_linear_1_1122" x1="9.25411" y1="145.597" x2="239.733" y2="145.597" gradientUnits="userSpaceOnUse">
<stop stop-color="#83A4D4"/>
<stop offset="0.95" stop-color="#B4F7FD"/>
<stop offset="1" stop-color="#B6FBFF"/>
</linearGradient>
<linearGradient id="paint30_linear_1_1122" x1="5.23686" y1="145.597" x2="243.75" y2="145.597" gradientUnits="userSpaceOnUse">
<stop stop-color="#83A4D4"/>
<stop offset="0.95" stop-color="#B4F7FD"/>
<stop offset="1" stop-color="#B6FBFF"/>
</linearGradient>
<linearGradient id="paint31_linear_1_1122" x1="2.13452" y1="145.597" x2="246.852" y2="145.597" gradientUnits="userSpaceOnUse">
<stop stop-color="#83A4D4"/>
<stop offset="0.95" stop-color="#B4F7FD"/>
<stop offset="1" stop-color="#B6FBFF"/>
</linearGradient>
<linearGradient id="paint32_linear_1_1122" x1="-0.0132581" y1="145.597" x2="249" y2="145.597" gradientUnits="userSpaceOnUse">
<stop stop-color="#83A4D4"/>
<stop offset="0.95" stop-color="#B4F7FD"/>
<stop offset="1" stop-color="#B6FBFF"/>
</linearGradient>
</defs>
</svg>
