<svg width="264" height="274" viewBox="0 0 264 274" fill="none" xmlns="http://www.w3.org/2000/svg">
<path d="M166.159 269.174L4.49512 172.352L97.8293 4.6709L259.493 101.494L166.159 269.186V269.174ZM5.45504 172.094L165.913 268.191L258.556 101.751L98.0868 5.65423L5.44332 172.094H5.45504Z" fill="url(#paint0_linear_1_1178)"/>
<path d="M159.439 270.847L159.147 270.648L2.87964 165.386L3.06698 165.081L104.549 2.99609L104.841 3.1951L261.108 108.458L260.921 108.762L159.439 270.859V270.847ZM3.85128 165.175L159.24 269.852L260.149 108.669L104.759 3.99113L3.85128 165.175Z" fill="url(#paint1_linear_1_1178)"/>
<path d="M152.65 272.16L152.369 271.949L1.6272 158.34L111.35 1.68652L111.631 1.89724L262.373 115.507L152.65 272.16ZM2.59877 158.188L152.486 271.153L261.389 115.671L111.502 2.70497L2.59877 158.188Z" fill="url(#paint2_linear_1_1178)"/>
<path d="M145.802 273.096L0.72583 151.233L0.948252 150.952L118.198 0.749023L263.274 122.611L263.052 122.892L145.79 273.096H145.802ZM1.70912 151.128L145.696 272.077L262.291 122.717L118.304 1.76747L1.70912 151.128Z" fill="url(#paint3_linear_1_1178)"/>
<path d="M138.907 273.658L0.175476 144.093L125.093 0.1875L263.824 129.753L138.918 273.658H138.907ZM1.17055 144.034L138.86 272.628L262.829 129.799L125.14 1.21765L1.17055 144.046V144.034Z" fill="url(#paint4_linear_1_1178)"/>
<path d="M132 273.845L0 136.928L132 0L264 136.928L132 273.845ZM0.983287 136.928L132 272.826L263.005 136.928L132 1.03015L0.983287 136.928Z" fill="url(#paint5_linear_1_1178)"/>
<path d="M125.093 273.658L0.187195 129.753L138.907 0.1875L263.813 144.093L125.081 273.658H125.093ZM1.17055 129.811L125.14 272.639L262.829 144.046L138.86 1.21765L1.17055 129.811Z" fill="url(#paint6_linear_1_1178)"/>
<path d="M118.198 273.096L117.976 272.815L0.714111 122.611L145.802 0.749023L146.024 1.02997L263.286 151.233L118.21 273.096H118.198ZM1.70912 122.717L118.304 272.077L262.291 151.128L145.696 1.76747L1.70912 122.717Z" fill="url(#paint7_linear_1_1178)"/>
<path d="M111.35 272.16L111.139 271.867L1.61548 115.507L1.89642 115.296L152.65 1.68652L152.861 1.97918L262.385 158.34L262.104 158.551L111.362 272.16H111.35ZM2.59877 115.659L111.502 271.142L261.389 158.176L152.498 2.70497L2.61048 115.671L2.59877 115.659Z" fill="url(#paint8_linear_1_1178)"/>
<path d="M104.549 270.847L2.87964 108.446L159.439 2.99609L261.108 165.397L104.549 270.859V270.847ZM3.85128 108.669L104.759 269.852L260.149 165.175L159.24 3.99113L3.85128 108.669Z" fill="url(#paint9_linear_1_1178)"/>
<path d="M97.8293 269.174L4.49512 101.482L166.159 4.6709L259.493 172.363L97.8293 269.186V269.174ZM5.45504 101.751L98.0985 268.191L258.556 172.094L165.901 5.65423L5.44332 101.751H5.45504Z" fill="url(#paint10_linear_1_1178)"/>
<path d="M91.2036 267.149L91.0398 266.821L6.4502 94.6098L6.76622 94.4459L172.785 6.69568L172.949 7.02345L257.538 179.234L257.222 179.398L91.2036 267.149ZM7.3984 94.9259L91.508 266.165L256.59 178.918L172.48 7.67901L7.3984 94.9259Z" fill="url(#paint11_linear_1_1178)"/>
<path d="M84.6949 264.749L84.5544 264.421L8.76801 87.8551L179.305 9.09521L179.446 9.42299L255.232 185.989L84.6949 264.749ZM9.69278 88.2179L85.0461 263.789L254.307 185.614L178.954 10.0551L9.69278 88.2297V88.2179Z" fill="url(#paint12_linear_1_1178)"/>
<path d="M78.3033 262.01L11.4019 81.2303L185.685 11.8354L252.586 192.615L78.3033 262.01ZM12.315 81.6517L78.713 261.074L251.685 192.206L185.287 12.7837L12.315 81.6517Z" fill="url(#paint13_linear_1_1178)"/>
<path d="M72.0757 258.92L71.9703 258.58L14.3871 74.7683L191.925 14.9258L192.03 15.2653L249.613 199.077L72.0757 258.92ZM15.2651 75.2248L72.5205 258.007L248.735 198.621L191.48 15.8389L15.2651 75.2248Z" fill="url(#paint14_linear_1_1178)"/>
<path d="M66 255.501L17.6882 68.4582L198 18.3436L246.312 205.387L66 255.501ZM18.5427 68.9733L66.4916 254.611L245.457 204.871L197.508 19.2333L18.5427 68.9733Z" fill="url(#paint15_linear_1_1178)"/>
<path d="M60.1116 251.755L21.2936 62.3477L203.888 22.0898L242.706 211.497L60.1116 251.755ZM22.1247 62.9096L60.6501 250.901L241.875 210.947L203.35 22.9561L22.1247 62.9096Z" fill="url(#paint16_linear_1_1178)"/>
<path d="M54.4109 247.693L25.2037 56.4361L209.578 26.1403L238.785 217.397L54.4109 247.693ZM26.0114 57.0448L54.9962 246.862L237.989 216.8L209.004 26.9831L26.0114 57.0448Z" fill="url(#paint17_linear_1_1178)"/>
<path d="M48.9322 243.326L29.4178 50.746L215.068 30.5059L234.582 223.086L48.9322 243.326ZM30.1787 51.4016L49.5409 242.53L233.798 222.442L214.436 31.3136L30.1671 51.4016H30.1787Z" fill="url(#paint18_linear_1_1178)"/>
<path d="M43.6762 238.68L43.6527 238.317L33.9014 45.3037L220.324 35.166L220.347 35.5289L230.099 228.542L43.6762 238.68ZM34.6389 45.9943L44.3317 237.919L229.361 227.863L219.668 35.9386L34.6506 45.9943H34.6389Z" fill="url(#paint19_linear_1_1178)"/>
<path d="M225.334 233.739H38.6542V40.1055H225.334V233.739ZM39.3565 233.013H224.632V40.8313H39.3565V233.013Z" fill="url(#paint20_linear_1_1178)"/>
<defs>
<linearGradient id="paint0_linear_1_1178" x1="4.49512" y1="136.928" x2="259.505" y2="136.928" gradientUnits="userSpaceOnUse">
<stop stop-color="#83A4D4"/>
<stop offset="0.95" stop-color="#B4F7FD"/>
<stop offset="1" stop-color="#B6FBFF"/>
</linearGradient>
<linearGradient id="paint1_linear_1_1178" x1="2.87964" y1="136.928" x2="261.108" y2="136.928" gradientUnits="userSpaceOnUse">
<stop stop-color="#83A4D4"/>
<stop offset="0.95" stop-color="#B4F7FD"/>
<stop offset="1" stop-color="#B6FBFF"/>
</linearGradient>
<linearGradient id="paint2_linear_1_1178" x1="1.6272" y1="136.917" x2="262.373" y2="136.917" gradientUnits="userSpaceOnUse">
<stop stop-color="#83A4D4"/>
<stop offset="0.95" stop-color="#B4F7FD"/>
<stop offset="1" stop-color="#B6FBFF"/>
</linearGradient>
<linearGradient id="paint3_linear_1_1178" x1="0.72583" y1="136.928" x2="263.274" y2="136.928" gradientUnits="userSpaceOnUse">
<stop stop-color="#83A4D4"/>
<stop offset="0.95" stop-color="#B4F7FD"/>
<stop offset="1" stop-color="#B6FBFF"/>
</linearGradient>
<linearGradient id="paint4_linear_1_1178" x1="0.175476" y1="0.000204897" x2="263.813" y2="0.000204897" gradientUnits="userSpaceOnUse">
<stop stop-color="#83A4D4"/>
<stop offset="0.95" stop-color="#B4F7FD"/>
<stop offset="1" stop-color="#B6FBFF"/>
</linearGradient>
<linearGradient id="paint5_linear_1_1178" x1="0" y1="136.928" x2="264" y2="136.928" gradientUnits="userSpaceOnUse">
<stop stop-color="#83A4D4"/>
<stop offset="0.95" stop-color="#B4F7FD"/>
<stop offset="1" stop-color="#B6FBFF"/>
</linearGradient>
<linearGradient id="paint6_linear_1_1178" x1="0.175489" y1="0.000204897" x2="263.813" y2="0.000204897" gradientUnits="userSpaceOnUse">
<stop stop-color="#83A4D4"/>
<stop offset="0.95" stop-color="#B4F7FD"/>
<stop offset="1" stop-color="#B6FBFF"/>
</linearGradient>
<linearGradient id="paint7_linear_1_1178" x1="0.725818" y1="136.928" x2="263.274" y2="136.928" gradientUnits="userSpaceOnUse">
<stop stop-color="#83A4D4"/>
<stop offset="0.95" stop-color="#B4F7FD"/>
<stop offset="1" stop-color="#B6FBFF"/>
</linearGradient>
<linearGradient id="paint8_linear_1_1178" x1="1.62718" y1="136.917" x2="262.373" y2="136.917" gradientUnits="userSpaceOnUse">
<stop stop-color="#83A4D4"/>
<stop offset="0.95" stop-color="#B4F7FD"/>
<stop offset="1" stop-color="#B6FBFF"/>
</linearGradient>
<linearGradient id="paint9_linear_1_1178" x1="2.87964" y1="136.928" x2="261.108" y2="136.928" gradientUnits="userSpaceOnUse">
<stop stop-color="#83A4D4"/>
<stop offset="0.95" stop-color="#B4F7FD"/>
<stop offset="1" stop-color="#B6FBFF"/>
</linearGradient>
<linearGradient id="paint10_linear_1_1178" x1="4.49512" y1="136.928" x2="259.505" y2="136.928" gradientUnits="userSpaceOnUse">
<stop stop-color="#83A4D4"/>
<stop offset="0.95" stop-color="#B4F7FD"/>
<stop offset="1" stop-color="#B6FBFF"/>
</linearGradient>
<linearGradient id="paint11_linear_1_1178" x1="6.4619" y1="136.916" x2="257.538" y2="136.916" gradientUnits="userSpaceOnUse">
<stop stop-color="#83A4D4"/>
<stop offset="0.95" stop-color="#B4F7FD"/>
<stop offset="1" stop-color="#B6FBFF"/>
</linearGradient>
<linearGradient id="paint12_linear_1_1178" x1="8.76801" y1="136.928" x2="255.232" y2="136.928" gradientUnits="userSpaceOnUse">
<stop stop-color="#83A4D4"/>
<stop offset="0.95" stop-color="#B4F7FD"/>
<stop offset="1" stop-color="#B6FBFF"/>
</linearGradient>
<linearGradient id="paint13_linear_1_1178" x1="11.4136" y1="0.000398228" x2="252.586" y2="0.000398228" gradientUnits="userSpaceOnUse">
<stop stop-color="#83A4D4"/>
<stop offset="0.95" stop-color="#B4F7FD"/>
<stop offset="1" stop-color="#B6FBFF"/>
</linearGradient>
<linearGradient id="paint14_linear_1_1178" x1="14.3871" y1="136.917" x2="249.613" y2="136.917" gradientUnits="userSpaceOnUse">
<stop stop-color="#83A4D4"/>
<stop offset="0.95" stop-color="#B4F7FD"/>
<stop offset="1" stop-color="#B6FBFF"/>
</linearGradient>
<linearGradient id="paint15_linear_1_1178" x1="17.6882" y1="-0.000110166" x2="246.312" y2="-0.000110166" gradientUnits="userSpaceOnUse">
<stop stop-color="#83A4D4"/>
<stop offset="0.95" stop-color="#B4F7FD"/>
<stop offset="1" stop-color="#B6FBFF"/>
</linearGradient>
<linearGradient id="paint16_linear_1_1178" x1="21.2936" y1="136.928" x2="242.706" y2="136.928" gradientUnits="userSpaceOnUse">
<stop stop-color="#83A4D4"/>
<stop offset="0.95" stop-color="#B4F7FD"/>
<stop offset="1" stop-color="#B6FBFF"/>
</linearGradient>
<linearGradient id="paint17_linear_1_1178" x1="25.2037" y1="136.917" x2="238.785" y2="136.917" gradientUnits="userSpaceOnUse">
<stop stop-color="#83A4D4"/>
<stop offset="0.95" stop-color="#B4F7FD"/>
<stop offset="1" stop-color="#B6FBFF"/>
</linearGradient>
<linearGradient id="paint18_linear_1_1178" x1="29.4178" y1="136.928" x2="234.582" y2="136.928" gradientUnits="userSpaceOnUse">
<stop stop-color="#83A4D4"/>
<stop offset="0.95" stop-color="#B4F7FD"/>
<stop offset="1" stop-color="#B6FBFF"/>
</linearGradient>
<linearGradient id="paint19_linear_1_1178" x1="33.9014" y1="0.000353655" x2="230.099" y2="0.000353655" gradientUnits="userSpaceOnUse">
<stop stop-color="#83A4D4"/>
<stop offset="0.95" stop-color="#B4F7FD"/>
<stop offset="1" stop-color="#B6FBFF"/>
</linearGradient>
<linearGradient id="paint20_linear_1_1178" x1="38.6659" y1="136.928" x2="225.334" y2="136.928" gradientUnits="userSpaceOnUse">
<stop stop-color="#83A4D4"/>
<stop offset="0.95" stop-color="#B4F7FD"/>
<stop offset="1" stop-color="#B6FBFF"/>
</linearGradient>
</defs>
</svg>
