<svg width="251" height="295" viewBox="0 0 251 295" fill="none" xmlns="http://www.w3.org/2000/svg">
<path d="M179.022 241.084H71.9777L18.4555 147.038L71.9777 52.9922H179.022L232.544 147.038L179.022 241.084ZM72.6472 239.922H178.365L231.218 147.038L178.365 54.1543H72.6472L19.7945 147.038L72.6472 239.922Z" fill="url(#paint0_linear_1_1200)"/>
<path d="M175.586 246.769L65.4091 240.907L15.3228 141.177L75.4137 47.2949L185.591 53.1562L235.677 152.887L175.586 246.769ZM66.1291 239.783L174.98 245.568L234.351 152.824L184.858 54.2931L76.0074 48.5076L16.6365 141.253L66.1291 239.783Z" fill="url(#paint1_linear_1_1200)"/>
<path d="M171.759 252.44L58.6635 240.376L12.4048 134.974L79.2539 41.6353L192.349 53.699L238.608 159.101L171.759 252.44ZM59.4341 239.29L171.216 251.215L237.282 158.962L191.566 54.7853L79.7844 42.8606L13.7185 135.113L59.4341 239.29Z" fill="url(#paint2_linear_1_1200)"/>
<path d="M167.514 258.061L51.7411 239.454L9.72675 128.43L83.4983 36.0137L199.272 54.6207L241.273 165.644L167.502 258.061H167.514ZM52.5622 238.405L167.022 256.798L239.96 165.417L198.425 55.6439L83.9657 37.2516L11.0279 128.632L52.5622 238.405Z" fill="url(#paint3_linear_1_1200)"/>
<path d="M162.841 263.62L44.6545 238.128L7.314 121.547L88.1595 30.4565L206.346 55.9481L243.686 172.53L162.841 263.62ZM45.5388 237.13L162.424 262.332L242.385 172.239L205.461 56.9335L88.5764 31.7324L8.6151 121.825L45.5388 237.13Z" fill="url(#paint4_linear_1_1200)"/>
<path d="M157.737 269.076L37.4416 236.371L5.20444 114.32L93.2629 24.9731L213.558 57.6776L245.796 179.729L157.737 269.076ZM38.3764 235.424L157.396 267.775L244.52 179.388L212.624 58.6377L93.6039 26.2869L6.48028 114.674L38.3764 235.424Z" fill="url(#paint5_linear_1_1200)"/>
<path d="M152.192 274.432L30.1023 234.186L3.41068 106.791L98.8084 19.6426L220.898 59.8885L247.589 187.283L152.192 274.432ZM31.0876 233.277L151.914 273.106L246.326 186.866L219.912 60.7854L99.0863 20.9563L4.67389 107.196L31.0876 233.277Z" fill="url(#paint6_linear_1_1200)"/>
<path d="M146.204 279.624L145.888 279.498L22.662 231.509L1.95795 98.9093L104.796 14.4258L105.112 14.5521L228.338 62.5415L249.042 195.141L146.204 279.624ZM23.6978 230.675L145.989 278.298L247.791 194.661L227.302 63.4005L105.011 15.7774L3.20853 99.4146L23.6978 230.675Z" fill="url(#paint7_linear_1_1200)"/>
<path d="M139.762 284.652L15.1585 228.363L0.896881 90.7492L111.238 9.41113L235.841 65.6998L250.103 203.314L139.762 284.652ZM16.2323 227.58L139.623 283.313L248.89 202.771L234.768 66.4956L111.377 10.7628L2.10956 91.305L16.2323 227.58Z" fill="url(#paint8_linear_1_1200)"/>
<path d="M132.865 289.477L7.59191 224.725V224.384L0.240021 82.2852L118.148 4.59766L243.421 69.3498V69.6909L250.773 211.789L132.865 289.477ZM8.70353 223.98L132.789 288.125L249.585 211.171L242.296 70.0699L118.211 5.92405L1.41481 82.8788L8.70353 223.98Z" fill="url(#paint9_linear_1_1200)"/>
<path d="M125.5 294.063L0 220.544V73.5189L125.5 0L251 73.5189V220.544L125.5 294.063ZM1.14952 219.874L125.5 292.711L249.85 219.874V74.201L125.5 1.36425L1.14952 74.201V219.874Z" fill="url(#paint10_linear_1_1200)"/>
<defs>
<linearGradient id="paint0_linear_1_1200" x1="18.4555" y1="147.038" x2="232.544" y2="147.038" gradientUnits="userSpaceOnUse">
<stop stop-color="#83A4D4"/>
<stop offset="0.95" stop-color="#B4F7FD"/>
<stop offset="1" stop-color="#B6FBFF"/>
</linearGradient>
<linearGradient id="paint1_linear_1_1200" x1="15.3228" y1="147.038" x2="235.677" y2="147.038" gradientUnits="userSpaceOnUse">
<stop stop-color="#83A4D4"/>
<stop offset="0.95" stop-color="#B4F7FD"/>
<stop offset="1" stop-color="#B6FBFF"/>
</linearGradient>
<linearGradient id="paint2_linear_1_1200" x1="12.4048" y1="147.038" x2="238.608" y2="147.038" gradientUnits="userSpaceOnUse">
<stop stop-color="#83A4D4"/>
<stop offset="0.95" stop-color="#B4F7FD"/>
<stop offset="1" stop-color="#B6FBFF"/>
</linearGradient>
<linearGradient id="paint3_linear_1_1200" x1="9.72675" y1="147.037" x2="241.273" y2="147.037" gradientUnits="userSpaceOnUse">
<stop stop-color="#83A4D4"/>
<stop offset="0.95" stop-color="#B4F7FD"/>
<stop offset="1" stop-color="#B6FBFF"/>
</linearGradient>
<linearGradient id="paint4_linear_1_1200" x1="7.314" y1="147.038" x2="243.686" y2="147.038" gradientUnits="userSpaceOnUse">
<stop stop-color="#83A4D4"/>
<stop offset="0.95" stop-color="#B4F7FD"/>
<stop offset="1" stop-color="#B6FBFF"/>
</linearGradient>
<linearGradient id="paint5_linear_1_1200" x1="5.20444" y1="147.037" x2="245.796" y2="147.037" gradientUnits="userSpaceOnUse">
<stop stop-color="#83A4D4"/>
<stop offset="0.95" stop-color="#B4F7FD"/>
<stop offset="1" stop-color="#B6FBFF"/>
</linearGradient>
<linearGradient id="paint6_linear_1_1200" x1="3.41068" y1="147.037" x2="247.589" y2="147.037" gradientUnits="userSpaceOnUse">
<stop stop-color="#83A4D4"/>
<stop offset="0.95" stop-color="#B4F7FD"/>
<stop offset="1" stop-color="#B6FBFF"/>
</linearGradient>
<linearGradient id="paint7_linear_1_1200" x1="1.97058" y1="147.038" x2="249.029" y2="147.038" gradientUnits="userSpaceOnUse">
<stop stop-color="#83A4D4"/>
<stop offset="0.95" stop-color="#B4F7FD"/>
<stop offset="1" stop-color="#B6FBFF"/>
</linearGradient>
<linearGradient id="paint8_linear_1_1200" x1="0.896881" y1="147.038" x2="250.103" y2="147.038" gradientUnits="userSpaceOnUse">
<stop stop-color="#83A4D4"/>
<stop offset="0.95" stop-color="#B4F7FD"/>
<stop offset="1" stop-color="#B6FBFF"/>
</linearGradient>
<linearGradient id="paint9_linear_1_1200" x1="0.227389" y1="147.037" x2="250.773" y2="147.037" gradientUnits="userSpaceOnUse">
<stop stop-color="#83A4D4"/>
<stop offset="0.95" stop-color="#B4F7FD"/>
<stop offset="1" stop-color="#B6FBFF"/>
</linearGradient>
<linearGradient id="paint10_linear_1_1200" x1="0" y1="147.038" x2="251" y2="147.038" gradientUnits="userSpaceOnUse">
<stop stop-color="#83A4D4"/>
<stop offset="0.95" stop-color="#B4F7FD"/>
<stop offset="1" stop-color="#B6FBFF"/>
</linearGradient>
</defs>
</svg>
