<svg width="264" height="268" viewBox="0 0 264 268" fill="none" xmlns="http://www.w3.org/2000/svg">
<path d="M113.894 41.4917L264 187.663L263.474 187.814L62.3478 244.58L62.4762 244.055L113.882 41.4917H113.894ZM262.785 187.359L114.221 42.6945L63.2119 243.681L262.774 187.359H262.785Z" fill="url(#paint0_linear_1_1212)"/>
<path d="M52.5501 237.491L121.589 39.6689L258.383 198.37L52.5385 237.491H52.5501ZM121.823 40.8951L53.496 236.673L257.203 197.961L121.823 40.8951Z" fill="url(#paint1_linear_1_1212)"/>
<path d="M43.4064 229.586L43.6283 229.095L129.425 38.5371L251.867 208.554L43.4064 229.586ZM129.553 39.775L44.4224 228.85L250.734 208.04L129.553 39.775Z" fill="url(#paint2_linear_1_1212)"/>
<path d="M34.9867 220.909L137.331 38.0811L137.611 38.5482L244.498 218.129H243.961L34.9984 220.909H34.9867ZM137.343 39.3306L36.061 220.266L243.4 217.51L137.343 39.3189V39.3306Z" fill="url(#paint3_linear_1_1212)"/>
<path d="M27.3495 211.544L145.237 38.3271L236.3 227.029L27.3495 211.544ZM145.143 39.5767L28.4705 210.995L235.261 226.328L145.143 39.5767Z" fill="url(#paint4_linear_1_1212)"/>
<path d="M20.5647 201.535L20.9033 201.115L153.096 39.2607L227.367 235.179L20.5647 201.535ZM152.897 40.4869L21.7325 201.092L226.398 234.385L152.897 40.4869Z" fill="url(#paint5_linear_1_1212)"/>
<path d="M14.679 190.978L160.85 40.8721L217.756 242.513L217.23 242.384L14.6674 190.978H14.679ZM160.546 42.0749L15.8818 190.64L216.868 241.648L160.546 42.0865V42.0749Z" fill="url(#paint6_linear_1_1212)"/>
<path d="M9.72766 179.943L168.429 43.1494L207.55 248.982L9.72766 179.943ZM168.02 44.3289L10.9538 179.71L206.732 248.036L168.02 44.3289Z" fill="url(#paint7_linear_1_1212)"/>
<path d="M5.7572 168.523L175.774 46.0815L196.806 254.542L196.315 254.32L5.7572 168.523ZM175.272 47.2143L7.00666 168.395L196.082 253.526L175.272 47.2143Z" fill="url(#paint8_linear_1_1212)"/>
<path d="M2.80273 156.797L3.26987 156.517L182.851 49.6299L185.63 259.13L2.80273 156.785V156.797ZM182.244 50.7276L4.05227 156.785L184.988 258.067L182.232 50.7276H182.244Z" fill="url(#paint9_linear_1_1212)"/>
<path d="M0.875854 144.864L189.577 53.8008L174.093 262.752L0.875854 144.864ZM188.877 54.8401L2.12539 144.958L173.544 261.631L188.877 54.8401Z" fill="url(#paint10_linear_1_1212)"/>
<path d="M0 132.798L195.918 58.5273L162.275 265.329L0 132.798ZM195.136 59.4966L1.23791 132.997L161.843 264.162L195.136 59.4966Z" fill="url(#paint11_linear_1_1212)"/>
<path d="M0.18689 120.715L0.712405 120.564L201.839 63.7979L150.305 266.886L149.92 266.513L0.198579 120.715H0.18689ZM200.963 64.6971L1.40135 121.019L149.966 265.684L200.975 64.6971H200.963Z" fill="url(#paint12_linear_1_1212)"/>
<path d="M1.41296 108.686L207.257 69.5654L138.218 267.387L1.42465 108.686H1.41296ZM206.312 70.3829L2.60412 109.095L137.985 266.161L206.312 70.3829Z" fill="url(#paint13_linear_1_1212)"/>
<path d="M3.69019 96.8207L212.151 75.7891L126.132 266.838L3.69019 96.8207ZM211.146 76.5131L4.83459 97.3229L126.015 265.588L211.146 76.5131Z" fill="url(#paint14_linear_1_1212)"/>
<path d="M6.99497 85.1895H7.5321L216.495 82.4102L114.15 265.238L6.98328 85.1895H6.99497ZM215.42 83.0408L8.08099 85.7967L114.139 263.988L215.42 83.0525V83.0408Z" fill="url(#paint15_linear_1_1212)"/>
<path d="M11.2925 73.8843L220.243 89.369L102.356 262.586L11.2925 73.8843ZM219.122 89.9179L12.3319 74.585L102.449 261.336L219.122 89.9179Z" fill="url(#paint16_linear_1_1212)"/>
<path d="M16.5592 63L223.361 96.6437L90.8299 258.918L16.5592 63ZM222.205 97.0875L17.5401 63.7941L91.0401 257.692L222.205 97.0875Z" fill="url(#paint17_linear_1_1212)"/>
<path d="M22.7601 52.6221L23.2856 52.7505L225.849 104.156L79.6777 254.263L22.7717 52.6221H22.7601ZM224.646 104.507L23.6593 53.4979L79.9813 253.06L224.646 104.495V104.507Z" fill="url(#paint18_linear_1_1212)"/>
<path d="M29.8368 42.8222L227.659 111.861L68.9574 248.655L29.8368 42.8105V42.8222ZM226.432 112.095L30.6542 43.7681L69.3661 247.476L226.432 112.095Z" fill="url(#paint19_linear_1_1212)"/>
<path d="M37.7544 33.6787L38.2448 33.9006L228.803 119.697L58.7861 242.139L37.7544 33.6787ZM227.554 119.826L38.4784 34.6947L59.2883 241.006L227.554 119.826Z" fill="url(#paint20_linear_1_1212)"/>
<path d="M46.4192 25.2588L229.247 127.603L228.78 127.883L49.1985 234.77V234.233L46.4192 25.2705V25.2588ZM227.997 127.615L47.0615 26.3332L49.8175 233.672L228.009 127.615H227.997Z" fill="url(#paint21_linear_1_1212)"/>
<path d="M55.7966 17.6211L229.013 135.508L40.3118 226.572L55.7966 17.6211ZM227.764 135.415L56.3454 18.7422L41.0125 225.533L227.764 135.415Z" fill="url(#paint22_linear_1_1212)"/>
<path d="M65.8045 10.8369L66.2249 11.1755L228.079 143.368L32.1608 217.639L65.8045 10.8369ZM226.853 143.17L66.2483 12.0047L32.9548 216.67L226.853 143.17Z" fill="url(#paint23_linear_1_1212)"/>
<path d="M76.3611 4.94043L226.468 151.111L225.942 151.263L24.8153 208.029L24.9438 207.503L76.3494 4.94043H76.3611ZM225.265 150.819L76.6998 6.15493L25.6911 207.141L225.253 150.819H225.265Z" fill="url(#paint24_linear_1_1212)"/>
<path d="M18.3575 197.822L87.3966 0L224.19 158.701L18.3458 197.822H18.3575ZM87.6301 1.22617L19.3034 197.004L223.011 158.293L87.6301 1.22617Z" fill="url(#paint25_linear_1_1212)"/>
<defs>
<linearGradient id="paint0_linear_1_1212" x1="62.3595" y1="143.03" x2="264" y2="143.03" gradientUnits="userSpaceOnUse">
<stop stop-color="#83A4D4"/>
<stop offset="0.95" stop-color="#B4F7FD"/>
<stop offset="1" stop-color="#B6FBFF"/>
</linearGradient>
<linearGradient id="paint1_linear_1_1212" x1="52.5501" y1="138.58" x2="258.395" y2="138.58" gradientUnits="userSpaceOnUse">
<stop stop-color="#83A4D4"/>
<stop offset="0.95" stop-color="#B4F7FD"/>
<stop offset="1" stop-color="#B6FBFF"/>
</linearGradient>
<linearGradient id="paint2_linear_1_1212" x1="43.4064" y1="134.061" x2="251.878" y2="134.061" gradientUnits="userSpaceOnUse">
<stop stop-color="#83A4D4"/>
<stop offset="0.95" stop-color="#B4F7FD"/>
<stop offset="1" stop-color="#B6FBFF"/>
</linearGradient>
<linearGradient id="paint3_linear_1_1212" x1="34.9867" y1="129.495" x2="244.486" y2="129.495" gradientUnits="userSpaceOnUse">
<stop stop-color="#83A4D4"/>
<stop offset="0.95" stop-color="#B4F7FD"/>
<stop offset="1" stop-color="#B6FBFF"/>
</linearGradient>
<linearGradient id="paint4_linear_1_1212" x1="27.3495" y1="132.672" x2="236.3" y2="132.672" gradientUnits="userSpaceOnUse">
<stop stop-color="#83A4D4"/>
<stop offset="0.95" stop-color="#B4F7FD"/>
<stop offset="1" stop-color="#B6FBFF"/>
</linearGradient>
<linearGradient id="paint5_linear_1_1212" x1="20.5647" y1="137.214" x2="227.367" y2="137.214" gradientUnits="userSpaceOnUse">
<stop stop-color="#83A4D4"/>
<stop offset="0.95" stop-color="#B4F7FD"/>
<stop offset="1" stop-color="#B6FBFF"/>
</linearGradient>
<linearGradient id="paint6_linear_1_1212" x1="14.679" y1="141.686" x2="217.756" y2="141.686" gradientUnits="userSpaceOnUse">
<stop stop-color="#83A4D4"/>
<stop offset="0.95" stop-color="#B4F7FD"/>
<stop offset="1" stop-color="#B6FBFF"/>
</linearGradient>
<linearGradient id="paint7_linear_1_1212" x1="9.72766" y1="146.066" x2="207.55" y2="146.066" gradientUnits="userSpaceOnUse">
<stop stop-color="#83A4D4"/>
<stop offset="0.95" stop-color="#B4F7FD"/>
<stop offset="1" stop-color="#B6FBFF"/>
</linearGradient>
<linearGradient id="paint8_linear_1_1212" x1="5.7572" y1="150.306" x2="196.818" y2="150.306" gradientUnits="userSpaceOnUse">
<stop stop-color="#83A4D4"/>
<stop offset="0.95" stop-color="#B4F7FD"/>
<stop offset="1" stop-color="#B6FBFF"/>
</linearGradient>
<linearGradient id="paint9_linear_1_1212" x1="2.80273" y1="154.391" x2="185.63" y2="154.391" gradientUnits="userSpaceOnUse">
<stop stop-color="#83A4D4"/>
<stop offset="0.95" stop-color="#B4F7FD"/>
<stop offset="1" stop-color="#B6FBFF"/>
</linearGradient>
<linearGradient id="paint10_linear_1_1212" x1="0.875854" y1="158.282" x2="189.577" y2="158.282" gradientUnits="userSpaceOnUse">
<stop stop-color="#83A4D4"/>
<stop offset="0.95" stop-color="#B4F7FD"/>
<stop offset="1" stop-color="#B6FBFF"/>
</linearGradient>
<linearGradient id="paint11_linear_1_1212" x1="0" y1="161.934" x2="195.918" y2="161.934" gradientUnits="userSpaceOnUse">
<stop stop-color="#83A4D4"/>
<stop offset="0.95" stop-color="#B4F7FD"/>
<stop offset="1" stop-color="#B6FBFF"/>
</linearGradient>
<linearGradient id="paint12_linear_1_1212" x1="0.18689" y1="165.348" x2="201.827" y2="165.348" gradientUnits="userSpaceOnUse">
<stop stop-color="#83A4D4"/>
<stop offset="0.95" stop-color="#B4F7FD"/>
<stop offset="1" stop-color="#B6FBFF"/>
</linearGradient>
<linearGradient id="paint13_linear_1_1212" x1="1.41296" y1="168.476" x2="207.257" y2="168.476" gradientUnits="userSpaceOnUse">
<stop stop-color="#83A4D4"/>
<stop offset="0.95" stop-color="#B4F7FD"/>
<stop offset="1" stop-color="#B6FBFF"/>
</linearGradient>
<linearGradient id="paint14_linear_1_1212" x1="3.69019" y1="171.313" x2="212.151" y2="171.313" gradientUnits="userSpaceOnUse">
<stop stop-color="#83A4D4"/>
<stop offset="0.95" stop-color="#B4F7FD"/>
<stop offset="1" stop-color="#B6FBFF"/>
</linearGradient>
<linearGradient id="paint15_linear_1_1212" x1="6.99495" y1="173.812" x2="216.495" y2="173.812" gradientUnits="userSpaceOnUse">
<stop stop-color="#83A4D4"/>
<stop offset="0.95" stop-color="#B4F7FD"/>
<stop offset="1" stop-color="#B6FBFF"/>
</linearGradient>
<linearGradient id="paint16_linear_1_1212" x1="11.2925" y1="168.229" x2="220.243" y2="168.229" gradientUnits="userSpaceOnUse">
<stop stop-color="#83A4D4"/>
<stop offset="0.95" stop-color="#B4F7FD"/>
<stop offset="1" stop-color="#B6FBFF"/>
</linearGradient>
<linearGradient id="paint17_linear_1_1212" x1="16.5592" y1="160.965" x2="223.373" y2="160.965" gradientUnits="userSpaceOnUse">
<stop stop-color="#83A4D4"/>
<stop offset="0.95" stop-color="#B4F7FD"/>
<stop offset="1" stop-color="#B6FBFF"/>
</linearGradient>
<linearGradient id="paint18_linear_1_1212" x1="22.7601" y1="153.448" x2="225.849" y2="153.448" gradientUnits="userSpaceOnUse">
<stop stop-color="#83A4D4"/>
<stop offset="0.95" stop-color="#B4F7FD"/>
<stop offset="1" stop-color="#B6FBFF"/>
</linearGradient>
<linearGradient id="paint19_linear_1_1212" x1="29.8368" y1="145.739" x2="227.67" y2="145.739" gradientUnits="userSpaceOnUse">
<stop stop-color="#83A4D4"/>
<stop offset="0.95" stop-color="#B4F7FD"/>
<stop offset="1" stop-color="#B6FBFF"/>
</linearGradient>
<linearGradient id="paint20_linear_1_1212" x1="37.7544" y1="137.915" x2="228.803" y2="137.915" gradientUnits="userSpaceOnUse">
<stop stop-color="#83A4D4"/>
<stop offset="0.95" stop-color="#B4F7FD"/>
<stop offset="1" stop-color="#B6FBFF"/>
</linearGradient>
<linearGradient id="paint21_linear_1_1212" x1="46.4192" y1="130.009" x2="229.247" y2="130.009" gradientUnits="userSpaceOnUse">
<stop stop-color="#83A4D4"/>
<stop offset="0.95" stop-color="#B4F7FD"/>
<stop offset="1" stop-color="#B6FBFF"/>
</linearGradient>
<linearGradient id="paint22_linear_1_1212" x1="40.3118" y1="122.102" x2="229.013" y2="122.102" gradientUnits="userSpaceOnUse">
<stop stop-color="#83A4D4"/>
<stop offset="0.95" stop-color="#B4F7FD"/>
<stop offset="1" stop-color="#B6FBFF"/>
</linearGradient>
<linearGradient id="paint23_linear_1_1212" x1="32.1608" y1="114.232" x2="228.079" y2="114.232" gradientUnits="userSpaceOnUse">
<stop stop-color="#83A4D4"/>
<stop offset="0.95" stop-color="#B4F7FD"/>
<stop offset="1" stop-color="#B6FBFF"/>
</linearGradient>
<linearGradient id="paint24_linear_1_1212" x1="24.827" y1="106.491" x2="226.468" y2="106.491" gradientUnits="userSpaceOnUse">
<stop stop-color="#83A4D4"/>
<stop offset="0.95" stop-color="#B4F7FD"/>
<stop offset="1" stop-color="#B6FBFF"/>
</linearGradient>
<linearGradient id="paint25_linear_1_1212" x1="18.3574" y1="98.9109" x2="224.19" y2="98.9109" gradientUnits="userSpaceOnUse">
<stop stop-color="#83A4D4"/>
<stop offset="0.95" stop-color="#B4F7FD"/>
<stop offset="1" stop-color="#B6FBFF"/>
</linearGradient>
</defs>
</svg>
