<svg width="292" height="257" viewBox="0 0 292 257" fill="none" xmlns="http://www.w3.org/2000/svg">
<path d="M68.9861 236.567C67.3586 236.567 65.8939 236.106 64.6869 235.211C62.7746 233.787 61.771 231.414 61.8524 228.539L65.8397 80.8309C66.0024 74.8906 70.8171 68.5434 76.5675 66.6582L219.854 20.0037C222.715 19.0679 225.374 19.3663 227.327 20.831C229.239 22.2551 230.243 24.6285 230.161 27.5037L226.174 175.211C226.011 181.152 221.196 187.499 215.446 189.384L72.1597 236.038C71.0612 236.391 69.9897 236.567 68.9861 236.567ZM223.027 19.9766C222.078 19.9766 221.061 20.1393 220.017 20.4919L76.7302 67.1465C71.1561 68.9638 66.5043 75.1076 66.3551 80.8444L62.3677 228.552C62.2999 231.251 63.2357 233.475 64.9988 234.791C66.8162 236.147 69.3116 236.418 72.0106 235.537L215.297 188.882C220.871 187.065 225.523 180.921 225.672 175.184L229.659 27.4766C229.727 24.7777 228.791 22.5534 227.028 21.2379C225.916 20.397 224.546 19.9766 223.027 19.9766Z" fill="url(#paint0_linear_1_1156)"/>
<path d="M60.6046 232.607C58.7058 232.607 57.0377 232.024 55.7357 230.871C53.8912 229.244 53.0639 226.694 53.3894 223.683L70.2475 72.3408C70.9256 66.2649 76.2691 60.1618 82.1687 58.7649L228.968 23.7198C231.843 23.0281 234.433 23.5435 236.251 25.1574C238.095 26.7849 238.922 29.3346 238.597 32.3454L221.739 183.688C221.061 189.764 215.717 195.867 209.818 197.264L63.0187 232.309C62.1778 232.512 61.3777 232.607 60.5911 232.607H60.6046ZM231.395 23.9503C230.663 23.9503 229.89 24.0453 229.09 24.2352L82.2908 59.2803C76.5811 60.6365 71.4138 66.5361 70.7628 72.4222L53.9048 223.765C53.5928 226.599 54.3659 228.986 56.0748 230.505C57.7701 231.997 60.1841 232.472 62.8966 231.821L209.696 196.775C215.405 195.419 220.573 189.52 221.224 183.634L238.082 32.2912C238.394 29.4567 237.62 27.0697 235.912 25.5507C234.718 24.4928 233.158 23.9503 231.382 23.9503H231.395Z" fill="url(#paint1_linear_1_1156)"/>
<path d="M52.657 227.792C50.4599 227.792 48.5612 227.046 47.2049 225.636C45.4418 223.791 44.8045 221.065 45.4012 217.96L75.374 64.0404C76.581 57.856 82.44 52.0784 88.4345 51.1697L237.729 28.3714C240.604 27.9374 243.1 28.6562 244.781 30.4058C246.545 32.2502 247.182 34.9763 246.585 38.0821L216.612 192.001C215.405 198.186 209.546 203.963 203.538 204.872L54.2438 227.67C53.7013 227.752 53.1588 227.792 52.6434 227.792H52.657ZM239.356 28.7783C238.868 28.7783 238.353 28.819 237.837 28.9003L88.543 51.6987C82.7384 52.5802 77.0829 58.1679 75.9165 64.1489L45.9436 218.068C45.374 221.011 45.9573 223.574 47.6119 225.283C49.1715 226.897 51.5042 227.575 54.2032 227.155L203.498 204.357C209.302 203.475 214.958 197.887 216.124 191.906L246.097 37.9871C246.667 35.0441 246.083 32.4808 244.429 30.7719C243.167 29.47 241.404 28.7783 239.356 28.7783Z" fill="url(#paint2_linear_1_1156)"/>
<path d="M45.2113 222.138C42.6887 222.138 40.5458 221.215 39.1625 219.493C37.5214 217.472 37.0739 214.502 37.9555 211.355L81.2329 55.9715C82.9689 49.7328 89.3161 44.3215 95.3785 43.9282L246.097 33.9327C248.931 33.7428 251.346 34.6786 252.865 36.5502C254.506 38.571 254.953 41.5412 254.072 44.6877L210.794 200.072C209.058 206.31 202.711 211.722 196.649 212.115L45.9301 222.11C45.686 222.124 45.4554 222.138 45.2113 222.138ZM246.802 34.4345C246.585 34.4345 246.355 34.4345 246.124 34.4616L95.4056 44.4571C89.5467 44.8504 83.4165 50.0719 81.7347 56.1207L38.4573 211.505C37.63 214.488 38.0233 217.282 39.5694 219.167C40.9799 220.903 43.2312 221.758 45.8894 221.581L196.608 211.586C202.467 211.193 208.597 205.971 210.279 199.922L253.556 44.5385C254.384 41.5547 253.99 38.7609 252.444 36.8757C251.156 35.2889 249.162 34.4345 246.802 34.4345Z" fill="url(#paint3_linear_1_1156)"/>
<path d="M189.352 218.936C189.271 218.936 189.189 218.936 189.121 218.936L38.1046 215.667C35.3108 215.613 33.0187 214.474 31.6625 212.48C30.13 210.243 29.9265 207.123 31.1064 203.909L87.7564 48.2266C90.0077 42.0557 96.6533 37.119 102.661 37.119C102.743 37.119 102.824 37.119 102.892 37.119L253.909 40.3875C256.703 40.4418 258.995 41.581 260.351 43.5747C261.883 45.8125 262.087 48.9318 260.907 52.1461L204.257 207.828C202.006 213.999 195.36 218.936 189.352 218.936ZM102.648 37.648C96.8431 37.648 90.4282 42.4219 88.2446 48.4029L31.5811 204.085C30.469 207.137 30.6589 210.08 32.0829 212.168C33.3442 214.013 35.4871 215.057 38.091 215.125L189.108 218.393C194.98 218.529 201.531 213.701 203.728 207.652L260.392 51.9698C261.504 48.9183 261.314 45.9752 259.89 43.8866C258.628 42.0422 256.486 40.9979 253.882 40.93L102.865 37.6615C102.783 37.6615 102.716 37.6615 102.634 37.6615L102.648 37.648Z" fill="url(#paint4_linear_1_1156)"/>
<path d="M182.259 225.324C181.838 225.324 181.432 225.297 181.025 225.256L30.8759 208.33C28.1499 208.018 25.9799 206.689 24.7864 204.587C23.403 202.146 23.4437 198.877 24.9084 195.636L94.9174 40.8353C97.7248 34.6102 104.94 30.1211 110.975 30.7992L261.124 47.725C263.85 48.0369 266.02 49.3661 267.214 51.4682C268.597 53.9094 268.556 57.178 267.091 60.4194L197.083 215.22C194.465 221.025 188.009 225.324 182.259 225.324ZM109.727 31.2739C104.18 31.2739 97.9553 35.4511 95.4056 41.0659L25.3967 195.867C23.9998 198.945 23.9455 202.038 25.2475 204.316C26.3596 206.269 28.3669 207.503 30.9166 207.788L181.079 224.714C186.897 225.365 193.855 221.011 196.581 214.99L266.59 60.1888C267.987 57.1102 268.041 54.0179 266.739 51.7395C265.627 49.7865 263.619 48.5523 261.07 48.2675L110.921 31.3417C110.528 31.301 110.134 31.2739 109.741 31.2739H109.727Z" fill="url(#paint5_linear_1_1156)"/>
<path d="M174.691 231.252C173.918 231.252 173.159 231.184 172.413 231.021L24.2982 200.14C21.6535 199.584 19.6192 198.065 18.602 195.854C17.3814 193.209 17.6933 189.832 19.4564 186.577L102.689 33.8923C106.039 27.7621 113.606 23.7748 119.574 25.0225L267.688 55.904C270.333 56.4601 272.367 57.979 273.384 60.1897C274.605 62.8344 274.293 66.2114 272.53 69.4664L189.298 222.151C186.368 227.522 180.184 231.252 174.691 231.252ZM117.295 25.348C111.992 25.348 106.025 28.9556 103.19 34.1635L19.9582 186.849C18.2765 189.941 17.9646 193.128 19.1174 195.623C20.0667 197.671 21.9519 199.082 24.4202 199.597L172.535 230.479C178.272 231.672 185.582 227.82 188.81 221.894L272.042 69.2087C273.723 66.1165 274.035 62.9157 272.883 60.4338C271.933 58.3859 270.048 56.9754 267.58 56.4601L119.465 25.5786C118.76 25.4294 118.028 25.3616 117.282 25.3616L117.295 25.348Z" fill="url(#paint6_linear_1_1156)"/>
<path d="M166.689 236.662C165.523 236.662 164.397 236.5 163.326 236.174L18.4663 191.161C15.9165 190.361 14.045 188.652 13.1906 186.333C12.1598 183.484 12.7566 180.013 14.8181 176.812L111.043 27.4767C114.908 21.4686 122.802 18.0644 128.647 19.8818L273.506 64.8952C276.056 65.6954 277.928 67.4043 278.782 69.7234C279.813 72.5715 279.216 76.0435 277.155 79.2442L180.93 228.579C177.77 233.489 171.911 236.662 166.689 236.662ZM125.297 19.9496C120.265 19.9496 114.61 23.0282 111.545 27.7751L15.3199 177.11C13.3533 180.175 12.7701 183.457 13.7466 186.143C14.5332 188.286 16.2692 189.886 18.6562 190.618L163.516 235.632C169.13 237.381 176.739 234.072 180.469 228.267L276.694 78.9323C278.66 75.8672 279.243 72.5851 278.267 69.9133C277.48 67.7704 275.744 66.1701 273.357 65.4377L128.498 20.4243C127.48 20.1123 126.396 19.9631 125.283 19.9631L125.297 19.9496Z" fill="url(#paint7_linear_1_1156)"/>
<path d="M158.321 241.504C156.735 241.504 155.216 241.233 153.846 240.649L13.4618 181.396C11.007 180.365 9.29812 178.466 8.64713 176.038C7.83339 173.014 8.71501 169.474 11.0884 166.341L119.967 21.6174C124.348 15.7992 132.512 13.0053 138.168 15.4059L278.552 74.6598C281.006 75.6906 282.715 77.5893 283.366 80.017C284.18 83.0414 283.298 86.5811 280.939 89.714L172.06 234.438C168.751 238.846 163.258 241.517 158.335 241.517L158.321 241.504ZM133.665 15.1075C128.918 15.1075 123.629 17.6979 120.415 21.9565L11.5359 166.68C9.28457 169.678 8.43018 173.028 9.20323 175.889C9.81354 178.127 11.4003 179.904 13.6788 180.867L154.063 240.121C159.501 242.413 167.354 239.714 171.585 234.085L280.464 89.3614C282.715 86.3641 283.57 83.0142 282.797 80.1526C282.186 77.9148 280.6 76.1381 278.321 75.1752L137.937 15.9213C136.622 15.3652 135.17 15.1075 133.665 15.1075Z" fill="url(#paint8_linear_1_1156)"/>
<path d="M149.628 245.722C147.594 245.722 145.654 245.288 144 244.379L9.32533 170.912C6.9926 169.637 5.46006 167.549 5.01251 165.04C4.44289 161.852 5.62285 158.272 8.2675 155.248L129.339 16.3962C134.207 10.8085 142.589 8.67922 148.028 11.6494L282.702 85.1167C285.035 86.3915 286.567 88.4801 287.015 90.9892C287.584 94.1763 286.404 97.7568 283.76 100.781L162.688 239.633C159.311 243.511 154.239 245.722 149.628 245.722ZM142.372 10.9034C137.937 10.9034 133.041 13.0463 129.773 16.8031L8.70151 155.654C6.17891 158.557 5.03961 161.947 5.5821 164.958C6.00254 167.291 7.42661 169.23 9.59659 170.424L144.271 243.891C149.479 246.739 157.548 244.664 162.241 239.266L283.312 100.415C285.835 97.5127 286.974 94.1221 286.431 91.1112C286.011 88.7785 284.587 86.8391 282.417 85.6456L147.743 12.1783C146.156 11.3103 144.312 10.9034 142.372 10.9034Z" fill="url(#paint9_linear_1_1156)"/>
<path d="M140.65 249.276C138.141 249.276 135.767 248.652 133.841 247.337L6.07037 159.792C3.87327 158.286 2.53054 156.021 2.28642 153.404C1.98805 150.067 3.47993 146.5 6.38228 143.612L139.103 11.8941C144.447 6.59119 152.991 5.15358 158.145 8.69336L285.916 96.2384C288.113 97.7438 289.456 100.009 289.7 102.626C289.998 105.963 288.506 109.529 285.604 112.418L152.883 244.136C149.519 247.472 144.895 249.276 140.636 249.276H140.65ZM151.35 7.35068C147.254 7.35068 142.779 9.10023 139.537 12.3281L6.81628 144.046C4.036 146.799 2.61193 150.203 2.89674 153.363C3.11374 155.791 4.37509 157.906 6.42301 159.317L134.194 246.862C139.131 250.239 147.336 248.842 152.49 243.729L285.211 112.011C287.991 109.258 289.415 105.854 289.13 102.694C288.913 100.266 287.652 98.1507 285.604 96.7402L157.833 9.19517C156.016 7.94743 153.751 7.35068 151.35 7.35068Z" fill="url(#paint10_linear_1_1156)"/>
<path d="M131.454 252.124C128.444 252.124 125.595 251.256 123.48 249.452L3.83253 148.06C1.77105 146.31 0.631818 143.869 0.618256 141.17C0.618256 137.725 2.40851 134.199 5.55497 131.487L149.248 8.13699C155.039 3.17317 163.678 2.46792 168.507 6.56376L288.154 107.956C290.215 109.705 291.354 112.147 291.368 114.846C291.368 118.29 289.578 121.817 286.431 124.516L142.738 247.865C139.483 250.659 135.32 252.11 131.441 252.11L131.454 252.124ZM160.546 4.50228C156.816 4.50228 152.801 5.8992 149.641 8.61167L5.94825 131.961C2.93741 134.552 1.21502 137.902 1.22858 141.184C1.22858 143.706 2.29995 145.985 4.22581 147.612L123.873 249.004C128.498 252.924 136.784 252.219 142.358 247.431L286.052 124.082C289.062 121.491 290.785 118.141 290.771 114.859C290.771 112.337 289.7 110.058 287.774 108.431L168.127 7.03844C166.12 5.32958 163.421 4.50228 160.546 4.50228Z" fill="url(#paint11_linear_1_1156)"/>
<path d="M122.096 254.225C118.557 254.225 115.234 253.046 112.982 250.713L2.62551 135.826C0.71322 133.846 -0.195421 131.215 0.0351386 128.435C0.33351 124.908 2.43566 121.45 5.78556 118.968L159.678 5.19348C165.876 0.609407 174.555 0.663656 179.018 5.30198L289.374 120.189C291.287 122.169 292.195 124.8 291.965 127.58C291.666 131.106 289.564 134.565 286.214 137.047L132.322 250.821C129.244 253.086 125.568 254.225 122.096 254.225ZM169.917 2.4132C166.567 2.4132 163.014 3.51175 160.044 5.70885L6.15177 119.483C2.9375 121.857 0.930271 125.153 0.645461 128.502C0.428463 131.106 1.28286 133.561 3.07309 135.419L113.43 250.306C117.689 254.741 126.002 254.754 131.97 250.347L285.862 136.572C289.076 134.199 291.083 130.903 291.368 127.553C291.585 124.949 290.731 122.494 288.94 120.636L178.584 5.74954C176.441 3.52531 173.281 2.4132 169.917 2.4132Z" fill="url(#paint12_linear_1_1156)"/>
<path d="M112.616 255.555C108.547 255.555 104.723 254.009 102.417 251.052L2.48985 123.146C0.753865 120.922 0.0622079 118.128 0.564015 115.28C1.18788 111.713 3.57487 108.376 7.10108 106.152L170.324 3.13252C176.902 -1.01756 185.555 -0.190255 189.596 4.99057L289.523 132.897C291.259 135.121 291.951 137.915 291.449 140.763C290.826 144.33 288.439 147.667 284.912 149.891L121.689 252.91C118.868 254.687 115.668 255.555 112.616 255.555ZM179.397 1.11173C176.454 1.11173 173.376 1.9526 170.649 3.66146L7.42656 106.681C4.03597 108.824 1.75751 111.998 1.16076 115.402C0.699642 118.073 1.33701 120.705 2.9645 122.78L102.892 250.686C106.744 255.623 115.017 256.382 121.337 252.395L284.56 149.375C287.95 147.233 290.229 144.059 290.826 140.655C291.287 137.983 290.649 135.352 289.022 133.277L189.094 5.37031C186.897 2.5629 183.276 1.09817 179.397 1.09817V1.11173Z" fill="url(#paint13_linear_1_1156)"/>
<path d="M103.055 256.057C98.4436 256.057 94.1308 254.077 91.8523 250.455L3.45285 110.126C1.89318 107.657 1.47273 104.701 2.24578 101.785C3.19515 98.218 5.85336 95.0444 9.52876 93.0914L181.106 1.96594C188.023 -1.70946 196.567 -0.0819748 200.148 5.60065L288.547 145.93C290.107 148.399 290.527 151.355 289.754 154.271C288.805 157.838 286.147 161.012 282.471 162.965L110.894 254.09C108.385 255.419 105.672 256.057 103.055 256.057ZM188.959 0.609705C186.436 0.609705 183.819 1.22001 181.404 2.50843L9.82709 93.6339C6.30088 95.5055 3.75122 98.5299 2.85611 101.934C2.12374 104.674 2.53056 107.454 3.9953 109.773L92.3947 250.103C95.7989 255.514 103.977 257.047 110.609 253.521L282.186 162.395C285.713 160.523 288.262 157.499 289.157 154.095C289.89 151.355 289.483 148.575 288.018 146.256L199.619 5.92615C197.449 2.48131 193.353 0.609705 188.959 0.609705Z" fill="url(#paint14_linear_1_1156)"/>
<path d="M93.4798 255.717C88.3125 255.717 83.5385 253.222 81.3685 248.895L5.54142 96.8341C4.18518 94.1216 4.03599 91.0022 5.10741 88.0592C6.38227 84.533 9.29819 81.5628 13.0821 79.8947L191.956 1.72124C199.185 -1.43879 207.553 1.00244 210.631 7.17331L286.458 159.234C287.815 161.947 287.964 165.066 286.893 168.009C285.618 171.536 282.702 174.506 278.918 176.174L100.044 254.347C97.9011 255.283 95.6633 255.731 93.4798 255.731V255.717ZM198.534 0.961752C196.445 0.961752 194.275 1.38218 192.214 2.29086L13.3398 80.4643C9.70506 82.0511 6.92477 84.8856 5.70416 88.2491C4.68698 91.0294 4.83615 93.9724 6.11101 96.5221L81.9382 248.583C84.8541 254.442 92.8694 256.748 99.7726 253.723L278.647 175.55C282.281 173.963 285.062 171.129 286.282 167.765C287.299 164.985 287.15 162.042 285.875 159.492L210.048 7.43099C208 3.3216 203.443 0.961752 198.52 0.961752H198.534Z" fill="url(#paint15_linear_1_1156)"/>
<path d="M83.959 254.496C78.2492 254.496 73.0142 251.404 71.0883 246.332L8.79642 83.353C7.67074 80.3964 7.80633 77.1414 9.18969 74.1712C10.7901 70.7264 13.9229 67.9868 17.7882 66.6441L202.792 2.42638C210.265 -0.164033 218.403 3.09093 220.925 9.6958L283.217 172.675C284.343 175.631 284.207 178.886 282.824 181.856C281.223 185.301 278.091 188.041 274.225 189.383L89.2212 253.601C87.4716 254.212 85.695 254.496 83.959 254.496ZM208.055 2.19582C206.386 2.19582 204.677 2.46706 203.009 3.05024L18.0052 67.268C14.3027 68.5564 11.319 71.174 9.78644 74.4561C8.47089 77.2635 8.34879 80.3557 9.40666 83.136L71.6985 246.115C74.0991 252.394 81.8703 255.486 89.0177 253.004L274.022 188.787C277.711 187.498 280.708 184.881 282.241 181.612C283.556 178.805 283.678 175.713 282.62 172.932L220.328 9.95348C218.498 5.15241 213.507 2.20938 208.068 2.20938L208.055 2.19582Z" fill="url(#paint16_linear_1_1156)"/>
<path d="M74.5466 252.395C68.2944 252.395 62.6524 248.597 61.0521 242.793L13.2041 69.8048C12.3226 66.6176 12.7836 63.227 14.4925 60.2569C16.4048 56.9477 19.7276 54.4793 23.62 53.4622L213.52 4.13586C221.196 2.1422 229.022 6.22447 230.961 13.2362L278.809 186.224C279.691 189.411 279.23 192.802 277.521 195.772C275.609 199.081 272.286 201.55 268.393 202.567L78.4933 251.893C77.1777 252.232 75.8486 252.395 74.5466 252.395ZM217.453 4.29861C216.205 4.29861 214.944 4.46136 213.683 4.78686L23.7828 54.1131C20.0531 55.0761 16.8795 57.4495 15.0622 60.596C13.4347 63.4034 13.0142 66.6176 13.8415 69.6285L61.6896 242.616C63.534 249.275 71.0068 253.154 78.3305 251.242L268.231 201.916C271.96 200.953 275.134 198.579 276.951 195.433C278.579 192.625 278.999 189.411 278.172 186.4L230.324 13.4125C228.805 7.89263 223.421 4.29861 217.467 4.29861H217.453Z" fill="url(#paint17_linear_1_1156)"/>
<path d="M65.3379 249.397C58.5296 249.397 52.535 244.813 51.3686 238.262L18.7783 56.3094C18.168 52.8917 18.9546 49.3926 21.0026 46.4631C23.2268 43.2896 26.6309 41.1603 30.5776 40.4686L224.045 6.87462C231.87 5.51839 239.316 10.4008 240.631 17.7788L273.222 199.731C273.832 203.149 273.045 206.648 270.997 209.578C268.773 212.751 265.369 214.88 261.422 215.572L67.9554 249.166C67.0739 249.315 66.1923 249.397 65.3379 249.397ZM226.676 7.32218C225.848 7.32218 225.008 7.38999 224.167 7.53918L30.6996 41.1331C26.9293 41.7841 23.6743 43.8185 21.5586 46.8564C19.6192 49.6367 18.8597 52.946 19.4429 56.2009L52.0332 238.153C53.2945 245.165 60.3876 249.817 67.8469 248.515L261.314 214.921C265.084 214.27 268.339 212.236 270.455 209.198C272.394 206.418 273.154 203.108 272.571 199.853L239.98 17.9008C238.868 11.6757 233.158 7.32218 226.676 7.32218Z" fill="url(#paint18_linear_1_1156)"/>
<path d="M56.3731 245.478C53.0097 245.478 49.7819 244.352 47.1779 242.223C44.2349 239.822 42.4311 236.459 42.1056 232.729L25.5052 42.9373C25.1797 39.2077 26.3732 35.573 28.8551 32.7113C31.3371 29.8497 34.8225 28.073 38.6471 27.7475L234.311 10.6318C238.149 10.2927 241.879 11.432 244.822 13.8189C247.765 16.2195 249.569 19.5829 249.894 23.3126L266.495 213.104C267.173 220.794 261.273 227.616 253.353 228.308L57.6887 245.423C57.2412 245.464 56.8071 245.478 56.3731 245.478ZM235.627 11.2421C235.206 11.2421 234.786 11.2557 234.365 11.2964L38.7014 28.412C35.0396 28.7375 31.7304 30.4193 29.3569 33.1453C26.9971 35.8713 25.8579 39.3297 26.1698 42.8695L42.7701 232.661C43.0821 236.201 44.7909 239.402 47.5983 241.68C50.4057 243.959 53.9591 245.044 57.6209 244.718L253.285 227.602C260.826 226.938 266.454 220.455 265.803 213.145L249.203 23.3533C248.891 19.8135 247.182 16.6128 244.375 14.3343C241.893 12.3135 238.828 11.2421 235.613 11.2421H235.627Z" fill="url(#paint19_linear_1_1156)"/>
<path d="M244.212 240.65H47.8017C39.8541 240.65 33.3849 234.181 33.3849 226.233V29.8095C33.3849 21.8619 39.8541 15.3927 47.8017 15.3927H244.212C252.159 15.3927 258.629 21.8619 258.629 29.8095V226.22C258.629 234.167 252.159 240.636 244.212 240.636V240.65ZM47.8017 16.0844C40.2339 16.0844 34.063 22.2417 34.063 29.8231V226.233C34.063 233.801 40.2203 239.972 47.8017 239.972H244.212C251.78 239.972 257.95 233.814 257.95 226.233V29.8095C257.95 22.2417 251.793 16.0708 244.212 16.0708H47.8017V16.0844Z" fill="url(#paint20_linear_1_1156)"/>
<defs>
<linearGradient id="paint0_linear_1_1156" x1="61.8388" y1="128.028" x2="230.175" y2="128.028" gradientUnits="userSpaceOnUse">
<stop stop-color="#83A4D4"/>
<stop offset="0.95" stop-color="#B4F7FD"/>
<stop offset="1" stop-color="#B6FBFF"/>
</linearGradient>
<linearGradient id="paint1_linear_1_1156" x1="53.3216" y1="128.028" x2="238.678" y2="128.028" gradientUnits="userSpaceOnUse">
<stop stop-color="#83A4D4"/>
<stop offset="0.95" stop-color="#B4F7FD"/>
<stop offset="1" stop-color="#B6FBFF"/>
</linearGradient>
<linearGradient id="paint2_linear_1_1156" x1="45.1842" y1="128.028" x2="246.829" y2="128.028" gradientUnits="userSpaceOnUse">
<stop stop-color="#83A4D4"/>
<stop offset="0.95" stop-color="#B4F7FD"/>
<stop offset="1" stop-color="#B6FBFF"/>
</linearGradient>
<linearGradient id="paint3_linear_1_1156" x1="37.5079" y1="128.028" x2="254.506" y2="128.028" gradientUnits="userSpaceOnUse">
<stop stop-color="#83A4D4"/>
<stop offset="0.95" stop-color="#B4F7FD"/>
<stop offset="1" stop-color="#B6FBFF"/>
</linearGradient>
<linearGradient id="paint4_linear_1_1156" x1="30.3334" y1="128.027" x2="261.666" y2="128.027" gradientUnits="userSpaceOnUse">
<stop stop-color="#83A4D4"/>
<stop offset="0.95" stop-color="#B4F7FD"/>
<stop offset="1" stop-color="#B6FBFF"/>
</linearGradient>
<linearGradient id="paint5_linear_1_1156" x1="23.7692" y1="128.028" x2="268.231" y2="128.028" gradientUnits="userSpaceOnUse">
<stop stop-color="#83A4D4"/>
<stop offset="0.95" stop-color="#B4F7FD"/>
<stop offset="1" stop-color="#B6FBFF"/>
</linearGradient>
<linearGradient id="paint6_linear_1_1156" x1="17.8696" y1="128.029" x2="274.13" y2="128.029" gradientUnits="userSpaceOnUse">
<stop stop-color="#83A4D4"/>
<stop offset="0.95" stop-color="#B4F7FD"/>
<stop offset="1" stop-color="#B6FBFF"/>
</linearGradient>
<linearGradient id="paint7_linear_1_1156" x1="12.7159" y1="128.014" x2="279.298" y2="128.014" gradientUnits="userSpaceOnUse">
<stop stop-color="#83A4D4"/>
<stop offset="0.95" stop-color="#B4F7FD"/>
<stop offset="1" stop-color="#B6FBFF"/>
</linearGradient>
<linearGradient id="paint8_linear_1_1156" x1="8.34877" y1="128.028" x2="283.651" y2="128.028" gradientUnits="userSpaceOnUse">
<stop stop-color="#83A4D4"/>
<stop offset="0.95" stop-color="#B4F7FD"/>
<stop offset="1" stop-color="#B6FBFF"/>
</linearGradient>
<linearGradient id="paint9_linear_1_1156" x1="4.84976" y1="128.014" x2="287.15" y2="128.014" gradientUnits="userSpaceOnUse">
<stop stop-color="#83A4D4"/>
<stop offset="0.95" stop-color="#B4F7FD"/>
<stop offset="1" stop-color="#B6FBFF"/>
</linearGradient>
<linearGradient id="paint10_linear_1_1156" x1="2.2593" y1="128.029" x2="289.741" y2="128.029" gradientUnits="userSpaceOnUse">
<stop stop-color="#83A4D4"/>
<stop offset="0.95" stop-color="#B4F7FD"/>
<stop offset="1" stop-color="#B6FBFF"/>
</linearGradient>
<linearGradient id="paint11_linear_1_1156" x1="0.631818" y1="128.015" x2="291.382" y2="128.015" gradientUnits="userSpaceOnUse">
<stop stop-color="#83A4D4"/>
<stop offset="0.95" stop-color="#B4F7FD"/>
<stop offset="1" stop-color="#B6FBFF"/>
</linearGradient>
<linearGradient id="paint12_linear_1_1156" x1="-0.00554954" y1="128.028" x2="292.006" y2="128.028" gradientUnits="userSpaceOnUse">
<stop stop-color="#83A4D4"/>
<stop offset="0.95" stop-color="#B4F7FD"/>
<stop offset="1" stop-color="#B6FBFF"/>
</linearGradient>
<linearGradient id="paint13_linear_1_1156" x1="0.401264" y1="128.028" x2="291.599" y2="128.028" gradientUnits="userSpaceOnUse">
<stop stop-color="#83A4D4"/>
<stop offset="0.95" stop-color="#B4F7FD"/>
<stop offset="1" stop-color="#B6FBFF"/>
</linearGradient>
<linearGradient id="paint14_linear_1_1156" x1="1.86604" y1="128.028" x2="290.147" y2="128.028" gradientUnits="userSpaceOnUse">
<stop stop-color="#83A4D4"/>
<stop offset="0.95" stop-color="#B4F7FD"/>
<stop offset="1" stop-color="#B6FBFF"/>
</linearGradient>
<linearGradient id="paint15_linear_1_1156" x1="4.40217" y1="128.027" x2="287.598" y2="128.027" gradientUnits="userSpaceOnUse">
<stop stop-color="#83A4D4"/>
<stop offset="0.95" stop-color="#B4F7FD"/>
<stop offset="1" stop-color="#B6FBFF"/>
</linearGradient>
<linearGradient id="paint16_linear_1_1156" x1="8.03691" y1="128.014" x2="283.963" y2="128.014" gradientUnits="userSpaceOnUse">
<stop stop-color="#83A4D4"/>
<stop offset="0.95" stop-color="#B4F7FD"/>
<stop offset="1" stop-color="#B6FBFF"/>
</linearGradient>
<linearGradient id="paint17_linear_1_1156" x1="12.7701" y1="128.028" x2="279.243" y2="128.028" gradientUnits="userSpaceOnUse">
<stop stop-color="#83A4D4"/>
<stop offset="0.95" stop-color="#B4F7FD"/>
<stop offset="1" stop-color="#B6FBFF"/>
</linearGradient>
<linearGradient id="paint18_linear_1_1156" x1="18.5749" y1="128.027" x2="273.425" y2="128.027" gradientUnits="userSpaceOnUse">
<stop stop-color="#83A4D4"/>
<stop offset="0.95" stop-color="#B4F7FD"/>
<stop offset="1" stop-color="#B6FBFF"/>
</linearGradient>
<linearGradient id="paint19_linear_1_1156" x1="25.451" y1="128.028" x2="266.549" y2="128.028" gradientUnits="userSpaceOnUse">
<stop stop-color="#83A4D4"/>
<stop offset="0.95" stop-color="#B4F7FD"/>
<stop offset="1" stop-color="#B6FBFF"/>
</linearGradient>
<linearGradient id="paint20_linear_1_1156" x1="33.3713" y1="128.028" x2="258.629" y2="128.028" gradientUnits="userSpaceOnUse">
<stop stop-color="#83A4D4"/>
<stop offset="0.95" stop-color="#B4F7FD"/>
<stop offset="1" stop-color="#B6FBFF"/>
</linearGradient>
</defs>
</svg>
