<svg width="337" height="337" viewBox="0 0 337 337" fill="none" xmlns="http://www.w3.org/2000/svg">
<g clip-path="url(#clip0_400_3060)">
<g style="mix-blend-mode:multiply" opacity="0.6">
<path d="M90.6349 274.541L151.745 239.196L260.428 301.651L199.314 337.001L90.6349 274.541Z" fill="#3A0155"/>
</g>
<path d="M143.94 181.438L199.314 308.518L199.279 320.926L88.614 257.327V177.547L143.94 181.438Z" fill="#ED9AD5"/>
<path d="M119.742 195.436L180.851 160.086L180.825 169.69L119.715 205.04L119.742 195.436Z" fill="#FECFC4"/>
<path d="M88.614 177.548L149.724 142.198L180.851 160.086L119.742 195.436L88.614 177.548Z" fill="url(#paint0_linear_400_3060)"/>
<path d="M131.102 211.585L192.212 176.235L192.185 185.844L131.075 221.189L131.102 211.585Z" fill="#FECFC4"/>
<path d="M119.715 205.041L180.825 169.691L192.212 176.237L131.102 211.586L119.715 205.041Z" fill="url(#paint1_linear_400_3060)"/>
<path d="M142.48 227.744L203.59 192.398L203.563 202.003L142.454 237.352L142.48 227.744Z" fill="#FECFC4"/>
<path d="M131.075 221.19L192.185 185.845L203.59 192.399L142.48 227.744L131.075 221.19Z" fill="url(#paint2_linear_400_3060)"/>
<path d="M153.841 243.897L214.951 208.548L214.924 218.152L153.814 253.502L153.841 243.897Z" fill="#FECFC4"/>
<path d="M142.454 237.352L203.563 202.003L214.95 208.548L153.841 243.898L142.454 237.352Z" fill="url(#paint3_linear_400_3060)"/>
<path d="M153.814 253.502L214.924 218.152L226.311 224.698L165.202 260.047L153.814 253.502Z" fill="url(#paint4_linear_400_3060)"/>
<path d="M165.201 260.047L226.311 224.697L226.285 234.302L165.175 269.651L165.201 260.047Z" fill="#FECFC4"/>
<path d="M176.58 276.205L237.689 240.855L237.663 250.464L176.553 285.809L176.58 276.205Z" fill="#FECFC4"/>
<path d="M165.175 269.652L226.285 234.303L237.689 240.857L176.58 276.206L165.175 269.652Z" fill="url(#paint5_linear_400_3060)"/>
<path d="M187.94 292.355L249.05 257.006L249.023 266.615L187.914 301.964L187.94 292.355Z" fill="#FECFC4"/>
<path d="M176.553 285.81L237.663 250.465L249.05 257.006L187.94 292.355L176.553 285.81Z" fill="url(#paint6_linear_400_3060)"/>
<path d="M199.314 308.518L260.428 273.169L260.393 285.577L199.279 320.927L199.314 308.518Z" fill="#FECFC4"/>
<path d="M187.914 301.964L249.023 266.614L260.428 273.168L199.314 308.518L187.914 301.964Z" fill="url(#paint7_linear_400_3060)"/>
<path d="M159.658 95.121L156.147 93.0905C155.988 92.9817 155.858 92.8348 155.77 92.6632C155.681 92.4916 155.638 92.3008 155.643 92.1081C155.65 91.5 155.802 90.9022 156.087 90.3642C156.372 89.8263 156.782 89.3636 157.282 89.0146C164.677 84.1904 171.854 70.6294 173.421 61.4529C174.016 57.9725 173.375 55.9834 172.124 55.2598L175.634 57.2907C176.885 58.0138 177.527 60.003 176.932 63.4834C175.365 72.6599 168.188 86.2214 160.793 91.0451C160.292 91.3943 159.882 91.857 159.597 92.395C159.312 92.933 159.16 93.5308 159.153 94.139C159.148 94.3316 159.192 94.5223 159.28 94.6938C159.368 94.8654 159.498 95.0122 159.658 95.121Z" fill="#E79C00"/>
<path d="M175.589 48.4087C174.62 48.0011 173.56 47.8525 172.515 47.9777C171.47 48.1028 170.476 48.4973 169.631 49.1222C167.067 50.7473 164.79 52.7819 162.891 55.1441C162.215 55.9649 161.406 56.6666 160.496 57.2199C160.293 57.3377 160.082 57.442 159.865 57.5324C159.665 57.6129 159.472 57.7083 159.287 57.8177C158.042 58.6188 157.014 59.7121 156.292 61.0015C155.571 62.2909 155.179 63.7368 155.15 65.2124C155.132 65.68 155.233 66.1446 155.445 66.5624C155.657 66.9802 155.972 67.3375 156.361 67.6007L159.871 69.6312C159.482 69.368 159.167 69.0106 158.955 68.5928C158.744 68.175 158.643 67.7105 158.661 67.2429C158.69 65.7674 159.082 64.3214 159.803 63.0321C160.524 61.7427 161.553 60.6493 162.798 59.8481C162.983 59.7391 163.176 59.6438 163.375 59.5629C163.592 59.4725 163.803 59.3682 164.007 59.2508C164.916 58.6975 165.726 57.9956 166.401 57.1746C168.3 54.8126 170.577 52.7782 173.141 51.1532C173.986 50.5282 174.98 50.1336 176.025 50.0084C177.07 49.8833 178.13 50.0319 179.1 50.4396L175.589 48.4087Z" fill="#E79C00"/>
<path d="M179.1 50.4401C178.131 50.0324 177.071 49.8838 176.026 50.0089C174.98 50.134 173.986 50.5286 173.141 51.1536C170.577 52.7787 168.3 54.813 166.401 57.1751C165.726 57.9961 164.917 58.6979 164.007 59.2513C163.804 59.3687 163.593 59.473 163.376 59.5634C163.177 59.6443 162.983 59.7396 162.798 59.8486C161.553 60.6498 160.525 61.7432 159.803 63.0325C159.082 64.3219 158.69 65.7679 158.661 67.2434C158.611 67.7267 158.704 68.2141 158.93 68.6449C159.156 69.0756 159.505 69.4307 159.932 69.6656C160.359 69.9006 160.847 70.0052 161.333 69.9663C161.82 69.9273 162.284 69.7467 162.669 69.4468C164.465 68.2143 165.836 66.4604 166.594 64.4241C167.701 61.6833 169.611 59.3377 172.076 57.6927C175.238 55.8753 177.972 57.4048 176.932 63.4835C175.366 72.66 168.188 86.2215 160.793 91.0452C160.292 91.3945 159.883 91.8572 159.598 92.3952C159.313 92.9332 159.16 93.531 159.153 94.1391C159.221 95.174 160.007 95.5402 160.987 94.9763C174.482 86.6581 187.628 55.1093 179.1 50.4401Z" fill="url(#paint8_linear_400_3060)"/>
<path d="M176.259 49.7993C174.114 50.2121 172.116 51.1819 170.468 52.6106C168.868 54.0322 167.396 55.591 166.07 57.2689C165.482 58.0247 164.787 58.6923 164.007 59.251C164.893 58.8268 165.689 58.2378 166.352 57.5158C167.741 55.9301 169.266 54.4676 170.91 53.1446C172.416 51.6971 174.279 50.6706 176.311 50.1686C177.246 49.958 178.224 50.0532 179.1 50.4402C178.255 49.9093 177.252 49.6831 176.259 49.7993Z" fill="url(#paint9_radial_400_3060)"/>
<path d="M164.025 142.928L105.573 143.098L105.578 145.12C105.799 147.595 106.666 149.969 108.093 152.008C109.521 154.046 111.459 155.678 113.715 156.741C120.082 160.05 127.145 161.812 134.327 161.885C141.509 161.957 148.606 160.337 155.039 157.156C157.505 156.12 159.643 154.437 161.227 152.288C162.81 150.139 163.779 147.603 164.031 144.95L164.025 142.928Z" fill="url(#paint10_linear_400_3060)"/>
<path d="M155.158 129.699C149.023 126.485 142.209 124.771 135.277 124.697C128.345 124.623 121.496 126.192 115.294 129.275C112.595 130.525 110.276 132.461 108.569 134.888C106.863 137.315 105.829 140.147 105.573 143.098C105.793 145.573 106.66 147.948 108.088 149.986C109.515 152.025 111.453 153.656 113.709 154.719C120.076 158.028 127.139 159.791 134.321 159.863C141.503 159.935 148.6 158.315 155.033 155.135C157.532 154.078 159.692 152.359 161.277 150.164C162.862 147.97 163.812 145.385 164.023 142.69C163.756 139.959 162.804 137.339 161.255 135.069C159.707 132.799 157.61 130.953 155.158 129.699Z" fill="url(#paint11_linear_400_3060)"/>
<path d="M134.836 155.884C149.735 155.841 161.792 148.844 161.768 140.254C161.743 131.665 149.646 124.736 134.747 124.778C119.849 124.82 107.791 131.818 107.816 140.407C107.84 148.997 119.938 155.926 134.836 155.884Z" fill="url(#paint12_linear_400_3060)"/>
<path d="M150.64 132.296L118.897 132.388L118.91 136.865C119.03 138.209 119.501 139.498 120.276 140.605C121.051 141.712 122.103 142.598 123.328 143.175C126.786 144.972 130.621 145.929 134.522 145.969C138.422 146.008 142.276 145.128 145.77 143.401C147.109 142.838 148.27 141.924 149.13 140.757C149.99 139.59 150.516 138.213 150.653 136.772L150.64 132.296Z" fill="url(#paint13_linear_400_3060)"/>
<path d="M149.234 128.543L146.094 124.545L123.401 124.607L120.284 128.622C117.717 131.928 118.705 135.936 123.316 138.698C127.444 140.921 132.145 141.866 136.816 141.412C139.527 141.234 142.186 140.579 144.668 139.477C145.041 139.303 145.404 139.119 145.757 138.924C150.742 136.157 151.927 131.972 149.234 128.543Z" fill="url(#paint14_linear_400_3060)"/>
<path d="M147.183 122.858L122.301 122.931L122.314 127.559C122.408 128.613 122.777 129.624 123.385 130.491C123.992 131.359 124.817 132.054 125.778 132.506C128.488 133.915 131.494 134.665 134.551 134.696C137.609 134.726 140.63 134.037 143.368 132.683C144.418 132.242 145.328 131.525 146.002 130.611C146.676 129.696 147.088 128.617 147.196 127.487L147.183 122.858Z" fill="url(#paint15_linear_400_3060)"/>
<path d="M169.318 69.2871L99.8613 69.4887C99.8613 69.4887 99.8686 89.7551 99.8756 89.9211C99.869 89.7674 100.085 96.8246 100.519 100.415C100.999 105.024 102.14 109.541 103.907 113.828C106.357 119.671 110.592 124.599 116.013 127.912C122.084 131.4 129.029 133.091 136.032 132.786C143.366 132.68 150.477 130.254 156.335 125.858C161.921 121.474 165.804 115.296 167.322 108.378C168.63 102.253 169.332 96.0146 169.417 89.753C169.424 89.576 169.318 69.2871 169.318 69.2871Z" fill="url(#paint16_linear_400_3060)"/>
<path d="M159.649 55.5155C152.084 51.5836 143.692 49.4891 135.158 49.4031C126.624 49.3172 118.191 51.2424 110.547 55.0213C96.7065 62.7026 96.2515 75.3784 109.529 83.3326C117.095 87.2646 125.487 89.3591 134.021 89.4451C142.555 89.5311 150.989 87.6061 158.632 83.8273C166.417 79.5062 169.967 73.6054 169.22 67.8533C168.669 65.2094 167.52 62.7248 165.862 60.5874C164.204 58.45 162.08 56.7157 159.649 55.5155Z" fill="url(#paint17_linear_400_3060)"/>
<path d="M158.403 56.2075C151.214 52.4711 143.239 50.4807 135.129 50.3991C127.02 50.3175 119.006 52.1469 111.742 55.7379C98.59 63.0376 98.1574 75.0826 110.776 82.6416C117.964 86.3782 125.94 88.3687 134.049 88.4504C142.159 88.5321 150.173 86.7027 157.437 83.1117C170.589 75.812 171.021 63.7665 158.403 56.2075Z" fill="url(#paint18_linear_400_3060)"/>
<path d="M109.96 116.803C109.78 116.716 109.581 116.677 109.382 116.688C109.182 116.699 108.989 116.76 108.82 116.865C107.26 117.69 105.513 118.102 103.747 118.063C101.982 118.024 100.256 117.534 98.7345 116.641L102.245 118.672C103.766 119.565 105.492 120.055 107.258 120.094C109.024 120.133 110.77 119.72 112.33 118.896C112.5 118.79 112.693 118.729 112.892 118.718C113.092 118.707 113.29 118.747 113.47 118.833L109.96 116.803Z" fill="#E79C00"/>
<path d="M105.484 98.2912L101.973 96.2607C102.311 96.4583 102.618 96.7032 102.886 96.9879C103.146 97.2691 103.446 97.512 103.775 97.7093L107.286 99.7398C106.957 99.5425 106.657 99.2996 106.396 99.0184C106.128 98.7337 105.821 98.4888 105.484 98.2912Z" fill="#E79C00"/>
<path d="M93.8564 99.4265C95.2678 96.905 97.316 94.7937 99.7982 93.3012C101.846 92.1148 104.183 91.515 106.552 91.5683C107.399 91.565 108.228 91.3306 108.95 90.8905C109.168 90.7646 109.379 90.6266 109.582 90.4771C109.764 90.3399 109.955 90.2144 110.153 90.1016C110.577 89.7952 111.074 89.6069 111.595 89.5561C112.116 89.5054 112.641 89.594 113.115 89.8129L109.605 87.7825C109.13 87.5636 108.605 87.4749 108.085 87.5256C107.564 87.5764 107.066 87.7648 106.643 88.0712C106.445 88.1839 106.254 88.3091 106.071 88.4462C105.869 88.596 105.658 88.734 105.44 88.8595C104.718 89.3 103.888 89.5346 103.042 89.5378C100.673 89.4845 98.3355 90.0842 96.2878 91.2707C93.8053 92.7631 91.7572 94.8744 90.3458 97.3961C89.1263 99.2773 88.291 101.379 87.8877 103.582C87.4844 105.784 87.5211 108.044 87.9954 110.233C88.4697 112.421 89.3727 114.495 90.6524 116.336C91.9321 118.177 93.5635 119.75 95.4537 120.963L98.9644 122.994C97.0742 121.78 95.4428 120.208 94.1631 118.367C92.8833 116.526 91.9804 114.452 91.5061 112.263C91.0317 110.075 90.9951 107.815 91.3984 105.612C91.8017 103.41 92.6369 101.308 93.8564 99.4265Z" fill="#E79C00"/>
<path d="M112.33 118.895C110.687 119.642 108.892 119.994 107.087 119.925C105.283 119.856 103.52 119.366 101.94 118.495C100.361 117.625 99.0081 116.397 97.9916 114.912C96.975 113.426 96.3224 111.724 96.0868 109.942C95.6445 107.788 95.8676 105.552 96.7262 103.527C97.5849 101.502 99.0392 99.783 100.898 98.5962C101.714 98.0017 102.717 97.7175 103.725 97.7948C104.734 97.8721 105.681 98.306 106.396 99.0179C106.834 99.5791 107.47 99.9526 108.176 100.062C108.881 100.172 109.602 100.009 110.191 99.6073C111.349 98.8365 112.321 97.8188 113.036 96.6279C113.751 95.437 114.191 94.1028 114.324 92.7218C114.438 89.9074 112.523 88.74 110.153 90.1015C109.955 90.2142 109.764 90.3397 109.582 90.477C109.379 90.6264 109.168 90.7644 108.95 90.8903C108.228 91.3304 107.399 91.5648 106.552 91.5681C104.183 91.5148 101.846 92.1146 99.798 93.3011C97.3158 94.7935 95.2677 96.9048 93.8563 99.4263C92.1893 102.202 91.272 105.36 91.1937 108.593C91 119.727 101.523 128.704 112.217 123.003C112.712 122.682 113.127 122.254 113.433 121.751C113.738 121.248 113.926 120.683 113.981 120.098C114.044 118.965 113.322 118.4 112.33 118.895Z" fill="url(#paint19_linear_400_3060)"/>
<path d="M109.068 90.7448C108.116 91.2886 107.014 91.5132 105.924 91.3856C102.453 91.4565 99.139 92.8417 96.6574 95.2591C94.2751 97.716 92.5616 100.737 91.6793 104.037C91.2839 105.522 91.1204 107.059 91.1942 108.594C91.2906 107.079 91.5747 105.582 92.0401 104.137C93.0007 100.958 94.7564 98.0738 97.1425 95.7543C99.4544 93.3576 102.597 91.9285 105.931 91.7581C106.572 91.7933 107.214 91.7106 107.825 91.5142C108.291 91.3541 108.731 91.1275 109.131 90.8416L110.153 90.1025C110.153 90.1025 109.759 90.3363 109.068 90.7448Z" fill="url(#paint20_radial_400_3060)"/>
<path d="M169.22 67.8525C169.327 68.8647 169.29 69.8868 169.111 70.8887C168.612 73.5067 167.394 75.936 165.592 77.9067C156.936 88.1802 130.657 93.8319 109.53 83.3322C130.235 95.3025 157.072 89.4452 166.072 78.306C167.866 76.218 168.992 73.6437 169.304 70.9139C169.422 69.8946 169.393 68.8639 169.22 67.8525Z" fill="url(#paint21_radial_400_3060)"/>
<path style="mix-blend-mode:screen" d="M157.097 207.73C224.414 205.474 277.147 149.327 274.88 82.3221C272.613 15.3176 216.205 -37.171 148.888 -34.9146C81.5711 -32.6583 28.8377 23.4887 31.1046 90.4932C33.3715 157.498 89.7803 209.986 157.097 207.73Z" fill="url(#paint22_radial_400_3060)"/>
<path style="mix-blend-mode:screen" d="M129.288 76.6105C134.114 84.931 141.311 91.6401 149.968 95.8895C158.625 100.139 168.354 101.738 177.924 100.483C187.494 99.2294 196.475 95.1788 203.732 88.8439C210.989 82.5091 216.196 74.1746 218.694 64.8942C221.192 55.6139 220.87 45.8046 217.767 36.7068C214.664 27.609 208.921 19.6313 201.263 13.7825C193.605 7.9337 184.377 4.47653 174.745 3.84817C165.113 3.21981 155.511 5.4485 147.151 10.2524C141.601 13.442 136.736 17.6885 132.834 22.7496C128.933 27.8106 126.071 33.587 124.412 39.749C122.753 45.9109 122.33 52.3377 123.167 58.6625C124.003 64.9872 126.083 71.0859 129.288 76.6105Z" fill="url(#paint23_radial_400_3060)"/>
<path style="mix-blend-mode:screen" d="M141.265 116.881C153.504 92.9771 143.957 63.7242 119.942 51.5423C95.9275 39.3605 66.5383 48.8626 54.2996 72.766C42.0609 96.6694 51.6074 125.922 75.6222 138.104C99.637 150.286 129.026 140.784 141.265 116.881Z" fill="url(#paint24_radial_400_3060)"/>
</g>
<defs>
<linearGradient id="paint0_linear_400_3060" x1="88.6151" y1="168.817" x2="180.853" y2="168.817" gradientUnits="userSpaceOnUse">
<stop stop-color="#FFE9BC"/>
<stop offset="1" stop-color="#FFF0B9"/>
</linearGradient>
<linearGradient id="paint1_linear_400_3060" x1="119.715" y1="190.64" x2="192.214" y2="190.64" gradientUnits="userSpaceOnUse">
<stop stop-color="#FFE9BC"/>
<stop offset="1" stop-color="#FFF0B9"/>
</linearGradient>
<linearGradient id="paint2_linear_400_3060" x1="131.076" y1="206.794" x2="203.59" y2="206.794" gradientUnits="userSpaceOnUse">
<stop stop-color="#FFE9BC"/>
<stop offset="1" stop-color="#FFF0B9"/>
</linearGradient>
<linearGradient id="paint3_linear_400_3060" x1="142.453" y1="222.949" x2="214.951" y2="222.949" gradientUnits="userSpaceOnUse">
<stop stop-color="#FFE9BC"/>
<stop offset="1" stop-color="#FFF0B9"/>
</linearGradient>
<linearGradient id="paint4_linear_400_3060" x1="153.814" y1="239.099" x2="226.312" y2="239.099" gradientUnits="userSpaceOnUse">
<stop stop-color="#FFE9BC"/>
<stop offset="1" stop-color="#FFF0B9"/>
</linearGradient>
<linearGradient id="paint5_linear_400_3060" x1="165.174" y1="255.255" x2="237.689" y2="255.255" gradientUnits="userSpaceOnUse">
<stop stop-color="#FFE9BC"/>
<stop offset="1" stop-color="#FFF0B9"/>
</linearGradient>
<linearGradient id="paint6_linear_400_3060" x1="176.551" y1="271.41" x2="249.05" y2="271.41" gradientUnits="userSpaceOnUse">
<stop stop-color="#FFE9BC"/>
<stop offset="1" stop-color="#FFF0B9"/>
</linearGradient>
<linearGradient id="paint7_linear_400_3060" x1="187.912" y1="287.564" x2="260.426" y2="287.564" gradientUnits="userSpaceOnUse">
<stop stop-color="#FFE9BC"/>
<stop offset="1" stop-color="#FFF0B9"/>
</linearGradient>
<linearGradient id="paint8_linear_400_3060" x1="158.655" y1="72.5862" x2="181.809" y2="72.5862" gradientUnits="userSpaceOnUse">
<stop stop-color="#FDB300"/>
<stop offset="1" stop-color="#FFB600"/>
</linearGradient>
<radialGradient id="paint9_radial_400_3060" cx="0" cy="0" r="1" gradientUnits="userSpaceOnUse" gradientTransform="translate(171.554 54.5136) scale(6.30889 6.27967)">
<stop stop-color="#FFDD75"/>
<stop offset="1" stop-color="#FFD03B"/>
</radialGradient>
<linearGradient id="paint10_linear_400_3060" x1="105.573" y1="152.407" x2="164.031" y2="152.407" gradientUnits="userSpaceOnUse">
<stop stop-color="#D68900"/>
<stop offset="1" stop-color="#FFB600"/>
</linearGradient>
<linearGradient id="paint11_linear_400_3060" x1="105.573" y1="142.28" x2="164.023" y2="142.28" gradientUnits="userSpaceOnUse">
<stop stop-color="#E79400"/>
<stop offset="1" stop-color="#FABF00"/>
</linearGradient>
<linearGradient id="paint12_linear_400_3060" x1="107.816" y1="140.331" x2="161.768" y2="140.331" gradientUnits="userSpaceOnUse">
<stop stop-color="#EEB314"/>
<stop offset="1" stop-color="#FFD03B"/>
</linearGradient>
<linearGradient id="paint13_linear_400_3060" x1="118.897" y1="139.133" x2="150.653" y2="139.133" gradientUnits="userSpaceOnUse">
<stop stop-color="#D68900"/>
<stop offset="1" stop-color="#E5A300"/>
</linearGradient>
<linearGradient id="paint14_linear_400_3060" x1="118.897" y1="133.018" x2="150.64" y2="133.018" gradientUnits="userSpaceOnUse">
<stop stop-color="#ECA00B"/>
<stop offset="1" stop-color="#FCCB34"/>
</linearGradient>
<linearGradient id="paint15_linear_400_3060" x1="122.301" y1="128.777" x2="147.196" y2="128.777" gradientUnits="userSpaceOnUse">
<stop stop-color="#D68900"/>
<stop offset="1" stop-color="#E5A300"/>
</linearGradient>
<linearGradient id="paint16_linear_400_3060" x1="99.8613" y1="101.057" x2="169.418" y2="101.057" gradientUnits="userSpaceOnUse">
<stop stop-color="#D68900"/>
<stop offset="1" stop-color="#FFB600"/>
</linearGradient>
<linearGradient id="paint17_linear_400_3060" x1="99.8613" y1="69.4242" x2="169.318" y2="69.4242" gradientUnits="userSpaceOnUse">
<stop stop-color="#FBC931"/>
<stop offset="1" stop-color="#FFD03B"/>
</linearGradient>
<linearGradient id="paint18_linear_400_3060" x1="101.588" y1="69.4247" x2="167.591" y2="69.4247" gradientUnits="userSpaceOnUse">
<stop stop-color="#FFB600"/>
<stop offset="1" stop-color="#D68900"/>
</linearGradient>
<linearGradient id="paint19_linear_400_3060" x1="91.1911" y1="107.151" x2="114.329" y2="107.151" gradientUnits="userSpaceOnUse">
<stop stop-color="#FDB300"/>
<stop offset="1" stop-color="#FFB600"/>
</linearGradient>
<radialGradient id="paint20_radial_400_3060" cx="0" cy="0" r="1" gradientUnits="userSpaceOnUse" gradientTransform="translate(100.663 99.3482) scale(9.39026 9.34671)">
<stop stop-color="#FFDD75"/>
<stop offset="1" stop-color="#FFD03B"/>
</radialGradient>
<radialGradient id="paint21_radial_400_3060" cx="0" cy="0" r="1" gradientUnits="userSpaceOnUse" gradientTransform="translate(157.646 84.4652) scale(48.3296 48.1053)">
<stop stop-color="#FFDD75"/>
<stop offset="1" stop-color="#FFD03B"/>
</radialGradient>
<radialGradient id="paint22_radial_400_3060" cx="0" cy="0" r="1" gradientUnits="userSpaceOnUse" gradientTransform="translate(152.993 86.4077) scale(121.977 121.411)">
<stop stop-color="#FF9412"/>
<stop offset="0.00738" stop-color="#F68F11"/>
<stop offset="0.04768" stop-color="#C8740E"/>
<stop offset="0.09309" stop-color="#9D5B0B"/>
<stop offset="0.1419" stop-color="#774508"/>
<stop offset="0.19502" stop-color="#573206"/>
<stop offset="0.25374" stop-color="#3B2204"/>
<stop offset="0.32001" stop-color="#251603"/>
<stop offset="0.39742" stop-color="#140C01"/>
<stop offset="0.49311" stop-color="#090501"/>
<stop offset="0.62736" stop-color="#020100"/>
<stop offset="1"/>
</radialGradient>
<radialGradient id="paint23_radial_400_3060" cx="0" cy="0" r="1" gradientUnits="userSpaceOnUse" gradientTransform="translate(171.553 52.3217) scale(48.812 48.5855)">
<stop stop-color="#FF9412"/>
<stop offset="0.00738" stop-color="#F68F11"/>
<stop offset="0.04768" stop-color="#C8740E"/>
<stop offset="0.09309" stop-color="#9D5B0B"/>
<stop offset="0.1419" stop-color="#774508"/>
<stop offset="0.19502" stop-color="#573206"/>
<stop offset="0.25374" stop-color="#3B2204"/>
<stop offset="0.32001" stop-color="#251603"/>
<stop offset="0.39742" stop-color="#140C01"/>
<stop offset="0.49311" stop-color="#090501"/>
<stop offset="0.62736" stop-color="#020100"/>
<stop offset="1"/>
</radialGradient>
<radialGradient id="paint24_radial_400_3060" cx="0" cy="0" r="1" gradientUnits="userSpaceOnUse" gradientTransform="translate(97.7821 94.8235) scale(48.8119 48.5854)">
<stop stop-color="#FF9412"/>
<stop offset="0.00738" stop-color="#F68F11"/>
<stop offset="0.04768" stop-color="#C8740E"/>
<stop offset="0.09309" stop-color="#9D5B0B"/>
<stop offset="0.1419" stop-color="#774508"/>
<stop offset="0.19502" stop-color="#573206"/>
<stop offset="0.25374" stop-color="#3B2204"/>
<stop offset="0.32001" stop-color="#251603"/>
<stop offset="0.39742" stop-color="#140C01"/>
<stop offset="0.49311" stop-color="#090501"/>
<stop offset="0.62736" stop-color="#020100"/>
<stop offset="1"/>
</radialGradient>
<clipPath id="clip0_400_3060">
<rect width="221" height="337" fill="white" transform="translate(58)"/>
</clipPath>
</defs>
</svg>
