<svg width="337" height="337" viewBox="0 0 337 337" fill="none" xmlns="http://www.w3.org/2000/svg">
<g clip-path="url(#clip0_400_3075)">
<g style="mix-blend-mode:multiply" opacity="0.6">
<path d="M303.609 186.002C303.533 185.869 303.431 185.753 303.309 185.66C303.188 185.567 303.049 185.498 302.901 185.459C302.753 185.419 302.598 185.409 302.446 185.429C302.294 185.449 302.148 185.499 302.015 185.575L274.874 201.219C270.25 204.767 270.979 208.715 271.624 212.199C272.439 214.798 272.253 217.608 271.102 220.078C270.485 221.12 269.647 222.014 268.647 222.7C267.647 223.385 266.509 223.844 265.312 224.045C256.503 225.812 248.125 220.981 240.596 216.018C237.49 213.899 235.077 212.349 234.831 212.191C234.571 212.023 234.255 211.965 233.952 212.03C233.649 212.095 233.385 212.277 233.217 212.536C233.049 212.795 232.991 213.11 233.056 213.412C233.12 213.714 233.303 213.978 233.563 214.146C234.404 214.693 235.257 215.262 236.124 215.84C231.084 214.835 226.04 216.581 224.097 219.28C223.408 220.212 223.085 221.362 223.186 222.515C223.288 223.669 223.808 224.745 224.649 225.543C234.037 236.177 243.156 237.803 249.074 236.019C246.139 238.257 242.963 240.16 239.604 241.693C236.135 243.443 232.275 244.277 228.391 244.116C227.624 239.456 225.57 235.101 222.46 231.54C220.663 229.308 218.063 227.865 215.215 227.519C212.366 227.173 209.495 227.951 207.213 229.688C204.995 231.134 203.884 232.592 203.813 234.145C203.863 234.943 204.102 235.719 204.511 236.407C204.92 237.095 205.488 237.676 206.167 238.102C211.531 242.341 217.915 245.106 224.683 246.122C225.228 246.197 225.763 246.26 226.289 246.31C226.422 247.41 226.202 248.523 225.661 249.491C223.057 252.912 216.957 252.426 212.274 250.177L210.249 249.206C206.557 247.435 203.091 245.761 199.852 244.185C187.712 235.366 169.569 224.056 165.015 224.484C164.733 224.497 164.456 224.568 164.203 224.691C163.949 224.815 163.723 224.99 163.54 225.204C163.474 225.286 163.419 225.376 163.378 225.473C162.758 226.889 162.208 228.144 189.219 241.56C187.841 241.316 186.426 241.371 185.071 241.722C183.716 242.074 182.454 242.714 181.37 243.597C180.64 244.281 180.061 245.109 179.669 246.028C179.277 246.947 179.08 247.937 179.092 248.936C179.174 250.435 179.553 251.902 180.206 253.254C180.858 254.607 181.772 255.817 182.896 256.816C189.682 263.197 196.569 265.049 201.531 264.676C196.685 267.451 191.244 270.554 188.193 271.108C183.009 271.901 177.708 270.957 173.12 268.424L172.002 267.867C170.118 267.002 168.309 265.981 166.595 264.815C165.421 263.936 164.263 263.07 163.189 262.253C163.358 261.044 163.168 259.811 162.641 258.708C162.178 257.681 161.435 256.804 160.497 256.176C159.559 255.548 158.464 255.196 157.335 255.157C156.89 255.175 156.462 255.334 156.114 255.61C155.765 255.887 155.514 256.267 155.397 256.695C154.938 258.392 155.762 259.478 160.548 263.17C160.02 264.398 159.254 265.51 158.295 266.443C156.84 267.76 155.124 268.757 153.259 269.37C151.394 269.984 149.42 270.2 147.465 270.005C145.475 269.892 143.577 269.126 142.068 267.826C138.759 264.826 139.858 260.811 140.918 256.929C141.645 254.558 142.075 252.107 142.198 249.631C144.529 249.005 146.771 248.092 148.874 246.911C158.46 241.391 158.46 232.441 148.874 226.92C143.858 224.247 138.263 222.836 132.576 222.809L132.602 213.128C132.603 212.819 132.481 212.522 132.262 212.303C132.044 212.084 131.748 211.961 131.438 211.96C131.128 211.959 130.831 212.081 130.611 212.298C130.392 212.516 130.268 212.812 130.267 213.121L130.241 222.815C124.628 222.872 119.113 224.28 114.164 226.92C104.579 232.441 104.579 241.391 114.164 246.911C122.09 250.939 131.171 252.101 139.86 250.197C139.671 252.272 139.271 254.322 138.666 256.316C137.537 260.448 136.13 265.59 140.499 269.55C142.392 271.197 144.778 272.173 147.285 272.326C149.583 272.574 151.908 272.321 154.099 271.585C156.29 270.849 158.294 269.647 159.973 268.063C160.984 267.06 161.825 265.899 162.461 264.626C163.284 265.247 164.192 265.929 165.195 266.68C167.02 267.932 168.948 269.027 170.96 269.951L172.066 270.504C175.942 272.561 180.25 273.676 184.64 273.756C185.972 273.757 187.302 273.638 188.612 273.401C192.101 272.765 197.586 269.621 202.892 266.582L203.982 265.956C206.105 264.817 207.879 263.124 209.115 261.059C209.904 260.029 210.419 258.817 210.611 257.536C210.761 256.326 210.635 255.099 210.242 253.945C209.848 252.792 209.198 251.742 208.34 250.875C208.636 251.017 208.935 251.16 209.236 251.304L211.261 252.276C216.629 254.857 224.008 255.526 227.522 250.897C228.358 249.571 228.738 248.009 228.605 246.449C232.769 246.568 236.898 245.655 240.621 243.791C249.847 239.347 254.693 235.146 255.37 230.99C255.619 230.37 255.698 229.696 255.601 229.036C255.503 228.376 255.233 227.754 254.816 227.232C254.514 226.603 254.138 226.011 253.696 225.47C257.58 226.788 261.739 227.084 265.771 226.329C267.301 226.061 268.754 225.464 270.029 224.578C271.303 223.692 272.369 222.539 273.15 221.2C274.571 218.263 274.846 214.904 273.921 211.777C273.298 208.407 272.806 205.745 276.169 203.15L303.182 187.593C303.315 187.517 303.432 187.415 303.525 187.294C303.619 187.172 303.687 187.034 303.727 186.886C303.766 186.738 303.776 186.584 303.756 186.432C303.736 186.281 303.686 186.134 303.609 186.002ZM225.002 243.816C218.646 242.857 212.651 240.257 207.612 236.273C206.6 235.476 206.121 234.814 206.146 234.249C206.178 233.529 207.01 232.603 208.49 231.637C210.101 230.498 212.012 229.858 213.986 229.799C215.283 229.857 216.555 230.182 217.719 230.756C218.884 231.329 219.917 232.137 220.752 233.129C223.446 236.197 225.262 239.931 226.01 243.94C225.68 243.903 225.342 243.862 225.002 243.816ZM167.341 227.213C173.334 229.838 179.086 232.98 184.533 236.6C175.84 232.199 170.094 229.062 167.341 227.213ZM157.675 257.47C158.412 257.625 159.093 257.979 159.642 258.494C160.191 259.01 160.587 259.665 160.787 260.39C159.605 259.583 158.555 258.598 157.675 257.47ZM207.761 258.166C207.632 258.729 207.429 259.272 207.156 259.782C206.339 260.736 205.27 261.443 204.071 261.823C199.524 263.386 191.718 261.914 184.496 255.121C182.702 253.533 181.6 251.309 181.427 248.922C181.417 248.238 181.551 247.56 181.82 246.93C182.09 246.301 182.49 245.736 182.994 245.272C184.324 244.199 186.019 243.683 187.723 243.829C189.225 243.853 190.721 244.027 192.188 244.348C195.064 244.929 197.827 245.967 200.372 247.425C202.06 248.689 203.64 249.923 205.07 251.098C205.562 251.622 206.017 252.18 206.431 252.767C207.028 253.519 207.456 254.39 207.685 255.322C207.915 256.253 207.94 257.223 207.761 258.166ZM253.094 230.38C252.799 230.986 252.379 231.523 251.861 231.954C247.831 235.463 237.355 236.411 226.4 224.003C225.914 223.6 225.602 223.026 225.527 222.4C225.452 221.774 225.62 221.143 225.997 220.637C226.907 219.682 228.018 218.94 229.248 218.462C230.479 217.984 231.8 217.782 233.118 217.871C234.766 217.865 236.399 218.184 237.923 218.809C239.996 219.671 242.58 220.745 245.026 221.999C247.811 223.93 250.42 226.102 252.823 228.49C253.001 228.929 253.1 229.397 253.115 229.871C253.119 230.041 253.112 230.211 253.094 230.38Z" fill="#3A0155"/>
</g>
<path d="M303.842 184.371C303.766 184.239 303.664 184.122 303.543 184.029C303.421 183.936 303.282 183.867 303.134 183.828C302.986 183.788 302.832 183.778 302.68 183.798C302.528 183.818 302.381 183.868 302.248 183.945L275.107 199.588C270.483 203.136 271.213 207.084 271.858 210.568C272.673 213.167 272.487 215.977 271.336 218.447C270.718 219.489 269.88 220.383 268.88 221.068C267.88 221.754 266.742 222.213 265.546 222.414C256.737 224.181 248.359 219.35 240.829 214.387C237.723 212.268 235.311 210.718 235.064 210.56C234.804 210.393 234.489 210.336 234.187 210.401C233.885 210.466 233.621 210.648 233.453 210.906C233.285 211.165 233.227 211.48 233.291 211.781C233.356 212.083 233.537 212.347 233.796 212.515C234.638 213.062 235.491 213.63 236.357 214.209C231.318 213.204 226.273 214.95 224.331 217.649C223.642 218.581 223.318 219.731 223.42 220.884C223.521 222.038 224.041 223.114 224.882 223.912C234.271 234.546 243.39 236.172 249.307 234.388C246.373 236.626 243.196 238.53 239.837 240.063C236.368 241.812 232.508 242.646 228.625 242.485C227.857 237.825 225.803 233.47 222.693 229.909C220.897 227.677 218.296 226.234 215.448 225.888C212.599 225.542 209.728 226.32 207.447 228.057C205.228 229.503 204.118 230.961 204.047 232.514C204.096 233.312 204.335 234.088 204.745 234.776C205.154 235.464 205.721 236.045 206.4 236.471C211.765 240.71 218.149 243.475 224.917 244.491C225.462 244.566 225.997 244.629 226.522 244.679C226.655 245.779 226.435 246.892 225.895 247.86C223.291 251.281 217.191 250.796 212.507 248.546L210.482 247.575C207.301 246.049 204.288 244.595 201.444 243.214C200.539 242.774 199.674 242.257 198.859 241.669C186.756 232.998 169.652 222.439 165.249 222.853C164.966 222.866 164.69 222.937 164.436 223.061C164.182 223.184 163.957 223.359 163.773 223.573C163.707 223.655 163.653 223.745 163.611 223.842C162.991 225.258 162.442 226.513 189.453 239.929C188.074 239.685 186.659 239.74 185.305 240.092C183.95 240.443 182.687 241.083 181.604 241.966C180.874 242.65 180.295 243.478 179.902 244.397C179.51 245.316 179.314 246.306 179.325 247.305C179.408 248.804 179.786 250.271 180.439 251.623C181.092 252.976 182.006 254.186 183.129 255.185C189.915 261.566 196.802 263.418 201.764 263.045C196.918 265.82 191.477 268.923 188.426 269.478C183.242 270.27 177.942 269.326 173.353 266.793L172.236 266.236C170.351 265.371 168.543 264.349 166.829 263.183C165.655 262.306 164.496 261.439 163.422 260.622C163.592 259.413 163.402 258.18 162.875 257.077C162.411 256.05 161.668 255.173 160.731 254.545C159.793 253.917 158.697 253.564 157.568 253.526C157.124 253.544 156.696 253.703 156.348 253.979C155.999 254.256 155.748 254.636 155.63 255.064C155.172 256.761 155.995 257.847 160.781 261.539C160.253 262.767 159.487 263.879 158.528 264.812C157.073 266.129 155.358 267.126 153.492 267.739C151.627 268.353 149.653 268.569 147.699 268.375C145.708 268.261 143.811 267.495 142.301 266.195C138.993 263.195 140.092 259.18 141.152 255.298C142.055 252.53 142.49 249.632 142.441 246.722C142.352 244.459 141.521 242.288 140.075 240.543C138.629 238.797 136.647 237.574 134.436 237.062C133.966 236.936 133.55 236.661 133.25 236.279C132.95 235.897 132.782 235.428 132.772 234.943L132.836 211.497C132.836 211.344 132.806 211.192 132.748 211.051C132.69 210.909 132.604 210.781 132.496 210.672C132.388 210.564 132.259 210.478 132.118 210.419C131.976 210.36 131.825 210.329 131.671 210.329C131.518 210.328 131.366 210.358 131.224 210.416C131.082 210.474 130.954 210.56 130.845 210.668C130.736 210.775 130.65 210.904 130.591 211.045C130.532 211.186 130.501 211.337 130.5 211.49L130.437 234.936C130.443 235.924 130.77 236.882 131.37 237.668C131.97 238.453 132.809 239.023 133.761 239.291C135.524 239.649 137.112 240.594 138.265 241.971C139.419 243.347 140.069 245.074 140.11 246.867C140.136 249.522 139.727 252.162 138.899 254.685C137.77 258.817 136.363 263.959 140.732 267.919C142.625 269.566 145.012 270.542 147.519 270.694C149.817 270.943 152.142 270.69 154.332 269.954C156.523 269.218 158.527 268.016 160.207 266.432C161.218 265.429 162.058 264.268 162.695 262.995C163.518 263.616 164.425 264.298 165.429 265.049C167.253 266.301 169.182 267.396 171.193 268.32L172.3 268.873C176.175 270.93 180.484 272.045 184.873 272.125C186.206 272.126 187.535 272.007 188.846 271.771C192.335 271.134 197.819 267.99 203.125 264.951L204.215 264.326C206.339 263.186 208.113 261.493 209.349 259.428C210.138 258.398 210.652 257.186 210.845 255.904C210.995 254.695 210.869 253.468 210.475 252.314C210.082 251.161 209.432 250.111 208.573 249.244C208.87 249.386 209.168 249.529 209.469 249.673L211.494 250.645C216.863 253.226 224.242 253.895 227.756 249.266C228.591 247.94 228.971 246.378 228.839 244.818C233.003 244.938 237.131 244.024 240.854 242.16C250.08 237.716 254.926 233.515 255.604 229.359C255.852 228.74 255.932 228.066 255.834 227.406C255.737 226.746 255.466 226.123 255.049 225.601C254.747 224.972 254.372 224.38 253.93 223.839C257.813 225.157 261.972 225.453 266.004 224.698C267.535 224.431 268.988 223.833 270.262 222.947C271.537 222.061 272.602 220.908 273.383 219.569C274.804 216.632 275.079 213.273 274.154 210.146C273.532 206.776 273.039 204.114 276.403 201.519L303.416 185.962C303.549 185.886 303.665 185.784 303.759 185.663C303.852 185.541 303.92 185.403 303.96 185.255C304 185.107 304.01 184.953 303.99 184.801C303.969 184.65 303.919 184.503 303.842 184.371ZM225.236 242.185C218.879 241.226 212.884 238.626 207.846 234.642C206.833 233.844 206.355 233.183 206.38 232.619C206.412 231.899 207.244 230.972 208.724 230.006C210.334 228.867 212.246 228.227 214.219 228.168C215.517 228.226 216.788 228.551 217.953 229.125C219.118 229.698 220.15 230.506 220.985 231.498C223.679 234.566 225.495 238.3 226.244 242.309C225.913 242.272 225.576 242.231 225.236 242.185ZM167.575 225.582C173.567 228.207 179.32 231.348 184.766 234.969C176.074 230.568 170.327 227.431 167.575 225.582ZM157.908 255.839C158.646 255.994 159.326 256.348 159.875 256.863C160.424 257.379 160.821 258.034 161.021 258.759C159.838 257.952 158.788 256.967 157.908 255.839ZM207.994 256.535C207.865 257.098 207.662 257.641 207.39 258.151C206.572 259.105 205.504 259.812 204.304 260.192C199.758 261.755 191.952 260.283 184.73 253.49C182.935 251.902 181.834 249.678 181.66 247.291C181.65 246.607 181.784 245.929 182.054 245.3C182.324 244.67 182.724 244.105 183.227 243.641C184.558 242.568 186.253 242.052 187.957 242.198C189.458 242.223 190.954 242.396 192.422 242.717C195.297 243.298 198.061 244.336 200.606 245.793C202.293 247.058 203.874 248.292 205.303 249.467C205.796 249.991 206.25 250.549 206.665 251.136C207.262 251.888 207.69 252.759 207.919 253.691C208.148 254.622 208.174 255.592 207.994 256.535ZM253.328 228.749C253.033 229.355 252.612 229.892 252.094 230.323C248.065 233.832 237.589 234.779 226.634 222.372C226.148 221.969 225.835 221.395 225.76 220.769C225.685 220.143 225.853 219.512 226.23 219.006C227.141 218.051 228.251 217.309 229.482 216.831C230.713 216.353 232.034 216.151 233.352 216.24C235 216.235 236.632 216.553 238.156 217.178C240.229 218.04 242.813 219.114 245.26 220.368C248.045 222.299 250.654 224.471 253.056 226.859C253.234 227.299 253.333 227.766 253.348 228.24C253.353 228.41 253.346 228.58 253.328 228.749Z" fill="url(#paint0_linear_400_3075)"/>
<path style="mix-blend-mode:screen" d="M303.268 184.373L302.951 184.285L275.912 199.86C271.742 203.06 272.385 206.553 273.012 209.952C273.867 212.757 273.645 215.779 272.389 218.431C271.706 219.591 270.776 220.588 269.667 221.354C268.557 222.119 267.293 222.634 265.963 222.862C264.658 223.122 263.331 223.253 262 223.252C254.181 223.252 246.826 218.837 240.537 214.69C237.443 212.579 235.039 211.034 234.793 210.877L234.471 210.943C234.454 210.969 234.443 210.998 234.437 211.029C234.431 211.059 234.432 211.091 234.438 211.121C234.445 211.151 234.457 211.18 234.475 211.205C234.493 211.231 234.516 211.252 234.542 211.269C235.384 211.818 236.241 212.389 237.11 212.969C237.289 213.089 237.422 213.267 237.485 213.474C237.547 213.68 237.536 213.902 237.453 214.101C237.371 214.3 237.221 214.464 237.03 214.566C236.84 214.667 236.619 214.699 236.407 214.657C235.503 214.477 234.584 214.387 233.662 214.387C232.111 214.299 230.561 214.552 229.119 215.129C227.678 215.706 226.382 216.592 225.323 217.725C224.759 218.487 224.498 219.43 224.589 220.372C224.68 221.315 225.116 222.19 225.815 222.831C231.956 229.784 238.831 233.613 245.173 233.613C246.561 233.62 247.942 233.424 249.273 233.031C249.36 233.004 249.451 232.991 249.542 232.991C249.735 232.991 249.924 233.051 250.081 233.162C250.239 233.273 250.358 233.43 250.423 233.612C250.487 233.793 250.494 233.99 250.442 234.176C250.389 234.361 250.281 234.526 250.131 234.647C247.139 236.929 243.9 238.871 240.475 240.436C237.152 242.113 233.477 242.98 229.753 242.965C229.448 242.965 229.14 242.961 228.83 242.951C228.612 242.944 228.404 242.861 228.241 242.718C228.078 242.574 227.97 242.379 227.936 242.165C227.202 237.686 225.231 233.501 222.242 230.079C221.292 228.936 220.11 228.006 218.774 227.352C217.438 226.697 215.978 226.332 214.491 226.282C212.231 226.347 210.04 227.074 208.19 228.371C206.243 229.643 205.269 230.858 205.214 232.09C205.274 232.74 205.486 233.367 205.833 233.92C206.181 234.473 206.654 234.937 207.214 235.273C212.447 239.411 218.676 242.111 225.279 243.103C225.808 243.176 226.335 243.237 226.846 243.286C227.071 243.307 227.282 243.41 227.437 243.574C227.592 243.739 227.682 243.954 227.69 244.18C227.847 245.495 227.558 246.825 226.871 247.957C226.044 248.931 224.998 249.695 223.819 250.189C222.64 250.682 221.36 250.89 220.084 250.796C217.396 250.745 214.751 250.105 212.338 248.919L210.313 247.948C206.975 246.349 203.827 244.829 200.756 243.325C200.099 243.003 199.471 242.626 198.879 242.198C186.085 232.994 170.06 223.315 165.575 223.315C165.406 223.319 165.241 223.36 165.09 223.435C164.939 223.51 164.806 223.617 164.701 223.749C164.3 224.669 167.002 227.156 190.105 238.63C190.105 238.63 192.589 239.984 192.471 240.414C192.357 240.82 190.105 240.395 189.687 240.395C189.12 240.354 188.645 240.335 188.189 240.335C186.119 240.17 184.069 240.83 182.486 242.17C181.848 242.767 181.341 243.49 180.998 244.292C180.655 245.095 180.483 245.96 180.493 246.832C180.574 248.205 180.926 249.548 181.528 250.785C182.13 252.022 182.971 253.129 184.002 254.041C191.083 260.698 197.541 261.692 200.763 261.692C201.162 261.692 201.55 261.678 201.926 261.651C202.137 261.638 202.346 261.696 202.52 261.814C202.695 261.933 202.825 262.106 202.891 262.306C202.952 262.508 202.944 262.725 202.866 262.921C202.788 263.117 202.645 263.282 202.462 263.387C197.593 266.175 192.075 269.337 188.828 269.929C187.602 270.15 186.359 270.261 185.113 270.261C180.943 270.178 176.852 269.116 173.171 267.16L172.019 266.587C170.095 265.702 168.249 264.657 166.501 263.464C166.501 263.464 164.07 261.642 163.089 260.898C162.958 260.799 162.855 260.666 162.792 260.514C162.728 260.362 162.707 260.197 162.729 260.034C162.829 259.318 162.783 258.59 162.592 257.893C162.401 257.196 162.071 256.545 161.62 255.98C161.169 255.414 160.608 254.946 159.97 254.604C159.333 254.262 158.632 254.052 157.91 253.989C157.653 253.99 157.403 254.073 157.197 254.227C156.991 254.38 156.84 254.596 156.766 254.842C156.483 255.883 156.84 256.672 161.569 260.323C161.728 260.439 161.845 260.602 161.905 260.788C161.966 260.975 161.965 261.175 161.905 261.362C161.333 262.726 160.492 263.961 159.431 264.995C156.611 267.584 152.892 268.977 149.06 268.88C148.65 268.88 148.251 268.866 147.861 268.837C145.662 268.708 143.569 267.858 141.905 266.419C138.181 263.039 139.401 258.555 140.484 254.587C140.995 252.828 141.375 251.034 141.62 249.22C141.499 249.277 141.374 249.329 141.248 249.374C141.205 249.387 141.17 249.376 141.129 249.386C140.879 251.108 140.511 252.811 140.028 254.482C138.915 258.566 137.654 263.193 141.592 266.765C143.332 268.272 145.523 269.164 147.824 269.301C148.296 269.337 148.765 269.355 149.229 269.355C151.166 269.413 153.096 269.085 154.905 268.392C156.715 267.699 158.368 266.654 159.769 265.318C160.709 264.387 161.491 263.31 162.086 262.129C162.145 262.004 162.232 261.893 162.34 261.806C162.448 261.719 162.573 261.656 162.708 261.624C162.781 261.606 162.855 261.596 162.93 261.596C163.134 261.597 163.332 261.664 163.495 261.788L166.22 263.837C168.001 265.055 169.882 266.12 171.843 267.021L172.956 267.574C176.702 269.564 180.865 270.644 185.108 270.727C186.384 270.727 187.657 270.614 188.912 270.388C192.23 269.783 197.621 266.696 202.895 263.678L203.985 263.052C205.996 261.967 207.674 260.357 208.84 258.396C209.535 257.49 209.987 256.423 210.154 255.295C210.282 254.227 210.167 253.143 209.815 252.125C209.464 251.107 208.887 250.182 208.126 249.419C208.001 249.286 207.917 249.12 207.885 248.941C207.854 248.762 207.875 248.577 207.948 248.41C208.02 248.243 208.14 248.1 208.292 248C208.445 247.9 208.623 247.847 208.806 247.847C208.946 247.847 209.084 247.878 209.209 247.939L212.135 249.34C214.62 250.56 217.343 251.218 220.112 251.268C221.455 251.35 222.799 251.119 224.037 250.593C225.275 250.066 226.373 249.26 227.245 248.237C227.95 247.076 228.263 245.72 228.139 244.368C228.137 244.244 228.159 244.121 228.205 244.006C228.252 243.891 228.32 243.787 228.407 243.699C228.494 243.61 228.598 243.54 228.712 243.493C228.827 243.445 228.95 243.42 229.074 243.42L229.735 243.427C233.535 243.433 237.283 242.552 240.681 240.854C249.51 236.602 254.299 232.527 254.958 228.576C255.154 228.069 255.208 227.518 255.117 226.982C255.025 226.447 254.791 225.945 254.438 225.531C254.169 224.968 253.832 224.44 253.435 223.958C253.309 223.802 253.237 223.61 253.229 223.41C253.222 223.21 253.279 223.013 253.392 222.848C253.505 222.683 253.669 222.558 253.859 222.493C254.048 222.428 254.254 222.425 254.445 222.485C256.87 223.285 259.405 223.702 261.959 223.722C263.335 223.722 264.707 223.587 266.057 223.319C267.453 223.078 268.78 222.535 269.945 221.73C271.109 220.924 272.084 219.875 272.8 218.655C274.116 215.906 274.355 212.765 273.47 209.849C272.843 206.46 272.248 203.26 276.17 200.247L303.183 184.69C303.236 184.659 303.275 184.608 303.291 184.549C303.306 184.489 303.298 184.426 303.268 184.373ZM227.163 242.476C227.076 242.57 226.97 242.645 226.852 242.697C226.734 242.748 226.607 242.774 226.479 242.774C226.445 242.774 225.69 242.69 225.343 242.642C218.822 241.66 212.671 238.993 207.502 234.907C206.696 234.273 205.632 233.293 205.68 232.112C205.725 231.056 206.655 229.929 208.445 228.76C210.209 227.524 212.298 226.832 214.452 226.771C215.879 226.824 217.279 227.174 218.562 227.798C219.845 228.423 220.984 229.308 221.904 230.397C224.726 233.589 226.625 237.486 227.398 241.671C227.424 241.814 227.417 241.962 227.376 242.102C227.335 242.241 227.262 242.37 227.163 242.476ZM189.26 237.357C187.645 236.816 186.078 236.139 184.577 235.334C175.868 230.925 170.051 227.747 167.287 225.888C167.099 225.761 166.963 225.57 166.906 225.35C166.849 225.131 166.874 224.898 166.976 224.695C167.079 224.493 167.253 224.335 167.464 224.251C167.675 224.167 167.91 224.162 168.124 224.239C174.183 226.883 179.997 230.054 185.498 233.715C185.498 233.715 190.081 236.888 189.26 237.357ZM161.769 259.071C161.616 259.172 161.438 259.225 161.256 259.226C161.044 259.227 160.839 259.154 160.674 259.021C158.152 257.016 157.491 256.253 157.277 255.723C157.219 255.582 157.197 255.428 157.212 255.276C157.228 255.125 157.281 254.979 157.366 254.852C157.451 254.726 157.567 254.622 157.702 254.55C157.837 254.478 157.988 254.441 158.141 254.441C158.84 254.542 159.509 254.795 160.098 255.184C160.688 255.572 161.185 256.085 161.552 256.688C161.822 257.108 162.026 257.568 162.156 258.05C162.209 258.239 162.199 258.44 162.129 258.624C162.06 258.807 161.933 258.964 161.769 259.071ZM209.139 256.272C208.976 256.975 208.709 257.65 208.348 258.275C207.421 259.365 206.206 260.173 204.84 260.607C203.542 261.035 202.182 261.245 200.816 261.228C194.57 260.853 188.69 258.169 184.322 253.701C182.345 251.936 181.138 249.471 180.958 246.831C180.946 246.021 181.104 245.217 181.424 244.472C181.743 243.727 182.216 243.057 182.812 242.506C184.314 241.26 186.244 240.649 188.191 240.801C189.757 240.826 191.316 241.006 192.846 241.339C195.854 241.951 198.743 243.046 201.399 244.583C203.098 245.857 204.692 247.1 206.22 248.365C206.741 248.922 207.223 249.513 207.663 250.134C208.338 250.991 208.819 251.983 209.073 253.043C209.328 254.102 209.35 255.204 209.139 256.272ZM253.989 225.773C254.062 225.856 254.12 225.95 254.16 226.052C254.377 226.593 254.497 227.167 254.516 227.749C254.521 227.96 254.512 228.171 254.488 228.381C254.479 228.476 254.455 228.568 254.418 228.655C254.069 229.389 253.566 230.038 252.942 230.559C250.762 232.28 248.041 233.176 245.262 233.088C241.613 233.088 234.282 231.715 226.164 222.522C225.531 221.963 225.132 221.188 225.047 220.349C224.962 219.51 225.197 218.67 225.705 217.997C226.699 216.918 227.923 216.074 229.286 215.528C230.65 214.983 232.118 214.748 233.584 214.842C235.384 214.842 237.167 215.196 238.829 215.884C240.897 216.746 243.472 217.818 246.044 219.152C248.889 221.113 251.549 223.329 253.989 225.773Z" fill="url(#paint1_linear_400_3075)"/>
<path d="M124.811 222.677C124.846 223.655 125.131 224.608 125.639 225.446C126.148 226.283 126.863 226.977 127.716 227.461C131.843 230.028 138.542 227.847 138.649 222.637L124.811 222.677Z" fill="#181019"/>
<path d="M112.378 209.815C112.475 212.551 113.273 215.218 114.695 217.56C116.117 219.902 118.116 221.842 120.502 223.196C132.046 230.375 150.784 224.276 151.082 209.702L112.378 209.815Z" fill="url(#paint2_linear_400_3075)"/>
<path d="M131.76 220.204C143.858 220.17 153.65 214.475 153.63 207.485C153.61 200.495 143.786 194.856 131.688 194.89C119.589 194.924 109.798 200.619 109.818 207.609C109.837 214.599 119.661 220.238 131.76 220.204Z" fill="url(#paint3_linear_400_3075)"/>
<path d="M111.72 207.605L111.71 204.365C111.861 206.062 112.455 207.691 113.432 209.089C114.409 210.487 115.735 211.606 117.279 212.335C121.637 214.605 126.471 215.814 131.387 215.864C136.303 215.913 141.16 214.802 145.563 212.621C149.666 210.339 151.727 207.293 151.718 204.248L151.728 207.489C151.736 210.534 149.675 213.579 145.573 215.862C141.17 218.043 136.312 219.154 131.396 219.105C126.481 219.055 121.646 217.846 117.289 215.576C115.744 214.847 114.418 213.728 113.441 212.33C112.464 210.932 111.871 209.303 111.72 207.605Z" fill="url(#paint4_linear_400_3075)"/>
<path d="M147.516 193.37C142.744 190.884 137.45 189.56 132.067 189.506C126.684 189.451 121.364 190.668 116.543 193.057C107.813 197.913 107.525 205.926 115.901 210.954C120.673 213.44 125.967 214.764 131.35 214.818C136.733 214.873 142.053 213.656 146.874 211.267C155.604 206.411 155.891 198.398 147.516 193.37Z" fill="url(#paint5_linear_400_3075)"/>
<path d="M111.704 202.22L111.695 198.973C111.846 200.671 112.44 202.299 113.417 203.697C114.393 205.096 115.72 206.215 117.264 206.943C121.622 209.213 126.456 210.422 131.372 210.472C136.287 210.522 141.145 209.41 145.548 207.229C149.651 204.947 151.712 201.901 151.703 198.856L151.712 202.103C151.721 205.148 149.66 208.194 145.557 210.476C141.154 212.657 136.297 213.769 131.381 213.719C126.465 213.67 121.631 212.46 117.273 210.191C115.729 209.462 114.403 208.343 113.426 206.944C112.449 205.546 111.855 203.918 111.704 202.22Z" fill="url(#paint6_linear_400_3075)"/>
<path d="M131.729 209.422C143.827 209.388 153.619 203.693 153.599 196.703C153.579 189.713 143.755 184.074 131.657 184.108C119.559 184.142 109.767 189.837 109.787 196.827C109.807 203.817 119.631 209.456 131.729 209.422Z" fill="url(#paint7_linear_400_3075)"/>
<path d="M111.689 196.822L111.68 193.575C111.831 195.273 112.424 196.902 113.401 198.3C114.378 199.698 115.705 200.817 117.249 201.546C121.607 203.816 126.441 205.025 131.357 205.075C136.272 205.124 141.13 204.013 145.533 201.831C149.636 199.549 151.696 196.504 151.688 193.459L151.697 196.706C151.706 199.751 149.645 202.796 145.542 205.078C141.139 207.26 136.281 208.371 131.366 208.322C126.45 208.272 121.616 207.063 117.258 204.793C115.714 204.064 114.387 202.945 113.41 201.547C112.434 200.149 111.84 198.52 111.689 196.822Z" fill="url(#paint8_linear_400_3075)"/>
<path d="M147.485 182.581C155.861 187.61 155.573 195.623 146.843 200.479C142.022 202.867 136.702 204.084 131.319 204.03C125.936 203.976 120.642 202.652 115.87 200.166C107.494 195.138 107.782 187.125 116.512 182.269C121.333 179.88 126.653 178.663 132.036 178.718C137.419 178.772 142.713 180.096 147.485 182.581Z" fill="url(#paint9_linear_400_3075)"/>
<path d="M111.674 191.431L111.665 188.178C111.816 189.875 112.409 191.504 113.386 192.902C114.363 194.3 115.689 195.42 117.234 196.149C121.591 198.418 126.425 199.627 131.341 199.677C136.257 199.727 141.115 198.615 145.517 196.434C149.62 194.152 151.681 191.106 151.672 188.062L151.682 191.315C151.69 194.359 149.63 197.405 145.527 199.687C141.124 201.869 136.266 202.98 131.35 202.93C126.435 202.881 121.601 201.672 117.243 199.402C115.699 198.673 114.372 197.554 113.395 196.156C112.418 194.757 111.825 193.129 111.674 191.431Z" fill="url(#paint10_linear_400_3075)"/>
<path d="M109.824 209.761L109.818 207.611C109.827 210.755 111.851 213.899 115.916 216.34C120.688 218.825 125.982 220.149 131.365 220.203C136.748 220.258 142.068 219.041 146.889 216.652C151.382 214.153 153.639 210.818 153.63 207.483L153.636 209.634C153.645 212.968 151.388 216.303 146.895 218.802C142.074 221.191 136.754 222.408 131.371 222.354C125.988 222.299 120.694 220.975 115.923 218.49C111.857 216.049 109.833 212.906 109.824 209.761Z" fill="url(#paint11_linear_400_3075)"/>
<path d="M109.809 204.37L109.802 202.226C109.811 205.37 111.836 208.514 115.901 210.955C120.673 213.44 125.967 214.764 131.35 214.819C136.733 214.873 142.053 213.656 146.874 211.267C151.367 208.768 153.624 205.433 153.614 202.099L153.62 204.243C153.63 207.577 151.373 210.912 146.88 213.411C142.059 215.8 136.739 217.017 131.356 216.963C125.973 216.908 120.679 215.584 115.907 213.099C111.842 210.658 109.817 207.514 109.809 204.37Z" fill="url(#paint12_linear_400_3075)"/>
<path d="M109.793 198.979L109.787 196.829C109.796 199.973 111.82 203.116 115.886 205.557C120.658 208.043 125.951 209.367 131.335 209.421C136.718 209.475 142.037 208.259 146.859 205.87C151.352 203.371 153.608 200.035 153.599 196.701L153.605 198.851C153.614 202.186 151.358 205.521 146.865 208.02C142.044 210.409 136.724 211.626 131.341 211.571C125.958 211.517 120.664 210.193 115.892 207.708C111.827 205.267 109.802 202.123 109.793 198.979Z" fill="url(#paint13_linear_400_3075)"/>
<path d="M109.778 193.581L109.772 191.437C109.781 194.581 111.805 197.725 115.87 200.166C120.642 202.651 125.936 203.975 131.319 204.029C136.702 204.084 142.022 202.867 146.843 200.478C151.336 197.979 153.593 194.644 153.584 191.31L153.59 193.454C153.599 196.788 151.342 200.123 146.849 202.622C142.028 205.011 136.709 206.228 131.325 206.174C125.942 206.119 120.648 204.795 115.877 202.31C111.811 199.869 109.787 196.725 109.778 193.581Z" fill="url(#paint14_linear_400_3075)"/>
<path d="M159.673 171.778L103.571 171.942L103.599 181.609C103.599 181.877 103.614 182.146 103.637 182.415C103.986 187.46 106.955 191.743 112.483 195.152C120.344 200 132.888 201.337 142.989 198.406C148.705 196.746 158.114 192.614 159.526 183.248C159.642 182.654 159.7 182.051 159.701 181.446L159.673 171.778Z" fill="url(#paint15_linear_400_3075)"/>
<path d="M131.668 188.068C147.161 188.024 159.699 180.732 159.673 171.781C159.648 162.83 147.068 155.609 131.576 155.653C116.084 155.697 103.546 162.989 103.571 171.94C103.597 180.891 116.176 188.112 131.668 188.068Z" fill="url(#paint16_linear_400_3075)"/>
<path d="M180.852 105.407C179.08 90.394 171.155 78.2461 157.299 69.3009C151.383 65.7488 144.79 63.4656 137.941 62.5969C131.091 61.7283 124.135 62.2933 117.516 64.2559C110.897 66.2185 104.762 69.5356 99.4997 73.9957C94.238 78.4557 89.9659 83.9608 86.956 90.1597C77.9364 109.645 81.2943 129.118 96.9364 148.037C96.9497 148.054 97.164 148.328 97.1769 148.345C102.192 154.955 105.083 162.926 105.467 171.208C105.653 173.47 106.57 175.61 108.079 177.308C109.424 178.859 111.018 180.177 112.795 181.209C122.882 187.265 139.581 187.433 150.095 181.586C152.192 180.469 154.064 178.974 155.617 177.178C157.133 175.447 158.041 173.27 158.203 170.977C158.548 162.664 161.427 154.654 166.455 148.017C166.487 147.977 166.623 147.809 166.648 147.779C174.477 138.188 183.131 124.713 180.852 105.407Z" fill="url(#paint17_radial_400_3075)"/>
<g style="mix-blend-mode:multiply" opacity="0.6">
<path d="M149.237 162.062C158.57 167.666 158.25 176.595 148.522 182.006C138.794 187.417 123.341 187.261 114.008 181.658C104.674 176.054 104.995 167.125 114.723 161.714C124.451 156.303 139.903 156.459 149.237 162.062Z" fill="#E8A000"/>
</g>
<path d="M147.645 105.297C147.522 105.22 147.386 105.167 147.243 105.142C147.101 105.118 146.954 105.121 146.813 105.153C146.672 105.184 146.538 105.243 146.42 105.326C146.301 105.409 146.2 105.515 146.123 105.637L145.749 106.226C145.62 106.2 145.487 106.195 145.357 106.212C145.155 106.25 144.963 106.329 144.793 106.446C144.624 106.562 144.481 106.712 144.374 106.888C144.146 107.173 143.955 107.455 143.77 107.727C143.483 108.2 143.126 108.629 142.713 108.999C142.493 109.144 142.241 109.233 141.978 109.257C141.716 109.282 141.451 109.242 141.208 109.141C140.874 109.054 140.524 109.052 140.189 109.134C139.854 109.216 139.545 109.381 139.291 109.613C138.935 109.983 138.617 110.387 138.342 110.82C138.111 111.174 137.856 111.513 137.579 111.832C137.394 112.035 137.161 112.191 136.903 112.284C136.644 112.378 136.366 112.408 136.093 112.371C136.025 112.354 135.957 112.336 135.891 112.319C135.621 112.207 135.329 112.16 135.038 112.181C134.746 112.202 134.464 112.291 134.214 112.441C133.697 112.843 133.262 113.338 132.93 113.901C132.781 114.119 132.627 114.345 132.458 114.568C132.238 114.882 131.97 115.158 131.662 115.386C131.452 115.524 131.202 115.587 130.952 115.565C130.762 115.542 130.575 115.498 130.396 115.433C130.003 115.266 129.562 115.248 129.156 115.382C128.402 115.836 127.778 116.477 127.344 117.241C126.976 117.866 126.435 118.371 125.786 118.697C125.508 118.733 125.226 118.697 124.966 118.592C124.692 118.49 124.401 118.44 124.109 118.445C123.541 118.47 122.737 119.193 122.236 119.894L122.029 120.185C121.677 120.8 121.195 121.333 120.617 121.746C120.45 121.822 120.268 121.862 120.085 121.861C119.901 121.861 119.719 121.82 119.553 121.743C119.387 121.688 119.218 121.644 119.047 121.612C118.712 121.543 118.363 121.589 118.058 121.743C117.707 121.951 117.399 122.224 117.151 122.548C116.882 122.477 116.596 122.51 116.35 122.642C116.104 122.773 115.918 122.992 115.828 123.255C115.738 123.519 115.752 123.806 115.866 124.059C115.981 124.313 116.187 124.514 116.444 124.621L127.222 129.166V172.573C127.266 172.976 127.414 173.361 127.653 173.689C127.892 174.016 128.213 174.276 128.584 174.442C129.603 174.957 130.73 175.226 131.872 175.226C133.015 175.226 134.141 174.957 135.16 174.442C135.54 174.275 135.867 174.008 136.106 173.67C136.346 173.332 136.49 172.936 136.522 172.524V126.243C136.515 125.912 136.414 125.589 136.229 125.313L147.986 106.815C148.063 106.693 148.116 106.557 148.141 106.415C148.166 106.272 148.162 106.127 148.131 105.986C148.099 105.845 148.04 105.711 147.956 105.593C147.873 105.475 147.767 105.374 147.645 105.297ZM134.445 124.011C133.497 123.664 132.488 123.515 131.48 123.572C130.472 123.63 129.486 123.894 128.584 124.348C128.183 124.519 127.842 124.803 127.602 125.166C127.362 125.529 127.234 125.955 127.235 126.389C127.231 126.348 127.223 126.307 127.222 126.266V126.777L117.587 122.714C117.773 122.483 118.001 122.287 118.257 122.136C118.478 122.025 118.73 121.993 118.971 122.045C119.124 122.075 119.275 122.114 119.422 122.163C119.641 122.258 119.878 122.306 120.117 122.302C120.356 122.299 120.592 122.244 120.808 122.143C121.459 121.702 122 121.119 122.39 120.438L122.595 120.149C122.949 119.568 123.489 119.122 124.128 118.885C124.369 118.882 124.608 118.925 124.833 119.011C125.158 119.137 125.511 119.179 125.857 119.131C126.44 119.036 127.217 118.19 127.705 117.494C127.996 117.079 128.767 115.979 129.298 115.798C129.614 115.697 129.957 115.715 130.26 115.851C130.47 115.926 130.688 115.977 130.91 116.003C131.259 116.034 131.609 115.947 131.902 115.756C132.256 115.502 132.563 115.19 132.81 114.833C132.985 114.601 133.142 114.372 133.294 114.149C133.596 113.633 133.991 113.177 134.46 112.806C134.659 112.691 134.882 112.626 135.111 112.615C135.34 112.604 135.569 112.649 135.778 112.744C135.847 112.762 135.917 112.781 135.987 112.798C136.338 112.856 136.697 112.824 137.033 112.707C137.368 112.589 137.669 112.39 137.907 112.126C138.198 111.792 138.465 111.438 138.707 111.067C138.966 110.658 139.266 110.275 139.601 109.925C139.8 109.746 140.04 109.619 140.3 109.557C140.56 109.494 140.832 109.497 141.091 109.566C141.402 109.688 141.738 109.731 142.07 109.691C142.401 109.652 142.718 109.531 142.992 109.34C143.44 108.944 143.825 108.484 144.135 107.973C144.317 107.705 144.506 107.427 144.727 107.151C144.802 107.024 144.902 106.914 145.021 106.827C145.14 106.741 145.276 106.68 145.419 106.648C145.482 106.645 134.445 124.011 134.445 124.011Z" fill="url(#paint18_linear_400_3075)"/>
<path style="mix-blend-mode:screen" d="M142.16 124.537C156.992 124.537 169.017 113.736 169.017 100.412C169.017 87.0883 156.992 76.2871 142.16 76.2871C127.327 76.2871 115.302 87.0883 115.302 100.412C115.302 113.736 127.327 124.537 142.16 124.537Z" fill="url(#paint19_linear_400_3075)"/>
<path style="mix-blend-mode:screen" d="M147.464 252.388C173.402 252.388 194.43 231.413 194.43 205.539C194.43 179.665 173.402 158.689 147.464 158.689C121.525 158.689 100.497 179.665 100.497 205.539C100.497 231.413 121.525 252.388 147.464 252.388Z" fill="url(#paint20_radial_400_3075)"/>
<path style="mix-blend-mode:screen" d="M146.561 198.757C201.583 198.757 246.187 154.264 246.187 99.3785C246.187 44.4933 201.583 0 146.561 0C91.5385 0 46.9343 44.4933 46.9343 99.3785C46.9343 154.264 91.5385 198.757 146.561 198.757Z" fill="url(#paint21_radial_400_3075)"/>
<path style="mix-blend-mode:screen" d="M131.963 224.85C186.067 224.85 229.927 181.099 229.927 127.13C229.927 73.1608 186.067 29.4102 131.963 29.4102C77.8597 29.4102 34 73.1608 34 127.13C34 181.099 77.8597 224.85 131.963 224.85Z" fill="url(#paint22_radial_400_3075)"/>
<path style="mix-blend-mode:screen" d="M223.765 277.58C238.924 277.58 251.213 265.321 251.213 250.2C251.213 235.079 238.924 222.82 223.765 222.82C208.606 222.82 196.317 235.079 196.317 250.2C196.317 265.321 208.606 277.58 223.765 277.58Z" fill="url(#paint23_radial_400_3075)"/>
<path style="mix-blend-mode:screen" d="M260.299 235.91C263.8 221.198 254.681 206.44 239.931 202.948C225.182 199.457 210.388 208.553 206.887 223.266C203.387 237.978 212.506 252.736 227.255 256.228C242.005 259.719 256.799 250.623 260.299 235.91Z" fill="url(#paint24_radial_400_3075)"/>
<path style="mix-blend-mode:screen" d="M288.977 239.116C297.875 226.873 295.139 209.753 282.866 200.878C270.593 192.002 253.431 194.731 244.533 206.974C235.635 219.216 238.371 236.336 250.644 245.212C262.917 254.087 280.08 251.358 288.977 239.116Z" fill="url(#paint25_radial_400_3075)"/>
<path style="mix-blend-mode:screen" d="M185 298C200.159 298 212.448 285.742 212.448 270.621C212.448 255.499 200.159 243.241 185 243.241C169.841 243.241 157.552 255.499 157.552 270.621C157.552 285.742 169.841 298 185 298Z" fill="url(#paint26_radial_400_3075)"/>
<path style="mix-blend-mode:screen" d="M175.779 275.372C179.245 260.651 170.09 245.915 155.333 242.458C140.575 239.002 125.802 248.133 122.337 262.854C118.871 277.575 128.026 292.311 142.783 295.768C157.541 299.225 172.314 290.093 175.779 275.372Z" fill="url(#paint27_radial_400_3075)"/>
<path style="mix-blend-mode:screen" d="M141.449 277.58C156.608 277.58 168.897 265.321 168.897 250.2C168.897 235.079 156.608 222.82 141.449 222.82C126.29 222.82 114.001 235.079 114.001 250.2C114.001 265.321 126.29 277.58 141.449 277.58Z" fill="url(#paint28_radial_400_3075)"/>
</g>
<defs>
<linearGradient id="paint0_linear_400_3075" x1="219.959" y1="193.545" x2="215.699" y2="200.94" gradientUnits="userSpaceOnUse">
<stop stop-color="#3E243E"/>
<stop offset="0.0364" stop-color="#472C3F"/>
<stop offset="0.38544" stop-color="#947345"/>
<stop offset="0.67333" stop-color="#CDA749"/>
<stop offset="0.88591" stop-color="#F0C74C"/>
<stop offset="1" stop-color="#FDD34D"/>
</linearGradient>
<linearGradient id="paint1_linear_400_3075" x1="231.827" y1="200.359" x2="227.52" y2="207.839" gradientUnits="userSpaceOnUse">
<stop stop-color="#3E243E"/>
<stop offset="1" stop-color="#FDD34D"/>
</linearGradient>
<linearGradient id="paint2_linear_400_3075" x1="112.378" y1="217.956" x2="151.082" y2="217.956" gradientUnits="userSpaceOnUse">
<stop stop-color="#7626BB"/>
<stop offset="1" stop-color="#AB56DA"/>
</linearGradient>
<linearGradient id="paint3_linear_400_3075" x1="109.818" y1="207.547" x2="153.63" y2="207.547" gradientUnits="userSpaceOnUse">
<stop stop-color="#C785EE"/>
<stop offset="0.49261" stop-color="#F5ABFF"/>
<stop offset="1" stop-color="#FFC5FF"/>
</linearGradient>
<linearGradient id="paint4_linear_400_3075" x1="111.71" y1="211.677" x2="151.728" y2="211.677" gradientUnits="userSpaceOnUse">
<stop stop-color="#7626BB"/>
<stop offset="1" stop-color="#AB56DA"/>
</linearGradient>
<linearGradient id="paint5_linear_400_3075" x1="109.803" y1="202.162" x2="153.614" y2="202.162" gradientUnits="userSpaceOnUse">
<stop stop-color="#C785EE"/>
<stop offset="0.49261" stop-color="#F5ABFF"/>
<stop offset="1" stop-color="#FFC5FF"/>
</linearGradient>
<linearGradient id="paint6_linear_400_3075" x1="111.695" y1="206.288" x2="151.712" y2="206.288" gradientUnits="userSpaceOnUse">
<stop stop-color="#7626BB"/>
<stop offset="1" stop-color="#AB56DA"/>
</linearGradient>
<linearGradient id="paint7_linear_400_3075" x1="109.787" y1="196.765" x2="153.599" y2="196.765" gradientUnits="userSpaceOnUse">
<stop stop-color="#C785EE"/>
<stop offset="0.49261" stop-color="#F5ABFF"/>
<stop offset="1" stop-color="#FFC5FF"/>
</linearGradient>
<linearGradient id="paint8_linear_400_3075" x1="111.68" y1="200.891" x2="151.697" y2="200.891" gradientUnits="userSpaceOnUse">
<stop stop-color="#7626BB"/>
<stop offset="1" stop-color="#AB56DA"/>
</linearGradient>
<linearGradient id="paint9_linear_400_3075" x1="109.772" y1="191.374" x2="153.584" y2="191.374" gradientUnits="userSpaceOnUse">
<stop stop-color="#C785EE"/>
<stop offset="0.49261" stop-color="#F5ABFF"/>
<stop offset="1" stop-color="#FFC5FF"/>
</linearGradient>
<linearGradient id="paint10_linear_400_3075" x1="111.665" y1="195.496" x2="151.682" y2="195.496" gradientUnits="userSpaceOnUse">
<stop stop-color="#7626BB"/>
<stop offset="1" stop-color="#AB56DA"/>
</linearGradient>
<linearGradient id="paint11_linear_400_3075" x1="109.818" y1="214.919" x2="153.636" y2="214.919" gradientUnits="userSpaceOnUse">
<stop stop-color="#8B3DCE"/>
<stop offset="1" stop-color="#CB89F0"/>
</linearGradient>
<linearGradient id="paint12_linear_400_3075" x1="109.802" y1="209.531" x2="153.62" y2="209.531" gradientUnits="userSpaceOnUse">
<stop stop-color="#8B3DCE"/>
<stop offset="1" stop-color="#CB89F0"/>
</linearGradient>
<linearGradient id="paint13_linear_400_3075" x1="109.787" y1="204.137" x2="153.605" y2="204.137" gradientUnits="userSpaceOnUse">
<stop stop-color="#8B3DCE"/>
<stop offset="1" stop-color="#CB89F0"/>
</linearGradient>
<linearGradient id="paint14_linear_400_3075" x1="109.772" y1="198.742" x2="153.59" y2="198.742" gradientUnits="userSpaceOnUse">
<stop stop-color="#8B3DCE"/>
<stop offset="1" stop-color="#CB89F0"/>
</linearGradient>
<linearGradient id="paint15_linear_400_3075" x1="103.571" y1="185.863" x2="159.701" y2="185.863" gradientUnits="userSpaceOnUse">
<stop stop-color="#8B3DCE"/>
<stop offset="1" stop-color="#CB89F0"/>
</linearGradient>
<linearGradient id="paint16_linear_400_3075" x1="103.571" y1="171.861" x2="159.673" y2="171.861" gradientUnits="userSpaceOnUse">
<stop stop-color="#F5ABFF"/>
<stop offset="0.45567" stop-color="#FFC5FF"/>
<stop offset="1" stop-color="#FFDEFF"/>
</linearGradient>
<radialGradient id="paint17_radial_400_3075" cx="0" cy="0" r="1" gradientUnits="userSpaceOnUse" gradientTransform="translate(158.999 82.7963) scale(124.61 124.3)">
<stop stop-color="#F7FF85"/>
<stop offset="1" stop-color="#FFC300"/>
</radialGradient>
<linearGradient id="paint18_linear_400_3075" x1="132.63" y1="108.991" x2="125.465" y2="173.05" gradientUnits="userSpaceOnUse">
<stop stop-color="#F7FFB0"/>
<stop offset="0.50246" stop-color="#F7FF85"/>
<stop offset="1" stop-color="#FBE142"/>
</linearGradient>
<linearGradient id="paint19_linear_400_3075" x1="148.183" y1="79.0252" x2="121.399" y2="174.6" gradientUnits="userSpaceOnUse">
<stop stop-color="#FFCD3D"/>
<stop offset="0.03461" stop-color="#F2C33A"/>
<stop offset="0.24559" stop-color="#AA8929"/>
<stop offset="0.44418" stop-color="#6D581A"/>
<stop offset="0.62442" stop-color="#3E320F"/>
<stop offset="0.78284" stop-color="#1C1707"/>
<stop offset="0.91341" stop-color="#070602"/>
<stop offset="1"/>
</linearGradient>
<radialGradient id="paint20_radial_400_3075" cx="0" cy="0" r="1" gradientUnits="userSpaceOnUse" gradientTransform="translate(147.464 205.539) scale(46.9663 46.8494)">
<stop stop-color="#E53DFF"/>
<stop offset="0.08074" stop-color="#B731CC"/>
<stop offset="0.16804" stop-color="#8D259D"/>
<stop offset="0.26066" stop-color="#671B73"/>
<stop offset="0.35701" stop-color="#47134F"/>
<stop offset="0.45814" stop-color="#2D0C32"/>
<stop offset="0.56559" stop-color="#19071C"/>
<stop offset="0.68236" stop-color="#0B030C"/>
<stop offset="0.81532" stop-color="#030103"/>
<stop offset="1"/>
</radialGradient>
<radialGradient id="paint21_radial_400_3075" cx="0" cy="0" r="1" gradientUnits="userSpaceOnUse" gradientTransform="translate(146.561 99.3785) scale(99.6263 99.3785)">
<stop stop-color="#FFBB00"/>
<stop offset="0.01543" stop-color="#F7B500"/>
<stop offset="0.1321" stop-color="#BE8B00"/>
<stop offset="0.25208" stop-color="#8B6600"/>
<stop offset="0.37272" stop-color="#604700"/>
<stop offset="0.49417" stop-color="#3E2D00"/>
<stop offset="0.61663" stop-color="#231900"/>
<stop offset="0.74064" stop-color="#0F0B00"/>
<stop offset="0.86713" stop-color="#040300"/>
<stop offset="1"/>
</radialGradient>
<radialGradient id="paint22_radial_400_3075" cx="0" cy="0" r="1" gradientUnits="userSpaceOnUse" gradientTransform="translate(131.963 127.13) scale(97.9635 97.7198)">
<stop stop-color="#FFBB00"/>
<stop offset="0.01543" stop-color="#F7B500"/>
<stop offset="0.1321" stop-color="#BE8B00"/>
<stop offset="0.25208" stop-color="#8B6600"/>
<stop offset="0.37272" stop-color="#604700"/>
<stop offset="0.49417" stop-color="#3E2D00"/>
<stop offset="0.61663" stop-color="#231900"/>
<stop offset="0.74064" stop-color="#0F0B00"/>
<stop offset="0.86713" stop-color="#040300"/>
<stop offset="1"/>
</radialGradient>
<radialGradient id="paint23_radial_400_3075" cx="0" cy="0" r="1" gradientUnits="userSpaceOnUse" gradientTransform="translate(223.765 250.2) scale(27.4479 27.3796)">
<stop stop-color="#F2FF00"/>
<stop offset="0.07389" stop-color="#FFBB00"/>
<stop offset="0.08073" stop-color="#F6B400"/>
<stop offset="0.11804" stop-color="#C89300"/>
<stop offset="0.1601" stop-color="#9D7300"/>
<stop offset="0.2053" stop-color="#775700"/>
<stop offset="0.25451" stop-color="#574000"/>
<stop offset="0.30888" stop-color="#3B2C00"/>
<stop offset="0.37025" stop-color="#251B00"/>
<stop offset="0.44195" stop-color="#140F00"/>
<stop offset="0.53056" stop-color="#090600"/>
<stop offset="0.65489" stop-color="#020100"/>
<stop offset="1"/>
</radialGradient>
<radialGradient id="paint24_radial_400_3075" cx="0" cy="0" r="1" gradientUnits="userSpaceOnUse" gradientTransform="translate(233.593 229.588) scale(27.448 27.3797)">
<stop stop-color="#F2FF00"/>
<stop offset="0.07389" stop-color="#FFBB00"/>
<stop offset="0.08073" stop-color="#F6B400"/>
<stop offset="0.11804" stop-color="#C89300"/>
<stop offset="0.1601" stop-color="#9D7300"/>
<stop offset="0.2053" stop-color="#775700"/>
<stop offset="0.25451" stop-color="#574000"/>
<stop offset="0.30888" stop-color="#3B2C00"/>
<stop offset="0.37025" stop-color="#251B00"/>
<stop offset="0.44195" stop-color="#140F00"/>
<stop offset="0.53056" stop-color="#090600"/>
<stop offset="0.65489" stop-color="#020100"/>
<stop offset="1"/>
</radialGradient>
<radialGradient id="paint25_radial_400_3075" cx="0" cy="0" r="1" gradientUnits="userSpaceOnUse" gradientTransform="translate(266.755 223.045) scale(27.448 27.3797)">
<stop stop-color="#F2FF00"/>
<stop offset="0.07389" stop-color="#FFBB00"/>
<stop offset="0.08073" stop-color="#F6B400"/>
<stop offset="0.11804" stop-color="#C89300"/>
<stop offset="0.1601" stop-color="#9D7300"/>
<stop offset="0.2053" stop-color="#775700"/>
<stop offset="0.25451" stop-color="#574000"/>
<stop offset="0.30888" stop-color="#3B2C00"/>
<stop offset="0.37025" stop-color="#251B00"/>
<stop offset="0.44195" stop-color="#140F00"/>
<stop offset="0.53056" stop-color="#090600"/>
<stop offset="0.65489" stop-color="#020100"/>
<stop offset="1"/>
</radialGradient>
<radialGradient id="paint26_radial_400_3075" cx="0" cy="0" r="1" gradientUnits="userSpaceOnUse" gradientTransform="translate(185 270.621) scale(27.4479 27.3796)">
<stop stop-color="#F2FF00"/>
<stop offset="0.07389" stop-color="#FFBB00"/>
<stop offset="0.08073" stop-color="#F6B400"/>
<stop offset="0.11804" stop-color="#C89300"/>
<stop offset="0.1601" stop-color="#9D7300"/>
<stop offset="0.2053" stop-color="#775700"/>
<stop offset="0.25451" stop-color="#574000"/>
<stop offset="0.30888" stop-color="#3B2C00"/>
<stop offset="0.37025" stop-color="#251B00"/>
<stop offset="0.44195" stop-color="#140F00"/>
<stop offset="0.53056" stop-color="#090600"/>
<stop offset="0.65489" stop-color="#020100"/>
<stop offset="1"/>
</radialGradient>
<radialGradient id="paint27_radial_400_3075" cx="0" cy="0" r="1" gradientUnits="userSpaceOnUse" gradientTransform="translate(149.058 269.113) scale(27.448 27.3797)">
<stop stop-color="#F2FF00"/>
<stop offset="0.07389" stop-color="#FFBB00"/>
<stop offset="0.08073" stop-color="#F6B400"/>
<stop offset="0.11804" stop-color="#C89300"/>
<stop offset="0.1601" stop-color="#9D7300"/>
<stop offset="0.2053" stop-color="#775700"/>
<stop offset="0.25451" stop-color="#574000"/>
<stop offset="0.30888" stop-color="#3B2C00"/>
<stop offset="0.37025" stop-color="#251B00"/>
<stop offset="0.44195" stop-color="#140F00"/>
<stop offset="0.53056" stop-color="#090600"/>
<stop offset="0.65489" stop-color="#020100"/>
<stop offset="1"/>
</radialGradient>
<radialGradient id="paint28_radial_400_3075" cx="0" cy="0" r="1" gradientUnits="userSpaceOnUse" gradientTransform="translate(141.449 250.2) scale(27.4479 27.3796)">
<stop stop-color="#F2FF00"/>
<stop offset="0.07389" stop-color="#FFBB00"/>
<stop offset="0.08073" stop-color="#F6B400"/>
<stop offset="0.11804" stop-color="#C89300"/>
<stop offset="0.1601" stop-color="#9D7300"/>
<stop offset="0.2053" stop-color="#775700"/>
<stop offset="0.25451" stop-color="#574000"/>
<stop offset="0.30888" stop-color="#3B2C00"/>
<stop offset="0.37025" stop-color="#251B00"/>
<stop offset="0.44195" stop-color="#140F00"/>
<stop offset="0.53056" stop-color="#090600"/>
<stop offset="0.65489" stop-color="#020100"/>
<stop offset="1"/>
</radialGradient>
<clipPath id="clip0_400_3075">
<rect width="270" height="298" fill="white" transform="translate(34)"/>
</clipPath>
</defs>
</svg>
