<svg width="337" height="337" viewBox="0 0 337 337" fill="none" xmlns="http://www.w3.org/2000/svg">
<g clip-path="url(#clip0_400_3084)">
<g style="mix-blend-mode:multiply" opacity="0.6">
<path d="M219.29 164.567L199.972 175.786C199.469 176.047 198.892 176.13 198.336 176.02C196.766 175.74 195.253 175.198 193.863 174.416C192.55 173.7 191.443 172.659 190.648 171.392C189.922 170.251 188.911 169.319 187.715 168.687C182.384 165.61 173.395 165.981 168.956 169.772C168.336 170.212 167.831 170.795 167.482 171.471C167.134 172.147 166.954 172.896 166.956 173.656C166.958 174.417 167.142 175.165 167.494 175.84C167.845 176.514 168.354 177.094 168.976 177.531C169.466 177.953 169.996 178.327 170.558 178.648C172.008 179.453 173.578 180.022 175.207 180.332C177.055 180.674 178.837 181.309 180.484 182.214C181.617 182.814 182.577 183.693 183.274 184.768C183.442 185.111 183.278 185.482 182.853 185.73L164.953 196.125L148.031 186.361C147.29 185.978 146.478 185.751 145.645 185.694C144.812 185.637 143.977 185.752 143.19 186.032C141.104 186.726 139.314 188.106 138.112 189.946C136.957 191.64 135.269 192.902 133.316 193.53C128.982 195.077 124.244 195.072 119.913 193.516C119.261 193.265 118.629 192.965 118.023 192.618C113.257 189.868 113.241 185.404 117.978 182.653C119.427 181.834 121.003 181.263 122.641 180.964C125.089 180.582 127.396 179.575 129.339 178.039C130.306 177.147 130.039 175.979 128.729 175.224L110.261 164.567L164.598 133.009L219.29 164.567ZM133.807 228.006C132.367 227.199 130.805 226.632 129.183 226.324C127.335 225.992 125.552 225.362 123.905 224.459C123.364 224.151 122.854 223.791 122.382 223.385C121.381 222.506 121.659 221.325 122.959 220.57L139.748 210.819L120.945 199.971C120.452 199.705 119.882 199.618 119.331 199.723C117.798 199.927 116.324 200.446 115.002 201.248C113.679 202.049 112.537 203.115 111.647 204.379C110.493 206.074 108.805 207.335 106.852 207.963C102.519 209.517 97.7786 209.513 93.4484 207.95C92.7966 207.698 92.1647 207.398 91.5582 207.052C86.7923 204.301 86.7766 199.838 91.5131 197.087C92.9635 196.27 94.5395 195.699 96.1769 195.398C97.7361 195.234 99.2462 194.757 100.616 193.995C101.986 193.232 103.187 192.201 104.146 190.962C104.334 190.632 104.143 190.275 103.714 190.028L85.0788 179.275L30.7654 210.82L85.4343 242.364L103.783 231.708C104.524 231.326 105.336 231.101 106.168 231.044C106.999 230.987 107.834 231.101 108.621 231.378C109.277 231.625 109.912 231.924 110.521 232.273C111.82 232.981 112.92 234.005 113.719 235.25C114.437 236.393 115.44 237.33 116.628 237.969C121.96 241.046 130.972 240.688 135.411 236.871C136.033 236.432 136.541 235.85 136.891 235.174C137.24 234.498 137.422 233.747 137.42 232.986C137.418 232.225 137.233 231.475 136.879 230.801C136.526 230.126 136.015 229.547 135.39 229.112C134.897 228.696 134.367 228.326 133.807 228.006ZM246.708 180.387L228.359 191.044C227.614 191.427 226.799 191.655 225.964 191.714C225.128 191.773 224.289 191.662 223.498 191.387C222.845 191.141 222.212 190.843 221.607 190.496C220.304 189.79 219.207 188.758 218.423 187.501C217.686 186.357 216.668 185.421 215.466 184.782C210.135 181.706 201.146 182.076 196.731 185.88C196.108 186.315 195.598 186.895 195.246 187.569C194.894 188.243 194.71 188.992 194.71 189.752C194.709 190.512 194.893 191.261 195.244 191.936C195.595 192.61 196.104 193.19 196.727 193.626C197.219 194.049 197.75 194.424 198.314 194.745C199.761 195.552 201.33 196.12 202.959 196.427C204.783 196.757 206.542 197.38 208.167 198.274C208.716 198.586 209.234 198.952 209.712 199.366C210.737 200.259 210.483 201.426 209.183 202.181L192.371 211.945L210.387 222.341C210.891 222.602 211.469 222.684 212.025 222.575C213.554 222.377 215.024 221.861 216.339 221.059C217.655 220.257 218.787 219.187 219.662 217.919C220.836 216.23 222.527 214.967 224.481 214.321C228.815 212.774 233.553 212.778 237.884 214.334C238.526 214.584 239.148 214.881 239.745 215.222C244.526 217.981 244.588 222.456 239.844 225.211C238.385 226.026 236.801 226.592 235.156 226.886C233.598 227.055 232.09 227.535 230.721 228.297C229.352 229.059 228.15 230.088 227.186 231.322C227.022 231.666 227.19 232.036 227.619 232.284L247.04 243.49L301.376 211.931L246.708 180.387ZM203.317 247.5C202.032 246.758 201.741 245.577 202.732 244.698C204.67 243.167 206.967 242.155 209.406 241.759C211.058 241.458 212.65 240.887 214.117 240.07C218.85 237.321 218.818 232.871 214.039 230.113C213.428 229.764 212.791 229.461 212.134 229.207C207.814 227.64 203.081 227.63 198.754 229.18C196.798 229.817 195.111 231.088 193.959 232.792C192.754 234.617 190.976 235.989 188.904 236.692C188.115 236.975 187.276 237.092 186.439 237.038C185.602 236.984 184.786 236.758 184.039 236.376L167.118 226.612L149.218 237.008C148.816 237.242 148.604 237.612 148.796 237.942C149.483 239.026 150.442 239.911 151.577 240.511C153.234 241.419 155.027 242.054 156.887 242.391C158.509 242.696 160.071 243.26 161.513 244.062C162.075 244.383 162.604 244.757 163.094 245.179C163.719 245.615 164.23 246.194 164.583 246.868C164.936 247.543 165.122 248.292 165.124 249.053C165.126 249.815 164.944 250.565 164.594 251.241C164.244 251.918 163.737 252.5 163.114 252.938C158.7 256.742 149.687 257.099 144.356 254.023C143.162 253.388 142.151 252.457 141.422 251.318C140.632 250.059 139.53 249.025 138.224 248.314C136.827 247.53 135.31 246.981 133.734 246.69C133.175 246.589 132.598 246.681 132.099 246.951L112.804 258.157L167.473 289.701L221.786 258.157L203.317 247.5Z" fill="#3A0155"/>
</g>
<path d="M199.972 141.741C199.469 142.002 198.892 142.084 198.336 141.974C196.765 141.694 195.253 141.152 193.863 140.37C192.55 139.654 191.442 138.613 190.647 137.346C189.921 136.205 188.911 135.273 187.714 134.641C182.383 131.565 173.394 131.936 168.956 135.726C168.363 136.187 167.877 136.771 167.531 137.438C167.186 138.104 166.989 138.838 166.955 139.588L166.947 142.625C166.981 141.875 167.177 141.141 167.523 140.474C167.868 139.807 168.354 139.223 168.947 138.763C173.386 134.972 182.375 134.602 187.706 137.678C188.902 138.31 189.913 139.242 190.639 140.383C191.434 141.65 192.541 142.691 193.854 143.407C195.244 144.189 196.757 144.731 198.327 145.011C198.883 145.121 199.46 145.038 199.963 144.778L219.281 133.558L219.29 130.521L199.972 141.741Z" fill="url(#paint0_linear_400_3084)"/>
<path d="M128.729 141.177L110.261 130.521L110.252 133.557L128.721 144.214C129.047 144.359 129.329 144.587 129.538 144.877C129.747 145.166 129.876 145.505 129.91 145.86L129.919 142.824C129.884 142.468 129.756 142.129 129.547 141.84C129.338 141.551 129.056 141.322 128.729 141.177Z" fill="#962DCC"/>
<path d="M148.031 152.314C147.29 151.931 146.478 151.704 145.645 151.647C144.812 151.59 143.977 151.705 143.19 151.985C141.104 152.679 139.314 154.059 138.112 155.899C136.957 157.593 135.269 158.855 133.316 159.483C128.981 161.03 124.244 161.025 119.913 159.469C119.261 159.218 118.629 158.918 118.022 158.571C117.032 158.131 116.178 157.434 115.547 156.553C114.917 155.672 114.533 154.639 114.437 153.56L114.428 156.597C114.525 157.676 114.908 158.709 115.538 159.59C116.169 160.471 117.024 161.168 118.014 161.608C118.62 161.955 119.252 162.255 119.904 162.506C124.235 164.062 128.973 164.067 133.307 162.52C135.26 161.892 136.948 160.63 138.103 158.935C139.306 157.096 141.095 155.716 143.181 155.022C143.968 154.742 144.803 154.627 145.636 154.684C146.469 154.74 147.281 154.967 148.022 155.351L164.944 165.115L164.953 162.078L148.031 152.314Z" fill="#962DCC"/>
<path d="M182.852 151.684L164.953 162.08L164.944 165.116L182.844 154.721C182.978 154.659 183.094 154.562 183.18 154.442C183.265 154.321 183.317 154.179 183.331 154.032L183.339 150.995C183.326 151.143 183.274 151.284 183.188 151.405C183.103 151.526 182.987 151.622 182.852 151.684Z" fill="#DA73ED"/>
<path d="M164.597 98.9629L110.26 130.521L128.729 141.178C130.038 141.933 130.305 143.1 129.338 143.993C127.395 145.529 125.088 146.536 122.641 146.918C121.003 147.217 119.426 147.788 117.977 148.608C113.241 151.358 113.256 155.822 118.022 158.572C118.628 158.919 119.26 159.219 119.912 159.47C124.244 161.026 128.981 161.031 133.315 159.484C135.269 158.856 136.956 157.594 138.111 155.899C139.314 154.06 141.103 152.68 143.19 151.985C143.976 151.706 144.812 151.591 145.644 151.648C146.477 151.705 147.289 151.932 148.031 152.315L164.952 162.079L182.852 151.683C183.278 151.436 183.441 151.065 183.274 150.722C182.576 149.647 181.616 148.768 180.483 148.168C178.836 147.263 177.055 146.628 175.207 146.286C173.577 145.976 172.007 145.407 170.557 144.602C169.995 144.281 169.466 143.907 168.976 143.485C168.353 143.048 167.845 142.468 167.493 141.794C167.141 141.119 166.957 140.371 166.955 139.61C166.953 138.85 167.134 138.1 167.482 137.424C167.83 136.748 168.335 136.166 168.956 135.726C173.394 131.936 182.383 131.565 187.714 134.641C188.91 135.273 189.921 136.205 190.647 137.346C191.442 138.613 192.549 139.654 193.863 140.37C195.253 141.152 196.765 141.694 198.336 141.974C198.891 142.084 199.468 142.002 199.971 141.741L219.289 130.521L164.597 98.9629Z" fill="#FFBBFA"/>
<path d="M104.147 156.916C103.187 158.154 101.986 159.186 100.616 159.948C99.2463 160.711 97.7362 161.188 96.177 161.351C94.5397 161.653 92.9637 162.223 91.5132 163.04C90.5376 163.479 89.6959 164.169 89.0739 165.04C88.4518 165.91 88.0717 166.929 87.9722 167.994L87.9636 171.031C88.0631 169.966 88.4432 168.946 89.0652 168.076C89.6872 167.206 90.5289 166.516 91.5046 166.077C92.955 165.26 94.531 164.689 96.1684 164.388C97.7276 164.225 99.2377 163.748 100.607 162.985C101.977 162.223 103.178 161.191 104.138 159.952C104.184 159.874 104.209 159.784 104.21 159.693L104.219 156.656C104.218 156.748 104.193 156.837 104.147 156.916Z" fill="#DA73ED"/>
<path d="M122.959 186.524C122.637 186.669 122.358 186.897 122.151 187.184C121.943 187.47 121.815 187.806 121.778 188.158L121.77 191.195C121.806 190.843 121.935 190.507 122.142 190.22C122.349 189.934 122.628 189.706 122.951 189.561L139.739 179.811L139.748 176.773L122.959 186.524Z" fill="#DA73ED"/>
<path d="M30.7654 176.772L30.7573 179.812L85.4259 211.356L85.434 208.317L30.7654 176.772Z" fill="#962DCC"/>
<path d="M135.411 202.825C130.972 206.643 121.96 207 116.628 203.924C115.44 203.284 114.437 202.347 113.719 201.205C112.92 199.96 111.82 198.936 110.521 198.228C109.913 197.879 109.277 197.58 108.621 197.333C107.834 197.056 107 196.942 106.168 196.999C105.336 197.055 104.524 197.281 103.783 197.662L85.4344 208.319L85.4258 211.356L103.774 200.699C104.516 200.318 105.327 200.092 106.159 200.035C106.991 199.979 107.826 200.092 108.612 200.369C109.268 200.616 109.904 200.916 110.512 201.265C111.812 201.973 112.912 202.997 113.71 204.242C114.429 205.384 115.431 206.321 116.62 206.961C121.951 210.037 130.964 209.68 135.402 205.862C135.998 205.406 136.487 204.826 136.834 204.161C137.181 203.496 137.378 202.763 137.412 202.014L137.42 198.977C137.387 199.726 137.19 200.459 136.842 201.124C136.495 201.789 136.007 202.369 135.411 202.825Z" fill="url(#paint1_linear_400_3084)"/>
<path d="M133.807 193.96C132.367 193.154 130.805 192.586 129.183 192.278C127.334 191.946 125.552 191.316 123.905 190.413C123.364 190.105 122.854 189.746 122.382 189.34C121.38 188.461 121.659 187.28 122.959 186.524L139.747 176.774L120.945 165.925C120.451 165.66 119.881 165.572 119.331 165.678C117.798 165.882 116.324 166.401 115.001 167.202C113.679 168.003 112.537 169.069 111.647 170.333C110.492 172.028 108.805 173.289 106.852 173.918C102.518 175.472 97.7784 175.467 93.4482 173.904C92.7963 173.653 92.1645 173.352 91.558 173.006C86.792 170.256 86.7764 165.792 91.5129 163.041C92.9633 162.224 94.5393 161.653 96.1766 161.352C97.7359 161.189 99.2459 160.711 100.616 159.949C101.985 159.187 103.186 158.155 104.146 156.916C104.334 156.587 104.142 156.23 103.714 155.982L85.0786 145.229L30.7651 176.774L85.434 208.318L103.782 197.662C104.524 197.281 105.335 197.055 106.167 196.998C106.999 196.942 107.834 197.055 108.62 197.332C109.277 197.579 109.912 197.879 110.521 198.227C111.82 198.935 112.92 199.959 113.719 201.205C114.437 202.347 115.439 203.284 116.628 203.924C121.959 207 130.972 206.643 135.41 202.825C136.033 202.386 136.541 201.804 136.89 201.128C137.24 200.452 137.422 199.701 137.42 198.94C137.418 198.179 137.232 197.429 136.879 196.755C136.526 196.081 136.015 195.501 135.39 195.066C134.897 194.651 134.367 194.28 133.807 193.96Z" fill="#FFBBFA"/>
<path d="M209.712 165.318C209.234 164.905 208.716 164.539 208.167 164.226C206.542 163.333 204.783 162.709 202.958 162.379C201.33 162.072 199.761 161.504 198.313 160.698C197.75 160.376 197.219 160.001 196.727 159.578C196.126 159.118 195.634 158.531 195.286 157.86C194.937 157.188 194.74 156.448 194.71 155.692L194.701 158.729C194.732 159.485 194.929 160.225 195.277 160.896C195.626 161.568 196.118 162.155 196.718 162.615C197.21 163.038 197.741 163.413 198.305 163.734C199.753 164.541 201.321 165.109 202.95 165.417C204.774 165.746 206.533 166.37 208.158 167.263C208.708 167.576 209.225 167.941 209.703 168.355C209.891 168.499 210.045 168.682 210.154 168.891C210.263 169.1 210.325 169.331 210.335 169.567L210.344 166.53C210.334 166.294 210.272 166.064 210.163 165.854C210.053 165.645 209.9 165.462 209.712 165.318Z" fill="#D68900"/>
<path d="M239.745 181.175C239.147 180.833 238.526 180.536 237.884 180.287C233.553 178.731 228.815 178.726 224.481 180.273C222.527 180.92 220.836 182.182 219.661 183.871C218.786 185.139 217.654 186.209 216.339 187.011C215.023 187.813 213.554 188.329 212.025 188.527C211.468 188.636 210.891 188.554 210.387 188.293L192.37 177.897L192.362 180.934L210.379 191.33C210.882 191.591 211.46 191.673 212.017 191.563C213.545 191.366 215.015 190.849 216.33 190.047C217.646 189.245 218.778 188.176 219.653 186.908C220.827 185.219 222.518 183.957 224.472 183.31C228.807 181.763 233.544 181.768 237.876 183.324C238.517 183.573 239.139 183.87 239.736 184.212C240.735 184.655 241.598 185.358 242.234 186.246C242.871 187.134 243.259 188.176 243.358 189.264L243.366 186.228C243.267 185.139 242.879 184.097 242.243 183.209C241.606 182.321 240.744 181.619 239.745 181.175Z" fill="#D68900"/>
<path d="M227.618 198.237C227.481 198.175 227.363 198.077 227.276 197.954C227.19 197.832 227.137 197.688 227.124 197.538L227.115 200.575C227.128 200.725 227.181 200.868 227.268 200.991C227.355 201.114 227.473 201.211 227.61 201.274L247.031 212.48L247.039 209.443L227.618 198.237Z" fill="#D68900"/>
<path d="M247.039 209.444L247.031 212.48L301.367 180.922L301.375 177.886L247.039 209.444Z" fill="#E5A300"/>
<path d="M246.707 146.34L228.358 156.997C227.614 157.38 226.799 157.608 225.963 157.667C225.127 157.726 224.289 157.615 223.497 157.34C222.844 157.094 222.212 156.796 221.606 156.449C220.303 155.743 219.206 154.711 218.422 153.454C217.685 152.31 216.667 151.374 215.466 150.735C210.134 147.659 201.145 148.029 196.731 151.833C196.107 152.269 195.598 152.848 195.246 153.522C194.894 154.196 194.71 154.945 194.709 155.705C194.709 156.465 194.892 157.214 195.243 157.889C195.595 158.563 196.104 159.143 196.727 159.579C197.218 160.002 197.75 160.377 198.313 160.698C199.761 161.505 201.329 162.073 202.958 162.38C204.783 162.71 206.542 163.333 208.166 164.227C208.716 164.539 209.234 164.905 209.712 165.319C210.737 166.212 210.483 167.379 209.182 168.134L192.37 177.898L210.387 188.294C210.891 188.555 211.468 188.637 212.025 188.528C213.553 188.33 215.023 187.814 216.339 187.012C217.654 186.21 218.786 185.14 219.661 183.872C220.836 182.183 222.527 180.92 224.48 180.274C228.815 178.727 233.553 178.731 237.884 180.288C238.525 180.537 239.147 180.834 239.744 181.176C244.525 183.934 244.587 188.409 239.843 191.164C238.384 191.979 236.8 192.545 235.155 192.84C233.597 193.009 232.089 193.488 230.721 194.25C229.352 195.012 228.15 196.041 227.186 197.275C227.022 197.619 227.19 197.989 227.618 198.236L247.039 209.442L301.376 177.884L246.707 146.34Z" fill="#FFD03B"/>
<path d="M214.117 206.024C212.649 206.841 211.058 207.411 209.405 207.713C206.967 208.108 204.67 209.12 202.732 210.652C202.555 210.791 202.411 210.968 202.309 211.169C202.206 211.369 202.149 211.59 202.14 211.815L202.131 214.852C202.14 214.627 202.198 214.406 202.3 214.206C202.402 214.005 202.547 213.828 202.723 213.689C204.661 212.157 206.958 211.145 209.397 210.749C211.049 210.448 212.641 209.877 214.108 209.06C215.08 208.623 215.919 207.937 216.539 207.07C217.158 206.204 217.537 205.189 217.637 204.128L217.645 201.091C217.546 202.151 217.167 203.167 216.547 204.033C215.927 204.9 215.089 205.587 214.117 206.024Z" fill="#DA73ED"/>
<path d="M163.094 211.134C162.604 210.712 162.075 210.337 161.513 210.017C160.071 209.214 158.509 208.65 156.887 208.346C155.027 208.008 153.234 207.373 151.577 206.465C150.442 205.866 149.483 204.98 148.796 203.896C148.75 203.818 148.725 203.729 148.725 203.638L148.716 206.675C148.716 206.766 148.741 206.855 148.788 206.933C149.475 208.017 150.433 208.903 151.568 209.502C153.226 210.41 155.019 211.045 156.878 211.383C158.5 211.687 160.063 212.251 161.505 213.053C162.066 213.374 162.595 213.748 163.086 214.17C163.69 214.634 164.185 215.224 164.536 215.9C164.886 216.576 165.084 217.32 165.115 218.081L165.124 215.044C165.093 214.284 164.895 213.539 164.544 212.863C164.193 212.188 163.698 211.597 163.094 211.134Z" fill="#962DCC"/>
<path d="M112.805 224.112L112.797 227.149L167.465 258.693L167.473 255.654L112.805 224.112Z" fill="#962DCC"/>
<path d="M167.473 255.654L167.465 258.693L221.777 227.146L221.785 224.109L167.473 255.654Z" fill="#DA73ED"/>
<path d="M203.317 213.454C202.032 212.712 201.741 211.531 202.732 210.652C204.67 209.121 206.967 208.109 209.405 207.713C211.058 207.412 212.649 206.841 214.116 206.024C218.85 203.275 218.818 198.825 214.039 196.067C213.428 195.718 212.791 195.415 212.134 195.161C207.813 193.594 203.081 193.584 198.754 195.134C196.798 195.771 195.111 197.042 193.959 198.746C192.754 200.571 190.975 201.943 188.904 202.646C188.115 202.928 187.276 203.046 186.439 202.992C185.602 202.938 184.785 202.712 184.039 202.33L167.117 192.566L149.218 202.962C148.816 203.196 148.604 203.566 148.796 203.896C149.483 204.98 150.441 205.865 151.576 206.465C153.234 207.373 155.027 208.008 156.887 208.345C158.509 208.65 160.071 209.214 161.513 210.016C162.074 210.337 162.604 210.711 163.094 211.133C163.719 211.569 164.229 212.148 164.583 212.822C164.936 213.497 165.121 214.246 165.123 215.008C165.125 215.769 164.944 216.519 164.594 217.195C164.244 217.872 163.736 218.454 163.114 218.892C158.699 222.696 149.687 223.054 144.356 219.977C143.161 219.342 142.151 218.411 141.422 217.272C140.631 216.013 139.53 214.979 138.223 214.268C136.826 213.484 135.31 212.935 133.734 212.644C133.175 212.543 132.598 212.635 132.098 212.905L112.804 224.111L167.473 255.655L221.786 224.111L203.317 213.454Z" fill="#FFBBFA"/>
<path style="mix-blend-mode:screen" d="M271.181 135.966C285.265 77.4271 249.199 18.5615 190.625 4.48597C132.051 -9.5896 73.1509 26.4549 59.0669 84.9936C44.983 143.532 81.0489 202.398 139.623 216.473C198.196 230.549 257.097 194.504 271.181 135.966Z" fill="url(#paint2_radial_400_3084)"/>
<path style="mix-blend-mode:screen" d="M189.769 217.177C202.979 158.435 166.04 100.113 107.263 86.9106C48.4857 73.7085 -9.87126 110.626 -23.0812 169.368C-36.2912 228.11 0.648154 286.432 59.4251 299.634C118.202 312.836 176.559 275.919 189.769 217.177Z" fill="url(#paint3_radial_400_3084)"/>
<path style="mix-blend-mode:screen" d="M183.339 336.564C243.582 336.564 292.419 287.757 292.419 227.55C292.419 167.343 243.582 118.535 183.339 118.535C123.096 118.535 74.2595 167.343 74.2595 227.55C74.2595 287.757 123.096 336.564 183.339 336.564Z" fill="url(#paint4_radial_400_3084)"/>
<path style="mix-blend-mode:screen" d="M359.272 254.4C401.87 211.827 401.87 142.802 359.272 100.229C316.673 57.6563 247.608 57.6563 205.009 100.229C162.411 142.802 162.411 211.827 205.009 254.4C247.608 296.973 316.673 296.973 359.272 254.4Z" fill="url(#paint5_radial_400_3084)"/>
</g>
<defs>
<linearGradient id="paint0_linear_400_3084" x1="200.268" y1="137.788" x2="196.372" y2="137.788" gradientUnits="userSpaceOnUse">
<stop stop-color="#DA73ED"/>
<stop offset="0.64358" stop-color="#AB43D6"/>
<stop offset="1" stop-color="#962DCC"/>
</linearGradient>
<linearGradient id="paint1_linear_400_3084" x1="128.821" y1="204.171" x2="101.483" y2="204.171" gradientUnits="userSpaceOnUse">
<stop stop-color="#DA73ED"/>
<stop offset="0.43751" stop-color="#AB43D6"/>
<stop offset="0.6798" stop-color="#962DCC"/>
<stop offset="0.75139" stop-color="#9B32CE"/>
<stop offset="0.83229" stop-color="#A83FD5"/>
<stop offset="0.91738" stop-color="#BE56DF"/>
<stop offset="1" stop-color="#DA73ED"/>
</linearGradient>
<radialGradient id="paint2_radial_400_3084" cx="0" cy="0" r="1" gradientUnits="userSpaceOnUse" gradientTransform="translate(165.124 110.48) scale(109.08 109.015)">
<stop stop-color="#E53DFF"/>
<stop offset="0.00738" stop-color="#DD3BF6"/>
<stop offset="0.04768" stop-color="#B430C8"/>
<stop offset="0.09309" stop-color="#8D269D"/>
<stop offset="0.1419" stop-color="#6B1C77"/>
<stop offset="0.19502" stop-color="#4E1557"/>
<stop offset="0.25374" stop-color="#350E3B"/>
<stop offset="0.32001" stop-color="#220925"/>
<stop offset="0.39742" stop-color="#120514"/>
<stop offset="0.49311" stop-color="#080209"/>
<stop offset="0.62736" stop-color="#020002"/>
<stop offset="1"/>
</radialGradient>
<radialGradient id="paint3_radial_400_3084" cx="0" cy="0" r="1" gradientUnits="userSpaceOnUse" gradientTransform="translate(83.344 193.272) scale(109.08 109.015)">
<stop stop-color="#E53DFF"/>
<stop offset="0.00738" stop-color="#DD3BF6"/>
<stop offset="0.04768" stop-color="#B430C8"/>
<stop offset="0.09309" stop-color="#8D269D"/>
<stop offset="0.1419" stop-color="#6B1C77"/>
<stop offset="0.19502" stop-color="#4E1557"/>
<stop offset="0.25374" stop-color="#350E3B"/>
<stop offset="0.32001" stop-color="#220925"/>
<stop offset="0.39742" stop-color="#120514"/>
<stop offset="0.49311" stop-color="#080209"/>
<stop offset="0.62736" stop-color="#020002"/>
<stop offset="1"/>
</radialGradient>
<radialGradient id="paint4_radial_400_3084" cx="0" cy="0" r="1" gradientUnits="userSpaceOnUse" gradientTransform="translate(183.339 227.55) scale(109.08 109.015)">
<stop stop-color="#E53DFF"/>
<stop offset="0.00738" stop-color="#DD3BF6"/>
<stop offset="0.04768" stop-color="#B430C8"/>
<stop offset="0.09309" stop-color="#8D269D"/>
<stop offset="0.1419" stop-color="#6B1C77"/>
<stop offset="0.19502" stop-color="#4E1557"/>
<stop offset="0.25374" stop-color="#350E3B"/>
<stop offset="0.32001" stop-color="#220925"/>
<stop offset="0.39742" stop-color="#120514"/>
<stop offset="0.49311" stop-color="#080209"/>
<stop offset="0.62736" stop-color="#020002"/>
<stop offset="1"/>
</radialGradient>
<radialGradient id="paint5_radial_400_3084" cx="0" cy="0" r="1" gradientUnits="userSpaceOnUse" gradientTransform="translate(282.14 177.315) scale(109.08 109.015)">
<stop stop-color="#FF9412"/>
<stop offset="0.00738" stop-color="#F68F11"/>
<stop offset="0.04768" stop-color="#C8740E"/>
<stop offset="0.09309" stop-color="#9D5B0B"/>
<stop offset="0.1419" stop-color="#774508"/>
<stop offset="0.19502" stop-color="#573206"/>
<stop offset="0.25374" stop-color="#3B2204"/>
<stop offset="0.32001" stop-color="#251603"/>
<stop offset="0.39742" stop-color="#140C01"/>
<stop offset="0.49311" stop-color="#090501"/>
<stop offset="0.62736" stop-color="#020100"/>
<stop offset="1"/>
</radialGradient>
<clipPath id="clip0_400_3084">
<rect width="337" height="337" fill="white"/>
</clipPath>
</defs>
</svg>
