<svg xmlns="http://www.w3.org/2000/svg" width="110" height="65" viewBox="0 0 110 65" fill="none">
  <g clip-path="url(#clip0_483_2238)">
    <path d="M30.9844 23.6078C30.9844 24.9452 31.1307 26.0296 31.3868 26.8249C31.6795 27.6201 32.0453 28.4877 32.5574 29.4275C32.7403 29.7167 32.8135 30.0059 32.8135 30.2589C32.8135 30.6204 32.594 30.9819 32.1184 31.3433L29.8138 32.8615C29.4846 33.0784 29.1554 33.1869 28.8627 33.1869C28.4969 33.1869 28.1311 33.0061 27.7653 32.6808C27.2531 32.1386 26.8142 31.5602 26.4483 30.9819C26.0825 30.3673 25.7167 29.6805 25.3143 28.8492C22.461 32.1747 18.876 33.8375 14.5594 33.8375C11.4866 33.8375 9.03563 32.97 7.24315 31.2349C5.45067 29.4998 4.53613 27.1864 4.53613 24.2946C4.53613 21.222 5.63357 18.7278 7.86503 16.8482C10.0965 14.9685 13.0596 14.0287 16.8275 14.0287C18.0712 14.0287 19.3516 14.1371 20.7051 14.3178C22.0586 14.4986 23.4487 14.7878 24.9119 15.1131V12.4743C24.9119 9.72711 24.3266 7.81129 23.1926 6.69071C22.022 5.57014 20.0466 5.02793 17.2298 5.02793C15.9495 5.02793 14.6326 5.17252 13.2791 5.49784C11.9256 5.82317 10.6086 6.22079 9.32828 6.72686C8.74298 6.97989 8.30401 7.12448 8.04794 7.19678C7.79187 7.26907 7.60896 7.30522 7.46264 7.30522C6.9505 7.30522 6.69443 6.94374 6.69443 6.18465V4.41342C6.69443 3.83506 6.76759 3.40129 6.9505 3.14825C7.13341 2.89522 7.46264 2.64219 7.97478 2.38916C9.25512 1.7385 10.7915 1.19629 12.584 0.762516C14.3765 0.292598 16.2787 0.075713 18.2907 0.075713C22.6439 0.075713 25.8265 1.0517 27.875 3.00366C29.887 4.95563 30.9113 7.91973 30.9113 11.896V23.6078H30.9844ZM16.1324 29.1022C17.3396 29.1022 18.5834 28.8853 19.9003 28.4515C21.2172 28.0178 22.3878 27.2225 23.3755 26.1381C23.9608 25.4513 24.3998 24.6922 24.6193 23.8246C24.8388 22.9571 24.9851 21.9088 24.9851 20.6798V19.1616C23.9242 18.9086 22.7902 18.6917 21.6196 18.5471C20.449 18.4025 19.315 18.3302 18.181 18.3302C15.73 18.3302 13.9375 18.8001 12.7303 19.7761C11.5232 20.7521 10.9379 22.1257 10.9379 23.9331C10.9379 25.632 11.3768 26.8972 12.2914 27.7647C13.1693 28.6684 14.4497 29.1022 16.1324 29.1022ZM45.5072 33.0061C44.8487 33.0061 44.4098 32.8977 44.1171 32.6446C43.8245 32.4278 43.5684 31.9217 43.3489 31.2349L34.7523 3.29284C34.5328 2.56989 34.4231 2.09997 34.4231 1.84694C34.4231 1.26858 34.7157 0.943254 35.301 0.943254H38.886C39.581 0.943254 40.0566 1.0517 40.3127 1.30473C40.6053 1.52161 40.8248 2.02768 41.0443 2.71448L47.1899 26.6441L52.8966 2.71448C53.0795 1.99153 53.299 1.52161 53.5917 1.30473C53.8843 1.08784 54.3965 0.943254 55.0549 0.943254H57.9814C58.6765 0.943254 59.152 1.0517 59.4447 1.30473C59.7373 1.52161 59.9934 2.02768 60.1397 2.71448L65.9196 26.9333L72.2481 2.71448C72.4676 1.99153 72.7237 1.52161 72.9798 1.30473C73.2724 1.08784 73.748 0.943254 74.4064 0.943254H77.8085C78.3938 0.943254 78.723 1.23243 78.723 1.84694C78.723 2.02768 78.6865 2.20842 78.6499 2.4253C78.6133 2.64219 78.5401 2.93137 78.3938 3.32899L69.5777 31.271C69.3582 31.994 69.1021 32.4639 68.8095 32.6808C68.5168 32.8977 68.0413 33.0423 67.4194 33.0423H64.2734C63.5784 33.0423 63.1028 32.9338 62.8102 32.6808C62.5175 32.4278 62.2614 31.9578 62.1151 31.2349L56.445 7.91973L50.8115 31.1987C50.6286 31.9217 50.4091 32.3916 50.1164 32.6446C49.8238 32.8977 49.3117 33.0061 48.6532 33.0061H45.5072ZM92.5142 33.9821C90.612 33.9821 88.7097 33.7652 86.8807 33.3314C85.0516 32.8977 83.6249 32.4278 82.6738 31.8855C82.0885 31.5602 81.6861 31.1987 81.5398 30.8734C81.3935 30.5481 81.3203 30.1866 81.3203 29.8613V28.0178C81.3203 27.2587 81.613 26.8972 82.1617 26.8972C82.3812 26.8972 82.6006 26.9333 82.8201 27.0056C83.0396 27.0779 83.3689 27.2225 83.7347 27.3671C84.9784 27.9093 86.3319 28.3431 87.7586 28.6323C89.2219 28.9214 90.6485 29.066 92.1118 29.066C94.4164 29.066 96.2089 28.6684 97.4527 27.8732C98.6964 27.0779 99.3549 25.9212 99.3549 24.4392C99.3549 23.427 99.0257 22.5956 98.3672 21.9088C97.7087 21.222 96.465 20.6075 94.6725 20.0292L89.3682 18.4025C86.6978 17.5711 84.7224 16.3421 83.5152 14.7155C82.308 13.125 81.6861 11.3537 81.6861 9.47407C81.6861 7.95588 82.0154 6.61842 82.6738 5.4617C83.3323 4.30497 84.2102 3.29284 85.3077 2.4976C86.4051 1.6662 87.6489 1.0517 89.1121 0.617926C90.5754 0.184156 92.1118 0.00341797 93.7214 0.00341797C94.5262 0.00341797 95.3675 0.0395655 96.1723 0.148008C97.0137 0.256451 97.7819 0.401041 98.5501 0.545631C99.2817 0.726369 99.9768 0.907106 100.635 1.12399C101.294 1.34088 101.806 1.55776 102.172 1.77465C102.684 2.06383 103.05 2.35301 103.269 2.67834C103.489 2.96752 103.598 3.36514 103.598 3.8712V5.57014C103.598 6.32924 103.306 6.72686 102.757 6.72686C102.464 6.72686 101.989 6.58227 101.367 6.29309C99.2817 5.35325 96.9405 4.88334 94.3433 4.88334C92.2581 4.88334 90.612 5.20866 89.4779 5.89547C88.3439 6.58227 87.7586 7.63055 87.7586 9.1126C87.7586 10.1247 88.1244 10.9923 88.8561 11.6791C89.5877 12.3659 90.9412 13.0527 92.88 13.6672L98.0745 15.2938C100.708 16.1252 102.611 17.2819 103.745 18.764C104.879 20.246 105.427 21.945 105.427 23.8246C105.427 25.379 105.098 26.7887 104.476 28.0178C103.818 29.2468 102.94 30.3312 101.806 31.1987C100.672 32.1024 99.3183 32.7531 97.7453 33.223C96.0992 33.7291 94.3798 33.9821 92.5142 33.9821Z" fill="white"/>
    <path d="M99.428 51.5499C87.3927 60.3337 69.9069 64.9968 54.872 64.9968C33.8011 64.9968 14.8154 57.2973 0.475551 44.5011C-0.65847 43.489 0.365807 42.1154 1.71932 42.9106C17.2298 51.8029 36.3618 57.1889 56.1523 57.1889C69.5045 57.1889 84.1736 54.4417 97.6721 48.8027C99.6841 47.899 101.403 50.104 99.428 51.5499Z" fill="white"/>
    <path d="M104.44 45.9108C102.903 43.9588 94.2701 44.9709 90.3559 45.4408C89.1853 45.5854 89.0024 44.5733 90.0632 43.8142C96.9405 39.0427 108.244 40.4163 109.561 42.0068C110.878 43.6335 109.195 54.8031 102.757 60.1529C101.769 60.9843 100.818 60.5505 101.257 59.4661C102.72 55.8875 105.976 47.8266 104.44 45.9108Z" fill="white"/>
  </g>
  <defs>
    <clipPath id="clip0_483_2238">
      <rect width="110" height="65" fill="white"/>
    </clipPath>
  </defs>
</svg>