<svg width="108" height="78" viewBox="0 0 108 78" fill="none" xmlns="http://www.w3.org/2000/svg">
<path d="M106.856 29.1498C106.555 28.9005 103.853 26.8576 98.0476 26.8576C96.5462 26.8576 94.9946 27.0072 93.4933 27.2563C92.3923 19.6325 86.0364 15.9452 85.7861 15.746L84.2347 14.8489L83.2338 16.294C81.9826 18.2374 81.0317 20.4298 80.4812 22.6721C79.4303 27.0072 80.0808 31.0932 82.2829 34.581C79.6304 36.076 75.3265 36.4248 74.4257 36.4745H3.3596C1.50794 36.4745 0.00651622 37.9695 0.00651622 39.8131C-0.0934465 45.9918 0.957425 52.1705 3.10951 58.0004C5.56167 64.3785 9.21518 69.1123 13.9196 72.0024C19.2244 75.2411 27.8824 77.0847 37.6414 77.0847C42.0455 77.0847 46.4495 76.6863 50.8037 75.8889C56.8592 74.7926 62.6646 72.6998 68.0196 69.6603C72.4081 67.1273 76.3625 63.8968 79.7304 60.0933C85.3857 53.7651 88.7388 46.6895 91.1909 40.4111H92.1918C98.3477 40.4111 102.151 37.9695 104.253 35.8766C105.654 34.581 106.705 32.9867 107.456 31.1929L107.907 29.8973L106.856 29.1498Z" fill="white"/>
<path d="M9.966 34.4314H19.4747C19.9253 34.4314 20.3257 34.0827 20.3257 33.5845V25.1136C20.3257 24.6651 19.9753 24.2666 19.4747 24.2666H9.966C9.51563 24.2666 9.11523 24.6153 9.11523 25.1136V33.5845C9.16522 34.0827 9.51563 34.4315 9.966 34.4315V34.4314ZM23.0781 34.4314H32.587C33.0374 34.4314 33.4378 34.0827 33.4378 33.5845V25.1136C33.4378 24.6651 33.0873 24.2666 32.587 24.2666H23.0779C22.6275 24.2666 22.2271 24.6153 22.2271 25.1136V33.5845C22.2773 34.0827 22.6277 34.4315 23.0779 34.4315M36.4402 34.4315H45.9492C46.3995 34.4315 46.7999 34.0827 46.7999 33.5845V25.1136C46.7999 24.6651 46.4495 24.2666 45.9492 24.2666H36.4402C35.9899 24.2666 35.5895 24.6153 35.5895 25.1136V33.5845C35.5895 34.0827 35.9399 34.4315 36.4402 34.4315ZM49.6025 34.4315H59.1114C59.5618 34.4315 59.9622 34.0827 59.9622 33.5845V25.1136C59.9622 24.6651 59.6118 24.2666 59.1114 24.2666H49.6025C49.1521 24.2666 48.7517 24.6153 48.7517 25.1136V33.5845C48.7517 34.0827 49.1521 34.4315 49.6025 34.4315ZM23.0781 22.3233H32.5868C33.0372 22.3233 33.4376 21.9248 33.4376 21.4762V13.0054C33.4376 12.5568 33.0872 12.1581 32.5868 12.1581H23.0779C22.6275 12.1581 22.2271 12.507 22.2271 13.0054V21.4762C22.2773 21.9246 22.6279 22.3233 23.0781 22.3233ZM36.4402 22.3233H45.9492C46.3995 22.3233 46.7999 21.9248 46.7999 21.4762V13.0054C46.7999 12.5568 46.4495 12.1581 45.9492 12.1581H36.4402C35.9899 12.1581 35.5895 12.507 35.5895 13.0054V21.4762C35.5895 21.9246 35.9399 22.3233 36.4402 22.3233ZM49.6025 22.3233H59.1114C59.5618 22.3233 59.9622 21.9248 59.9622 21.4762V13.0054C59.9622 12.5568 59.5616 12.1581 59.1114 12.1581H49.6025C49.1521 12.1581 48.7517 12.507 48.7517 13.0054V21.4762C48.7517 21.9246 49.1521 22.3233 49.6025 22.3233ZM49.6025 10.1651H59.1114C59.5618 10.1651 59.9622 9.81629 59.9622 9.31808V0.847214C59.9622 0.398678 59.5616 0 59.1114 0H49.6025C49.1521 0 48.7517 0.348821 48.7517 0.847214V9.31808C48.7517 9.76644 49.1521 10.1651 49.6025 10.1651ZM62.8647 34.4315H72.3736C72.824 34.4315 73.2244 34.0827 73.2244 33.5845V25.1136C73.2244 24.6651 72.8741 24.2666 72.3736 24.2666H62.8649C62.4143 24.2666 62.0139 24.6153 62.0139 25.1136V33.5845C62.0641 34.0827 62.4145 34.4315 62.8649 34.4315" fill="white"/>
</svg>
