<svg width="81" height="77" viewBox="0 0 81 77" fill="none" xmlns="http://www.w3.org/2000/svg">
<path d="M56.1245 53.5591C59.1135 53.2505 61.3812 50.6806 61.2781 47.5965C61.1752 44.5126 58.5981 42.0453 55.5059 42.0453H55.2999C52.1042 42.1482 49.6305 44.8209 49.7337 48.0076C49.8368 49.5497 50.4551 50.8861 51.3828 51.8112C47.8783 58.699 42.5184 63.7361 34.4785 67.9509C29.0154 70.8294 23.3463 71.8574 17.6773 71.138C13.0388 70.5211 9.43112 68.4653 7.16312 65.0725C3.8649 60.0354 3.55577 54.5868 6.33888 49.1385C8.29743 45.232 11.3894 42.3536 13.3479 40.9144C12.9356 39.578 12.3171 37.3165 12.0079 35.6719C-2.93815 46.4658 -1.39187 61.0634 3.14349 67.9509C6.54486 73.0912 13.4511 76.278 21.0787 76.278C23.1401 76.278 25.2014 76.0722 27.2631 75.5585C40.457 72.9884 50.4554 65.1754 56.1245 53.5591ZM74.2659 40.8118C66.432 31.6625 54.8876 26.6254 41.6938 26.6254H40.0447C39.117 24.775 37.1584 23.5412 34.9939 23.5412H34.7876C31.5925 23.6441 29.1189 26.3168 29.2217 29.5038C29.3248 32.5877 31.9017 35.055 34.9939 35.055H35.1999C37.4676 34.9521 39.4261 33.5129 40.2507 31.5596H42.1061C49.94 31.5596 57.3613 33.8212 64.0615 38.2417C69.2151 41.6342 72.9259 46.0547 74.9873 51.4001C76.7396 55.7177 76.6364 59.9325 74.781 63.5307C71.8951 68.979 67.0506 71.9603 60.6598 71.9603C56.5367 71.9603 52.6199 70.7265 50.5582 69.8013C49.4246 70.8294 47.3628 72.474 45.9197 73.5024C50.3523 75.5582 54.8876 76.6891 59.2167 76.6891C69.112 76.6891 76.4305 71.2405 79.2136 65.7923C82.2027 59.8297 81.9964 49.5497 74.2659 40.8118ZM21.9032 55.3063C22.0064 58.3904 24.5832 60.8574 27.6754 60.8574H27.8817C31.0771 60.7548 33.5508 58.0818 33.4476 54.8951C33.3448 51.8109 30.7677 49.344 27.6754 49.344H27.4694C27.2631 49.344 26.9537 49.344 26.748 49.4465C22.5218 42.4562 20.7695 34.8492 21.3881 26.6251C21.8001 20.457 23.8618 15.1113 27.4694 10.6908C30.4585 6.88717 36.2307 5.03679 40.1478 4.93424C51.0737 4.7285 55.7119 18.2981 56.0213 23.7466C57.3613 24.0549 59.629 24.7747 61.1752 25.2887C59.9381 8.63531 49.6305 0 39.7356 0C30.4585 0 21.9032 6.68206 18.5015 16.5509C13.7602 29.7092 16.8524 42.3536 22.6246 52.3253C22.1095 53.0447 21.8001 54.1753 21.9032 55.3063Z" fill="white"/>
</svg>
