<svg xmlns="http://www.w3.org/2000/svg" width="97" height="77" viewBox="0 0 97 77" fill="none">
  <g clip-path="url(#clip0_483_2272)">
    <path d="M61.5494 21.204H64.5094L72.942 12.886L73.3567 9.35664C57.6665 -4.30355 33.7143 -2.83165 19.8659 12.6454C16.0155 16.9447 13.2222 22.0583 11.7015 27.593C12.6408 27.2119 13.6816 27.1518 14.6615 27.4165L31.5228 24.6732C31.5228 24.6732 32.3807 23.2735 32.8239 23.3617C40.3254 15.2362 52.95 14.2897 61.6104 21.204H61.5494Z" fill="#D7D7D7"/>
    <path d="M84.9527 27.593C83.0133 20.5544 79.0369 14.2256 73.5032 9.38477L61.6714 21.0557C66.6684 25.0824 69.5145 31.1504 69.3926 37.5153V39.5888C75.2108 39.5888 79.9232 44.2411 79.9232 49.9763C79.9232 55.7155 75.2068 60.3638 69.3926 60.3638H48.3272L46.2251 62.4654V74.9264L48.3272 76.9999H69.3926C81.4683 77.0921 92.1819 69.3717 95.768 57.9976C99.346 46.6194 94.9548 34.2667 84.9527 27.593Z" fill="#F3F3F3"/>
    <path d="M27.2333 76.8837H48.2987V60.2516H27.2333C25.733 60.2516 24.2489 59.9348 22.8828 59.3171L19.9228 60.2195L11.4332 68.5376L10.6932 71.4573C15.4544 75.0027 21.2646 76.9077 27.2333 76.8837Z" fill="#A1A1A1"/>
    <path d="M27.2334 22.9247C15.5317 22.9929 5.16776 30.3845 1.43527 41.3215C-2.29722 52.2584 1.42307 64.3304 10.6974 71.365L22.9154 59.3131C17.6135 56.9509 15.2593 50.7986 17.6541 45.5687C20.0489 40.3388 26.286 38.0167 31.5879 40.379C33.9218 41.4217 35.7921 43.2666 36.8492 45.5687L49.0672 33.5168C43.8669 26.815 35.788 22.8966 27.2334 22.9247Z" fill="white"/>
  </g>
  <defs>
    <clipPath id="clip0_483_2272">
      <rect width="97" height="77" fill="white"/>
    </clipPath>
  </defs>
</svg>