<svg width="183" height="51" viewBox="0 0 183 51" fill="none" xmlns="http://www.w3.org/2000/svg">
<g clip-path="url(#clip0_120_326)">
<path d="M41.3563 0H4.64407C2.08573 0 0.0390625 2.04 0.0390625 4.59V46.41C0.0390625 48.96 2.08573 51 4.64407 51H41.3563C43.9146 51 45.9613 48.96 45.9613 46.41V4.59C45.9613 2.04 43.9146 0 41.3563 0ZM43.4029 46.41C43.4029 47.5575 42.5075 48.45 41.3563 48.45H4.64407C3.49282 48.45 2.5974 47.5575 2.5974 46.41V4.59C2.5974 3.4425 3.49282 2.55 4.64407 2.55H41.3563C42.5075 2.55 43.4029 3.4425 43.4029 4.59V46.41ZM11.5516 43.35L17.3079 38.25L11.5516 33.15V43.35ZM32.2742 22.695C31.2508 21.675 29.3321 20.4 26.1341 20.4C22.6804 20.4 19.0987 21.2925 16.5404 22.185V7.65H11.5516V29.7075L15.1333 28.05C15.1333 28.05 21.0175 25.3725 26.1341 25.3725C28.6925 25.3725 29.3321 26.775 29.3321 28.05V43.35H34.4487V28.05C34.4487 27.6675 34.4487 24.8625 32.2742 22.695ZM25.4945 15.9375H30.6112C32.9137 13.26 34.065 10.5825 34.4487 7.65H29.3321C28.8204 10.5825 27.5412 13.26 25.4945 15.9375ZM166.843 27.9225V16.575H171.96V27.795C171.96 30.345 172.855 31.62 174.902 31.62C176.948 31.62 177.716 30.4725 177.716 27.795V16.575H182.705V27.9225C182.705 32.895 180.274 35.8275 174.774 35.8275C169.273 35.8275 166.843 32.895 166.843 27.9225ZM145.353 16.7025H150.469V23.5875L155.714 16.7025H161.598L155.202 24.0975L162.11 35.5725H156.354L151.877 28.05L150.469 29.7075V35.5725H145.353V16.7025ZM121.049 26.01C121.049 19.125 125.781 16.1925 130.387 16.1925C134.992 16.1925 139.724 19.125 139.724 26.01C139.724 32.895 134.992 35.8275 130.387 35.8275C125.781 35.8275 121.049 33.0225 121.049 26.01ZM134.48 26.01C134.48 22.5675 132.945 20.4 130.259 20.4C127.572 20.4 126.037 22.5675 126.037 26.01C126.037 29.4525 127.572 31.7475 130.259 31.7475C132.945 31.7475 134.48 29.58 134.48 26.01ZM100.454 16.7025H107.873C112.734 16.7025 115.676 18.36 115.676 22.8225C115.676 25.755 114.397 27.54 111.966 28.305L115.932 35.5725H110.559L106.85 29.07H105.443V35.5725H100.454V16.7025ZM107.745 25.1175C109.792 25.1175 110.815 24.48 110.815 22.95C110.815 21.42 109.92 20.7825 107.745 20.7825H105.571V25.1175H107.745ZM80.8826 16.7025H94.4418V20.91H85.9993V23.97H92.0114V27.9225H85.9993V31.365H94.8256V35.445H80.8826V16.7025ZM57.7296 16.7025H62.8463V23.715H69.1143V16.7025H74.2309V35.5725H69.1143V27.9225H62.8463V35.5725H57.7296V16.7025Z" fill="white"/>
</g>
<defs>
<clipPath id="clip0_120_326">
<rect width="183" height="51" fill="white"/>
</clipPath>
</defs>
</svg>
