<svg width="193" height="54" viewBox="0 0 193 54" fill="none" xmlns="http://www.w3.org/2000/svg">
<g id="nodejs 1" clip-path="url(#clip0_483_2281)">
<g id="Group">
<path id="Vector" d="M177.562 19.2207C177.093 19.2207 176.637 19.3164 176.233 19.5421L163.459 26.8302C162.632 27.301 162.13 28.1895 162.13 29.1351V43.6849C162.13 44.6298 162.632 45.5172 163.459 45.9891L166.795 47.8917C168.416 48.6809 169.013 48.6686 169.751 48.6686C172.151 48.6686 173.521 47.2299 173.521 44.7299V30.3674C173.521 30.1645 173.343 30.0192 173.141 30.0192H171.541C171.336 30.0192 171.162 30.1645 171.162 30.3674V44.7299C171.162 45.8379 169.993 46.9525 168.097 46.0159L164.625 44.0063C164.502 43.9404 164.408 43.8239 164.408 43.6849V29.1347C164.408 28.9969 164.501 28.8565 164.625 28.7865L177.372 21.5256C177.43 21.4923 177.495 21.4748 177.562 21.4748C177.629 21.4748 177.694 21.4923 177.752 21.5256L190.499 28.7869C190.62 28.8591 190.716 28.9928 190.716 29.1355V43.6853C190.716 43.8242 190.645 43.9665 190.526 44.0335L177.752 51.2948C177.642 51.3593 177.492 51.3593 177.372 51.2948L174.09 49.3657C174.041 49.339 173.985 49.325 173.928 49.325C173.871 49.325 173.815 49.339 173.765 49.3657C172.859 49.873 172.689 49.9318 171.839 50.223C171.63 50.2953 171.312 50.4074 171.948 50.7593L176.233 53.2508C176.637 53.4811 177.096 53.6013 177.562 53.5993C178.029 53.6022 178.487 53.482 178.891 53.2511L191.665 45.9894C192.492 45.5146 192.994 44.6301 192.994 43.6853V29.1351C192.994 28.1899 192.492 27.3028 191.665 26.831L178.891 19.5428C178.491 19.3168 178.031 19.2211 177.562 19.2211L177.562 19.2207Z" fill="white"/>
<path id="Vector_2" d="M180.979 29.6174C177.342 29.6174 175.175 31.1469 175.175 33.6905C175.175 36.4494 177.325 37.2076 180.817 37.5487C184.993 37.9528 185.319 38.5587 185.319 39.3709C185.319 40.7798 184.182 41.3805 181.495 41.3805C178.119 41.3805 177.377 40.5478 177.128 38.8887C177.099 38.7107 176.96 38.5669 176.776 38.5669H175.121C174.918 38.5669 174.741 38.7405 174.741 38.9423C174.741 41.0662 175.911 43.5777 181.495 43.5777C185.537 43.5777 187.868 42.0102 187.868 39.2637C187.868 36.5413 185.985 35.8103 182.064 35.2982C178.102 34.7802 177.725 34.5266 177.725 33.6101C177.725 32.8533 178.045 31.8411 180.979 31.8411C183.601 31.8411 184.569 32.3997 184.966 34.146C185.001 34.3098 185.147 34.4406 185.319 34.4406H186.973C187.075 34.4406 187.174 34.3787 187.245 34.3065C187.314 34.2294 187.363 34.1426 187.353 34.0387C187.097 31.0319 185.067 29.6174 180.979 29.6174Z" fill="white"/>
</g>
<path id="Vector_3" d="M102.463 0.142751C102.32 0.142845 102.18 0.179681 102.056 0.249634C101.932 0.320866 101.83 0.422583 101.759 0.544765C101.687 0.666947 101.65 0.805378 101.649 0.94642V21.4448C101.649 21.6459 101.554 21.8262 101.378 21.9271C101.291 21.9769 101.193 22.0031 101.093 22.0031C100.993 22.0031 100.895 21.9769 100.808 21.9271L97.4179 19.998C97.1706 19.8566 96.89 19.7822 96.6043 19.7822C96.3186 19.7822 96.0379 19.8566 95.7907 19.998L82.2571 27.7148C81.7512 28.0034 81.4436 28.5579 81.4436 29.1352V44.5691C81.4436 45.1456 81.7516 45.6737 82.2571 45.9623L95.7907 53.6795C96.0378 53.8212 96.3185 53.8958 96.6043 53.8958C96.8901 53.8958 97.1708 53.8212 97.4179 53.6795L110.952 45.9623C111.199 45.8214 111.405 45.6184 111.548 45.3738C111.691 45.1291 111.766 44.8516 111.765 44.5691V6.09132C111.765 5.80225 111.687 5.51846 111.539 5.26892C111.392 5.01938 111.18 4.81302 110.925 4.67093L102.869 0.22282C102.743 0.153179 102.603 0.140889 102.463 0.142751ZM15.4025 19.4085C15.1447 19.4185 14.9019 19.4632 14.6705 19.5958L1.13652 27.3129C0.888607 27.4537 0.682776 27.6566 0.539913 27.9013C0.397049 28.146 0.322237 28.4237 0.323066 28.7061L0.350206 49.4194C0.350206 49.7073 0.500609 49.9751 0.756934 50.1158C0.879823 50.1888 1.02049 50.2273 1.16385 50.2273C1.30722 50.2273 1.44788 50.1888 1.57077 50.1158L9.59865 45.5608C10.1072 45.2622 10.4392 44.743 10.4392 44.1673V34.4942C10.4392 33.917 10.7465 33.3874 11.2531 33.1006L14.6701 31.1447C14.9172 31.0028 15.1982 30.9287 15.484 30.9302C15.7629 30.9302 16.0494 30.9991 16.2974 31.1447L19.7148 33.1006C19.963 33.2412 20.169 33.4442 20.3119 33.689C20.4549 33.9338 20.5297 34.2116 20.5287 34.4942V44.1669C20.5287 44.7427 20.8641 45.2655 21.3693 45.5605L29.3971 50.1158C29.52 50.1888 29.6607 50.2273 29.8041 50.2273C29.9474 50.2273 30.0881 50.1888 30.211 50.1158C30.3347 50.0451 30.4374 49.9435 30.5088 49.8212C30.5803 49.6989 30.6179 49.5603 30.6181 49.4191L30.6445 28.7061C30.6461 28.4235 30.5716 28.1456 30.4286 27.9007C30.2857 27.6559 30.0794 27.4531 29.831 27.3129L16.2974 19.5958C16.0686 19.4632 15.8251 19.4189 15.5654 19.4085H15.4025ZM137.015 19.5958C136.733 19.5958 136.456 19.6665 136.202 19.8103L122.668 27.5275C122.42 27.6683 122.215 27.8713 122.072 28.1159C121.929 28.3606 121.854 28.6382 121.854 28.9207V44.3546C121.854 44.9352 122.185 45.461 122.695 45.7482L136.12 53.3045C136.616 53.5838 137.221 53.605 137.721 53.3305L145.857 48.856C146.115 48.7144 146.29 48.45 146.291 48.1596C146.292 48.0181 146.255 47.8789 146.184 47.7563C146.112 47.6338 146.009 47.5324 145.884 47.4628L132.269 39.7456C132.014 39.6019 131.835 39.311 131.835 39.022V34.1992C131.835 33.9106 132.016 33.6462 132.269 33.5025L136.5 31.0907C136.624 31.02 136.764 30.9828 136.907 30.9828C137.05 30.9828 137.19 31.02 137.314 31.0907L141.544 33.5025C141.668 33.5728 141.771 33.6743 141.843 33.7966C141.914 33.9189 141.952 34.0577 141.951 34.1989V38.0038C141.951 38.145 141.988 38.2838 142.06 38.4061C142.131 38.5284 142.234 38.6299 142.358 38.7002C142.612 38.8451 142.919 38.8455 143.172 38.7002L151.281 34.0387C151.529 33.8973 151.734 33.6941 151.877 33.4495C152.02 33.2049 152.095 32.9275 152.095 32.6452V28.921C152.095 28.3456 151.786 27.8164 151.281 27.5275L137.829 19.8103C137.582 19.669 137.301 19.5947 137.015 19.5958ZM96.5498 31.1179C96.6207 31.1179 96.7036 31.135 96.767 31.1712L101.405 33.8239C101.531 33.8957 101.622 34.0287 101.622 34.1721V39.4775C101.622 39.6216 101.532 39.7542 101.405 39.826L96.767 42.4788C96.705 42.5137 96.6349 42.5321 96.5636 42.5321C96.4923 42.5321 96.4222 42.5137 96.3602 42.4788L91.7226 39.826C91.5963 39.7538 91.5055 39.6216 91.5055 39.4775V34.1721C91.5055 34.0283 91.5967 33.8965 91.7226 33.8239L96.3602 31.1715C96.4172 31.1365 96.4831 31.118 96.5502 31.1183L96.5498 31.1179Z" fill="#757575"/>
<path id="Vector_4" d="M56.0576 19.5151C55.7757 19.5151 55.4967 19.5859 55.2442 19.7297L41.7106 27.42C41.2043 27.7079 40.8967 28.2635 40.8967 28.84V44.274C40.8967 44.8512 41.2047 45.3785 41.7106 45.6675L55.2442 53.3843C55.4913 53.5261 55.772 53.6009 56.0578 53.6009C56.3436 53.6009 56.6243 53.5261 56.8714 53.3843L70.405 45.6675C70.6528 45.5266 70.8585 45.3234 71.0013 45.0787C71.1442 44.834 71.2191 44.5564 71.2185 44.274V28.84C71.2185 28.2628 70.9109 27.7079 70.405 27.42L56.8714 19.7297C56.6241 19.5885 56.3433 19.5145 56.0576 19.5151ZM136.988 33.2881C136.934 33.2881 136.874 33.2881 136.826 33.3149L134.222 34.8154C134.174 34.842 134.133 34.8808 134.104 34.9279C134.076 34.975 134.06 35.0286 134.059 35.0835V38.0308C134.059 38.1418 134.124 38.2435 134.222 38.2989L136.826 39.7726C136.923 39.8284 137.027 39.8284 137.124 39.7726L139.727 38.2986C139.776 38.2718 139.816 38.233 139.845 38.186C139.873 38.1391 139.889 38.0856 139.89 38.0308V35.0832C139.889 35.0284 139.873 34.9749 139.845 34.9279C139.816 34.881 139.776 34.8422 139.727 34.8154L137.124 33.3146C137.076 33.2866 137.042 33.2881 136.988 33.2881Z" fill="white"/>
</g>
<defs>
<clipPath id="clip0_483_2281">
<rect width="193" height="54" fill="white"/>
</clipPath>
</defs>
</svg>
