<svg xmlns="http://www.w3.org/2000/svg" width="80" height="69" viewBox="0 0 80 69" fill="none">
  <g clip-path="url(#clip0_483_2412)">
    <path d="M60.4167 21.0089C58.9583 20.185 57.0833 20.185 55.4167 21.0089L43.75 27.8059L35.8333 32.1313L24.375 38.9283C22.9167 39.7522 21.0417 39.7522 19.375 38.9283L10.4167 33.573C8.95833 32.7492 7.91667 31.1014 7.91667 29.2477V18.9492C7.91667 17.3014 8.75 15.6536 10.4167 14.6238L19.375 9.47454C20.8333 8.65066 22.7083 8.65066 24.375 9.47454L33.3333 14.8298C34.7917 15.6536 35.8333 17.3014 35.8333 19.1551V25.9522L43.75 21.4208V14.4178C43.75 12.7701 42.9167 11.1223 41.25 10.0925L24.5833 0.411856C23.125 -0.412025 21.25 -0.412025 19.5833 0.411856L2.5 10.2984C0.833333 11.1223 0 12.7701 0 14.4178V33.779C0 35.4268 0.833333 37.0745 2.5 38.1044L19.375 47.785C20.8333 48.6089 22.7083 48.6089 24.375 47.785L35.8333 41.1939L43.75 36.6626L55.2083 30.0716C56.6667 29.2477 58.5417 29.2477 60.2083 30.0716L69.1667 35.2208C70.625 36.0447 71.6667 37.6925 71.6667 39.5462V49.8447C71.6667 51.4925 70.8333 53.1402 69.1667 54.1701L60.4167 59.3193C58.9583 60.1432 57.0833 60.1432 55.4167 59.3193L46.4583 54.1701C45 53.3462 43.9583 51.6984 43.9583 49.8447V43.2536L36.0417 47.785V54.582C36.0417 56.2298 36.875 57.8775 38.5417 58.9074L55.4167 68.588C56.875 69.4118 58.75 69.4118 60.4167 68.588L77.2917 58.9074C78.75 58.0835 79.7917 56.4357 79.7917 54.582V35.0148C79.7917 33.3671 78.9583 31.7193 77.2917 30.6895L60.4167 21.0089Z" fill="#E9E9E9"/>
  </g>
  <defs>
    <clipPath id="clip0_483_2412">
      <rect width="80" height="69" fill="white"/>
    </clipPath>
  </defs>
</svg>