<svg xmlns="http://www.w3.org/2000/svg" width="88" height="90" viewBox="0 0 88 90" fill="none">
  <g clip-path="url(#clip0_483_2294)">
    <path d="M87.659 53.8876C87.1313 52.3029 85.7491 51.1991 83.9616 50.9342C83.1187 50.8095 82.1535 50.8627 81.0112 51.0962C79.0202 51.5035 77.5431 51.6586 76.4651 51.6886C80.5341 44.8762 83.8427 37.1077 85.7474 29.7949C88.8274 17.9703 87.1815 12.5834 85.2582 10.1469C80.1683 3.6975 72.7423 0.232846 63.7835 0.126834C59.0043 0.0688855 54.8089 1.00459 52.6202 1.67747C50.5825 1.32092 48.3914 1.12185 46.0924 1.08503C41.7828 1.01686 37.9751 1.94847 34.7215 3.86316C32.9202 3.25913 30.0293 2.40763 26.6908 1.86427C18.8389 0.585993 12.5104 1.58203 7.88149 4.82477C2.27631 8.75097 -0.322101 15.5726 0.158462 25.1C0.311087 28.1249 2.01746 37.3286 4.70421 46.057C6.24834 51.074 7.8949 55.2402 9.59818 58.441C12.0137 62.9797 14.5984 65.6525 17.5 66.6124C19.1262 67.1497 22.0811 67.526 25.189 64.9592C25.5829 65.4323 26.1085 65.9024 26.806 66.3391C27.6918 66.893 28.775 67.3457 29.8567 67.6139C33.7552 68.5803 37.4069 68.3386 40.5223 66.984C40.5415 67.5335 40.5563 68.0584 40.5687 68.5118C40.5893 69.2471 40.6099 69.968 40.6371 70.6423C40.8217 75.2011 41.1345 78.7459 42.0612 81.2261C42.1121 81.3624 42.1805 81.5704 42.2527 81.7909C42.7151 83.1947 43.4881 85.5447 45.4551 87.385C47.4918 89.2915 49.9555 89.8761 52.2118 89.8761C53.3435 89.8761 54.4232 89.7289 55.3702 89.5278C58.7458 88.8102 62.5797 87.7174 65.3531 83.8014C67.9752 80.0995 69.2498 74.5238 69.4805 65.7384C69.5104 65.49 69.5379 65.2527 69.5643 65.0267L69.6193 64.5624L70.2371 64.6163L70.3962 64.6269C73.8344 64.7823 78.0385 64.0593 80.6204 62.87C82.6605 61.9312 89.1983 58.5085 87.659 53.8876Z" fill="#141414"/>
    <path d="M81.7802 54.7861C71.5571 56.8774 70.8541 53.4451 70.8541 53.4451C81.6479 37.5627 86.1603 17.4024 82.2666 12.4682C71.6433 -0.991256 53.2544 5.37424 52.9475 5.53923L52.8488 5.55695C50.8289 5.14109 48.5688 4.89361 46.0281 4.85236C41.4026 4.77737 37.8936 6.05497 35.2309 8.05727C35.2309 8.05727 2.42688 -5.34389 3.95278 24.9115C4.27728 31.3479 13.256 73.6133 23.9652 60.8472C27.8795 56.1789 31.6618 52.2319 31.6618 52.2319C33.54 53.4693 35.7888 54.1006 38.1463 53.8739L38.3295 53.7199C38.2724 54.2994 38.2986 54.8662 38.4027 55.5374C35.6438 58.594 36.4547 59.1306 30.9396 60.2565C25.3588 61.3971 28.6371 63.4273 30.7777 63.9584C33.3726 64.6016 39.3759 65.5131 43.4321 59.8822L43.2706 60.5248C44.3513 61.3834 45.1103 66.1093 44.9831 70.3938C44.8559 74.6779 44.771 77.6193 45.6225 79.9168C46.4747 82.2143 47.3234 87.3837 54.5738 85.8432C60.6317 84.5558 63.7711 81.2196 64.208 75.6545C64.5178 71.6983 65.2193 72.2832 65.2633 68.746L65.8261 67.0716C66.4747 61.7086 65.9292 59.9783 69.6613 60.7831L70.5688 60.8622C73.3153 60.986 76.911 60.4239 79.0213 59.4513C83.5649 57.3604 86.2599 53.8688 81.7795 54.7861H81.7802Z" fill="#898989"/>
    <path d="M37.1511 27.7899C36.2299 27.6628 35.3956 27.7804 34.9735 28.0974C34.7363 28.2757 34.6627 28.4823 34.6428 28.6244C34.5898 29.0011 34.8559 29.4176 35.0195 29.6324C35.4822 30.2405 36.158 30.6584 36.827 30.7504C36.9239 30.7641 37.0205 30.7702 37.1164 30.7702C38.2319 30.7702 39.2463 29.9088 39.3357 29.2731C39.4474 28.4768 38.2817 27.9457 37.1511 27.7899ZM67.6706 27.8152C67.5826 27.191 66.4627 27.0131 65.3998 27.1597C64.3383 27.3062 63.3091 27.7814 63.3951 28.4069C63.4638 28.8934 64.3497 29.7237 65.3981 29.7237C65.4868 29.7237 65.5762 29.7179 65.6662 29.7053C66.3661 29.6092 66.8797 29.1684 67.1237 28.9145C67.495 28.5273 67.7102 28.0957 67.6706 27.8152Z" fill="white"/>
    <path d="M85.1819 54.5485C84.7921 53.3796 83.5374 53.0036 81.4529 53.4304C75.2637 54.6971 73.0472 53.8197 72.3195 53.2883C77.1303 46.0208 81.0879 37.2358 83.2229 29.0394C84.2342 25.1569 84.7928 21.5511 84.8385 18.6121C84.8891 15.3864 84.3349 13.0159 83.1923 11.5679C78.5854 5.73041 71.8238 2.59913 63.6391 2.51323C58.0123 2.45051 53.2582 3.87844 52.3366 4.27999C50.3958 3.8014 48.28 3.50757 45.9766 3.47007C41.7526 3.40224 38.1012 4.40509 35.0783 6.44932C33.7652 5.96459 30.3717 4.80937 26.2216 4.14637C19.0468 3.00103 13.3454 3.86889 9.27678 6.72713C4.42199 10.1379 2.18074 16.2348 2.6149 24.848C2.76099 27.7458 4.42612 36.6604 7.05374 45.1976C10.5126 56.4342 14.2725 62.7953 18.2284 64.1039C18.6914 64.2569 19.2252 64.364 19.8141 64.364C21.2572 64.364 23.0264 63.719 24.8672 61.5245C27.1124 58.8536 29.435 56.2475 31.8319 53.7096C33.3871 54.5372 35.0955 54.9995 36.8428 55.0458C36.8462 55.0911 36.8507 55.1365 36.8548 55.1815C36.554 55.5371 36.2595 55.898 35.9714 56.2638C34.7607 57.7878 34.5087 58.1052 30.6116 58.9008C29.503 59.1278 26.5588 59.7294 26.5155 61.7761C26.4687 64.0122 29.996 64.9513 30.3978 65.0508C31.7982 65.3985 33.1475 65.57 34.4341 65.57C37.5633 65.57 40.3171 64.5501 42.5177 62.5768C42.45 70.5485 42.7852 78.4036 43.7504 80.7969C44.5411 82.7562 46.4722 87.5445 52.5724 87.5442C53.4676 87.5442 54.4528 87.4409 55.5366 87.2104C61.9032 85.8572 64.668 83.0668 65.7374 76.915C66.3097 73.6273 67.2918 65.7766 67.7538 61.5654C68.7287 61.8671 69.9837 62.0051 71.3405 62.0048C74.1702 62.0048 77.4355 61.4086 79.4833 60.4661C81.7836 59.4066 85.9348 56.8071 85.1819 54.5485ZM70.0205 26.0922C69.9995 27.3354 69.827 28.464 69.6441 29.6421C69.4471 30.9091 69.2436 32.2191 69.1924 33.8093C69.1419 35.3569 69.3368 36.9658 69.5252 38.5219C69.906 41.6648 70.2969 44.9004 68.784 48.093C68.5327 47.6514 68.3089 47.1951 68.1137 46.7264C67.9257 46.2744 67.5173 45.5484 66.9518 44.5435C64.7522 40.6316 59.6011 31.4709 62.238 27.7329C63.0235 26.6203 65.0169 25.4763 70.0205 26.0922ZM63.9554 5.0306C71.2889 5.19115 77.0901 7.91167 81.1972 13.1161C84.3473 17.1081 80.8785 35.2723 70.8366 50.9427C70.7356 50.8154 70.6341 50.6884 70.532 50.5619L70.4048 50.4045C72.9998 46.1548 72.4924 41.9501 72.0407 38.2223C71.8551 36.6924 71.6798 35.2475 71.7245 33.8901C71.7705 32.4516 71.9623 31.2176 72.148 30.0246C72.3759 28.5544 72.6079 27.0331 72.544 25.2397C72.5918 25.0515 72.611 24.8293 72.5859 24.5655C72.4226 22.8457 70.4426 17.6989 66.407 13.0405C64.1994 10.4924 60.9802 7.64102 56.5847 5.7178C58.4753 5.3292 61.0607 4.96685 63.9554 5.0306ZM22.9192 59.9183C20.8911 62.3364 19.4906 61.8729 19.03 61.7208C16.0291 60.7282 12.5469 54.4384 9.47684 44.4644C6.82034 35.8341 5.26796 27.1558 5.1449 24.7223C4.75715 17.026 6.63849 11.6623 10.737 8.77988C17.4072 4.08944 28.3735 6.89689 32.78 8.32072C32.7167 8.38276 32.6507 8.44071 32.5882 8.50377C25.3571 15.7453 25.5286 28.1177 25.5465 28.8741C25.5458 29.1659 25.5705 29.579 25.6042 30.1473C25.7287 32.2283 25.9603 36.1013 25.3416 40.4874C24.7668 44.5632 26.0339 48.5525 28.8172 51.4325C29.1029 51.7275 29.4031 52.0083 29.7168 52.2738C28.478 53.5896 25.7854 56.4993 22.9192 59.9183ZM30.6463 49.6944C28.403 47.3731 27.3842 44.1443 27.8506 40.8351C28.5037 36.2019 28.2628 32.1666 28.1332 29.9987C28.115 29.6953 28.0988 29.4294 28.0895 29.2198C29.1459 28.2909 34.0412 25.69 37.5323 26.4832C39.1253 26.8449 40.096 27.9207 40.4996 29.771C42.5882 39.3506 40.776 43.3432 39.3198 46.5519C39.0197 47.2128 38.7362 47.8377 38.4942 48.484L38.3065 48.9837C37.8314 50.247 37.3893 51.4216 37.1154 52.537C34.7304 52.5302 32.4105 51.5198 30.6463 49.6941V49.6944ZM31.0124 62.6136C30.316 62.4411 29.6897 62.1415 29.3222 61.893C29.6292 61.7498 30.1754 61.5548 31.1228 61.3612C35.7074 60.4255 36.4155 59.7649 37.9617 57.8182C38.3161 57.3716 38.7179 56.8657 39.2745 56.2494L39.2752 56.2488C40.1039 55.3284 40.4831 55.4845 41.1706 55.7674C41.7278 55.9958 42.2706 56.6885 42.4906 57.4507C42.5947 57.8107 42.7116 58.4938 42.329 59.0255C39.0992 63.5101 34.3925 63.4525 31.0124 62.6136ZM55.0058 84.7541C49.3972 85.9458 47.4114 83.108 46.1027 79.8639C45.2581 77.7696 44.8429 68.3253 45.1375 57.8955C45.1413 57.7568 45.1213 57.6228 45.0828 57.4967C45.0484 57.2477 44.996 57.0014 44.9261 56.7597C44.4881 55.2422 43.4208 53.9727 42.1403 53.4464C41.6316 53.2375 40.6979 52.854 39.5759 53.1386C39.8152 52.161 40.2301 51.0569 40.6801 49.8614L40.8688 49.3587C41.0812 48.7918 41.348 48.2045 41.6298 47.5827C43.1537 44.2258 45.2406 39.6277 42.9756 29.2402C42.1272 25.3495 39.2941 23.4494 34.9992 23.8909C32.4246 24.155 30.0688 25.1852 28.8939 25.7759C28.6412 25.9027 28.4102 26.0254 28.1944 26.1447C28.5223 22.2247 29.7612 14.8986 34.3956 10.2634C37.3137 7.34548 41.1998 5.90426 45.9346 5.98198C55.264 6.13333 61.2466 10.881 64.6229 14.8376C67.5324 18.2467 69.1078 21.681 69.7366 23.5333C65.0083 23.0564 61.7925 23.9819 60.1624 26.293C56.616 31.3202 62.1026 41.0774 64.7395 45.7669C65.2231 46.6262 65.6404 47.369 65.7717 47.6846C66.6304 49.7483 67.7421 51.1261 68.5537 52.1317C68.8026 52.4398 69.0439 52.7388 69.2275 52.9999C67.7954 53.4093 65.2231 54.3552 65.4576 59.0835C65.2685 61.456 63.9241 72.5637 63.2411 76.4882C62.3394 81.6729 60.4154 83.604 55.0058 84.7544V84.7541ZM78.4166 58.1877C76.9522 58.8616 74.5016 59.3671 72.1738 59.4758C69.6025 59.5951 68.2935 59.1902 67.9855 58.941C67.8411 55.9945 68.947 55.6867 70.1174 55.3608C70.3013 55.3097 70.4808 55.2595 70.654 55.1996C70.7616 55.2865 70.8795 55.3727 71.0088 55.4572C73.0754 56.8098 76.7614 56.9557 81.9655 55.8905L82.0225 55.8793C81.3206 56.53 80.1195 57.4033 78.4166 58.1877Z" fill="white"/>
    <path d="M85.1819 54.5485C84.7921 53.3796 83.5374 53.0036 81.4529 53.4304C75.2637 54.6971 73.0472 53.8197 72.3195 53.2883C77.1303 46.0208 81.0879 37.2358 83.2229 29.0394C84.2342 25.1569 84.7928 21.5511 84.8385 18.6121C84.889 15.3864 84.3349 13.0159 83.1923 11.5679C78.5854 5.73041 71.8238 2.59913 63.6391 2.51323C58.0123 2.45051 53.2582 3.87844 52.3366 4.27999C50.3958 3.8014 48.28 3.50757 45.9765 3.47007C41.7525 3.40224 38.1012 4.40509 35.0783 6.44932C33.7652 5.96459 30.3717 4.80937 26.2216 4.14637C19.0468 3.00103 13.3454 3.86889 9.27676 6.72713C4.42198 10.1379 2.18073 16.2348 2.61488 24.848C2.76098 27.7458 4.4261 36.6604 7.05373 45.1976C10.5125 56.4342 14.2725 62.7953 18.2284 64.1039C18.6914 64.2569 19.2252 64.364 19.8141 64.364C21.2571 64.364 23.0264 63.719 24.8672 61.5245C27.1124 58.8536 29.435 56.2475 31.8319 53.7096C33.387 54.5372 35.0955 54.9995 36.8428 55.0458C36.8462 55.0911 36.8507 55.1365 36.8548 55.1815C36.554 55.5371 36.2595 55.898 35.9714 56.2638C34.7607 57.7878 34.5087 58.1052 30.6116 58.9008C29.503 59.1278 26.5588 59.7294 26.5155 61.7761C26.4687 64.0122 29.996 64.9513 30.3978 65.0508C31.7982 65.3985 33.1474 65.57 34.4341 65.57C37.5633 65.57 40.317 64.5501 42.5177 62.5768C42.45 70.5485 42.7852 78.4036 43.7504 80.7969C44.541 82.7562 46.4722 87.5445 52.5724 87.5442C53.4675 87.5442 54.4527 87.4409 55.5366 87.2104C61.9032 85.8572 64.6679 83.0668 65.7374 76.915C66.3097 73.6273 67.2918 65.7766 67.7538 61.5654C68.7287 61.8671 69.9837 62.0051 71.3405 62.0048C74.1702 62.0048 77.4355 61.4086 79.4832 60.4661C81.7836 59.4066 85.9347 56.8071 85.1819 54.5485ZM70.0205 26.0922C69.9995 27.3354 69.827 28.464 69.6441 29.6421C69.4471 30.9091 69.2436 32.2191 69.1924 33.8093C69.1419 35.3569 69.3368 36.9658 69.5251 38.5219C69.906 41.6648 70.2969 44.9004 68.784 48.093C68.5327 47.6514 68.3089 47.1951 68.1137 46.7264C67.9257 46.2744 67.5173 45.5484 66.9518 44.5435C64.7522 40.6316 59.6011 31.4709 62.238 27.7329C63.0235 26.6203 65.0169 25.4763 70.0205 26.0922ZM63.9554 5.0306C71.2889 5.19115 77.09 7.91167 81.1972 13.1161C84.3473 17.1081 80.8785 35.2723 70.8365 50.9427C70.7356 50.8154 70.634 50.6884 70.532 50.5619L70.4048 50.4045C72.9998 46.1548 72.4924 41.9501 72.0407 38.2223C71.8551 36.6924 71.6798 35.2475 71.7245 33.8901C71.7705 32.4516 71.9623 31.2176 72.1479 30.0246C72.3759 28.5544 72.6079 27.0331 72.544 25.2397C72.5917 25.0515 72.611 24.8293 72.5859 24.5655C72.4226 22.8457 70.4426 17.6989 66.407 13.0405C64.1994 10.4924 60.9802 7.64102 56.5847 5.7178C58.4753 5.3292 61.0606 4.96685 63.9554 5.0306ZM22.9192 59.9183C20.891 62.3364 19.4906 61.8729 19.03 61.7208C16.029 60.7282 12.5469 54.4384 9.47682 44.4644C6.82032 35.8341 5.26795 27.1558 5.14489 24.7223C4.75714 17.026 6.63848 11.6623 10.737 8.77988C17.4071 4.08944 28.3734 6.89689 32.78 8.32072C32.7167 8.38276 32.6507 8.44071 32.5882 8.50377C25.357 15.7453 25.5286 28.1177 25.5464 28.8741C25.5458 29.1659 25.5705 29.579 25.6042 30.1473C25.7286 32.2283 25.9603 36.1013 25.3416 40.4874C24.7668 44.5632 26.0339 48.5525 28.8172 51.4325C29.1029 51.7275 29.4031 52.0083 29.7168 52.2738C28.4779 53.5896 25.7854 56.4993 22.9192 59.9183ZM30.6463 49.6944C28.403 47.3731 27.3841 44.1443 27.8506 40.8351C28.5037 36.2019 28.2628 32.1666 28.1332 29.9987C28.115 29.6953 28.0988 29.4294 28.0895 29.2198C29.1459 28.2909 34.0412 25.69 37.5323 26.4832C39.1253 26.8449 40.096 27.9207 40.4996 29.771C42.5882 39.3506 40.776 43.3432 39.3198 46.5519C39.0197 47.2128 38.7361 47.8377 38.4941 48.484L38.3064 48.9837C37.8314 50.247 37.3893 51.4216 37.1154 52.537C34.7304 52.5302 32.4104 51.5198 30.6463 49.6941V49.6944ZM31.0124 62.6136C30.316 62.4411 29.6897 62.1415 29.3222 61.893C29.6292 61.7498 30.1754 61.5548 31.1228 61.3612C35.7074 60.4255 36.4155 59.7649 37.9617 57.8182C38.3161 57.3716 38.7179 56.8657 39.2745 56.2494L39.2751 56.2488C40.1039 55.3284 40.4831 55.4845 41.1706 55.7674C41.7278 55.9958 42.2706 56.6885 42.4906 57.4507C42.5947 57.8107 42.7116 58.4938 42.329 59.0255C39.0991 63.5101 34.3925 63.4525 31.0124 62.6136ZM55.0058 84.7541C49.3972 85.9458 47.4114 83.108 46.1027 79.8639C45.2581 77.7696 44.8429 68.3253 45.1375 57.8955C45.1412 57.7568 45.1213 57.6228 45.0828 57.4967C45.0484 57.2477 44.996 57.0014 44.926 56.7597C44.4881 55.2422 43.4208 53.9727 42.1403 53.4464C41.6315 53.2375 40.6979 52.854 39.5759 53.1386C39.8152 52.161 40.2301 51.0569 40.68 49.8614L40.8688 49.3587C41.0812 48.7918 41.348 48.2045 41.6298 47.5827C43.1537 44.2258 45.2406 39.6277 42.9756 29.2402C42.1272 25.3495 39.294 23.4494 34.9992 23.8909C32.4245 24.155 30.0688 25.1852 28.8939 25.7759C28.6412 25.9027 28.4102 26.0254 28.1944 26.1447C28.5223 22.2247 29.7612 14.8986 34.3956 10.2634C37.3137 7.34548 41.1998 5.90426 45.9346 5.98198C55.264 6.13333 61.2466 10.881 64.6229 14.8376C67.5324 18.2467 69.1078 21.681 69.7365 23.5333C65.0083 23.0564 61.7925 23.9819 60.1624 26.293C56.616 31.3202 62.1025 41.0774 64.7395 45.7669C65.2231 46.6262 65.6404 47.369 65.7717 47.6846C66.6304 49.7483 67.7421 51.1261 68.5537 52.1317C68.8026 52.4398 69.0439 52.7388 69.2275 52.9999C67.7954 53.4093 65.2231 54.3552 65.4575 59.0835C65.2685 61.456 63.9241 72.5637 63.241 76.4882C62.3394 81.6729 60.4154 83.604 55.0058 84.7544V84.7541ZM78.4166 58.1877C76.9522 58.8616 74.5016 59.3671 72.1737 59.4758C69.6025 59.5951 68.2935 59.1902 67.9855 58.941C67.8411 55.9945 68.947 55.6867 70.1174 55.3608C70.3013 55.3097 70.4808 55.2595 70.654 55.1996C70.7616 55.2865 70.8795 55.3727 71.0088 55.4572C73.0754 56.8098 76.7614 56.9557 81.9655 55.8905L82.0225 55.8793C81.3206 56.53 80.1195 57.4033 78.4166 58.1877Z" fill="white"/>
  </g>
  <defs>
    <clipPath id="clip0_483_2294">
      <rect width="88" height="90" fill="white"/>
    </clipPath>
  </defs>
</svg>