<svg xmlns="http://www.w3.org/2000/svg" width="83" height="94" viewBox="0 0 83 94" fill="none">
  <path d="M83 47.0084C83 41.5435 76.1143 36.3645 65.5575 33.1528C67.9937 22.4585 66.9109 13.9501 62.14 11.226C61.0404 10.5871 59.7546 10.2844 58.3504 10.2844V14.0341C59.1286 14.0341 59.7546 14.1855 60.279 14.4713C62.5799 15.7829 63.5781 20.777 62.7998 27.2003C62.6137 28.7809 62.3092 30.4456 61.937 32.1439C58.6211 31.3368 55.0006 30.7146 51.194 30.3111C48.9101 27.2003 46.5416 24.3754 44.1561 21.9036C49.6714 16.8086 54.8484 14.0173 58.3673 14.0173V10.2676C53.7148 10.2676 47.6243 13.5633 41.4662 19.2804C35.308 13.5969 29.2175 10.3348 24.565 10.3348V14.0846C28.0671 14.0846 33.2609 16.8591 38.7762 21.9204C36.4077 24.3922 34.0391 27.2003 31.789 30.3111C27.9656 30.7146 24.3451 31.3368 21.0292 32.1607C20.64 30.4792 20.3524 28.8482 20.1494 27.2844C19.3543 20.861 20.3355 15.867 22.6194 14.5386C23.127 14.2359 23.7868 14.1014 24.565 14.1014V10.3517C23.1439 10.3517 21.8581 10.6543 20.7415 11.2933C15.9876 14.0173 14.9217 22.5089 17.3748 33.1696C6.85181 36.3981 0 41.5603 0 47.0084C0 52.4732 6.88565 57.6522 17.4425 60.8639C15.0063 71.5583 16.0891 80.0666 20.86 82.7907C21.9596 83.4296 23.2454 83.7323 24.6665 83.7323C29.319 83.7323 35.4095 80.4366 41.5677 74.7195C47.7258 80.4029 53.8163 83.6651 58.4688 83.6651C59.8899 83.6651 61.1757 83.3624 62.2923 82.7234C67.0463 79.9994 68.1121 71.5078 65.659 60.8471C76.1482 57.6354 83 52.4564 83 47.0084ZM60.9727 35.7927C60.3467 37.9619 59.5685 40.1983 58.6887 42.4347C57.9951 41.0895 57.2676 39.7443 56.4725 38.3991C55.6943 37.0539 54.8653 35.7423 54.0363 34.4644C56.4387 34.8175 58.7564 35.2547 60.9727 35.7927ZM53.2242 53.7007C51.9046 55.9707 50.5512 58.1231 49.147 60.1241C46.6262 60.3427 44.0715 60.4604 41.5 60.4604C38.9454 60.4604 36.3907 60.3427 33.8869 60.1409C32.4827 58.1399 31.1123 56.0044 29.7927 53.7512C28.5069 51.5484 27.3396 49.312 26.2737 47.0588C27.3227 44.8056 28.5069 42.5524 29.7758 40.3496C31.0954 38.0796 32.4488 35.9273 33.853 33.9263C36.3738 33.7077 38.9285 33.59 41.5 33.59C44.0546 33.59 46.6093 33.7077 49.1131 33.9095C50.5173 35.9105 51.8877 38.046 53.2073 40.2992C54.4931 42.5019 55.6604 44.7383 56.7263 46.9915C55.6604 49.2447 54.4931 51.498 53.2242 53.7007ZM58.6887 51.5148C59.6023 53.768 60.3806 56.0212 61.0234 58.2071C58.8072 58.7452 56.4725 59.1992 54.0532 59.5523C54.8822 58.2576 55.7112 56.9292 56.4894 55.5672C57.2676 54.222 57.9951 52.86 58.6887 51.5148ZM41.5338 69.4564C39.9605 67.8421 38.3871 66.0429 36.8306 64.0756C38.3532 64.1428 39.9097 64.1933 41.4831 64.1933C43.0734 64.1933 44.6468 64.1597 46.1863 64.0756C44.6637 66.0429 43.0903 67.8421 41.5338 69.4564ZM28.9468 59.5523C26.5444 59.1992 24.2267 58.762 22.0104 58.224C22.6364 56.0548 23.4146 53.8184 24.2943 51.582C24.988 52.9272 25.7155 54.2724 26.5106 55.6176C27.3057 56.9628 28.1178 58.2744 28.9468 59.5523ZM41.4492 24.5603C43.0226 26.1746 44.596 27.9738 46.1525 29.9411C44.6298 29.8739 43.0734 29.8234 41.5 29.8234C39.9097 29.8234 38.3363 29.8571 36.7968 29.9411C38.3194 27.9738 39.8928 26.1746 41.4492 24.5603ZM28.9299 34.4644C28.1009 35.7591 27.2719 37.0875 26.4937 38.4495C25.7155 39.7947 24.988 41.1399 24.2943 42.4851C23.3808 40.2319 22.6025 37.9787 21.9596 35.7927C24.1759 35.2715 26.5106 34.8175 28.9299 34.4644ZM13.619 55.5167C7.63005 52.9777 3.75581 49.6483 3.75581 47.0084C3.75581 44.3684 7.63005 41.0222 13.619 38.5C15.074 37.8778 16.6643 37.3229 18.3053 36.8016C19.2697 40.0974 20.5385 43.5277 22.1119 47.042C20.5554 50.5395 19.3035 53.9529 18.3561 57.2319C16.6812 56.7106 15.0909 56.1389 13.619 55.5167ZM22.721 79.5454C20.4201 78.2338 19.4219 73.2398 20.2002 66.8164C20.3863 65.2358 20.6908 63.5711 21.063 61.8728C24.3789 62.6799 27.9994 63.3021 31.806 63.7057C34.0899 66.8164 36.4584 69.6413 38.8439 72.1131C33.3286 77.2081 28.1517 79.9994 24.6327 79.9994C23.8714 79.9826 23.2285 79.8312 22.721 79.5454ZM62.8506 66.7323C63.6457 73.1557 62.6645 78.1497 60.3806 79.4781C59.873 79.7808 59.2132 79.9153 58.435 79.9153C54.9329 79.9153 49.7391 77.1408 44.2238 72.0795C46.5923 69.6077 48.9609 66.7996 51.211 63.6888C55.0345 63.2853 58.6549 62.6631 61.9709 61.8392C62.36 63.5375 62.6645 65.1686 62.8506 66.7323ZM69.364 55.5167C67.9091 56.1389 66.3188 56.6938 64.6777 57.2151C63.7134 53.9193 62.4446 50.4891 60.8712 46.9747C62.4276 43.4772 63.6796 40.0638 64.627 36.7848C66.3019 37.3061 67.8922 37.8778 69.381 38.5C75.37 41.039 79.2442 44.3684 79.2442 47.0084C79.2273 49.6483 75.353 52.9945 69.364 55.5167Z" fill="white"/>
  <path d="M41.4831 54.6929C45.7531 54.6929 49.2146 51.2524 49.2146 47.0084C49.2146 42.7644 45.7531 39.324 41.4831 39.324C37.2131 39.324 33.7515 42.7644 33.7515 47.0084C33.7515 51.2524 37.2131 54.6929 41.4831 54.6929Z" fill="white"/>
</svg>