<svg xmlns="http://www.w3.org/2000/svg" width="73" height="73" viewBox="0 0 73 73" fill="none">
  <g clip-path="url(#clip0_483_2399)">
    <path d="M36.4133 72.9557C56.0934 72.9557 72.0472 56.624 72.0472 36.4779C72.0472 16.3317 56.0934 0 36.4133 0C16.7333 0 0.779419 16.3317 0.779419 36.4779C0.779419 56.624 16.7333 72.9557 36.4133 72.9557Z" fill="#5E5E5E"/>
    <path d="M25.2071 68.8236C26.6648 69.3271 31.5602 70.9378 31.7685 69.3629C31.8814 68.4986 29.2978 67.6129 25.8001 65.7379C20.8254 63.0776 16.2744 59.6753 12.2997 55.6453C6.49824 49.8893 3.16232 42.0585 3.01006 33.8385C2.71358 22.803 6.97723 13.8818 13.9904 8.12476C5.41415 14.8227 0.279444 25.0761 0.0135102 36.0349C-0.194731 44.0169 2.01121 50.7418 6.15485 56.8631C7.44154 58.5447 8.94562 60.0438 10.6267 61.3202C14.5974 64.3594 20.4035 67.17 25.2071 68.82" fill="white"/>
    <path d="M72.5378 28.1172C70.3283 17.6031 63.4599 10.2426 54.2726 5.04266C61.314 10.1033 71.1966 20.8638 65.3553 30.3565C60.414 37.9599 48.4136 36.4706 41.8311 32.8564C34.0238 28.5708 24.2542 18.9281 33.8897 9.50329C40.1369 3.4034 60.0081 10.2426 56.5103 19.3602C54.4703 24.6637 46.5289 23.4852 42.957 20.8924C40.324 18.9781 38.1075 15.6889 39.2828 12.2925C39.6569 11.2033 39.604 9.514 38.0828 10.7568C36.9604 11.6854 36.378 13.2139 36.1804 14.6425C34.518 26.5315 55.4515 35.7492 61.6634 24.2459C64.8858 18.2745 59.6622 9.60328 53.0867 6.05335C48.1454 3.37483 43.0029 1.49273 36.6992 1.94986C26.6189 2.66413 18.1622 9.05687 17.0998 19.4781C16.041 29.835 22.8847 39.1563 30.9426 44.7312C39.4134 50.5882 50.7996 54.4488 61.2187 50.9561C70.5578 47.824 74.4155 36.9778 72.5378 28.1244" fill="white"/>
    <path d="M59.394 20.0639C60.3963 13.2498 54.308 8.57129 48.6854 6.44633C42.057 3.94638 33.3003 5.03922 28.472 10.5927C24.9424 14.6712 25.1719 20.5925 26.9931 25.3853C29.7461 32.6244 35.9616 37.8564 43.1971 40.1171C48.3396 41.7242 54.555 42.4242 59.7646 40.7278C67.3636 38.2529 69.8378 30.2352 68.2671 22.8889C67.9309 21.3008 67.4145 19.7572 66.7283 18.289C65.7683 16.2497 62.8282 12.1212 66.8801 17.1497C67.3048 17.7101 67.6961 18.2957 68.0518 18.9032C68.8877 20.2926 69.5504 21.7812 70.0248 23.3353C72.2343 30.1923 70.5013 38.1922 64.3776 42.3314C59.6799 45.4992 53.7079 45.8777 48.2584 45.0849C40.9523 44.0135 34.0662 40.4421 29.2802 34.6958C24.9107 29.4566 21.9282 21.9317 23.7248 15.0533C25.0413 10.0213 29.079 6.26419 33.9145 4.69637C40.0311 2.69284 46.7654 3.62496 52.2679 6.87847C55.028 8.50344 57.5622 10.7534 58.974 13.7033C59.6125 15.0323 59.9558 16.4865 59.9799 17.964C59.9939 18.5624 59.9478 19.1607 59.8422 19.7496C59.8034 19.9639 59.3551 20.5675 59.4187 20.0711" fill="#D7D7D7"/>
  </g>
  <defs>
    <clipPath id="clip0_483_2399">
      <rect width="73" height="73" fill="white"/>
    </clipPath>
  </defs>
</svg>