<svg width="144" height="65" viewBox="0 0 144 65" fill="none" xmlns="http://www.w3.org/2000/svg">
<g style="mix-blend-mode:color">
<path fill-rule="evenodd" clip-rule="evenodd" d="M133.087 39.0249C139.586 42.4657 144 49.2813 144 57.0951C144 59.8963 143.438 62.5295 142.425 64.9946H0.39375C0.1125 63.706 0 62.3614 0 60.9608C0 49.1395 9.45 39.5031 21.2063 39.111C20.925 37.8784 20.7563 36.5898 20.7563 35.3013C20.7563 26.8414 27.6187 20.0064 36.1125 20.0064C39.6 20.0064 42.75 21.1829 45.3375 23.0878C49.95 9.69773 62.7187 0.00537109 77.7375 0.00537109C90.7995 0.00537109 102.142 7.28394 107.903 17.9944L108 7.73685H108.675L111.938 18.9979L115.2 7.73685L115.65 7.79288L115.988 19.6142L122.063 9.58568L122.625 9.86581L119.756 21.2389L128.363 13.1153L128.813 13.5074L123.019 23.8161L133.481 18.2696L133.819 18.6618L125.494 27.1776L137.081 24.5444L137.306 24.9926L127.069 30.9873L138.938 31.4355V31.9397L127.463 35.0772L138.881 38.4387V38.9429L133.087 39.0249Z" fill="#A2A2A2"/>
</g>
</svg>
