<svg width="82" height="82" viewBox="0 0 82 82" fill="none" xmlns="http://www.w3.org/2000/svg">
<path fill-rule="evenodd" clip-rule="evenodd" d="M40.9997 0.404541C63.3079 0.404541 81.388 18.5774 81.388 41C81.388 63.4227 63.3079 81.5955 40.9997 81.5955C18.6914 81.5955 0.611328 63.4227 0.611328 41C0.611328 18.5774 18.6914 0.404541 40.9997 0.404541Z" fill="url(#paint0_radial_120_360)"/>
<path d="M26.2799 31.755C34.4049 23.7786 47.5942 23.7786 55.7192 31.755L56.6973 32.7223C57.1075 33.1187 57.1075 33.7689 56.6973 34.1653L53.3527 37.4479C53.1476 37.654 52.8163 37.654 52.6112 37.4479L51.2702 36.1317C45.5905 30.5657 36.4085 30.5657 30.7289 36.1317L29.2932 37.543C29.0881 37.7492 28.7568 37.7492 28.5517 37.543L25.2071 34.2605C24.7969 33.864 24.7969 33.2139 25.2071 32.8174L26.2799 31.755ZM62.6452 38.542L65.627 41.4598C66.0371 41.8563 66.0371 42.5064 65.627 42.9029L52.201 56.0806C51.7908 56.477 51.1282 56.477 50.7338 56.0806L41.2046 46.7246C41.11 46.6294 40.9364 46.6294 40.8418 46.7246L31.3126 56.0806C30.9024 56.477 30.2398 56.477 29.8454 56.0806L16.3721 42.9029C15.9619 42.5064 15.9619 41.8563 16.3721 41.4598L19.3539 38.542C19.7641 38.1456 20.4267 38.1456 20.8211 38.542L30.3503 47.898C30.4449 47.9932 30.6185 47.9932 30.7131 47.898L40.2422 38.542C40.6524 38.1456 41.3151 38.1456 41.7095 38.542L51.2386 47.898C51.3333 47.9932 51.5068 47.9932 51.6015 47.898L61.1306 38.542C61.5723 38.1456 62.235 38.1456 62.6452 38.542Z" fill="white"/>
<defs>
<radialGradient id="paint0_radial_120_360" cx="0" cy="0" r="1" gradientUnits="userSpaceOnUse" gradientTransform="translate(0.611578 41.0013) scale(80.7767 81.1909)">
<stop stop-color="#F6F7FA"/>
<stop offset="1" stop-color="#6C6C6C"/>
</radialGradient>
</defs>
</svg>
