<svg xmlns="http://www.w3.org/2000/svg" width="33" height="35" viewBox="0 0 33 35" fill="none">
  <g clip-path="url(#clip0_178_2917)">
    <path d="M17.7311 0.252495C13.3475 4.03602 13.448 9.91965 15.4379 13.2942C17.3873 16.6007 21.5522 19.8312 27.8833 18.2578C27.9434 18.8488 27.9887 19.4369 28.0724 20.0191C28.0941 20.171 28.1975 20.3725 28.3246 20.4387C29.8663 21.2517 30.5824 22.5564 30.6238 24.2369C30.6395 24.8629 30.5873 25.5045 30.4553 26.116C30.0849 27.8383 28.8053 28.919 26.9948 29.0953C26.519 29.142 26.0392 29.1673 25.5605 29.1673C18.6778 29.1722 11.7951 29.1751 4.91234 29.1624C4.27795 29.1615 3.62977 29.1128 3.01311 28.9784C1.29416 28.6026 0.227322 27.3992 0.0480387 25.6038C-0.0268269 24.8512 -0.0219016 24.0704 0.091382 23.3246C0.287412 22.0306 1.0538 21.0881 2.22801 20.4864C2.44374 20.3764 2.51664 20.2401 2.53929 20.0103C2.82102 17.1829 3.12443 14.3565 3.39828 11.5281C3.53225 10.1465 3.67114 8.76298 4.23067 7.47682C6.10329 3.17825 9.35305 0.646814 14.0922 0.0713998C15.294 -0.0746445 16.4889 0.0120085 17.7311 0.252495Z" fill="url(#paint0_linear_178_2917)"/>
    <path d="M33 8.19311C32.9921 12.738 29.3158 16.3511 24.7106 16.3385C20.1152 16.3258 16.4645 12.6864 16.4803 8.13372C16.496 3.6044 20.1625 0.00294929 24.7519 0.00781743C29.3522 0.0126856 33.0079 3.64043 33 8.19409V8.19311ZM24.1491 7.70532C23.8151 7.3704 23.5295 7.06955 23.229 6.78427C22.7247 6.3033 22.0164 6.30038 21.5485 6.76577C21.0776 7.23409 21.0776 7.93218 21.5672 8.42873C22.1415 9.01193 22.7227 9.58735 23.3128 10.154C23.8033 10.6262 24.4811 10.6437 24.9647 10.1744C26.1645 9.00804 27.3506 7.82898 28.5346 6.64699C28.84 6.34224 28.9454 5.96156 28.8252 5.539C28.5731 4.64813 27.518 4.37844 26.8354 5.04148C25.9439 5.90898 25.0682 6.79206 24.1491 7.70532Z" fill="url(#paint1_linear_178_2917)"/>
    <path d="M21.448 31.5332C20 33.6966 18.0751 34.9516 15.4519 34.9983C12.7075 35.047 10.6743 33.8008 9.15332 31.5332H21.449H21.448Z" fill="url(#paint2_linear_178_2917)"/>
  </g>
  <defs>
    <linearGradient id="paint0_linear_178_2917" x1="-0.000229928" y1="14.5863" x2="30.6277" y2="14.5863" gradientUnits="userSpaceOnUse">
      <stop stop-color="#00A7A5"/>
      <stop offset="0.16" stop-color="#6D8671"/>
      <stop offset="0.4" stop-color="#A56649"/>
      <stop offset="0.75" stop-color="#D67746"/>
      <stop offset="1" stop-color="#FDC89D"/>
    </linearGradient>
    <linearGradient id="paint1_linear_178_2917" x1="16.4803" y1="8.17364" x2="33" y2="8.17364" gradientUnits="userSpaceOnUse">
      <stop stop-color="#00A7A5"/>
      <stop offset="0.16" stop-color="#6D8671"/>
      <stop offset="0.4" stop-color="#A56649"/>
      <stop offset="0.75" stop-color="#D67746"/>
      <stop offset="1" stop-color="#FDC89D"/>
    </linearGradient>
    <linearGradient id="paint2_linear_178_2917" x1="9.15234" y1="33.2663" x2="21.448" y2="33.2663" gradientUnits="userSpaceOnUse">
      <stop stop-color="#00A7A5"/>
      <stop offset="0.16" stop-color="#6D8671"/>
      <stop offset="0.4" stop-color="#A56649"/>
      <stop offset="0.75" stop-color="#D67746"/>
      <stop offset="1" stop-color="#FDC89D"/>
    </linearGradient>
    <clipPath id="clip0_178_2917">
      <rect width="33" height="35" fill="white"/>
    </clipPath>
  </defs>
</svg>