<svg xmlns="http://www.w3.org/2000/svg" width="33" height="33" viewBox="0 0 33 33" fill="none">
  <g clip-path="url(#clip0_178_2910)">
    <path d="M0.581505 0C1.30709 0.0865279 2.0344 0.15575 2.75651 0.259584C5.82026 0.706067 8.80069 1.42598 11.4964 3.02501C13.0118 3.92317 14.2911 5.06707 15.14 6.63669C15.8256 7.90346 16.152 9.26887 16.0426 10.6983C15.968 11.6761 15.7423 12.6417 15.5948 13.616C15.5757 13.7424 15.5739 13.905 15.6364 14.0071C16.6658 15.6615 17.3792 17.4492 17.919 19.313C17.9243 19.3321 17.9399 19.3476 17.9781 19.4134C18.0544 19.294 18.1135 19.1884 18.1864 19.0932C18.7696 18.3249 19.3459 17.5496 19.9482 16.7968C20.0836 16.6272 20.1392 16.4888 20.0871 16.2811C19.825 15.2376 19.7556 14.1836 19.9569 13.1211C20.2798 11.4148 21.2501 10.1272 22.611 9.10619C24.0518 8.02459 25.7008 7.38429 27.421 6.898C29.0631 6.43421 30.7399 6.16425 32.4376 6.01369C32.5765 6.00157 32.7171 5.99984 32.8577 5.99638C32.8872 5.99638 32.9184 6.00676 33.0035 6.02234C32.9497 6.61592 32.9115 7.21123 32.8386 7.80308C32.5591 10.0615 32.0418 12.2593 31.0402 14.3204C30.3841 15.6719 29.5214 16.866 28.2681 17.7399C27.0495 18.5896 25.6887 18.9271 24.1698 18.8475C24.4319 16.3001 25.7598 14.2875 27.2145 12.3025C26.8916 12.5708 26.56 12.8269 26.2493 13.1072C24.1906 14.9693 22.6388 17.219 21.2848 19.6159C20.587 20.8498 19.8823 22.0802 19.4935 23.4577C19.3424 23.9942 19.1463 24.5289 19.089 25.0775C19.0352 25.6019 19.1428 26.1418 19.1636 26.6765C19.2279 28.2963 19.3008 29.9161 19.3355 31.5377C19.3528 32.3355 18.7245 32.955 17.9486 32.9983C17.1761 33.0415 16.5148 32.4912 16.4071 31.6969C16.3759 31.4633 16.3828 31.2262 16.3672 30.9908C16.2353 28.8484 16.1763 26.6973 15.9489 24.5653C15.6277 21.5576 14.7754 18.6848 13.4666 15.9471C12.1318 13.1574 10.54 10.5252 8.71043 8.03325C8.67224 7.98133 8.62885 7.93461 8.56983 7.89307C9.74499 10.5754 10.6702 13.3201 10.7726 16.3624C10.1442 16.307 9.54016 16.3018 8.95518 16.1963C6.65694 15.7827 4.97317 14.4467 3.66088 12.5881C2.3781 10.7727 1.60912 8.73066 1.03629 6.60554C0.510336 4.66039 0.189206 2.68063 0.0243017 0.676648C0.00520751 0.451676 0.00694335 0.224972 0 0H0.581505Z" fill="url(#paint0_linear_178_2910)"/>
  </g>
  <defs>
    <linearGradient id="paint0_linear_178_2910" x1="0" y1="16.4991" x2="33" y2="16.4991" gradientUnits="userSpaceOnUse">
      <stop stop-color="#00A7A5"/>
      <stop offset="0.16" stop-color="#6D8671"/>
      <stop offset="0.4" stop-color="#A56649"/>
      <stop offset="0.75" stop-color="#D67746"/>
      <stop offset="1" stop-color="#FDC89D"/>
    </linearGradient>
    <clipPath id="clip0_178_2910">
      <rect width="33" height="33" fill="white"/>
    </clipPath>
  </defs>
</svg>