<svg xmlns="http://www.w3.org/2000/svg" width="163" height="75" viewBox="0 0 163 75" fill="none">
  <path d="M102.329 74.0113H21.8524C16.2523 74.0113 15.5207 73.0144 20.2163 71.7782L59.0979 61.5427C63.7935 60.3065 72.1339 59.3096 77.734 59.3096H158.211C163.811 59.3096 164.543 60.3065 159.847 61.5427L120.965 71.7782C116.27 73.0144 107.929 74.0113 102.329 74.0113Z" fill="black"/>
  <path d="M97.5006 74.3565H21.5862C16.3053 74.7021 15.6136 71.8176 20.0432 68.2685L56.7167 38.8517C61.1463 35.3025 69.0211 32.418 74.302 32.418H150.216C155.497 32.418 156.189 35.3025 151.759 38.8517L115.086 68.2685C110.656 71.8176 102.781 74.7021 97.5006 74.3565Z" fill="#46A29F"/>
  <path d="M98.964 74.2363H10.0669C3.88145 74.2363 -0.508211 69.225 0.250001 63.0571L6.52853 11.9067C7.28675 5.7256 12.9135 0.727539 19.0989 0.727539H107.996C114.181 0.727539 118.571 5.73889 117.813 11.9067L111.534 63.0571C110.776 69.2383 105.149 74.2363 98.964 74.2363Z" fill="black"/>
  <path d="M100.188 54.4836C95.3724 54.4836 90.6768 54.005 86.1409 53.1011C104.418 48.3423 117.893 31.7264 117.893 11.9734C117.893 11.6943 117.893 11.4151 117.893 11.136C117.879 10.4049 117.853 9.68707 117.8 8.95597C117.095 4.19717 113.184 0.701172 108.009 0.701172H19.1122C12.9268 0.701172 7.30005 5.71254 6.54184 11.8804L6.20929 14.5655L5.67721 18.8723L5.03872 24.1363L0.263307 63.0441C-0.494906 69.2252 3.89475 74.2233 10.0802 74.2233H40.3954L41.4462 65.6893L41.5393 64.9715C51.7952 70.7804 63.6073 74.1302 76.2176 74.2233H76.3107C76.457 74.2233 76.6166 74.2233 76.763 74.2233H98.9906C104.311 74.2233 109.22 70.5146 110.962 65.5431C111.069 65.2374 111.175 64.9184 111.242 64.5993C111.388 64.0942 111.481 63.5758 111.548 63.0441L112.705 53.5531C112.705 53.5531 112.692 53.4334 112.678 53.3803C108.621 54.0981 104.458 54.4703 100.201 54.4703L100.188 54.4836ZM47.8312 11.7474H67.425C70.1785 11.7474 72.227 13.7546 72.36 16.3733C72.36 16.6392 72.36 16.8917 72.3467 17.1443C72.3467 17.1443 72.3467 17.1443 72.3467 17.1576C72.3467 17.2107 72.3467 17.2639 72.3334 17.3171L71.9476 20.4276C71.3224 23.5514 69.9922 26.4359 68.1433 28.8951C67.6777 28.7887 67.1988 28.7488 66.6801 28.7488H45.7428L47.8312 11.7474Z" fill="#66FCF1"/>
</svg>