<svg xmlns="http://www.w3.org/2000/svg" width="175" height="76" viewBox="0 0 175 76" fill="none">
  <path d="M56.6644 4.03297C52.2216 1.9593 46.7279 0.90918 40.1567 0.90918H9.66855L0.570007 74.963H14.3376L16.9846 53.3756H33.7052C34.6896 53.3756 35.6606 53.349 36.6051 53.3091L49.0424 74.963H63.8608L49.8139 50.6772C50.1997 50.5309 50.5854 50.3714 50.9712 50.2119C55.9195 48.0984 59.9101 45.0942 62.9297 41.226C65.9492 37.3446 67.7849 32.6921 68.4633 27.2554C69.1417 21.7522 68.45 17.0333 66.3882 13.0853C64.3264 9.13738 61.0807 6.11993 56.6511 4.04626L56.6644 4.03297ZM54.6159 27.2554C54.044 31.9078 52.062 35.5367 48.67 38.1554C45.278 40.7608 40.5424 42.0635 34.4767 42.0635H18.3813L22.0128 12.5536H38.1082C44.1739 12.5536 48.5901 13.843 51.3436 16.4218C54.0971 19.0006 55.1879 22.6162 54.6159 27.2687V27.2554Z" fill="#66FCF1"/>
  <path d="M112.679 34.2606C109.633 32.4129 106.015 31.4824 101.825 31.4824C97.6345 31.4824 93.5774 32.4395 89.9858 34.3404C86.3943 36.2412 83.4413 38.8466 81.1268 42.1565C78.8122 45.4531 77.3889 49.2548 76.8701 53.5484C76.338 57.8419 76.8568 61.6436 78.4132 64.9402C79.9695 68.2368 82.417 70.8422 85.7558 72.7564C89.0946 74.6572 93.1517 75.6143 97.9404 75.6143C101.705 75.6143 105.123 75.0294 108.196 73.8463C111.269 72.6633 113.943 70.9485 116.204 68.6888L111.495 62.4013C109.792 63.9566 107.93 65.1396 105.908 65.9505C103.873 66.7613 101.652 67.1601 99.2307 67.1601C96.3841 67.1601 93.9498 66.6151 91.9412 65.5118C89.9326 64.4085 88.4694 62.8666 87.5516 60.8859C86.9796 59.6364 86.6471 58.2673 86.5673 56.7785H120.341C120.447 56.3531 120.554 55.848 120.647 55.2897C120.74 54.7314 120.82 54.2529 120.86 53.8807C121.418 49.3213 120.966 45.3733 119.49 42.0369C118.013 38.7137 115.752 36.1216 112.706 34.2606H112.679ZM94.1361 41.2659C96.1713 40.2157 98.3927 39.6973 100.814 39.6973C103.235 39.6973 105.363 40.2157 107.066 41.2659C108.768 42.316 110.019 43.7915 110.83 45.6924C111.402 47.0349 111.681 48.4971 111.681 50.079H87.2723C87.6846 48.4971 88.3231 47.0482 89.1744 45.7322C90.4381 43.8048 92.0743 42.316 94.1228 41.2659H94.1361Z" fill="#66FCF1"/>
  <path d="M165.022 32.0537L147.277 63.943L137.78 32.0537H127.378L140.547 75.0557H150.949L174.693 32.0537H165.022Z" fill="#66FCF1"/>

</svg>