<svg width="356" height="356" viewBox="0 0 356 356" fill="none" xmlns="http://www.w3.org/2000/svg">
<g clip-path="url(#clip0_400_2711)">
<g style="mix-blend-mode:multiply" opacity="0.6">
<path d="M272.87 268.808L268.216 266.123C267.558 265.79 266.831 265.616 266.093 265.616C265.356 265.616 264.629 265.79 263.971 266.123L258.463 269.3L177.619 253.152L139.697 231.279L143.403 229.141C143.862 228.986 144.26 228.691 144.542 228.299C144.823 227.906 144.975 227.435 144.975 226.952C144.975 226.469 144.823 225.998 144.542 225.606C144.26 225.213 143.862 224.919 143.403 224.764L118.833 210.592C107.259 203.916 88.4938 203.916 76.9198 210.592L61.2022 219.658C49.6279 226.334 49.6279 237.158 61.2022 243.834L85.7722 258.006C86.948 258.601 88.2478 258.912 89.5661 258.912C90.8845 258.912 92.1843 258.601 93.3601 258.006L97.6219 255.547L134.992 277.102L163.312 324.183L157.804 327.36C157.548 327.446 157.325 327.611 157.168 327.831C157.01 328.05 156.925 328.314 156.925 328.584C156.925 328.854 157.01 329.118 157.168 329.337C157.325 329.557 157.548 329.722 157.804 329.808L162.459 332.493C163.116 332.826 163.844 333 164.581 333C165.319 333 166.046 332.826 166.704 332.493L272.87 271.256C273.126 271.17 273.349 271.005 273.507 270.785C273.664 270.566 273.749 270.302 273.749 270.032C273.749 269.762 273.664 269.498 273.507 269.279C273.349 269.059 273.126 268.894 272.87 268.808Z" fill="#3A0155"/>
</g>
<path d="M92.1234 169.29L92.0952 228.829C92.185 230.552 92.6819 232.228 93.5452 233.722C94.4084 235.216 95.6135 236.484 97.0618 237.423L107.379 243.374C107.884 243.74 108.477 243.966 109.098 244.03C109.718 244.093 110.345 243.992 110.914 243.736C111.545 243.445 112.093 242.998 112.505 242.438C112.917 241.878 113.181 241.223 113.272 240.534L117.25 178.638L92.1234 169.29Z" fill="url(#paint0_linear_400_2711)"/>
<path d="M112.417 180.995L112.388 240.534C112.45 241.147 112.348 241.764 112.093 242.325C111.838 242.885 111.439 243.368 110.936 243.724L124.658 235.757C125.161 235.401 125.56 234.918 125.816 234.358C126.071 233.798 126.172 233.18 126.11 232.568L126.139 173.028L112.417 180.995Z" fill="#FDC8CA"/>
<path d="M115.748 183.105L123.35 178.69L129.57 193.682L121.971 198.097L115.748 183.105Z" fill="#D870EC"/>
<path d="M115.748 183.105L121.971 198.097L115.713 198.392L115.748 183.105Z" fill="#9930CE"/>
<path d="M243.023 124.686L181.542 135.757C191.256 134.109 198.31 140.591 198.536 152.992C198.282 163.062 195.134 172.846 189.466 181.176C185.668 187.206 180.66 192.383 174.759 196.381C174.394 196.617 174.027 196.845 173.658 197.065C162.363 203.806 152.637 201.132 149.122 191.504L168.771 250.147C176.58 271.539 198.472 278.664 223.566 263.687C224.385 263.198 226.37 262.542 227.18 262.018C240.609 253.137 252.076 241.605 260.878 228.132C273.507 208.693 282.185 183.977 281.817 163.749C281.316 136.197 264.604 121.025 243.023 124.686Z" fill="url(#paint1_linear_400_2711)"/>
<path d="M145.872 99.1812C139.803 95.6583 131.354 96.251 122.082 101.786C106.443 111.12 93.6022 131.442 90.7284 150.053C90.2931 152.807 90.0942 155.593 90.134 158.381C90.3152 168.332 93.9204 175.316 99.643 178.638C103.407 180.769 107.738 181.683 112.043 181.257C117.097 180.692 121.962 179.006 126.28 176.322C144.047 165.463 157.272 142.003 157.041 121.753C156.804 116.887 156.248 105.492 145.872 99.1812Z" fill="url(#paint2_linear_400_2711)"/>
<path d="M117.724 82.8871C117.226 82.6025 116.712 82.3454 116.185 82.1172C110.511 79.224 104.052 78.2403 97.773 79.3128C90.8198 80.5525 84.296 83.537 78.814 87.9863C71.9887 93.5059 66.4203 100.416 62.4803 108.256C58.3575 116.193 56.1849 124.997 56.1419 133.938C56.6367 150.152 64.7643 158.334 71.4955 162.344L99.643 178.638C93.9204 175.316 90.3152 168.333 90.134 158.381C89.7609 137.878 104.064 112.54 122.082 101.786C131.354 96.2512 139.804 95.6584 145.872 99.1813L117.724 82.8871Z" fill="url(#paint3_linear_400_2711)"/>
<path d="M147.007 106.456C141.695 103.383 134.305 103.906 126.195 108.746C110.42 118.162 97.8972 140.347 98.224 158.298C98.3825 167 101.532 173.11 106.532 176.023L143.303 197.446L183.842 127.767L147.007 106.456Z" fill="url(#paint4_linear_400_2711)"/>
<path d="M191.069 178.57C201.009 161.483 201.036 142.968 191.129 137.217C181.222 131.465 165.133 140.654 155.194 157.741C145.254 174.828 145.227 193.342 155.134 199.094C165.041 204.846 181.13 195.657 191.069 178.57Z" fill="#D26AE9"/>
<path d="M225.985 198.859C235.041 183.188 235.041 166.249 225.985 161.026C216.928 155.802 202.245 164.271 193.189 179.942C184.132 195.613 184.132 212.552 193.189 217.776C202.245 222.999 216.928 214.53 225.985 198.859Z" fill="#D26AE9"/>
<path d="M197.912 196.135C197.912 203.573 203.139 206.588 209.587 202.869C212.985 200.655 215.814 197.673 217.842 194.162C219.871 190.652 221.042 186.714 221.261 182.667C221.261 175.229 216.035 172.214 209.587 175.933C206.188 178.146 203.36 181.129 201.331 184.639C199.303 188.149 198.131 192.088 197.912 196.135Z" fill="#9930CE"/>
<path d="M226.135 161.114L193.531 142.308C189.323 139.792 183.463 140.105 176.982 143.843C164.175 151.23 153.792 169.196 153.792 183.971C153.792 191.27 156.325 196.425 160.434 198.882L193.038 217.688C188.93 215.231 186.396 210.076 186.396 202.777C186.396 188.002 196.779 170.036 209.587 162.649C216.067 158.911 221.927 158.598 226.135 161.114Z" fill="#9930CE"/>
<path d="M136.71 189.327L160.369 250.147C157.965 243.629 156.729 236.738 156.717 229.791C156.026 191.806 182.526 144.861 215.906 124.937C222.683 120.704 230.223 117.834 238.101 116.488L173.503 126.062C169.774 126.699 166.205 128.058 162.998 130.061C147.198 139.492 134.655 161.712 134.982 179.692C134.987 182.98 135.573 186.241 136.71 189.327Z" fill="url(#paint5_linear_400_2711)"/>
<path d="M224.837 267.294C190.934 287.53 162.88 272.658 162.178 234.077C161.476 195.496 188.391 147.816 222.294 127.58C256.198 107.344 284.252 122.216 284.954 160.797C285.656 199.378 258.741 247.058 224.837 267.294ZM280.007 163.749C279.361 128.277 253.568 114.604 222.397 133.209C191.225 151.815 166.479 195.653 167.125 231.125C167.77 266.596 193.563 280.27 224.735 261.665C255.906 243.059 280.653 199.221 280.007 163.749Z" fill="#D26AE9"/>
<path d="M224.51 268.06C246.119 254.85 260.172 235.214 268.156 221.068C276.204 206.808 285.739 184.649 285.459 160.067C285.447 160.222 285.395 160.372 285.306 160.5C285.217 160.628 285.095 160.731 284.954 160.796C285.656 199.377 258.741 247.058 224.838 267.293C190.934 287.529 162.88 272.657 162.178 234.077C161.476 195.495 188.391 147.815 222.294 127.579C256.198 107.344 284.252 122.215 284.954 160.796C285.095 160.731 285.217 160.628 285.306 160.5C285.395 160.372 285.447 160.222 285.459 160.067C285.038 151.385 284.052 131.053 266.721 120.512C255.077 113.752 238.865 114.89 221.073 125.509C186.501 146.143 159.056 194.763 159.772 234.104C160.12 253.197 167.037 266.596 178.018 272.972C184.244 276.456 191.397 277.932 198.495 277.196C207.742 276.131 216.631 273.009 224.51 268.06Z" fill="url(#paint6_linear_400_2711)"/>
<path d="M262.706 118.181C260.814 117.095 258.809 116.216 256.728 115.56C256.653 115.535 256.577 115.511 256.502 115.487C256.16 115.38 255.823 115.266 255.476 115.17C248.971 113.233 240.56 112.884 228.556 117.116C222.524 119.407 216.796 122.427 211.499 126.109C204.419 131.016 197.916 136.707 192.114 143.071C173.093 163.059 154.328 199.71 155.265 231.086C155.212 239.738 157.09 248.292 160.763 256.128C162.084 258.957 163.817 261.575 165.905 263.897C163.928 261.502 162.262 258.868 160.946 256.055C162.693 259.737 165.058 263.094 167.939 265.979C167.271 265.347 166.59 264.664 165.905 263.897C168.032 266.455 170.586 268.625 173.453 270.314C173.304 270.215 173.087 270.066 172.898 269.939C173.265 270.174 173.626 270.422 174.003 270.641L178.018 272.972C167.037 266.597 160.12 253.198 159.773 234.104C159.056 194.763 186.501 146.144 221.073 125.509C238.865 114.89 255.077 113.752 266.721 120.512L262.706 118.181Z" fill="url(#paint7_linear_400_2711)"/>
<path d="M82.3355 157.849L64.4924 147.557C63.4854 146.956 62.6337 146.127 62.0055 145.137C61.3774 144.147 60.9904 143.024 60.8756 141.857C60.8756 139.862 62.4949 139.178 64.4924 140.33L82.3355 150.622C83.3425 151.223 84.1943 152.052 84.8224 153.042C85.4506 154.032 85.8376 155.155 85.9523 156.321C85.9523 158.317 84.333 159.001 82.3355 157.849Z" fill="#9930CE"/>
<path d="M145.057 98.6957C144.278 98.2435 143.457 97.8677 142.605 97.5735C139.514 96.5358 136.21 96.2968 133.002 96.8788C128.468 97.6944 124.148 99.4239 120.305 101.962C119.219 102.619 118.171 103.338 117.166 104.114C116.094 104.865 115.093 105.703 114.093 106.557C112.068 108.28 110.153 110.128 108.359 112.09C104.893 115.997 101.834 120.248 99.2318 124.776C98.0331 126.852 96.9509 128.993 95.9902 131.189C95.0756 133.28 94.2512 135.278 93.6339 137.171C93.0315 138.877 92.5165 140.613 92.091 142.372C91.7019 143.938 91.4626 145.327 91.2157 146.454C90.9058 148.744 90.7284 150.053 90.7284 150.053C90.7284 150.053 91.0363 148.773 91.575 146.533C92.4124 143.477 93.4327 140.475 94.6301 137.542C95.3288 135.711 96.2381 133.784 97.2366 131.777C98.2371 129.768 99.4158 127.717 100.645 125.606C103.261 121.225 106.315 117.12 109.76 113.354C111.472 111.419 113.304 109.592 115.246 107.886C116.205 107.039 117.163 106.21 118.165 105.485C119.132 104.71 120.143 103.992 121.194 103.334C124.816 100.787 128.889 98.9493 133.198 97.9189C136.254 97.1854 139.442 97.1869 142.498 97.9232C143.357 98.1442 144.197 98.4327 145.01 98.786L145.872 99.1812L145.057 98.6957Z" fill="url(#paint8_linear_400_2711)"/>
<path style="mix-blend-mode:screen" d="M305.677 140.833C316.052 99.5616 290.973 57.7025 249.662 47.3377C208.351 36.973 166.451 62.0275 156.077 103.299C145.702 144.57 170.781 186.429 212.092 196.793C253.403 207.158 295.302 182.104 305.677 140.833Z" fill="url(#paint9_radial_400_2711)"/>
<path style="mix-blend-mode:screen" d="M199.237 118.521C208.896 77.077 183.097 35.6571 141.613 26.0071C100.129 16.3571 58.6685 42.1312 49.0092 83.5752C39.3498 125.019 65.1489 166.439 106.633 176.089C148.117 185.739 189.577 159.965 199.237 118.521Z" fill="url(#paint10_radial_400_2711)"/>
</g>
<defs>
<linearGradient id="paint0_linear_400_2711" x1="104.718" y1="173.293" x2="97.803" y2="320.544" gradientUnits="userSpaceOnUse">
<stop stop-color="#ED9AD5"/>
<stop offset="1" stop-color="#FAA9E3"/>
</linearGradient>
<linearGradient id="paint1_linear_400_2711" x1="223.753" y1="181.913" x2="154.131" y2="247.021" gradientUnits="userSpaceOnUse">
<stop stop-color="#FAA9E3"/>
<stop offset="0.28464" stop-color="#FBB3DB"/>
<stop offset="0.76021" stop-color="#FDCCC6"/>
<stop offset="1" stop-color="#FFDCB9"/>
</linearGradient>
<linearGradient id="paint2_linear_400_2711" x1="108.258" y1="177.239" x2="137.145" y2="106.879" gradientUnits="userSpaceOnUse">
<stop stop-color="#9930CE"/>
<stop offset="1" stop-color="#D26AE9"/>
</linearGradient>
<linearGradient id="paint3_linear_400_2711" x1="116.539" y1="82.2035" x2="70.5841" y2="161.877" gradientUnits="userSpaceOnUse">
<stop stop-color="#FFAFF5"/>
<stop offset="0.07269" stop-color="#FFA7F9"/>
<stop offset="0.22083" stop-color="#FF9CFD"/>
<stop offset="0.38424" stop-color="#FF98FF"/>
<stop offset="0.48155" stop-color="#F891FB"/>
<stop offset="0.62702" stop-color="#E47CF2"/>
<stop offset="0.80268" stop-color="#C35BE2"/>
<stop offset="1" stop-color="#962DCC"/>
</linearGradient>
<linearGradient id="paint4_linear_400_2711" x1="155.296" y1="111.237" x2="114.991" y2="181.115" gradientUnits="userSpaceOnUse">
<stop stop-color="#FFDCB9"/>
<stop offset="0.65075" stop-color="#FBB7D7"/>
<stop offset="1" stop-color="#FAA9E3"/>
</linearGradient>
<linearGradient id="paint5_linear_400_2711" x1="147.264" y1="207.405" x2="217.401" y2="100.995" gradientUnits="userSpaceOnUse">
<stop stop-color="#ED9AD5"/>
<stop offset="1" stop-color="#FAA9E3"/>
</linearGradient>
<linearGradient id="paint6_linear_400_2711" x1="268.032" y1="131.14" x2="181.341" y2="257.123" gradientUnits="userSpaceOnUse">
<stop stop-color="#FFAAF7"/>
<stop offset="0.24097" stop-color="#FAA3F6"/>
<stop offset="0.60108" stop-color="#EC8EF2"/>
<stop offset="1" stop-color="#D870EC"/>
</linearGradient>
<linearGradient id="paint7_linear_400_2711" x1="242.167" y1="106.334" x2="154.032" y2="259.137" gradientUnits="userSpaceOnUse">
<stop stop-color="#FF98FF"/>
<stop offset="0.15804" stop-color="#F891FB"/>
<stop offset="0.39427" stop-color="#E47CF2"/>
<stop offset="0.67956" stop-color="#C35BE2"/>
<stop offset="1" stop-color="#962DCC"/>
</linearGradient>
<linearGradient id="paint8_linear_400_2711" x1="128.164" y1="98.9608" x2="87.7587" y2="189.763" gradientUnits="userSpaceOnUse">
<stop stop-color="#FFC2F9"/>
<stop offset="0.1898" stop-color="#FBBBF8"/>
<stop offset="0.47357" stop-color="#F2A6F5"/>
<stop offset="0.81439" stop-color="#E285EF"/>
<stop offset="1" stop-color="#D870EC"/>
</linearGradient>
<radialGradient id="paint9_radial_400_2711" cx="0" cy="0" r="1" gradientUnits="userSpaceOnUse" gradientTransform="translate(230.877 122.066) scale(77.123 77.0483)">
<stop stop-color="#FFEC3D"/>
<stop offset="0.13301" stop-color="#E53DFF"/>
<stop offset="0.13934" stop-color="#D739EF"/>
<stop offset="0.14778" stop-color="#C835DE"/>
<stop offset="0.20081" stop-color="#A12BB3"/>
<stop offset="0.26136" stop-color="#7B2189"/>
<stop offset="0.32722" stop-color="#5A1864"/>
<stop offset="0.39768" stop-color="#3E1045"/>
<stop offset="0.47412" stop-color="#270A2C"/>
<stop offset="0.55884" stop-color="#160618"/>
<stop offset="0.6564" stop-color="#09020A"/>
<stop offset="0.77819" stop-color="#020102"/>
<stop offset="1"/>
</radialGradient>
<radialGradient id="paint10_radial_400_2711" cx="0" cy="0" r="1" gradientUnits="userSpaceOnUse" gradientTransform="translate(124.123 101.048) scale(77.123 77.0483)">
<stop stop-color="#FFEC3D"/>
<stop offset="0.13301" stop-color="#E53DFF"/>
<stop offset="0.13934" stop-color="#D739EF"/>
<stop offset="0.14778" stop-color="#C835DE"/>
<stop offset="0.20081" stop-color="#A12BB3"/>
<stop offset="0.26136" stop-color="#7B2189"/>
<stop offset="0.32722" stop-color="#5A1864"/>
<stop offset="0.39768" stop-color="#3E1045"/>
<stop offset="0.47412" stop-color="#270A2C"/>
<stop offset="0.55884" stop-color="#160618"/>
<stop offset="0.6564" stop-color="#09020A"/>
<stop offset="0.77819" stop-color="#020102"/>
<stop offset="1"/>
</radialGradient>
<clipPath id="clip0_400_2711">
<rect width="261" height="309" fill="white" transform="translate(47 24)"/>
</clipPath>
</defs>
</svg>
