<svg width="356" height="356" viewBox="0 0 356 356" fill="none" xmlns="http://www.w3.org/2000/svg">
<g clip-path="url(#clip0_400_2712)">
<path style="mix-blend-mode:color-dodge" d="M186.148 319.157C262.112 319.157 323.693 257.576 323.693 181.612C323.693 105.648 262.112 44.0664 186.148 44.0664C110.184 44.0664 48.6027 105.648 48.6027 181.612C48.6027 257.576 110.184 319.157 186.148 319.157Z" fill="url(#paint0_radial_400_2712)"/>
<path style="mix-blend-mode:color-dodge" d="M262.163 256.738C305.561 213.339 305.561 142.977 262.163 99.5789C218.765 56.1807 148.403 56.1807 105.004 99.5789C61.6063 142.977 61.6063 213.339 105.004 256.738C148.403 300.136 218.765 300.136 262.163 256.738Z" fill="url(#paint1_radial_400_2712)"/>
<path style="mix-blend-mode:color-dodge" d="M209.192 160.94C205.096 155.686 231.496 128.258 268.157 99.6763C304.818 71.0946 337.858 52.1833 341.953 57.4367C346.049 62.69 319.649 90.1189 282.988 118.7C246.327 147.282 213.287 166.193 209.192 160.94Z" fill="url(#paint2_radial_400_2712)"/>
<path style="mix-blend-mode:color-dodge" d="M13.4188 310.171C9.32345 304.918 35.7228 277.489 72.384 248.907C109.045 220.326 142.085 201.415 146.18 206.668C150.276 211.921 123.877 239.35 87.2154 267.932C50.5544 296.513 17.5145 315.424 13.4188 310.171Z" fill="url(#paint3_radial_400_2712)"/>
<path style="mix-blend-mode:color-dodge" d="M246.597 272.327C270.367 251.834 286.11 231.131 281.76 226.086C277.411 221.041 254.615 233.564 230.846 254.058C207.076 274.551 191.332 295.254 195.682 300.299C200.032 305.344 222.827 292.821 246.597 272.327Z" fill="url(#paint4_radial_400_2712)"/>
<path style="mix-blend-mode:color-dodge" d="M113.495 133.319C133.001 108.732 143.764 84.7944 137.535 79.8526C131.305 74.9108 110.443 90.8363 90.9375 115.423C71.4318 140.01 60.6689 163.948 66.898 168.889C73.127 173.831 93.9892 157.906 113.495 133.319Z" fill="url(#paint5_radial_400_2712)"/>
<g filter="url(#filter0_d_400_2712)">
<path d="M154.778 244.72C156.55 228.967 141.78 194.901 139.703 186.168C139.203 184.065 138.746 181.951 138.356 179.824C134.391 158.212 140.287 134.924 160.594 123.501C171.142 117.65 183.574 116.151 195.22 119.325C213.084 124.27 228.914 141.232 228.797 160.238C228.758 166.544 228.397 172.738 230.875 178.723C232.873 183.549 240.397 189.493 240.09 191.765C239.853 193.53 234.714 196.384 232.734 198.241C232.055 200.593 231.922 203.067 232.346 205.478C233.318 209.772 225.921 211.263 225.921 211.263C225.921 211.263 232.097 212.875 230.996 214.409C229.639 216.201 228.639 218.234 228.048 220.4C226.983 223.744 228.882 229.995 226.161 232.048C224.144 233.271 221.877 234.028 219.527 234.261C217.178 234.495 214.805 234.199 212.585 233.397C212.585 233.397 210.014 233.31 209.522 233.328C209.522 233.328 205.763 241.336 206.896 245.439" fill="url(#paint6_radial_400_2712)" style="mix-blend-mode:color-dodge" shape-rendering="crispEdges"/>
</g>
<g style="mix-blend-mode:overlay" filter="url(#filter1_f_400_2712)">
<circle cx="242" cy="269" r="46" fill="#CD4DE1"/>
</g>
<g style="mix-blend-mode:hard-light" filter="url(#filter2_f_400_2712)">
<circle cx="86" cy="255" r="46" fill="#F4AEFF"/>
</g>
<g style="mix-blend-mode:hard-light" filter="url(#filter3_f_400_2712)">
<circle cx="266" cy="100" r="46" fill="#F4AEFF"/>
</g>
</g>
<defs>
<filter id="filter0_d_400_2712" x="123.695" y="117.695" width="129.904" height="158.243" filterUnits="userSpaceOnUse" color-interpolation-filters="sRGB">
<feFlood flood-opacity="0" result="BackgroundImageFix"/>
<feColorMatrix in="SourceAlpha" type="matrix" values="0 0 0 0 0 0 0 0 0 0 0 0 0 0 0 0 0 0 127 0" result="hardAlpha"/>
<feOffset dy="17"/>
<feGaussianBlur stdDeviation="6.75"/>
<feComposite in2="hardAlpha" operator="out"/>
<feColorMatrix type="matrix" values="0 0 0 0 0 0 0 0 0 0 0 0 0 0 0 0 0 0 0.25 0"/>
<feBlend mode="normal" in2="BackgroundImageFix" result="effect1_dropShadow_400_2712"/>
<feBlend mode="normal" in="SourceGraphic" in2="effect1_dropShadow_400_2712" result="shape"/>
</filter>
<filter id="filter1_f_400_2712" x="172.1" y="199.1" width="139.8" height="139.8" filterUnits="userSpaceOnUse" color-interpolation-filters="sRGB">
<feFlood flood-opacity="0" result="BackgroundImageFix"/>
<feBlend mode="normal" in="SourceGraphic" in2="BackgroundImageFix" result="shape"/>
<feGaussianBlur stdDeviation="11.95" result="effect1_foregroundBlur_400_2712"/>
</filter>
<filter id="filter2_f_400_2712" x="-22.5" y="146.5" width="217" height="217" filterUnits="userSpaceOnUse" color-interpolation-filters="sRGB">
<feFlood flood-opacity="0" result="BackgroundImageFix"/>
<feBlend mode="normal" in="SourceGraphic" in2="BackgroundImageFix" result="shape"/>
<feGaussianBlur stdDeviation="31.25" result="effect1_foregroundBlur_400_2712"/>
</filter>
<filter id="filter3_f_400_2712" x="157.5" y="-8.5" width="217" height="217" filterUnits="userSpaceOnUse" color-interpolation-filters="sRGB">
<feFlood flood-opacity="0" result="BackgroundImageFix"/>
<feBlend mode="normal" in="SourceGraphic" in2="BackgroundImageFix" result="shape"/>
<feGaussianBlur stdDeviation="31.25" result="effect1_foregroundBlur_400_2712"/>
</filter>
<radialGradient id="paint0_radial_400_2712" cx="0" cy="0" r="1" gradientUnits="userSpaceOnUse" gradientTransform="translate(186.148 181.612) scale(137.545 137.545)">
<stop offset="0.73" stop-color="#A336D3"/>
<stop offset="0.845" stop-color="#DEDEDE" stop-opacity="0.574074"/>
<stop offset="1" stop-opacity="0"/>
</radialGradient>
<radialGradient id="paint1_radial_400_2712" cx="0" cy="0" r="1" gradientUnits="userSpaceOnUse" gradientTransform="translate(183.584 178.158) scale(111.128)">
<stop offset="0.655" stop-color="#414141"/>
<stop offset="0.95627" stop-color="#2A2A2A" stop-opacity="0.16158"/>
<stop offset="0.97154" stop-color="#131313" stop-opacity="0.07201"/>
<stop offset="0.98631" stop-color="#050505" stop-opacity="0.01818"/>
<stop offset="1" stop-opacity="0"/>
</radialGradient>
<radialGradient id="paint2_radial_400_2712" cx="0" cy="0" r="1" gradientUnits="userSpaceOnUse" gradientTransform="translate(283.638 104.696) rotate(140.275) scale(88.325 17.9138)">
<stop stop-color="white"/>
<stop offset="0.09546" stop-color="#D3D3D3" stop-opacity="0.82805"/>
<stop offset="0.23033" stop-color="#9C9C9C" stop-opacity="0.6112"/>
<stop offset="0.36621" stop-color="#6C6C6C" stop-opacity="0.42418"/>
<stop offset="0.50016" stop-color="#454545" stop-opacity="0.27142"/>
<stop offset="0.63182" stop-color="#272727" stop-opacity="0.15274"/>
<stop offset="0.76048" stop-color="#111111" stop-opacity="0.06805"/>
<stop offset="0.88481" stop-color="#040404" stop-opacity="0.01718"/>
<stop offset="1" stop-opacity="0"/>
</radialGradient>
<radialGradient id="paint3_radial_400_2712" cx="0" cy="0" r="1" gradientUnits="userSpaceOnUse" gradientTransform="translate(87.8654 253.927) rotate(140.275) scale(88.3248 17.9138)">
<stop stop-color="white"/>
<stop offset="0.09546" stop-color="#D3D3D3" stop-opacity="0.82805"/>
<stop offset="0.23033" stop-color="#9C9C9C" stop-opacity="0.6112"/>
<stop offset="0.36621" stop-color="#6C6C6C" stop-opacity="0.42418"/>
<stop offset="0.50016" stop-color="#454545" stop-opacity="0.27142"/>
<stop offset="0.63182" stop-color="#272727" stop-opacity="0.15274"/>
<stop offset="0.76048" stop-color="#111111" stop-opacity="0.06805"/>
<stop offset="0.88481" stop-color="#040404" stop-opacity="0.01718"/>
<stop offset="1" stop-opacity="0"/>
</radialGradient>
<radialGradient id="paint4_radial_400_2712" cx="0" cy="0" r="1" gradientUnits="userSpaceOnUse" gradientTransform="translate(244.314 260.243) rotate(136.591) scale(59.6659 17.9042)">
<stop stop-color="#FFD4FE"/>
<stop offset="0.09546" stop-color="#FED0FA"/>
<stop offset="0.23033" stop-color="#9C9C9C" stop-opacity="0.6112"/>
<stop offset="0.36621" stop-color="#6C6C6C" stop-opacity="0.42418"/>
<stop offset="0.50016" stop-color="#454545" stop-opacity="0.27142"/>
<stop offset="0.63182" stop-color="#272727" stop-opacity="0.15274"/>
<stop offset="0.76048" stop-color="#111111" stop-opacity="0.06805"/>
<stop offset="0.88481" stop-color="#040404" stop-opacity="0.01718"/>
<stop offset="1" stop-opacity="0"/>
</radialGradient>
<radialGradient id="paint5_radial_400_2712" cx="0" cy="0" r="1" gradientUnits="userSpaceOnUse" gradientTransform="translate(107.372 120.593) rotate(125.274) scale(59.6932 21.3604)">
<stop stop-color="#F193BA"/>
<stop offset="0.09546" stop-color="#D3D3D3" stop-opacity="0.82805"/>
<stop offset="0.23033" stop-color="#9C9C9C" stop-opacity="0.6112"/>
<stop offset="0.36621" stop-color="#6C6C6C" stop-opacity="0.42418"/>
<stop offset="0.50016" stop-color="#454545" stop-opacity="0.27142"/>
<stop offset="0.63182" stop-color="#272727" stop-opacity="0.15274"/>
<stop offset="0.76048" stop-color="#111111" stop-opacity="0.06805"/>
<stop offset="0.88481" stop-color="#040404" stop-opacity="0.01718"/>
<stop offset="1" stop-opacity="0"/>
</radialGradient>
<radialGradient id="paint6_radial_400_2712" cx="0" cy="0" r="1" gradientUnits="userSpaceOnUse" gradientTransform="translate(174.527 126.676) rotate(77.8926) scale(121.463 121.985)">
<stop stop-color="white"/>
<stop offset="1" stop-color="white" stop-opacity="0"/>
</radialGradient>
<clipPath id="clip0_400_2712">
<rect width="356" height="356" fill="white"/>
</clipPath>
</defs>
</svg>
