<svg xmlns="http://www.w3.org/2000/svg" width="67" height="57" viewBox="0 0 67 57" fill="none">
  <g opacity="0.6">
    <path d="M7.29778 16.6933C7.6216 16.7537 7.83817 16.7814 8.0564 16.8323C22.118 20.1086 36.1868 23.3867 50.2447 26.6773C50.5866 26.7569 50.9803 26.9923 51.1605 27.2762C53.7195 31.3805 56.2419 35.5065 58.7734 39.6271C58.8653 39.777 58.9317 39.9361 59.0647 40.1939C58.7409 40.1336 58.5243 40.1058 58.3061 40.055C44.2154 36.7718 30.132 33.4904 16.0451 30.193C15.725 30.1185 15.3641 29.8756 15.202 29.611C12.6521 25.5013 10.1206 21.3808 7.59093 17.2531C7.49904 17.1031 7.43271 16.944 7.29965 16.6862L7.29778 16.6933Z" fill="#DCDCDC"/>
    <path d="M8.70894 11.0252C8.97971 10.8464 9.14264 10.7256 9.31637 10.6224C13.5316 8.11919 17.7469 5.61597 21.9783 3.13922C22.2965 2.95629 22.7907 2.86731 23.1398 2.94867C37.2343 6.21755 51.325 9.50069 65.4157 12.7838C65.6121 12.8296 65.8029 12.8967 66.1192 12.9856C65.8484 13.1644 65.6745 13.2978 65.4898 13.4135C61.2745 15.9167 57.0539 18.4111 52.844 20.9231C52.4417 21.1621 52.0955 21.1872 51.659 21.0855C37.592 17.8004 23.5285 14.5311 9.46155 11.2459C9.24331 11.1951 9.03797 11.1246 8.71435 11.034L8.70894 11.0252Z" fill="#DCDCDC"/>
    <path d="M0.217578 43.9101C0.524929 43.7095 0.693259 43.5976 0.874264 43.4961C5.08765 40.9999 9.30478 38.4895 13.5344 36.0198C13.8361 35.8406 14.2956 35.7663 14.6321 35.8371C28.7503 39.104 42.8538 42.3978 56.9663 45.6861C57.1627 45.7318 57.3444 45.8044 57.6389 45.8881C57.3773 46.0616 57.2216 46.1841 57.0479 46.2872C52.8345 48.7834 48.6174 51.2938 44.3878 53.7635C44.0696 53.9464 43.5773 54.0282 43.2208 53.9452C29.1317 50.6851 15.041 47.4018 0.959376 44.1132C0.762964 44.0674 0.563017 44.0057 0.219447 43.903L0.217578 43.9101Z" fill="#DCDCDC"/>
  </g>
</svg>