<svg xmlns="http://www.w3.org/2000/svg" width="83" height="84" viewBox="0 0 83 84" fill="none">
  <g opacity="0.6">
    <path d="M29.6361 10.2928C31.7382 10.6794 33.8357 11.0788 35.9393 11.4498C44.3476 12.9325 52.7584 14.4069 61.1688 15.8851C61.3891 15.9241 61.6069 15.9715 61.9231 16.0351C61.7026 16.2989 61.5322 16.5097 61.3542 16.7157C54.7927 24.3924 48.2282 32.0663 41.6767 39.7488C41.3615 40.1185 41.0755 40.2445 40.5543 40.1515C30.2351 38.3202 19.9125 36.5144 9.59071 34.7009C9.37038 34.6619 9.15085 34.6151 8.83132 34.5527C9.00314 34.3357 9.13509 34.1589 9.27998 33.9906C15.8565 26.2938 22.4344 18.6002 29.0103 10.9017C29.1481 10.7396 29.2597 10.5549 29.3832 10.381C29.4675 10.3516 29.5518 10.3222 29.6361 10.2928Z" fill="#DCDCDC"/>
    <path d="M51.7348 73.6828C49.3597 73.2677 47.0714 72.8705 44.7852 72.4688C36.6331 71.0358 28.4841 69.5961 20.3293 68.1806C19.7822 68.0856 19.4887 67.8947 19.2839 67.3667C15.6105 57.9314 11.9137 48.5042 8.22259 39.0769L7.94382 38.365C8.20841 38.3896 8.39277 38.394 8.57268 38.4259C18.9245 40.2388 29.2762 42.0517 39.625 43.8861C39.8706 43.9303 40.1994 44.1627 40.2845 44.3799C44.0916 54.0451 47.8759 63.7201 51.6613 73.3929C51.6849 73.4534 51.6935 73.519 51.7348 73.6828Z" fill="#DCDCDC"/>
    <path d="M55.9308 72.0657L55.6616 71.3782C51.9545 61.9101 48.2468 52.4404 44.5346 42.9741C44.3818 42.5838 44.3341 42.3016 44.6514 41.9311C51.252 34.2412 57.8349 26.5352 64.4213 18.8335C64.5442 18.6904 64.6817 18.5608 64.8978 18.3351C65.0135 18.6306 65.0973 18.8446 65.1804 19.0569C68.8798 28.5053 72.5759 37.955 76.2871 47.3994C76.4578 47.8354 76.441 48.1327 76.1264 48.5003C69.5199 56.2091 62.9274 63.9296 56.3297 71.6463C56.2334 71.7597 56.1235 71.863 55.9308 72.0657Z" fill="#DCDCDC"/>
  </g>
</svg>