<svg xmlns="http://www.w3.org/2000/svg" width="46" height="46" viewBox="0 0 46 46" fill="none">
  <path opacity="0.6" d="M43.6811 19.3209C44.3419 22.9344 44.9964 26.5489 45.6771 30.1652C45.7438 30.5295 45.6608 30.7465 45.3615 30.9814C39.431 35.6935 33.5089 40.4165 27.6004 45.1434C27.2908 45.3923 27.0425 45.4462 26.6493 45.309C19.4075 42.7801 12.1616 40.2643 4.90542 37.7625C4.50603 37.6263 4.36648 37.428 4.29767 37.0518C2.98859 29.8227 1.66697 22.5958 0.331742 15.365C0.256377 14.9529 0.35706 14.7267 0.689529 14.4617C6.59202 9.77278 12.4798 5.07399 18.3654 0.363255C18.7145 0.0831374 18.9879 0.0249921 19.423 0.179829C26.6438 2.69988 33.8698 5.21291 41.0988 7.70698C41.4982 7.84317 41.6326 8.04841 41.7003 8.41871C42.3518 12.0522 43.0233 15.6885 43.6874 19.3199L43.6811 19.3209ZM36.7294 20.4615C36.3002 18.1143 35.8584 15.7691 35.4542 13.4176C35.3821 13.0234 35.2071 12.8435 34.8276 12.7101C30.1492 11.0997 25.4759 9.48229 20.8055 7.8459C20.3988 7.70478 20.1346 7.74291 19.797 8.01495C15.9737 11.0811 12.1358 14.1375 8.28934 17.183C7.98492 17.4248 7.9082 17.6408 7.97483 18.0051C8.84586 22.6976 9.70436 27.3921 10.5503 32.0887C10.618 32.459 10.7846 32.628 11.1493 32.7516C15.8477 34.3648 20.5368 35.998 25.2259 37.6313C25.6054 37.7646 25.8666 37.7455 26.1877 37.4885C30.0172 34.4213 33.8478 31.36 37.6942 28.3146C38.0101 28.0646 38.0949 27.8226 38.0188 27.4414C37.574 25.1153 37.1605 22.7838 36.7357 20.4605L36.7294 20.4615Z" fill="#DCDCDC"/>
</svg>