<svg xmlns="http://www.w3.org/2000/svg" width="49" height="42" viewBox="0 0 49 42" fill="none">
  <path opacity="0.6" d="M0.018543 15.2628C0.018543 13.3071 0.0307518 11.3572 0.018543 9.40145C0.0124387 8.34745 0.470264 7.59794 1.42255 7.0768C4.9936 5.11519 8.55245 3.14771 12.1113 1.17439C13.0025 0.682522 13.8694 0.653252 14.7606 1.14512C18.3744 3.14186 21.9882 5.13274 25.5958 7.12363C26.4871 7.6155 26.9205 8.33574 26.9083 9.32533C26.89 10.4554 26.8961 11.5914 26.9083 12.7215C26.9144 13.2544 26.6885 13.6291 26.2185 13.8868C25.2113 14.4372 24.2102 15.0052 23.1968 15.5498C22.5864 15.8777 22.1347 15.6318 22.1286 14.9584C22.1103 13.9336 22.1103 12.9148 22.1286 11.8901C22.1408 10.9415 21.7013 10.2446 20.8589 9.7762C18.8322 8.65193 16.8056 7.52766 14.7728 6.40925C13.906 5.93495 13.0453 5.94081 12.1723 6.42682C10.164 7.54523 8.14956 8.65193 6.13512 9.75863C5.24388 10.2505 4.81658 10.9883 4.81658 11.9662C4.81658 14.1561 4.81658 16.352 4.81658 18.542C4.81658 19.5374 5.23778 20.2928 6.15343 20.7963C8.16787 21.8972 10.1823 23.0097 12.1968 24.1223C13.1368 24.6376 14.0342 24.5439 14.9498 24.0345C20.0714 21.1887 25.2052 18.3546 30.3328 15.5205C31.6026 14.8178 32.8784 14.1269 34.142 13.4066C35.082 12.8679 35.9977 12.8679 36.9439 13.3949C40.4844 15.3624 44.0249 17.324 47.5777 19.2739C48.5544 19.8068 49 20.5738 49 21.6454C48.9878 25.5335 48.9878 29.4274 49 33.3155C49 34.3871 48.5544 35.16 47.5838 35.6929C44.0311 37.6428 40.4844 39.5985 36.9439 41.566C35.9916 42.093 35.0942 42.0871 34.142 41.5543C30.6381 39.5985 27.1219 37.6545 23.5997 35.7338C22.562 35.1659 22.0736 34.3754 22.1042 33.2336C22.1347 32.1737 22.1164 31.1138 22.1042 30.054C22.1042 29.5094 22.3361 29.1171 22.8306 28.8477C23.8256 28.309 24.8084 27.7527 25.8034 27.214C26.4505 26.8627 26.8839 27.1086 26.89 27.8113C26.9022 28.836 26.89 29.8549 26.89 30.8796C26.89 31.7814 27.2868 32.4665 28.0925 32.9173C30.1619 34.0767 32.2435 35.2244 34.3251 36.3663C35.1126 36.7996 35.9305 36.8172 36.7241 36.378C38.824 35.2244 40.9117 34.065 42.9994 32.8939C43.7869 32.4489 44.1776 31.7579 44.1837 30.8972C44.1959 28.6135 44.1959 26.3298 44.1837 24.0462C44.1837 23.162 43.7686 22.4652 42.9567 22.0143C40.9117 20.8783 38.8667 19.7541 36.8218 18.6239C35.8878 18.1087 34.9905 18.1906 34.0687 18.7059C27.7446 22.2192 21.4022 25.7033 15.0841 29.2283C13.9548 29.8607 12.9537 29.8666 11.8244 29.2283C8.39374 27.2902 4.94477 25.393 1.48359 23.5075C0.470263 22.9512 -0.0119827 22.1783 0.000226019 21.054C0.0246435 19.1158 0.00633169 17.1835 0.00633169 15.2453L0.018543 15.2628Z" fill="#DCDCDC"/>
</svg>