<svg xmlns="http://www.w3.org/2000/svg" width="40" height="52" viewBox="0 0 40 52" fill="none">
  <g opacity="0.6">
    <path d="M34.107 29.6686C32.4592 30.1587 30.8644 30.6367 29.2657 31.1139C25.7615 32.1592 22.2543 33.1999 18.7577 34.2633C18.3189 34.3968 18.0393 34.3526 17.6994 34.0316C14.0457 30.5402 10.3732 27.0728 6.70275 23.5978C6.59629 23.4964 6.49968 23.3892 6.37863 23.2642C12.9515 16.8863 19.5066 10.5285 26.1279 4.10914C28.7985 12.6611 31.4431 21.1384 34.106 29.6724L34.107 29.6686Z" fill="#DCDCDC"/>
    <path d="M14.7119 47.9116C11.7486 40.4978 8.8155 33.1598 5.87842 25.821C5.89919 25.8055 5.9249 25.787 5.94567 25.7715C6.39029 26.1905 6.83492 26.6094 7.27561 27.0274C10.618 30.1955 13.9604 33.3636 17.293 36.5376C17.5231 36.757 17.7158 36.8176 18.0373 36.7213C22.9903 35.2295 27.947 33.7549 32.9048 32.2765C33.0774 32.2229 33.253 32.1741 33.4853 32.1952C27.2453 37.4192 21.0024 42.6384 14.703 47.9137L14.7119 47.9116Z" fill="#DCDCDC"/>
  </g>
</svg>