<svg xmlns="http://www.w3.org/2000/svg" width="75" height="56" viewBox="0 0 75 56" fill="none">
  <g opacity="0.6">
    <path d="M5.32073 20.9435C5.45345 20.5874 5.70361 20.3097 6.04725 20.119C7.59894 19.2534 9.15145 18.3851 10.7104 17.5363C11.6028 17.0504 12.364 17.288 12.885 18.1938C14.8818 21.6568 16.8777 25.1226 18.8709 28.5877C19.6391 29.919 20.4036 31.2524 21.1681 32.5857C21.4852 33.1369 21.6112 33.1758 22.1758 32.8578C23.8185 31.9325 25.4677 31.0267 27.1063 30.0944C29.4173 28.7797 31.7726 27.5423 34.0945 26.2425C35.1965 25.6264 36.2751 24.9654 37.4115 24.409C38.1299 24.0567 38.8491 24.2296 39.2722 24.8771C39.3671 25.0212 39.4495 25.177 39.5343 25.3244C42.2391 30.0225 44.941 34.7199 47.6458 39.4179C47.7145 39.5373 47.7787 39.6615 47.8619 39.7727C48.0216 39.9875 48.2239 40.0582 48.4806 39.9134C48.6378 39.8262 48.7942 39.7417 48.9514 39.6545C53.7916 36.9689 58.6311 34.2861 63.4741 31.6012C63.5473 31.5606 63.6204 31.5201 63.6935 31.4795C64.722 30.9158 65.4387 31.097 66.0146 32.0858C66.8236 33.4755 67.6233 34.8657 68.4185 36.2608C68.9694 37.231 68.7636 37.9171 67.7693 38.4688C60.5901 42.4499 53.4118 46.4281 46.2375 50.4134C45.6636 50.7318 45.1087 50.8614 44.5321 50.4751C44.2895 50.3133 44.1449 50.0786 44.0055 49.8364C41.2725 45.0891 38.5394 40.3419 35.8064 35.5947C35.766 35.5245 35.7256 35.4542 35.6852 35.384C35.3981 34.8973 35.2542 34.8568 34.7488 35.1394C29.7713 37.8966 24.7958 40.6573 19.8182 43.4144C19.6428 43.5118 19.4616 43.6076 19.2708 43.6742C18.5546 43.9256 17.9374 43.7077 17.5711 43.0751C16.4882 41.2051 15.4127 39.3312 14.3344 37.4564C12.7734 34.7427 11.2116 32.0316 9.6506 29.3179C8.26328 26.906 6.8788 24.4949 5.48499 22.0843C5.27902 21.7262 5.20733 21.3584 5.31505 20.9421L5.32073 20.9435Z" fill="#DCDCDC"/>
    <path d="M42.6861 8.72971C46.6749 9.82513 50.0628 11.4854 53.0538 13.8891C54.8811 15.3596 56.492 17.0241 57.8668 18.8983C58.7581 20.1124 59.5146 21.4106 60.2434 22.7194C60.705 23.5469 60.4579 24.228 59.5951 24.7066C57.8953 25.6497 56.1955 26.5927 54.4957 27.5357C53.8413 27.8987 53.5353 27.8277 53.1568 27.195C52.7412 26.5018 52.3447 25.7958 51.94 25.0965C50.3803 22.4104 48.2115 20.296 45.5117 18.6961C43.8289 17.6989 42.0243 16.9383 40.091 16.5199C35.7752 15.5896 31.5601 15.9324 27.4828 17.7846C26.2329 18.353 25.044 19.0358 23.843 19.6975C23.2443 20.0273 22.9411 19.957 22.6139 19.3884C21.6431 17.7091 20.673 16.0271 19.7094 14.3437C19.3226 13.667 19.4666 13.0037 20.1346 12.5428C20.8326 12.063 21.5908 11.6794 22.3434 11.2943C23.7421 10.5739 25.1735 9.91868 26.6751 9.41901C29.6137 8.44159 32.6217 7.93268 35.7129 7.9078C37.3978 7.89447 39.0661 8.04084 40.7167 8.31977C41.4619 8.44578 42.2127 8.57328 42.6897 8.72768L42.6861 8.72971Z" fill="#DCDCDC"/>
  </g>
</svg>