<svg width="337" height="337" viewBox="0 0 337 337" fill="none" xmlns="http://www.w3.org/2000/svg">
<g clip-path="url(#clip0_400_3920)">
<g clip-path="url(#clip1_400_3920)">
<g style="mix-blend-mode:multiply" opacity="0.6">
<path d="M11.4849 187.851L169.769 279.512L321.31 191.178L163.209 99.2842L11.4849 187.851Z" fill="#3A0155"/>
</g>
<path d="M11.4849 169.004L169.769 260.666L321.31 172.331L163.209 80.4375L11.4849 169.004Z" fill="#F59DFF"/>
<path d="M163.209 92.2168L163.169 106.108L133.657 123.31L133.697 109.419L163.209 92.2168Z" fill="#E77FF3"/>
<path d="M134.232 112.439L134.195 126.331L129.008 123.293L129.048 109.401L134.232 112.439Z" fill="#962DCC"/>
<path d="M148.633 120.777L148.593 134.668L134.194 126.331L134.231 112.439L148.633 120.777Z" fill="#962DCC"/>
<path d="M124.534 120.906L124.496 134.797L111.167 127.079L111.207 113.188L124.534 120.906Z" fill="#D68900"/>
<path d="M107.026 102.173L102.611 104.747L46.8828 137.23L46.8428 151.122L102.574 118.638L106.986 116.065L163.043 83.3888L163.08 69.4971L107.026 102.173Z" fill="#E77FF3"/>
<path d="M46.883 137.231L46.8429 151.122L44.4941 149.761L44.5341 135.872L46.883 137.231Z" fill="#962DCC"/>
<path d="M111.206 113.188L111.166 127.079L45.8682 165.14L45.9082 151.249L111.206 113.188Z" fill="#E5A300"/>
<path d="M200.604 136.514L200.564 150.406L163.297 128.824L163.337 114.933L200.604 136.514Z" fill="#962DCC"/>
<path d="M137.258 120.897L137.218 134.789L98.228 157.517L98.268 143.625L137.258 120.897Z" fill="#E5A300"/>
<path d="M163.337 114.933L163.297 128.824L112.941 158.178L112.981 144.287L163.337 114.933Z" fill="#E77FF3"/>
<path d="M112.981 144.287L112.941 158.179L110.592 156.817L110.632 142.926L112.981 144.287Z" fill="#962DCC"/>
<path d="M202.967 137.884L202.927 151.775L185.774 161.775L185.811 147.883L202.967 137.884Z" fill="#E77FF3"/>
<path d="M45.9082 151.248L45.8682 165.14L20.5942 150.503L20.6314 136.611L45.9082 151.248Z" fill="#D68900"/>
<path d="M143.467 139.968L143.427 153.857L111.406 172.523L111.446 158.631L143.467 139.968Z" fill="#E5A300"/>
<path d="M195.103 169.869L195.063 183.761L143.427 153.857L143.467 139.968L195.103 169.869Z" fill="#D68900"/>
<path d="M144.907 148.469L144.867 162.36L133.486 168.995L133.526 155.104L144.907 148.469Z" fill="#E77FF3"/>
<path d="M96.2877 131.223L91.5644 133.978L55.3208 155.103L55.2808 168.995L91.5244 147.869L96.2477 145.115L112.798 135.468L112.838 121.576L96.2877 131.223Z" fill="#E77FF3"/>
<path d="M28.338 148.038L28.3009 161.93L16.1797 168.995L16.2197 155.103L28.338 148.038Z" fill="#E77FF3"/>
<path d="M316.67 158.442L316.63 172.331L163.043 83.3888L163.08 69.4971L316.67 158.442Z" fill="#962DCC"/>
<path d="M219.511 124.821L163.208 92.2168L163.168 106.108L219.471 138.713L277.528 172.331L277.568 158.442L219.511 124.821Z" fill="#962DCC"/>
<path d="M238.467 158.442L238.427 172.334L202.927 151.775L202.967 137.884L238.467 158.442Z" fill="#962DCC"/>
<path d="M111.447 158.632L111.407 172.523L85.5068 157.525L85.5468 143.634L111.447 158.632Z" fill="#D68900"/>
<path d="M199.364 158.442L195.755 156.35L167.461 139.964L163.463 137.651L161.117 136.293L161.077 150.182L163.423 151.543L167.421 153.856L195.715 170.241L199.327 172.333L201.673 173.692L201.713 159.8L199.364 158.442Z" fill="#962DCC"/>
<path d="M204.044 158.442L204.007 172.334L201.672 173.693L201.712 159.801L204.044 158.442Z" fill="#E77FF3"/>
<path d="M321.35 158.442L321.31 172.331L303.565 182.675L303.605 168.783L321.35 158.442Z" fill="#E77FF3"/>
<path d="M303.606 168.783L303.566 182.675L301.22 181.317L301.257 167.425L303.606 168.783Z" fill="#962DCC"/>
<path d="M163.066 66.7803L321.35 158.442L303.606 168.783L301.257 167.424L316.67 158.442L163.08 69.4973L107.026 102.173L102.611 104.747L46.883 137.23L44.5342 135.872L100.265 103.385L104.677 100.812L163.066 66.7803Z" fill="#FFBBFA"/>
<path d="M142.558 147.107L144.907 148.469L133.526 155.104L164.52 173.054L165.443 173.587L169.426 175.894L180.808 169.259L183.156 170.618L169.426 178.622L163.094 174.954L162.174 174.421L128.828 155.112L142.558 147.107Z" fill="#FFBBFA"/>
<path d="M163.094 174.953L162.174 174.42L128.828 155.111L128.791 169.003L162.134 188.312L163.057 188.845L169.387 192.51L169.427 178.619L163.094 174.953Z" fill="#962DCC"/>
<path d="M183.156 170.617L183.116 184.509L169.386 192.511L169.426 178.622L183.156 170.617Z" fill="#E77FF3"/>
<path d="M207.827 169.878L207.787 183.77L177.361 201.505L177.401 187.613L207.827 169.878Z" fill="#E5A300"/>
<path d="M226.701 168.026L219.32 172.331L203.936 181.296L203.896 195.188L219.28 186.223L226.661 181.918L243.108 172.331L243.148 158.442L226.701 168.026Z" fill="#E77FF3"/>
<path d="M306.017 184.386L305.98 198.277L283.275 185.128L283.312 171.236L306.017 184.386Z" fill="#D68900"/>
<path d="M312.366 180.686L312.326 194.577L305.98 198.277L306.017 184.386L312.366 180.686Z" fill="#E5A300"/>
<path d="M201.59 182.666L201.55 196.555L190.417 203.044L190.457 189.152L201.59 182.666Z" fill="#E77FF3"/>
<path d="M190.457 189.151L190.417 203.043L188.071 201.685L188.111 187.793L190.457 189.151Z" fill="#962DCC"/>
<path d="M218.857 192.663L218.817 206.554L201.55 196.555L201.59 182.666L218.857 192.663Z" fill="#962DCC"/>
<path d="M184.902 199.315L184.862 213.207L164.637 201.496L164.677 187.604L184.902 199.315Z" fill="#D68900"/>
<path d="M92.0759 153.745L94.4218 155.104L132.866 177.364L169.552 198.61L171.901 199.972L169.552 201.339L130.517 178.734L89.7271 155.112L92.0759 153.745Z" fill="#FFBBFA"/>
<path d="M171.901 199.971L171.861 213.86L169.515 215.23L169.552 201.338L171.901 199.971Z" fill="#E77FF3"/>
<path d="M130.517 178.733L89.727 155.111L89.687 169.003L130.477 192.622L169.515 215.229L169.552 201.338L130.517 178.733Z" fill="#962DCC"/>
<path d="M197.609 199.314L197.569 213.206L177.284 225.031L177.324 211.14L197.609 199.314Z" fill="#E5A300"/>
<path d="M190.586 211.871L190.546 225.763L188.197 224.402L188.237 210.513L190.586 211.871Z" fill="#962DCC"/>
<path d="M190.585 211.87L188.237 210.511L218.856 192.664L201.589 182.664L190.457 189.153L188.11 187.793L216.971 170.97L224.353 166.668L238.466 158.441L202.967 137.883L185.812 147.883L204.045 158.441L201.712 159.801L199.365 158.441L195.754 156.35L167.461 139.966L163.464 137.651L161.116 136.292L163.448 134.932L183.449 146.514L200.604 136.515L163.336 114.934L112.979 144.286L110.632 142.926L148.632 120.777L134.233 112.438L129.047 109.401L163.194 89.4971L224.98 125.277L282.249 158.441L190.585 211.87ZM203.936 181.296L221.203 191.295L277.569 158.441L219.512 124.821L163.209 92.2161L133.697 109.418L150.964 119.417L163.321 112.214L243.147 158.441L226.701 168.027L219.319 172.33L203.936 181.296Z" fill="#FFBBFA"/>
<path d="M282.249 158.442L282.209 172.331L190.546 225.763L190.586 211.871L282.249 158.442Z" fill="#E77FF3"/>
<path d="M153.708 214.805L153.668 228.697L50.5859 169.003L50.6259 155.111L153.708 214.805Z" fill="#962DCC"/>
<path d="M189.82 225.734L189.78 239.625L164.577 225.031L164.617 211.14L189.82 225.734Z" fill="#D68900"/>
<path d="M172.027 222.688L171.989 236.579L169.641 237.946L169.681 224.055L172.027 222.688Z" fill="#E77FF3"/>
<path d="M169.681 224.054L169.641 237.946L156.014 230.056L156.054 216.164L169.681 224.054Z" fill="#962DCC"/>
<path d="M312.366 180.685L306.017 184.385L283.312 171.236L189.82 225.734L164.617 211.14L184.902 199.315L164.677 187.604L195.103 169.869L143.466 139.968L111.446 158.631L85.5464 143.633L124.533 120.905L111.206 113.187L45.9082 151.248L20.6313 136.611L26.9806 132.911L45.8682 143.848L111.163 105.787L137.257 120.897L98.2677 143.625L111.418 151.24L143.424 132.582L207.827 169.878L177.401 187.613L197.609 199.315L177.324 211.14L189.763 218.342L283.272 163.836L312.366 180.685Z" fill="#FFD03B"/>
<path d="M283.312 171.236L283.275 185.128L189.78 239.626L189.82 225.734L283.312 171.236Z" fill="#E5A300"/>
<path d="M156.054 216.164L156.014 230.056L138.875 240.047L138.915 226.155L156.054 216.164Z" fill="#E77FF3"/>
<path d="M169.806 244.045L282.701 178.241L285.049 179.602L169.809 246.774L93.3559 202.499L89.7898 200.435L11.522 155.112L25.992 146.68L28.3379 148.038L16.2196 155.103L92.1357 199.065L95.7018 201.132L136.566 224.797L153.708 214.806L50.6259 155.112L89.2155 132.619L93.9388 129.865L110.489 120.218L112.838 121.576L96.2876 131.223L91.5643 133.978L55.3206 155.103L169.681 221.329L172.027 222.687L169.681 224.054L156.054 216.164L138.915 226.155L169.806 244.045Z" fill="#FFBBFA"/>
<path d="M285.05 179.603L285.01 193.491L169.77 260.666L169.81 246.774L285.05 179.603Z" fill="#E77FF3"/>
<path d="M93.3559 202.498L89.7898 200.435L11.522 155.111L11.4849 169.003L89.7498 214.327L93.3159 216.39L169.769 260.665L169.809 246.773L93.3559 202.498Z" fill="#962DCC"/>
<path style="mix-blend-mode:screen" d="M318.63 189.148C335.403 189.148 349 175.51 349 158.687C349 141.864 335.403 128.226 318.63 128.226C301.858 128.226 288.261 141.864 288.261 158.687C288.261 175.51 301.858 189.148 318.63 189.148Z" fill="url(#paint0_radial_400_3920)"/>
<path style="mix-blend-mode:screen" d="M213.615 156.877C236.995 129.17 233.555 87.6979 205.931 64.2473C178.307 40.7967 136.96 44.2474 113.58 71.9547C90.1999 99.6619 93.6403 141.134 121.264 164.584C148.888 188.035 190.235 184.584 213.615 156.877Z" fill="url(#paint1_radial_400_3920)"/>
<path style="mix-blend-mode:screen" d="M219.811 228.863C227.209 193.331 204.488 158.511 169.062 151.09C133.636 143.67 98.9207 166.459 91.5225 201.992C84.1244 237.524 106.845 272.345 142.271 279.765C177.697 287.186 212.413 264.396 219.811 228.863Z" fill="url(#paint2_radial_400_3920)"/>
<path style="mix-blend-mode:screen" d="M216.336 291.749C241.926 266.082 241.926 224.467 216.336 198.8C190.746 173.132 149.256 173.132 123.665 198.799C98.0751 224.467 98.0751 266.082 123.665 291.749C149.256 317.417 190.746 317.417 216.336 291.749Z" fill="url(#paint3_radial_400_3920)"/>
<path style="mix-blend-mode:screen" d="M202.079 202.336C238.269 202.336 267.607 172.91 267.607 136.611C267.607 100.312 238.269 70.8857 202.079 70.8857C165.889 70.8857 136.551 100.312 136.551 136.611C136.551 172.91 165.889 202.336 202.079 202.336Z" fill="url(#paint4_radial_400_3920)"/>
<path style="mix-blend-mode:screen" d="M100.863 201.958C126.453 176.291 126.453 134.676 100.863 109.009C75.2725 83.3414 33.7827 83.3414 8.19251 109.009C-17.3977 134.676 -17.3977 176.291 8.19251 201.958C33.7827 227.625 75.2725 227.625 100.863 201.958Z" fill="url(#paint5_radial_400_3920)"/>
<path style="mix-blend-mode:screen" d="M227.796 102.824C233.908 67.0464 209.946 33.0733 174.276 26.9431C138.605 20.8129 104.734 44.8471 98.6225 80.6249C92.5107 116.403 116.473 150.376 152.143 156.506C187.813 162.636 221.684 138.602 227.796 102.824Z" fill="url(#paint6_radial_400_3920)"/>
</g>
</g>
<defs>
<radialGradient id="paint0_radial_400_3920" cx="0" cy="0" r="1" gradientUnits="userSpaceOnUse" gradientTransform="translate(318.63 158.687) scale(30.3696 30.4611)">
<stop stop-color="#E53DFF"/>
<stop offset="0.00738" stop-color="#DD3BF6"/>
<stop offset="0.04768" stop-color="#B430C8"/>
<stop offset="0.09309" stop-color="#8D269D"/>
<stop offset="0.1419" stop-color="#6B1C77"/>
<stop offset="0.19502" stop-color="#4E1557"/>
<stop offset="0.25374" stop-color="#350E3B"/>
<stop offset="0.32001" stop-color="#220925"/>
<stop offset="0.39742" stop-color="#120514"/>
<stop offset="0.49311" stop-color="#080209"/>
<stop offset="0.62736" stop-color="#020002"/>
<stop offset="1"/>
</radialGradient>
<radialGradient id="paint1_radial_400_3920" cx="0" cy="0" r="1" gradientUnits="userSpaceOnUse" gradientTransform="translate(163.598 114.416) scale(65.5279 65.7254)">
<stop stop-color="#E53DFF"/>
<stop offset="0.00738" stop-color="#DD3BF6"/>
<stop offset="0.04768" stop-color="#B430C8"/>
<stop offset="0.09309" stop-color="#8D269D"/>
<stop offset="0.1419" stop-color="#6B1C77"/>
<stop offset="0.19502" stop-color="#4E1557"/>
<stop offset="0.25374" stop-color="#350E3B"/>
<stop offset="0.32001" stop-color="#220925"/>
<stop offset="0.39742" stop-color="#120514"/>
<stop offset="0.49311" stop-color="#080209"/>
<stop offset="0.62736" stop-color="#020002"/>
<stop offset="1"/>
</radialGradient>
<radialGradient id="paint2_radial_400_3920" cx="0" cy="0" r="1" gradientUnits="userSpaceOnUse" gradientTransform="translate(155.667 215.428) scale(65.5279 65.7254)">
<stop stop-color="#E53DFF"/>
<stop offset="0.00738" stop-color="#DD3BF6"/>
<stop offset="0.04768" stop-color="#B430C8"/>
<stop offset="0.09309" stop-color="#8D269D"/>
<stop offset="0.1419" stop-color="#6B1C77"/>
<stop offset="0.19502" stop-color="#4E1557"/>
<stop offset="0.25374" stop-color="#350E3B"/>
<stop offset="0.32001" stop-color="#220925"/>
<stop offset="0.39742" stop-color="#120514"/>
<stop offset="0.49311" stop-color="#080209"/>
<stop offset="0.62736" stop-color="#020002"/>
<stop offset="1"/>
</radialGradient>
<radialGradient id="paint3_radial_400_3920" cx="0" cy="0" r="1" gradientUnits="userSpaceOnUse" gradientTransform="translate(170.001 245.275) scale(65.5278 65.7253)">
<stop stop-color="#E53DFF"/>
<stop offset="0.00738" stop-color="#DD3BF6"/>
<stop offset="0.04768" stop-color="#B430C8"/>
<stop offset="0.09309" stop-color="#8D269D"/>
<stop offset="0.1419" stop-color="#6B1C77"/>
<stop offset="0.19502" stop-color="#4E1557"/>
<stop offset="0.25374" stop-color="#350E3B"/>
<stop offset="0.32001" stop-color="#220925"/>
<stop offset="0.39742" stop-color="#120514"/>
<stop offset="0.49311" stop-color="#080209"/>
<stop offset="0.62736" stop-color="#020002"/>
<stop offset="1"/>
</radialGradient>
<radialGradient id="paint4_radial_400_3920" cx="0" cy="0" r="1" gradientUnits="userSpaceOnUse" gradientTransform="translate(202.079 136.611) scale(65.5278 65.7253)">
<stop stop-color="#E53DFF"/>
<stop offset="0.00738" stop-color="#DD3BF6"/>
<stop offset="0.04768" stop-color="#B430C8"/>
<stop offset="0.09309" stop-color="#8D269D"/>
<stop offset="0.1419" stop-color="#6B1C77"/>
<stop offset="0.19502" stop-color="#4E1557"/>
<stop offset="0.25374" stop-color="#350E3B"/>
<stop offset="0.32001" stop-color="#220925"/>
<stop offset="0.39742" stop-color="#120514"/>
<stop offset="0.49311" stop-color="#080209"/>
<stop offset="0.62736" stop-color="#020002"/>
<stop offset="1"/>
</radialGradient>
<radialGradient id="paint5_radial_400_3920" cx="0" cy="0" r="1" gradientUnits="userSpaceOnUse" gradientTransform="translate(54.5277 155.483) scale(65.5278 65.7253)">
<stop stop-color="#E53DFF"/>
<stop offset="0.00738" stop-color="#DD3BF6"/>
<stop offset="0.04768" stop-color="#B430C8"/>
<stop offset="0.09309" stop-color="#8D269D"/>
<stop offset="0.1419" stop-color="#6B1C77"/>
<stop offset="0.19502" stop-color="#4E1557"/>
<stop offset="0.25374" stop-color="#350E3B"/>
<stop offset="0.32001" stop-color="#220925"/>
<stop offset="0.39742" stop-color="#120514"/>
<stop offset="0.49311" stop-color="#080209"/>
<stop offset="0.62736" stop-color="#020002"/>
<stop offset="1"/>
</radialGradient>
<radialGradient id="paint6_radial_400_3920" cx="0" cy="0" r="1" gradientUnits="userSpaceOnUse" gradientTransform="translate(163.209 91.7245) scale(65.5277 65.7253)">
<stop stop-color="#E53DFF"/>
<stop offset="0.00738" stop-color="#DD3BF6"/>
<stop offset="0.04768" stop-color="#B430C8"/>
<stop offset="0.09309" stop-color="#8D269D"/>
<stop offset="0.1419" stop-color="#6B1C77"/>
<stop offset="0.19502" stop-color="#4E1557"/>
<stop offset="0.25374" stop-color="#350E3B"/>
<stop offset="0.32001" stop-color="#220925"/>
<stop offset="0.39742" stop-color="#120514"/>
<stop offset="0.49311" stop-color="#080209"/>
<stop offset="0.62736" stop-color="#020002"/>
<stop offset="1"/>
</radialGradient>
<clipPath id="clip0_400_3920">
<rect width="337" height="337" fill="white"/>
</clipPath>
<clipPath id="clip1_400_3920">
<rect width="360" height="285" fill="white" transform="translate(-11 26)"/>
</clipPath>
</defs>
</svg>
