<svg width="337" height="337" viewBox="0 0 337 337" fill="none" xmlns="http://www.w3.org/2000/svg">
<g clip-path="url(#clip0_400_3870)">
<g style="mix-blend-mode:multiply" opacity="0.6">
<path d="M192.971 265.962C193.063 264.044 192.614 262.14 191.674 260.466C190.734 258.792 189.342 257.417 187.658 256.497L264 212.412L259.311 209.704L182.72 253.933C173.93 250.785 164.275 251.076 155.691 254.748L77.6889 209.704L73 212.412L151.12 257.524C149.907 258.329 148.909 259.417 148.211 260.695C147.513 261.973 147.137 263.402 147.116 264.858C147.095 266.313 147.428 267.752 148.088 269.05C148.748 270.348 149.714 271.466 150.902 272.306L73 317.293L77.6889 320L155.408 275.12C164.153 278.959 174.047 279.251 183.003 275.935L259.311 320L264 317.293L187.84 273.313C189.158 272.51 190.294 271.441 191.177 270.176C192.061 268.911 192.671 267.476 192.971 265.962Z" fill="#3A0155"/>
</g>
<path d="M85.5056 22.3136L88.2449 20.7224L100.35 17L97.611 18.5911L85.5056 22.3136Z" fill="#D473F1"/>
<path d="M97.6111 18.5911L100.35 17L161.199 52.1386L158.46 53.7298L97.6111 18.5911Z" fill="#E180FF"/>
<path d="M158.46 53.7298L161.199 52.1387L161.14 73.5297L158.398 75.1208L158.46 53.7298Z" fill="#D473F1"/>
<path d="M85.5056 22.3133L97.611 18.5908L158.46 53.7295L158.398 75.1205L97.5524 39.9818L85.5056 22.3133Z" fill="#962DCC"/>
<path d="M98.9091 38.5181L88.6028 23.4006L97.3703 20.7031L156.511 54.8526L156.462 71.7532L98.9091 38.5181Z" fill="#ED9AD5"/>
<path d="M165.357 65.2677L158.902 61.5387V56.6807L165.357 60.4064V65.2677Z" fill="#962DCC"/>
<path d="M167.312 64.1386L165.356 65.2677V60.4064L167.312 59.2773V64.1386Z" fill="#D473F1"/>
<path d="M165.357 60.4065L158.902 56.6809L160.857 55.5518L167.312 59.2775L165.357 60.4065Z" fill="#E180FF"/>
<path d="M165.357 75.2276L158.902 71.5019V66.6406L165.357 70.3696V75.2276Z" fill="#962DCC"/>
<path d="M167.312 74.0983L165.356 75.2274V70.3693L167.312 69.2402V74.0983Z" fill="#D473F1"/>
<path d="M165.357 70.3698L158.902 66.6408L160.857 65.5117L167.312 69.2407L165.357 70.3698Z" fill="#E180FF"/>
<path d="M254.951 46.5255L252.212 44.9344L240.103 41.2119L242.842 42.8031L254.951 46.5255Z" fill="#EDA4FF"/>
<path d="M242.842 42.8031L240.103 41.2119L179.254 76.3506L181.994 77.9417L242.842 42.8031Z" fill="#E180FF"/>
<path d="M181.994 77.9417L179.254 76.3506L179.316 97.7416L182.055 99.3327L181.994 77.9417Z" fill="#962DCC"/>
<path d="M254.951 46.5252L242.842 42.8027L181.994 77.9414L182.055 99.3324L242.904 64.1937L254.951 46.5252Z" fill="#D473F1"/>
<path d="M241.545 62.73L251.854 47.6125L243.083 44.915L183.946 79.0645L183.991 95.9652L241.545 62.73Z" fill="#FECFC4"/>
<path d="M175.097 89.4796L181.551 85.7539V80.8926L175.097 84.6183V89.4796Z" fill="#D473F1"/>
<path d="M173.145 88.3502L175.097 89.4793V84.618L173.145 83.4922V88.3502Z" fill="#962DCC"/>
<path d="M175.097 84.6185L181.551 80.8928L179.599 79.7637L173.145 83.4926L175.097 84.6185Z" fill="#E180FF"/>
<path d="M175.097 99.4405L181.551 95.7148V90.8535L175.097 94.5825V99.4405Z" fill="#D473F1"/>
<path d="M173.145 98.3144L175.097 99.4403V94.5822L173.145 93.4531V98.3144Z" fill="#962DCC"/>
<path d="M175.097 94.5827L181.551 90.8537L179.599 89.7246L173.145 93.4536L175.097 94.5827Z" fill="#E180FF"/>
<path d="M206.28 77.554L205.365 78.0825C205.214 78.1697 205.139 78.1378 205.139 77.9868V71.5135C205.139 71.4388 205.16 71.3656 205.201 71.3025C205.241 71.2393 205.298 71.1888 205.365 71.1566L207.992 69.6393C208.175 69.4973 208.386 69.3973 208.611 69.3463C208.836 69.2953 209.07 69.2947 209.296 69.3445C209.604 69.4714 209.758 69.815 209.758 70.3753V71.4087C209.76 71.9645 209.599 72.5085 209.296 72.9742C208.966 73.4774 208.519 73.8928 207.992 74.1846L206.636 74.9679C206.598 74.9849 206.566 75.0121 206.543 75.0464C206.52 75.0807 206.507 75.1208 206.506 75.1621V77.1974C206.506 77.2721 206.484 77.3451 206.444 77.4082C206.404 77.4713 206.347 77.5218 206.28 77.554ZM206.624 73.7789L207.766 73.1193C207.96 73.0191 208.126 72.8731 208.251 72.694C208.349 72.5243 208.398 72.3304 208.391 72.1344V71.2288C208.391 70.9994 208.344 70.8634 208.251 70.8198C208.157 70.7775 207.996 70.8217 207.766 70.9542L206.624 71.6137C206.589 71.6307 206.559 71.6574 206.538 71.6905C206.517 71.7236 206.506 71.762 206.506 71.8012V73.7287C206.506 73.8079 206.545 73.8247 206.624 73.7789Z" fill="white"/>
<path d="M214.616 72.7401L211.073 74.7861C210.922 74.8733 210.847 74.8414 210.847 74.6904V68.2172C210.847 68.1425 210.869 68.0693 210.909 68.0062C210.949 67.9431 211.005 67.8925 211.073 67.8602L211.988 67.3321C212.139 67.2449 212.214 67.2767 212.214 67.4274V72.8133C212.214 72.892 212.257 72.9067 212.344 72.8566L214.616 71.5442C214.759 71.4619 214.831 71.4993 214.831 71.6572V72.3899C214.832 72.4626 214.812 72.534 214.774 72.5959C214.736 72.6578 214.681 72.7078 214.616 72.7401Z" fill="white"/>
<path d="M216.403 71.7083L215.369 72.3054C215.24 72.3799 215.197 72.3292 215.24 72.1534L216.941 64.6978C216.965 64.6108 217.006 64.5294 217.061 64.4585C217.117 64.3875 217.186 64.3285 217.265 64.2849L218.697 63.4578C218.876 63.354 218.984 63.3671 219.02 63.4972L220.722 68.9881C220.745 69.0452 220.743 69.1089 220.719 69.1652C220.695 69.2215 220.649 69.266 220.592 69.2891L219.558 69.8862C219.479 69.9317 219.426 69.947 219.397 69.931C219.332 69.7908 219.03 68.7795 219.03 68.7795L216.931 69.9922L216.629 71.3514C216.621 71.4283 216.597 71.5027 216.559 71.57C216.519 71.628 216.466 71.6755 216.403 71.7083ZM217.965 65.184L217.189 68.7447L218.784 67.8238L218.008 65.1592L217.965 65.184Z" fill="white"/>
<path d="M222.8 68.014L221.906 68.53C221.756 68.6172 221.68 68.5855 221.68 68.4347V61.9611C221.681 61.8864 221.702 61.8134 221.742 61.7503C221.782 61.6873 221.839 61.6367 221.906 61.6045L222.713 61.1382C222.864 61.0513 222.965 61.0429 223.015 61.1148L225.191 63.9405C225.234 63.9157 225.234 59.9089 225.234 59.9089C225.234 59.8342 225.256 59.7612 225.296 59.6981C225.336 59.635 225.393 59.5845 225.46 59.5523L226.354 59.0359C226.505 58.9491 226.58 58.981 226.58 59.1315V65.6051C226.58 65.6798 226.558 65.7528 226.518 65.8159C226.478 65.879 226.421 65.9295 226.354 65.9618L225.568 66.4157C225.409 66.5074 225.294 66.502 225.223 66.3994L223.069 63.6362C223.026 63.6609 223.026 67.6573 223.026 67.6573C223.026 67.732 223.004 67.805 222.964 67.8681C222.924 67.9312 222.868 67.9817 222.8 68.014Z" fill="white"/>
<path d="M148.778 260.819V264.5C148.977 266.35 149.657 268.116 150.751 269.622C151.846 271.128 153.315 272.32 155.014 273.08C159.679 275.448 164.837 276.682 170.069 276.682C175.301 276.682 180.459 275.448 185.125 273.08C186.863 272.313 188.36 271.088 189.458 269.538C190.556 267.987 191.213 266.168 191.36 264.273V260.592L148.778 260.819Z" fill="url(#paint0_linear_400_3870)"/>
<path style="mix-blend-mode:multiply" opacity="0.4" d="M160.059 260.759L148.778 260.819V264.5C148.977 266.351 149.657 268.117 150.751 269.622C151.846 271.128 153.315 272.32 155.014 273.081C156.609 273.98 158.302 274.695 160.059 275.213V260.759Z" fill="url(#paint1_linear_400_3870)"/>
<path d="M185.125 269.4C180.459 271.767 175.301 273.001 170.069 273.001C164.837 273.001 159.679 271.767 155.014 269.4C146.699 264.598 146.699 256.813 155.014 252.011C159.679 249.644 164.837 248.41 170.069 248.41C175.301 248.41 180.459 249.644 185.125 252.011C189.675 254.639 191.735 258.16 191.305 261.597C190.951 263.288 190.208 264.873 189.135 266.227C188.062 267.581 186.689 268.668 185.125 269.4Z" fill="url(#paint2_linear_400_3870)"/>
<path d="M155.013 269.4C169.548 277.941 190.193 271.879 191.305 261.597C189.126 271.584 169.442 276.026 155.013 269.4Z" fill="url(#paint3_radial_400_3870)"/>
<path d="M155.488 224.072V259.342C155.625 260.609 156.09 261.819 156.84 262.85C157.589 263.881 158.595 264.697 159.758 265.218C162.954 266.839 166.486 267.684 170.069 267.684C173.652 267.684 177.185 266.839 180.38 265.218C181.57 264.692 182.596 263.854 183.347 262.792C184.099 261.73 184.549 260.484 184.65 259.186V223.917L155.488 224.072Z" fill="url(#paint4_linear_400_3870)"/>
<path style="mix-blend-mode:multiply" opacity="0.4" d="M163.214 224.031L155.488 224.072V259.342C155.625 260.609 156.09 261.819 156.84 262.85C157.589 263.881 158.595 264.697 159.758 265.218C160.851 265.834 162.01 266.324 163.214 266.678V224.031Z" fill="url(#paint5_linear_400_3870)"/>
<path d="M180.38 229.948C177.185 231.57 173.652 232.415 170.069 232.415C166.486 232.415 162.954 231.57 159.758 229.948C154.064 226.66 154.064 221.329 159.758 218.04C162.954 216.419 166.486 215.574 170.069 215.574C173.652 215.574 177.185 216.419 180.38 218.04C181.664 218.581 182.755 219.497 183.51 220.668C184.266 221.84 184.65 223.212 184.613 224.605C184.37 225.763 183.861 226.849 183.126 227.776C182.392 228.703 181.451 229.447 180.38 229.948Z" fill="url(#paint6_linear_400_3870)"/>
<path d="M159.758 229.949C169.712 235.798 183.851 231.647 184.612 224.605C183.12 231.445 169.639 234.487 159.758 229.949Z" fill="url(#paint7_radial_400_3870)"/>
<path d="M157.846 218.368V223.111C157.96 224.174 158.35 225.188 158.979 226.052C159.607 226.916 160.45 227.601 161.426 228.038C164.104 229.397 167.065 230.105 170.069 230.105C173.073 230.105 176.034 229.397 178.712 228.038C179.71 227.597 180.57 226.894 181.2 226.004C181.83 225.113 182.208 224.069 182.292 222.981V218.238L157.846 218.368Z" fill="url(#paint8_linear_400_3870)"/>
<path style="mix-blend-mode:multiply" opacity="0.4" d="M164.677 218.332L157.846 218.368V223.111C157.96 224.174 158.35 225.188 158.979 226.052C159.607 226.916 160.45 227.601 161.426 228.038C162.451 228.615 163.543 229.065 164.677 229.376V218.332Z" fill="url(#paint9_linear_400_3870)"/>
<path d="M178.712 223.295C176.034 224.654 173.073 225.362 170.069 225.362C167.065 225.362 164.104 224.654 161.426 223.295C156.652 220.539 156.652 216.069 161.426 213.313C164.104 211.953 167.065 211.245 170.069 211.245C173.073 211.245 176.034 211.953 178.712 213.313C179.772 213.763 180.675 214.517 181.308 215.479C181.941 216.441 182.276 217.568 182.271 218.72C182.085 219.711 181.665 220.643 181.046 221.439C180.427 222.235 179.627 222.871 178.712 223.295Z" fill="url(#paint10_linear_400_3870)"/>
<path d="M182.272 218.72C181.132 224.357 169.926 227.135 161.426 223.295C169.539 228.132 181.787 224.861 182.272 218.72Z" fill="url(#paint11_radial_400_3870)"/>
<path d="M163.506 58.6712V218.059C163.568 218.63 163.777 219.174 164.115 219.638C164.452 220.102 164.905 220.47 165.428 220.704C166.867 221.434 168.456 221.814 170.069 221.814C171.682 221.814 173.271 221.434 174.71 220.704C175.245 220.467 175.707 220.09 176.045 219.612C176.384 219.134 176.586 218.574 176.632 217.99V58.6016L163.506 58.6712Z" fill="url(#paint12_linear_400_3870)"/>
<path d="M174.71 61.3164C173.271 62.046 171.681 62.4263 170.069 62.4263C168.456 62.4263 166.867 62.046 165.428 61.3164C164.868 61.1268 164.381 60.7663 164.036 60.2856C163.692 59.8048 163.506 59.2281 163.506 58.6365C163.506 58.0449 163.692 57.4681 164.036 56.9874C164.381 56.5067 164.868 56.1461 165.428 55.9566C166.867 55.2269 168.456 54.8467 170.069 54.8467C171.681 54.8467 173.271 55.2269 174.71 55.9566C175.287 56.2 175.779 56.6123 176.119 57.1394C176.458 57.6666 176.631 58.2841 176.615 58.9111C176.505 59.4323 176.276 59.921 175.946 60.3384C175.615 60.7559 175.192 61.0907 174.71 61.3164Z" fill="url(#paint13_linear_400_3870)"/>
<path d="M165.428 61.3164C169.909 63.9491 176.272 62.0807 176.615 58.9111C175.943 61.99 169.876 63.3589 165.428 61.3164Z" fill="url(#paint14_radial_400_3870)"/>
<path d="M165.998 35.0608V58.3153C166.036 58.6692 166.166 59.007 166.375 59.295C166.584 59.5829 166.865 59.8109 167.19 59.9563C168.082 60.409 169.069 60.645 170.069 60.645C171.069 60.645 172.056 60.409 172.948 59.9563C173.28 59.8094 173.567 59.5753 173.777 59.2788C173.987 58.9822 174.112 58.6344 174.141 58.2721V35.0176L165.998 35.0608Z" fill="url(#paint15_linear_400_3870)"/>
<path d="M172.948 36.7013C172.056 37.1541 171.07 37.39 170.069 37.39C169.069 37.39 168.082 37.1541 167.19 36.7013C166.842 36.5838 166.541 36.3601 166.327 36.0619C166.113 35.7636 165.998 35.4058 165.998 35.0387C165.998 34.6717 166.113 34.3139 166.327 34.0156C166.541 33.7174 166.842 33.4938 167.19 33.3762C168.082 32.9235 169.069 32.6875 170.069 32.6875C171.07 32.6875 172.056 32.9235 172.948 33.3762C173.307 33.5272 173.611 33.7829 173.822 34.1099C174.033 34.437 174.14 34.8201 174.13 35.2091C174.062 35.5325 173.92 35.8357 173.715 36.0947C173.51 36.3536 173.247 36.5613 172.948 36.7013Z" fill="url(#paint16_linear_400_3870)"/>
<path d="M179.524 40.0026C179.524 41.873 178.969 43.7013 177.93 45.2564C176.891 46.8115 175.415 48.0236 173.687 48.7393C171.959 49.455 170.058 49.6422 168.224 49.2773C166.39 48.9124 164.706 48.0117 163.383 46.6892C162.061 45.3666 161.161 43.6816 160.796 41.8472C160.431 40.0128 160.618 38.1114 161.334 36.3834C162.05 34.6555 163.262 33.1786 164.816 32.1395C166.371 31.1004 168.199 30.5459 170.069 30.5459C172.577 30.546 174.982 31.5423 176.755 33.3158C178.528 35.0893 179.524 37.4946 179.524 40.0026Z" fill="url(#paint17_radial_400_3870)"/>
<path style="mix-blend-mode:screen" opacity="0.7" d="M176.535 35.8424C176.535 38.1397 173.932 40.0022 170.722 40.0022C167.512 40.0022 164.909 38.1397 164.909 35.8424C164.909 33.5452 167.512 31.6826 170.722 31.6826C173.932 31.6826 176.535 33.5452 176.535 35.8424Z" fill="url(#paint18_linear_400_3870)"/>
<path d="M179.765 73.588L173.311 69.859V65.001L179.765 68.7267V73.588Z" fill="#962DCC"/>
<path d="M181.717 72.459L179.765 73.5881V68.7268L181.717 67.5977V72.459Z" fill="#D473F1"/>
<path d="M179.765 68.7269L173.311 65.0012L175.263 63.8721L181.717 67.5978L179.765 68.7269Z" fill="#E180FF"/>
<path d="M179.765 83.5479L173.311 79.8222V74.9609L179.765 78.6899V83.5479Z" fill="#962DCC"/>
<path d="M181.717 82.4186L179.765 83.5477V78.6896L181.717 77.5605V82.4186Z" fill="#D473F1"/>
<path d="M179.765 78.6901L173.311 74.9611L175.263 73.832L181.717 77.561L179.765 78.6901Z" fill="#E180FF"/>
<path d="M179.316 65.7728L182.056 64.1816L242.904 99.3203L240.165 100.911L179.316 65.7728Z" fill="#E180FF"/>
<path d="M240.165 100.911L242.904 99.3203L254.951 116.989L252.212 118.58L240.165 100.911Z" fill="#EDA4FF"/>
<path d="M240.165 100.911L252.212 118.58L240.103 122.302L179.254 87.1635L179.316 65.7725L240.165 100.911Z" fill="#962DCC"/>
<path d="M181.207 86.0413L181.252 69.1406L238.805 102.376L249.115 117.497L240.341 120.191L181.207 86.0413Z" fill="#ED9AD5"/>
<path d="M160.691 97.7999L167.146 94.0709V89.2129L160.691 92.9386V97.7999Z" fill="#D473F1"/>
<path d="M158.736 96.6705L160.691 97.7996V92.9383L158.736 91.8125V96.6705Z" fill="#962DCC"/>
<path d="M160.691 92.9388L167.146 89.2131L165.191 88.084L158.736 91.8129L160.691 92.9388Z" fill="#E180FF"/>
<path d="M160.691 107.76L167.146 104.034V99.1729L160.691 102.902V107.76Z" fill="#D473F1"/>
<path d="M158.736 106.631L160.691 107.76V102.902L158.736 101.772V106.631Z" fill="#962DCC"/>
<path d="M160.691 102.902L167.146 99.173L165.191 98.0439L158.736 101.773L160.691 102.902Z" fill="#E180FF"/>
<path d="M161.141 89.9847L158.398 88.3936L97.5525 123.532L100.292 125.123L161.141 89.9847Z" fill="#E180FF"/>
<path d="M100.292 125.123L97.5524 123.532L85.5056 141.201L88.2449 142.792L100.292 125.123Z" fill="#962DCC"/>
<path d="M100.292 125.123L88.2449 142.792L100.35 146.514L161.199 111.375L161.14 89.9844L100.292 125.123Z" fill="#D473F1"/>
<path d="M159.25 110.253L159.202 93.3525L101.648 126.588L91.342 141.708L100.113 144.403L159.25 110.253Z" fill="#FECFC4"/>
<path d="M114.286 130.737L113.144 131.396C112.96 131.539 112.747 131.641 112.521 131.694C112.294 131.747 112.058 131.75 111.83 131.703C111.521 131.58 111.367 131.234 111.367 130.666V127.252C111.364 126.695 111.525 126.148 111.83 125.682C112.164 125.178 112.615 124.763 113.144 124.47L114.286 123.811C114.468 123.669 114.679 123.569 114.904 123.518C115.13 123.467 115.363 123.467 115.589 123.516C115.897 123.643 116.052 123.987 116.052 124.547V124.87C116.053 124.946 116.032 125.021 115.992 125.086C115.952 125.151 115.894 125.204 115.825 125.238L114.911 125.766C114.76 125.853 114.685 125.818 114.685 125.659V125.401C114.685 125.171 114.637 125.035 114.544 124.992C114.451 124.949 114.289 124.993 114.06 125.126L113.36 125.53C113.168 125.631 113.004 125.776 112.88 125.953C112.778 126.126 112.727 126.325 112.735 126.527V129.812C112.735 130.043 112.784 130.177 112.88 130.218C112.977 130.259 113.137 130.216 113.36 130.087L114.06 129.683C114.253 129.582 114.42 129.436 114.544 129.257C114.643 129.083 114.692 128.886 114.685 128.686V128.008C114.685 127.929 114.644 127.912 114.565 127.958L113.919 128.331C113.769 128.418 113.693 128.386 113.693 128.236V127.503C113.694 127.428 113.715 127.355 113.755 127.292C113.795 127.229 113.852 127.178 113.919 127.146L115.804 126.058C115.969 125.962 116.052 125.998 116.052 126.163V127.962C116.053 128.517 115.892 129.061 115.589 129.527C115.259 130.03 114.812 130.445 114.286 130.737Z" fill="white"/>
<path d="M118.486 128.311L117.571 128.84C117.42 128.927 117.345 128.895 117.344 128.744V122.271C117.345 122.196 117.366 122.123 117.406 122.06C117.446 121.997 117.503 121.946 117.571 121.914L120.133 120.434C120.317 120.292 120.53 120.192 120.757 120.14C120.984 120.089 121.22 120.089 121.447 120.138C121.763 120.265 121.922 120.608 121.921 121.168V122.009C121.918 122.417 121.832 122.82 121.667 123.193C121.502 123.566 121.262 123.901 120.962 124.178C120.962 124.221 122.115 125.957 122.115 125.957C122.18 126.092 122.118 126.214 121.932 126.322L121.06 126.825C120.975 126.882 120.88 126.922 120.78 126.944C120.722 126.948 120.676 126.914 120.64 126.841L119.563 125.137L118.841 125.553C118.804 125.57 118.772 125.597 118.749 125.631C118.726 125.666 118.713 125.706 118.712 125.747V127.955C118.711 128.029 118.69 128.102 118.65 128.165C118.61 128.229 118.553 128.279 118.486 128.311ZM118.83 124.461L119.886 123.851C120.085 123.745 120.258 123.595 120.392 123.413C120.502 123.247 120.558 123.051 120.554 122.852V122.011C120.554 121.789 120.499 121.658 120.392 121.621C120.302 121.61 120.212 121.616 120.125 121.641C120.038 121.665 119.957 121.706 119.886 121.761L118.83 122.371C118.795 122.388 118.765 122.415 118.744 122.448C118.723 122.481 118.712 122.519 118.712 122.558V124.411C118.712 124.49 118.751 124.506 118.83 124.461Z" fill="white"/>
<path d="M126.11 123.909L124.903 124.606C124.72 124.749 124.507 124.85 124.28 124.903C124.053 124.956 123.818 124.959 123.59 124.912C123.281 124.789 123.127 124.443 123.127 123.876V120.461C123.124 119.904 123.285 119.358 123.59 118.891C123.924 118.387 124.375 117.972 124.903 117.68L126.11 116.983C126.294 116.84 126.507 116.738 126.734 116.686C126.961 116.633 127.196 116.63 127.424 116.677C127.733 116.8 127.887 117.145 127.887 117.713V121.127C127.89 121.685 127.729 122.231 127.424 122.698C127.09 123.201 126.639 123.617 126.11 123.909ZM125.119 123.296L125.884 122.854C126.08 122.752 126.248 122.605 126.374 122.426C126.477 122.252 126.527 122.053 126.52 121.852V118.566C126.52 118.336 126.471 118.202 126.374 118.16C126.277 118.12 126.114 118.165 125.884 118.298L125.119 118.74C124.926 118.84 124.759 118.986 124.634 119.165C124.536 119.339 124.487 119.536 124.494 119.736V123.021C124.494 123.252 124.542 123.387 124.634 123.43C124.728 123.473 124.89 123.428 125.119 123.296Z" fill="white"/>
<path d="M131.57 120.755L130.062 121.627C129.904 121.718 129.814 121.694 129.793 121.556L128.64 115.748C128.62 115.609 128.695 115.49 128.866 115.391L129.987 114.744C130.152 114.649 130.238 114.674 130.245 114.821L130.87 119.771C130.945 119.727 131.979 113.787 131.979 113.787C131.989 113.719 132.014 113.654 132.054 113.598C132.093 113.541 132.145 113.495 132.206 113.463L133.412 112.766C133.548 112.688 133.627 112.703 133.648 112.813L134.703 117.557C134.79 117.507 135.404 111.853 135.404 111.853C135.409 111.771 135.435 111.692 135.481 111.624C135.526 111.557 135.589 111.502 135.662 111.467L136.782 110.82C136.955 110.72 137.03 110.756 137.008 110.926L135.845 118.061C135.837 118.138 135.81 118.211 135.767 118.276C135.724 118.34 135.665 118.393 135.597 118.43L134.079 119.307C133.929 119.394 133.842 119.368 133.821 119.23L132.852 114.738C132.809 114.762 131.829 120.38 131.829 120.38C131.817 120.458 131.788 120.533 131.743 120.598C131.699 120.663 131.639 120.717 131.57 120.755Z" fill="white"/>
<path d="M140.014 115.88L139.109 116.402C138.952 116.493 138.873 116.464 138.873 116.313V110.917C138.873 110.837 138.832 110.821 138.753 110.866L137.526 111.574C137.375 111.662 137.3 111.63 137.3 111.479V110.748C137.3 110.673 137.321 110.6 137.362 110.536C137.402 110.473 137.459 110.423 137.526 110.39L141.596 108.04C141.747 107.953 141.823 107.985 141.823 108.136V108.868C141.822 108.942 141.801 109.015 141.761 109.078C141.721 109.141 141.664 109.192 141.596 109.224L140.37 109.933C140.332 109.95 140.3 109.977 140.277 110.011C140.254 110.046 140.241 110.086 140.24 110.127V115.523C140.239 115.598 140.218 115.671 140.178 115.734C140.138 115.797 140.081 115.848 140.014 115.88Z" fill="white"/>
<path d="M143.782 113.704L142.867 114.232C142.717 114.319 142.641 114.287 142.641 114.137V107.663C142.642 107.588 142.663 107.515 142.703 107.452C142.743 107.389 142.8 107.339 142.867 107.306L143.782 106.778C143.933 106.691 144.008 106.723 144.008 106.874V109.405C144.008 109.484 144.051 109.498 144.138 109.448L145.958 108.398C145.993 108.381 146.023 108.354 146.044 108.321C146.065 108.288 146.076 108.25 146.077 108.211V105.679C146.077 105.604 146.099 105.531 146.139 105.468C146.179 105.405 146.236 105.355 146.303 105.322L147.218 104.794C147.369 104.707 147.444 104.739 147.444 104.89V111.363C147.443 111.438 147.422 111.511 147.382 111.574C147.342 111.637 147.285 111.688 147.218 111.72L146.303 112.248C146.152 112.335 146.077 112.303 146.077 112.153V109.632C146.077 109.553 146.037 109.536 145.958 109.582L144.138 110.633C144.101 110.65 144.069 110.677 144.046 110.711C144.023 110.745 144.01 110.785 144.008 110.827V113.347C144.008 113.422 143.987 113.495 143.947 113.558C143.907 113.621 143.85 113.671 143.782 113.704Z" fill="white"/>
<path d="M200.458 92.3157L199.047 91.5009C198.976 91.4624 198.914 91.4078 198.868 91.3416C198.821 91.2754 198.79 91.1993 198.778 91.1192L197.109 83.703C197.058 83.5091 197.13 83.4681 197.324 83.58L198.336 84.1644C198.405 84.2028 198.465 84.2566 198.51 84.3218C198.554 84.3869 198.584 84.4616 198.595 84.5399L199.726 90.4932C199.769 90.5179 200.9 85.8711 200.9 85.8711C200.929 85.737 201.015 85.711 201.158 85.7943L202.17 86.3786C202.35 86.4824 202.422 86.6063 202.386 86.7502L200.717 92.2386C200.68 92.3687 200.595 92.3944 200.458 92.3157Z" fill="#F6E4F7"/>
<path d="M204.669 88.0475V94.5211C204.669 94.6721 204.594 94.7036 204.443 94.6168L203.527 94.088C203.46 94.0557 203.403 94.0051 203.363 93.942C203.323 93.8789 203.302 93.8058 203.301 93.731V87.2574C203.301 87.1068 203.377 87.075 203.527 87.1621L204.443 87.6909C204.511 87.7231 204.568 87.7736 204.608 87.8367C204.648 87.8997 204.669 87.9728 204.669 88.0475Z" fill="#F6E4F7"/>
<path d="M205.95 93.7209V93.5052C205.95 93.3545 206.026 93.3226 206.177 93.4095L207.092 93.9386C207.16 93.9708 207.217 94.0213 207.257 94.0844C207.297 94.1475 207.318 94.2205 207.318 94.2952C207.297 94.5522 207.353 94.8098 207.48 95.0345C207.638 95.2408 207.841 95.4091 208.072 95.5271L208.578 95.8193C208.859 95.9814 209.054 96.0406 209.165 95.997C209.277 95.9534 209.333 95.7852 209.333 95.4907C209.347 95.2161 209.256 94.9464 209.079 94.7361C208.899 94.5169 208.687 94.3268 208.449 94.1722C208.197 94.0059 207.926 93.8082 207.636 93.579C207.345 93.3496 207.074 93.1142 206.823 92.8726C206.554 92.6049 206.34 92.2874 206.193 91.9378C206.022 91.5472 205.936 91.1248 205.94 90.6984V90.3216C205.94 89.7613 206.098 89.4179 206.413 89.2914C206.641 89.2419 206.876 89.2427 207.103 89.2939C207.33 89.345 207.543 89.4453 207.728 89.5875L208.804 90.209C209.338 90.5059 209.793 90.9273 210.129 91.4373C210.438 91.9054 210.603 92.4537 210.603 93.0145V93.2195C210.603 93.3705 210.528 93.4024 210.376 93.3145L209.461 92.7864C209.394 92.7541 209.337 92.7035 209.297 92.6404C209.257 92.5772 209.236 92.5042 209.235 92.4294C209.255 92.1759 209.199 91.9222 209.074 91.7009C208.916 91.4943 208.713 91.3257 208.481 91.2073L208.062 90.9649C207.767 90.7947 207.567 90.7355 207.464 90.7869C207.36 90.838 207.307 91.0251 207.307 91.3479V91.5529C207.307 91.8903 207.602 92.254 208.191 92.6442C208.774 93.0257 209.319 93.463 209.817 93.95C210.082 94.2229 210.295 94.5413 210.446 94.89C210.617 95.2694 210.703 95.6811 210.7 96.0969V96.4633C210.7 97.0236 210.542 97.3669 210.226 97.4931C209.998 97.5428 209.763 97.5421 209.536 97.491C209.309 97.4399 209.096 97.3397 208.912 97.1974L207.738 96.5196C207.208 96.2243 206.758 95.8052 206.424 95.2981C206.115 94.8301 205.951 94.2817 205.95 93.7209Z" fill="#F6E4F7"/>
<path d="M213.349 93.0606V99.5338C213.349 99.6848 213.274 99.7167 213.123 99.6295L212.208 99.1007C212.14 99.0684 212.083 99.0178 212.043 98.9547C212.003 98.8916 211.982 98.8185 211.981 98.7438V92.2705C211.981 92.1195 212.057 92.0876 212.208 92.1748L213.123 92.7036C213.191 92.7359 213.248 92.7864 213.288 92.8495C213.328 92.9127 213.349 92.9858 213.349 93.0606Z" fill="#F6E4F7"/>
<path d="M217.679 102.26L216.472 101.563C215.943 101.271 215.492 100.856 215.158 100.352C214.853 99.8853 214.692 99.339 214.695 98.7813V95.3673C214.695 94.8002 214.85 94.4547 215.158 94.331C215.386 94.284 215.622 94.287 215.849 94.3399C216.075 94.3927 216.288 94.4942 216.472 94.6372L217.679 95.3341C218.208 95.6262 218.658 96.0417 218.993 96.5452C219.297 97.0122 219.458 97.5583 219.455 98.1159V101.53C219.455 102.097 219.301 102.443 218.993 102.566C218.764 102.613 218.529 102.61 218.302 102.557C218.075 102.504 217.863 102.403 217.679 102.26ZM216.688 100.503L217.452 100.944C217.682 101.077 217.845 101.123 217.942 101.082C218.039 101.041 218.088 100.906 218.088 100.676V97.3903C218.095 97.189 218.045 96.9898 217.942 96.8163C217.815 96.6366 217.647 96.4898 217.452 96.3878L216.688 95.9459C216.458 95.8134 216.297 95.7695 216.203 95.8115C216.11 95.8554 216.063 95.9911 216.063 96.2208V99.5059C216.055 99.7057 216.104 99.9036 216.203 100.077C216.327 100.256 216.494 100.402 216.688 100.503Z" fill="#F6E4F7"/>
<path d="M221.868 104.679L220.974 104.163C220.907 104.131 220.85 104.08 220.81 104.017C220.77 103.954 220.748 103.881 220.748 103.806V97.3329C220.748 97.1819 220.823 97.1503 220.974 97.2372L221.781 97.7035C221.917 97.7733 222.023 97.8882 222.083 98.0282L224.259 103.367C224.302 103.392 224.302 99.3851 224.302 99.3851C224.302 99.2341 224.377 99.2025 224.528 99.2894L225.422 99.8058C225.489 99.838 225.546 99.8886 225.586 99.9516C225.626 100.015 225.648 100.088 225.648 100.162V106.636C225.648 106.787 225.573 106.818 225.422 106.731L224.636 106.277C224.475 106.184 224.353 106.037 224.291 105.863L222.137 100.612C222.094 100.587 222.094 104.584 222.094 104.584C222.094 104.734 222.019 104.766 221.868 104.679Z" fill="#F6E4F7"/>
<path d="M106.071 35.9777V35.762C106.071 35.6113 106.146 35.5796 106.297 35.6667L107.213 36.1954C107.28 36.2277 107.337 36.2782 107.377 36.3412C107.417 36.4043 107.438 36.4773 107.439 36.552C107.417 36.8091 107.473 37.0666 107.6 37.2913C107.758 37.4977 107.961 37.6661 108.193 37.7843L108.698 38.0762C108.978 38.2382 109.174 38.2974 109.285 38.2538C109.397 38.2106 109.453 38.042 109.453 37.7475C109.467 37.473 109.376 37.2034 109.199 36.993C109.019 36.774 108.807 36.5839 108.569 36.429C108.318 36.2628 108.047 36.065 107.756 35.8359C107.465 35.6065 107.194 35.3711 106.943 35.1298C106.674 34.8619 106.46 34.5442 106.313 34.1946C106.142 33.804 106.056 33.3816 106.06 32.9552V32.5784C106.06 32.0184 106.218 31.675 106.533 31.5482C106.761 31.4987 106.996 31.4996 107.223 31.5508C107.451 31.602 107.664 31.7023 107.848 31.8447L108.924 32.4661C109.458 32.7628 109.913 33.184 110.249 33.6941C110.558 34.1622 110.723 34.7105 110.723 35.2713V35.4766C110.723 35.6273 110.648 35.6589 110.496 35.5716L109.582 35.0432C109.514 35.011 109.457 34.9605 109.417 34.8974C109.377 34.8343 109.356 34.7613 109.355 34.6866C109.375 34.433 109.319 34.1793 109.194 33.9577C109.036 33.7511 108.834 33.5825 108.602 33.4641L108.182 33.2217C107.887 33.0515 107.688 32.9923 107.584 33.044C107.48 33.0951 107.427 33.2819 107.427 33.6047V33.8097C107.427 34.1471 107.722 34.5109 108.311 34.901C108.894 35.2824 109.439 35.7197 109.937 36.2068C110.202 36.4797 110.415 36.7981 110.567 37.1468C110.737 37.5262 110.823 37.9379 110.82 38.3537V38.7204C110.82 39.2804 110.662 39.6236 110.346 39.7499C110.119 39.7996 109.883 39.799 109.656 39.7479C109.429 39.6968 109.216 39.5965 109.032 39.4542L107.858 38.7764C107.328 38.4811 106.878 38.0621 106.545 37.5549C106.236 37.0869 106.071 36.5385 106.071 35.9777Z" fill="#F6E4F7"/>
<path d="M115.59 36.3157L116.495 36.8382C116.564 36.8691 116.622 36.9184 116.664 36.9807C116.706 37.0429 116.729 37.1157 116.732 37.1907V42.145C116.732 42.7053 116.576 43.0478 116.263 43.1726C116.036 43.2212 115.802 43.2198 115.576 43.1683C115.35 43.1168 115.138 43.0165 114.955 42.8745L113.771 42.1909C113.242 41.8987 112.791 41.4832 112.457 40.9798C112.152 40.5127 111.99 39.9664 111.993 39.4085V34.4649C111.993 34.3139 112.069 34.282 112.219 34.3692L113.135 34.898C113.203 34.9302 113.26 34.9808 113.3 35.0438C113.34 35.1069 113.361 35.1799 113.361 35.2546V40.1338C113.354 40.3351 113.404 40.5344 113.507 40.7077C113.63 40.885 113.795 41.0299 113.986 41.1301L114.728 41.5586C114.959 41.692 115.122 41.7379 115.219 41.6966C115.316 41.6559 115.364 41.5209 115.364 41.2902V36.411C115.364 36.2603 115.439 36.2286 115.59 36.3157Z" fill="#F6E4F7"/>
<path d="M120.921 46.3196L119.747 45.6415C119.218 45.3493 118.767 44.9339 118.433 44.4304C118.128 43.9636 117.967 43.4174 117.97 42.8598V39.4455C117.97 38.8783 118.125 38.5328 118.433 38.4091C118.661 38.3621 118.897 38.3652 119.124 38.4181C119.351 38.471 119.563 38.5725 119.747 38.7156L120.921 39.3938C121.449 39.687 121.897 40.1031 122.23 40.6068C122.536 41.0726 122.698 41.618 122.698 42.1755V42.6811C122.698 42.8399 122.619 42.8731 122.461 42.782L121.557 42.2598C121.488 42.226 121.431 42.1734 121.391 42.1083C121.351 42.0432 121.33 41.9682 121.331 41.8918V41.4499C121.338 41.2486 121.287 41.0495 121.185 40.8759C121.058 40.6963 120.89 40.5494 120.695 40.4473L119.963 40.0243C119.74 39.8958 119.58 39.8529 119.483 39.8929C119.387 39.9345 119.338 40.0693 119.338 40.299V43.5844C119.33 43.7857 119.381 43.9849 119.483 44.1584C119.607 44.3357 119.771 44.4805 119.963 44.5808L120.695 45.0037C120.925 45.1365 121.088 45.1824 121.185 45.1414C121.281 45.1004 121.331 44.9657 121.331 44.7353V44.2944C121.331 44.1356 121.406 44.0999 121.557 44.1873L122.461 44.7096C122.532 44.7435 122.591 44.7965 122.633 44.8627C122.675 44.9289 122.697 45.0055 122.698 45.0838V45.5898C122.698 46.1498 122.542 46.4924 122.23 46.6177C122.003 46.6662 121.769 46.6647 121.543 46.6132C121.317 46.5617 121.105 46.4615 120.921 46.3196Z" fill="#F6E4F7"/>
<path d="M126.715 49.665L125.541 48.9869C125.012 48.6949 124.561 48.2795 124.227 47.7761C123.922 47.309 123.762 46.7628 123.764 46.2052V42.7909C123.764 42.2237 123.919 41.8784 124.227 41.7548C124.455 41.7078 124.691 41.7108 124.918 41.7637C125.145 41.8166 125.357 41.918 125.541 42.061L126.715 42.7391C127.243 43.0322 127.692 43.4485 128.024 43.9525C128.33 44.4181 128.493 44.9635 128.492 45.5208V46.0265C128.492 46.1853 128.413 46.219 128.255 46.1277L127.351 45.6052C127.282 45.5714 127.225 45.519 127.184 45.4539C127.144 45.3887 127.124 45.3136 127.124 45.2371V44.7953C127.132 44.594 127.081 44.3948 126.979 44.2212C126.852 44.0416 126.684 43.8949 126.489 43.7931L125.756 43.3697C125.534 43.2412 125.374 43.1982 125.277 43.2386C125.181 43.2802 125.131 43.415 125.131 43.6444V46.9298C125.124 47.1313 125.175 47.3306 125.277 47.5041C125.401 47.6811 125.565 47.8259 125.756 47.9264L126.489 48.3495C126.719 48.4819 126.882 48.5277 126.979 48.4868C127.076 48.4461 127.124 48.3114 127.124 48.0807V47.6398C127.124 47.4814 127.2 47.4457 127.351 47.5327L128.255 48.0553C128.326 48.0891 128.385 48.1422 128.427 48.2084C128.469 48.2746 128.491 48.3512 128.492 48.4295V48.9351C128.492 49.4951 128.336 49.8378 128.024 49.9631C127.797 50.0116 127.562 50.01 127.336 49.9585C127.11 49.9071 126.898 49.8069 126.715 49.665Z" fill="#F6E4F7"/>
<path d="M133.413 53.5335L129.892 51.4998C129.825 51.4676 129.768 51.4171 129.728 51.354C129.688 51.2909 129.666 51.2179 129.666 51.1432V44.6696C129.666 44.5189 129.741 44.4871 129.892 44.5742L133.413 46.6076C133.479 46.6398 133.534 46.6898 133.572 46.7519C133.61 46.8139 133.63 46.8855 133.629 46.9584V47.6902C133.629 47.8408 133.557 47.875 133.413 47.7917L131.163 46.4921C131.076 46.4419 131.033 46.4576 131.033 46.5366V47.9365C131.035 47.9776 131.048 48.0174 131.071 48.0516C131.094 48.0857 131.125 48.1128 131.163 48.1298L133.004 49.1928C133.072 49.225 133.129 49.2756 133.169 49.3388C133.209 49.4019 133.23 49.475 133.23 49.5498V50.2825C133.23 50.4332 133.155 50.4651 133.004 50.3782L131.163 49.3148C131.076 49.2647 131.033 49.2793 131.033 49.3581V50.8555C131.035 50.8966 131.048 50.9365 131.071 50.9706C131.094 51.0048 131.125 51.0318 131.163 51.0488L133.413 52.3484C133.479 52.3806 133.534 52.4305 133.572 52.4925C133.61 52.5545 133.63 52.626 133.629 52.6988V53.4316C133.629 53.5826 133.557 53.6165 133.413 53.5335Z" fill="#F6E4F7"/>
<path d="M134.652 52.4825V52.2671C134.652 52.1161 134.727 52.0842 134.878 52.1714L135.794 52.7002C135.861 52.7325 135.918 52.783 135.958 52.8461C135.998 52.9091 136.02 52.9822 136.02 53.0568C135.999 53.3139 136.055 53.5714 136.181 53.7961C136.34 54.0025 136.542 54.171 136.774 54.2891L137.279 54.581C137.56 54.743 137.756 54.8023 137.867 54.759C137.978 54.7154 138.034 54.5471 138.034 54.2523C138.048 53.9778 137.958 53.7081 137.781 53.4977C137.601 53.2788 137.388 53.0887 137.151 52.9342C136.899 52.7679 136.628 52.5702 136.337 52.341C136.047 52.1116 135.775 51.8761 135.524 51.6346C135.256 51.3667 135.042 51.0492 134.895 50.6997C134.724 50.3091 134.638 49.8867 134.642 49.4603V49.0832C134.642 48.5232 134.799 48.1798 135.115 48.053C135.342 48.0036 135.578 48.0045 135.805 48.0557C136.032 48.1069 136.245 48.2072 136.429 48.3495L137.506 48.9709C138.04 49.2676 138.494 49.6889 138.831 50.1989C139.14 50.6671 139.304 51.2154 139.305 51.7761V51.9814C139.305 52.1321 139.229 52.1638 139.078 52.0764L138.163 51.548C138.096 51.5158 138.039 51.4653 137.999 51.4022C137.959 51.3392 137.937 51.2661 137.937 51.1914C137.957 50.9379 137.901 50.6842 137.776 50.4628C137.617 50.2561 137.415 50.0874 137.183 49.9689L136.763 49.7265C136.469 49.5563 136.269 49.4971 136.166 49.5488C136.061 49.5999 136.009 49.787 136.009 50.1095V50.3145C136.009 50.6522 136.303 51.016 136.892 51.4058C137.476 51.7873 138.02 52.2246 138.519 52.7116C138.784 52.9845 138.997 53.303 139.148 53.6517C139.318 54.0312 139.405 54.4429 139.401 54.8588V55.2252C139.401 55.7852 139.243 56.1284 138.927 56.2547C138.7 56.3045 138.465 56.3038 138.238 56.2527C138.011 56.2016 137.798 56.1013 137.614 55.959L136.44 55.2815C135.91 54.9863 135.459 54.5671 135.126 54.06C134.817 53.5919 134.652 53.0434 134.652 52.4825Z" fill="#F6E4F7"/>
<path d="M140.457 55.8341V55.6187C140.457 55.4677 140.532 55.4358 140.683 55.523L141.598 56.0518C141.666 56.084 141.723 56.1346 141.763 56.1977C141.803 56.2608 141.824 56.334 141.825 56.4087C141.803 56.6656 141.859 56.9231 141.986 57.1477C142.144 57.3541 142.347 57.5226 142.578 57.6406L143.084 57.9325C143.364 58.0945 143.56 58.1539 143.671 58.1105C143.782 58.0669 143.839 57.8987 143.839 57.6039C143.853 57.3293 143.762 57.0596 143.585 56.8493C143.405 56.6304 143.193 56.4404 142.955 56.2857C142.703 56.1195 142.432 55.9217 142.142 55.6925C141.851 55.4631 141.58 55.2277 141.328 54.9861C141.06 54.7183 140.846 54.4008 140.699 54.0513C140.528 53.6607 140.442 53.2382 140.446 52.8119V52.4348C140.446 51.8748 140.604 51.5314 140.919 51.4046C141.147 51.3551 141.382 51.3561 141.609 51.4073C141.836 51.4585 142.05 51.5587 142.234 51.701L143.31 52.3225C143.844 52.6192 144.299 53.0405 144.635 53.5505C144.944 54.0186 145.109 54.5669 145.109 55.1277V55.333C145.109 55.4837 145.034 55.5153 144.882 55.428L143.967 54.8996C143.9 54.8673 143.843 54.8168 143.803 54.7537C143.763 54.6907 143.742 54.6176 143.741 54.543C143.761 54.2895 143.705 54.0357 143.58 53.8144C143.422 53.6078 143.219 53.439 142.988 53.3205L142.568 53.078C142.273 52.9082 142.074 52.849 141.97 52.9004C141.866 52.9515 141.813 53.1386 141.813 53.461V53.6663C141.813 54.0038 142.108 54.3674 142.697 54.7574C143.28 55.1389 143.825 55.5762 144.323 56.0632C144.588 56.3362 144.801 56.6547 144.953 57.0035C145.123 57.3829 145.209 57.7946 145.206 58.2104V58.5768C145.206 59.1368 145.048 59.4799 144.732 59.6063C144.504 59.6561 144.269 59.6554 144.042 59.6043C143.815 59.5532 143.602 59.4529 143.418 59.3105L142.245 58.6331C141.715 58.3378 141.264 57.9187 140.931 57.4116C140.622 56.9435 140.457 56.395 140.457 55.8341Z" fill="#F6E4F7"/>
</g>
<defs>
<linearGradient id="paint0_linear_400_3870" x1="148.778" y1="268.637" x2="191.361" y2="268.637" gradientUnits="userSpaceOnUse">
<stop stop-color="#ED9AD5"/>
<stop offset="0.25518" stop-color="#EFA1D3"/>
<stop offset="0.63036" stop-color="#F6B5CC"/>
<stop offset="1" stop-color="#FECFC4"/>
</linearGradient>
<linearGradient id="paint1_linear_400_3870" x1="148.778" y1="267.986" x2="191.361" y2="267.986" gradientUnits="userSpaceOnUse">
<stop stop-color="#BD7AA8"/>
<stop offset="1" stop-color="#FECFC4"/>
</linearGradient>
<linearGradient id="paint2_linear_400_3870" x1="148.777" y1="260.705" x2="191.361" y2="260.705" gradientUnits="userSpaceOnUse">
<stop stop-color="#FCBFD1"/>
<stop offset="0.77561" stop-color="#FEE4BF"/>
<stop offset="1" stop-color="#FFF0B9"/>
</linearGradient>
<radialGradient id="paint3_radial_400_3870" cx="0" cy="0" r="1" gradientUnits="userSpaceOnUse" gradientTransform="translate(184.42 269.782) scale(33.7139 33.7205)">
<stop stop-color="#FFF0B9"/>
<stop offset="0.22439" stop-color="#FEE4BF"/>
<stop offset="1" stop-color="#FCBFD1"/>
</radialGradient>
<linearGradient id="paint4_linear_400_3870" x1="155.488" y1="245.801" x2="184.651" y2="245.801" gradientUnits="userSpaceOnUse">
<stop stop-color="#ED9AD5"/>
<stop offset="0.25518" stop-color="#EFA1D3"/>
<stop offset="0.63036" stop-color="#F6B5CC"/>
<stop offset="1" stop-color="#FECFC4"/>
</linearGradient>
<linearGradient id="paint5_linear_400_3870" x1="155.488" y1="245.355" x2="184.65" y2="245.355" gradientUnits="userSpaceOnUse">
<stop stop-color="#BD7AA8"/>
<stop offset="1" stop-color="#FECFC4"/>
</linearGradient>
<linearGradient id="paint6_linear_400_3870" x1="155.488" y1="223.994" x2="184.651" y2="223.994" gradientUnits="userSpaceOnUse">
<stop stop-color="#FCBFD1"/>
<stop offset="0.77561" stop-color="#FEE4BF"/>
<stop offset="1" stop-color="#FFF0B9"/>
</linearGradient>
<radialGradient id="paint7_radial_400_3870" cx="0" cy="0" r="1" gradientUnits="userSpaceOnUse" gradientTransform="translate(179.898 230.211) scale(23.0888 23.0933)">
<stop stop-color="#FFF0B9"/>
<stop offset="0.22439" stop-color="#FEE4BF"/>
<stop offset="1" stop-color="#FCBFD1"/>
</radialGradient>
<linearGradient id="paint8_linear_400_3870" x1="157.846" y1="224.172" x2="182.293" y2="224.172" gradientUnits="userSpaceOnUse">
<stop stop-color="#ED9AD5"/>
<stop offset="0.25518" stop-color="#EFA1D3"/>
<stop offset="0.63036" stop-color="#F6B5CC"/>
<stop offset="1" stop-color="#FECFC4"/>
</linearGradient>
<linearGradient id="paint9_linear_400_3870" x1="157.846" y1="223.854" x2="182.292" y2="223.854" gradientUnits="userSpaceOnUse">
<stop stop-color="#BD7AA8"/>
<stop offset="1" stop-color="#FECFC4"/>
</linearGradient>
<linearGradient id="paint10_linear_400_3870" x1="157.845" y1="218.304" x2="182.293" y2="218.304" gradientUnits="userSpaceOnUse">
<stop stop-color="#FCBFD1"/>
<stop offset="0.77561" stop-color="#FEE4BF"/>
<stop offset="1" stop-color="#FFF0B9"/>
</linearGradient>
<radialGradient id="paint11_radial_400_3870" cx="0" cy="0" r="1" gradientUnits="userSpaceOnUse" gradientTransform="translate(177.91 223.267) scale(21.4026 21.4066)">
<stop stop-color="#FFF0B9"/>
<stop offset="0.22439" stop-color="#FEE4BF"/>
<stop offset="1" stop-color="#FCBFD1"/>
</radialGradient>
<linearGradient id="paint12_linear_400_3870" x1="163.506" y1="140.208" x2="176.632" y2="140.208" gradientUnits="userSpaceOnUse">
<stop stop-color="#ED9AD5"/>
<stop offset="0.25518" stop-color="#EFA1D3"/>
<stop offset="0.63036" stop-color="#F6B5CC"/>
<stop offset="1" stop-color="#FECFC4"/>
</linearGradient>
<linearGradient id="paint13_linear_400_3870" x1="163.506" y1="58.6365" x2="176.632" y2="58.6365" gradientUnits="userSpaceOnUse">
<stop stop-color="#FCBFD1"/>
<stop offset="0.77561" stop-color="#FEE4BF"/>
<stop offset="1" stop-color="#FFF0B9"/>
</linearGradient>
<radialGradient id="paint14_radial_400_3870" cx="0" cy="0" r="1" gradientUnits="userSpaceOnUse" gradientTransform="translate(174.493 61.4343) scale(10.3919 10.3939)">
<stop stop-color="#FFF0B9"/>
<stop offset="0.98162" stop-color="#FCC0D1"/>
<stop offset="1" stop-color="#FCBFD1"/>
</radialGradient>
<linearGradient id="paint15_linear_400_3870" x1="165.998" y1="47.8313" x2="174.141" y2="47.8313" gradientUnits="userSpaceOnUse">
<stop stop-color="#962DCC"/>
<stop offset="0.21113" stop-color="#9C34D0"/>
<stop offset="0.52232" stop-color="#AE48DA"/>
<stop offset="0.8938" stop-color="#CB68EB"/>
<stop offset="1" stop-color="#D473F1"/>
</linearGradient>
<linearGradient id="paint16_linear_400_3870" x1="165.998" y1="35.0388" x2="174.141" y2="35.0388" gradientUnits="userSpaceOnUse">
<stop stop-color="#FCBFD1"/>
<stop offset="0.77561" stop-color="#FEE4BF"/>
<stop offset="1" stop-color="#FFF0B9"/>
</linearGradient>
<radialGradient id="paint17_radial_400_3870" cx="0" cy="0" r="1" gradientUnits="userSpaceOnUse" gradientTransform="translate(176.087 32.5403) scale(19.2891 19.2928)">
<stop stop-color="#EDA4FF"/>
<stop offset="0.30884" stop-color="#E799FC"/>
<stop offset="0.84706" stop-color="#D97CF4"/>
<stop offset="1" stop-color="#D473F1"/>
</radialGradient>
<linearGradient id="paint18_linear_400_3870" x1="171.634" y1="31.2457" x2="169.464" y2="42.1753" gradientUnits="userSpaceOnUse">
<stop stop-color="#FECFC4"/>
<stop offset="0.11671" stop-color="#F8C4BF"/>
<stop offset="0.32086" stop-color="#E8A7B3"/>
<stop offset="0.58812" stop-color="#CF78A0"/>
<stop offset="0.90504" stop-color="#AC3885"/>
<stop offset="1" stop-color="#A1237C"/>
</linearGradient>
<clipPath id="clip0_400_3870">
<rect width="191" height="303" fill="white" transform="translate(73 17)"/>
</clipPath>
</defs>
</svg>
