<svg width="38" height="38" viewBox="0 0 38 38" fill="none" xmlns="http://www.w3.org/2000/svg">
<g clip-path="url(#clip0_359_2154)">
<path d="M10.4815 6.04618C16.3371 6.08957 20.9714 10.7917 20.9313 16.6484C20.8922 22.429 16.1492 27.0729 10.3379 27.0221C4.57093 26.9723 -0.0548982 22.2131 -4.74049e-06 16.3881C0.0548887 10.6975 4.81056 6.00385 10.4815 6.04618ZM11.3629 22.3475C11.3629 22.6978 11.3587 23.0005 11.364 23.3021C11.3724 23.7487 11.6047 24.009 11.9847 24.0111C12.3647 24.0133 12.6107 23.7519 12.6244 23.3116C12.635 22.9698 12.6265 22.6279 12.6265 22.2681C13.9102 21.9062 14.7706 21.1135 15.0651 19.8139C15.3638 18.4973 14.8835 17.4168 13.8891 16.5468C14.9141 15.6515 15.3596 14.5699 15.0609 13.266C14.7642 11.9685 13.8891 11.1896 12.6265 10.8287C12.6265 10.4964 12.6318 10.1937 12.6255 9.89106C12.6149 9.42857 12.3647 9.15341 11.9752 9.16187C11.5994 9.16928 11.3724 9.43386 11.3651 9.88259C11.3598 10.1694 11.3651 10.4562 11.3651 10.7494H10.055C10.055 10.4446 10.0603 10.1694 10.0539 9.89423C10.0434 9.43598 9.82698 9.17669 9.45328 9.16293C9.05953 9.14812 8.80934 9.41481 8.79351 9.88259C8.78401 10.1683 8.79139 10.4551 8.79139 10.7811C8.34169 10.7811 7.93632 10.7769 7.53201 10.7811C7.00947 10.7875 6.78145 11.0086 6.78145 11.5272C6.77828 14.8789 6.77828 18.2306 6.78145 21.5823C6.78145 22.0956 7.01475 22.32 7.53623 22.3284C7.94055 22.3348 8.34486 22.3295 8.79351 22.3295C8.79351 22.6988 8.77978 23.0259 8.79667 23.3518C8.81779 23.7698 9.06692 24.0154 9.43323 24.0133C9.79848 24.0111 10.0371 23.7603 10.0508 23.3402C10.0624 23.0142 10.0529 22.6882 10.0529 22.3485H11.364L11.3629 22.3475Z" fill="url(#paint0_linear_359_2154)"/>
<path d="M16.1693 29.6353C16.3013 28.9728 16.4554 28.1208 16.6444 27.2763C16.7806 26.6709 17.1025 26.2053 17.6314 25.8222C18.7282 25.0274 19.6023 24.005 20.337 22.8631C20.4373 22.7065 20.5957 22.5625 20.7603 22.4768C21.5595 22.0588 22.4124 21.808 23.3076 21.6863C23.5515 21.6535 23.6792 21.7117 23.8101 21.9254C25.041 23.9331 26.7986 25.2369 29.0968 25.746C29.8083 25.9037 30.5546 25.9185 31.2862 25.9576C31.5195 25.9703 31.6335 26.0296 31.7359 26.2328C34.1375 30.9465 31.1468 36.9483 25.933 37.8669C21.4444 38.6575 17.3664 35.9206 16.3984 31.4524C16.2844 30.9275 16.2591 30.3825 16.1672 29.6374L16.1693 29.6353ZM27.8785 31.8631C27.8247 31.699 27.7909 31.5583 27.735 31.426C26.844 29.3728 25.9467 27.3218 25.0589 25.2676C24.927 24.9628 24.7401 24.7395 24.3949 24.7427C24.0497 24.7459 23.8692 24.9766 23.7383 25.2803C22.8568 27.3229 21.9722 29.3644 21.0728 31.3995C20.9155 31.754 20.9409 32.0451 21.1552 32.3594C22.0429 33.6675 22.917 34.984 23.8038 36.2932C24.1606 36.8202 24.6451 36.816 25.0051 36.2836C25.8918 34.9756 26.7733 33.6622 27.6495 32.3467C27.7487 32.1975 27.8057 32.0186 27.8785 31.862V31.8631Z" fill="url(#paint1_linear_359_2154)"/>
<path d="M24.6947 12.7412C23.4639 12.7021 22.3301 12.3666 21.304 11.6903C21.1594 11.5951 21.0274 11.4438 20.9483 11.2892C20.3909 10.1854 19.6731 9.20329 18.8349 8.29631C18.647 8.09417 18.5498 7.76715 18.5002 7.48246C17.8046 3.44497 20.8765 -0.10251 24.9629 0.00226368C28.1066 0.0837542 30.7721 2.64594 31.0349 5.83995C31.2989 9.04242 29.0567 12.0227 25.9467 12.5899C25.534 12.6651 25.1128 12.6915 24.6947 12.7412ZM25.3524 9.88273C25.4411 9.86262 25.4907 9.84781 25.5403 9.84146C26.7543 9.69858 27.5376 8.82759 27.489 7.67402C27.4415 6.55432 26.5284 5.72671 25.3207 5.71295C24.8995 5.70766 24.4783 5.71719 24.0571 5.70978C23.5357 5.70131 23.2105 5.39334 23.2116 4.92239C23.2116 4.45673 23.5388 4.14135 24.0582 4.12653C24.4921 4.11489 24.927 4.11489 25.3619 4.12653C25.8781 4.14029 26.1463 4.39429 26.2254 4.9171C26.2919 5.35524 26.5506 5.58701 26.9306 5.54574C27.298 5.50658 27.5123 5.20602 27.4859 4.77105C27.4331 3.90534 26.7881 3.13595 25.9383 2.93063C25.7515 2.88512 25.5604 2.85972 25.3535 2.82057C25.3535 2.64383 25.3535 2.4872 25.3535 2.33057C25.3535 2.15912 25.3619 1.98661 25.3493 1.81622C25.3197 1.41724 25.0526 1.16641 24.6863 1.18229C24.3379 1.19711 24.1046 1.44793 24.092 1.83951C24.0814 2.16653 24.0899 2.4946 24.0899 2.83327C23.9664 2.84808 23.8766 2.85761 23.7869 2.87031C22.6172 3.04281 21.8804 3.93815 21.9501 5.10019C22.0155 6.17332 22.9054 6.96918 24.0571 6.97976C24.5174 6.98399 24.9798 6.96494 25.439 6.98929C25.9151 7.01363 26.2392 7.37346 26.2244 7.8116C26.2096 8.24339 25.8992 8.55242 25.4263 8.57253C25.0326 8.58946 24.6367 8.58206 24.2419 8.57994C23.5209 8.57676 23.3467 8.43283 23.2063 7.72905C23.1313 7.35758 22.8484 7.12581 22.5148 7.16179C22.1718 7.19883 21.9554 7.46553 21.9532 7.85393C21.948 8.80536 22.7239 9.688 23.6813 9.8224C23.808 9.8404 23.9357 9.85521 24.0888 9.87426C24.0888 10.1907 24.0856 10.4786 24.0888 10.7675C24.0941 11.2374 24.3274 11.5221 24.7064 11.5295C25.097 11.5358 25.3461 11.2374 25.3514 10.7495C25.3545 10.4627 25.3514 10.1759 25.3514 9.88273H25.3524Z" fill="url(#paint2_linear_359_2154)"/>
<path d="M23.8892 17.6746C23.9051 16.3814 24.1532 15.2701 24.7232 14.2478C24.8003 14.1092 25.0093 13.9758 25.1676 13.9631C27.5724 13.7705 29.4778 12.6995 30.8882 10.7437C31.0286 10.549 31.1637 10.4781 31.4065 10.4971C35.2765 10.8146 38.1003 13.9504 37.9969 17.8302C37.8902 21.8666 34.1754 25.0797 30.1935 24.5812C26.8883 24.1674 24.4656 21.8211 23.9568 18.534C23.9061 18.2091 23.903 17.8768 23.8882 17.6746H23.8892ZM33.3436 16.5772C33.6476 15.3707 33.3647 14.3526 32.3323 13.6456C31.4762 13.0604 30.5356 13.0307 29.6478 13.5715C28.5151 14.2616 28.2121 15.3199 28.5077 16.5825C27.2905 16.9486 26.5621 17.7318 26.4977 18.9965C26.445 20.0474 26.9263 20.8782 27.869 21.3523C29.0059 21.9238 30.0352 21.6603 30.9314 20.785C31.8076 21.6486 32.8126 21.909 33.9316 21.3798C34.889 20.9279 35.3894 20.1098 35.362 19.06C35.3271 17.7583 34.5861 16.9529 33.3436 16.5772Z" fill="url(#paint3_linear_359_2154)"/>
<path d="M8.07028 17.2024V21.0493C9.44895 21.0493 10.8033 21.098 12.1525 21.0335C13.1595 20.9848 13.8932 20.1 13.89 19.1169C13.8869 18.1633 13.1711 17.2659 12.22 17.2203C10.8456 17.1537 9.46584 17.2034 8.07028 17.2034V17.2024ZM8.05444 15.8773C8.11989 15.8985 8.14417 15.9133 8.16845 15.9133C9.40461 15.9165 10.6408 15.9218 11.8769 15.9186C13.0255 15.9144 13.8932 15.073 13.89 13.9798C13.8869 12.8855 13.0191 12.0526 11.8674 12.0483C10.7104 12.0441 9.5524 12.0462 8.39542 12.0483C8.28352 12.0483 8.17162 12.0632 8.05444 12.0716V15.8773Z" fill="url(#paint4_linear_359_2154)"/>
<path d="M30.9366 17.0613C31.6408 17.057 32.215 16.4686 32.2024 15.7648C32.1897 15.0759 31.6218 14.5054 30.9409 14.4991C30.242 14.4927 29.6572 15.0748 29.6561 15.7796C29.654 16.4887 30.2304 17.0644 30.9366 17.0602V17.0613ZM32.8495 20.3706C33.5525 20.3643 34.1279 19.7706 34.1099 19.071C34.093 18.3778 33.5272 17.8201 32.8389 17.818C32.1274 17.8158 31.5637 18.3842 31.5669 19.1006C31.57 19.8224 32.1306 20.377 32.8484 20.3706H32.8495ZM29.028 20.3579C29.7374 20.3569 30.3022 19.7769 30.2906 19.0636C30.279 18.3693 29.7121 17.8148 29.0185 17.818C28.3239 17.8222 27.7602 18.3789 27.7497 19.0721C27.7391 19.7737 28.3218 20.359 29.028 20.3579Z" fill="url(#paint5_linear_359_2154)"/>
<path d="M8.07031 17.2024C9.46587 17.2024 10.8456 17.1527 12.22 17.2193C13.1701 17.2648 13.8869 18.1623 13.8901 19.1158C13.8932 20.099 13.1596 20.9848 12.1525 21.0325C10.8034 21.097 9.45004 21.0483 8.07031 21.0483V17.2013V17.2024Z" fill="url(#paint6_linear_359_2154)"/>
<path d="M8.05566 15.8773V12.0716C8.17178 12.0632 8.28474 12.0483 8.39664 12.0483C9.55362 12.0462 10.7117 12.0441 11.8686 12.0483C13.0204 12.0526 13.8881 12.8844 13.8913 13.9798C13.8944 15.073 13.0267 15.9154 11.8781 15.9186C10.642 15.9228 9.40583 15.9165 8.16967 15.9133C8.14539 15.9133 8.12111 15.8985 8.05566 15.8773Z" fill="url(#paint7_linear_359_2154)"/>
<path d="M26.3701 31.4687C25.7166 31.6909 25.1234 31.8962 24.5259 32.092C24.4456 32.1185 24.3422 32.1153 24.262 32.0888C23.6645 31.892 23.0712 31.6856 22.4272 31.4655C23.0765 29.9711 23.7162 28.498 24.396 26.9316C25.0706 28.4831 25.7082 29.9468 26.3701 31.4687Z" fill="url(#paint8_linear_359_2154)"/>
<path d="M24.398 34.9141C23.9694 34.2706 23.5978 33.7161 23.2273 33.1604C23.2347 33.1276 23.2421 33.0959 23.2495 33.0631C24.0127 33.4779 24.7738 33.5319 25.5307 33.0557C25.5455 33.0895 25.5603 33.1234 25.5761 33.1562C25.1918 33.7298 24.8065 34.3034 24.398 34.913V34.9141Z" fill="url(#paint9_linear_359_2154)"/>
<path d="M30.9368 17.0612C30.2305 17.0654 29.6541 16.4886 29.6563 15.7806C29.6584 15.0758 30.2432 14.4937 30.941 14.5001C31.6219 14.5064 32.1898 15.0768 32.2025 15.7658C32.2151 16.4696 31.6398 17.058 30.9368 17.0622V17.0612Z" fill="url(#paint10_linear_359_2154)"/>
<path d="M32.8494 20.3701C32.1316 20.3764 31.5721 19.8218 31.5679 19.1001C31.5647 18.3836 32.1274 17.8153 32.8399 17.8174C33.5282 17.8195 34.093 18.3772 34.1109 19.0704C34.1278 19.771 33.5525 20.3637 32.8505 20.3701H32.8494Z" fill="url(#paint11_linear_359_2154)"/>
<path d="M29.028 20.3574C28.3218 20.3584 27.7391 19.7732 27.7497 19.0715C27.7602 18.3783 28.3239 17.8206 29.0185 17.8174C29.7121 17.8142 30.279 18.3688 30.2906 19.063C30.3022 19.7763 29.7374 20.3563 29.028 20.3574Z" fill="url(#paint12_linear_359_2154)"/>
</g>
<defs>
<linearGradient id="paint0_linear_359_2154" x1="-4.74045e-06" y1="16.5341" x2="20.9323" y2="16.5341" gradientUnits="userSpaceOnUse">
<stop stop-color="#00A7A5"/>
<stop offset="0.16" stop-color="#6D8671"/>
<stop offset="0.4" stop-color="#A56649"/>
<stop offset="0.75" stop-color="#D67746"/>
<stop offset="1" stop-color="#FDC89D"/>
</linearGradient>
<linearGradient id="paint1_linear_359_2154" x1="16.1693" y1="29.8385" x2="32.5783" y2="29.8385" gradientUnits="userSpaceOnUse">
<stop stop-color="#00A7A5"/>
<stop offset="0.16" stop-color="#6D8671"/>
<stop offset="0.4" stop-color="#A56649"/>
<stop offset="0.75" stop-color="#D67746"/>
<stop offset="1" stop-color="#FDC89D"/>
</linearGradient>
<linearGradient id="paint2_linear_359_2154" x1="18.4021" y1="6.37123" x2="31.0561" y2="6.37123" gradientUnits="userSpaceOnUse">
<stop stop-color="#00A7A5"/>
<stop offset="0.16" stop-color="#6D8671"/>
<stop offset="0.4" stop-color="#A56649"/>
<stop offset="0.75" stop-color="#D67746"/>
<stop offset="1" stop-color="#FDC89D"/>
</linearGradient>
<linearGradient id="paint3_linear_359_2154" x1="23.8892" y1="17.5635" x2="38" y2="17.5635" gradientUnits="userSpaceOnUse">
<stop stop-color="#00A7A5"/>
<stop offset="0.16" stop-color="#6D8671"/>
<stop offset="0.4" stop-color="#A56649"/>
<stop offset="0.75" stop-color="#D67746"/>
<stop offset="1" stop-color="#FDC89D"/>
</linearGradient>
<linearGradient id="paint4_linear_359_2154" x1="8.0555" y1="16.5568" x2="13.89" y2="16.5568" gradientUnits="userSpaceOnUse">
<stop stop-color="#00A7A5"/>
<stop offset="0.16" stop-color="#6D8671"/>
<stop offset="0.4" stop-color="#A56649"/>
<stop offset="0.75" stop-color="#D67746"/>
<stop offset="1" stop-color="#FDC89D"/>
</linearGradient>
<linearGradient id="paint5_linear_359_2154" x1="27.7497" y1="17.4359" x2="34.111" y2="17.4359" gradientUnits="userSpaceOnUse">
<stop stop-color="#00A7A5"/>
<stop offset="0.16" stop-color="#6D8671"/>
<stop offset="0.4" stop-color="#A56649"/>
<stop offset="0.75" stop-color="#D67746"/>
<stop offset="1" stop-color="#FDC89D"/>
</linearGradient>
<linearGradient id="paint6_linear_359_2154" x1="8.07031" y1="19.1264" x2="13.8901" y2="19.1264" gradientUnits="userSpaceOnUse">
<stop stop-color="#00A7A5"/>
<stop offset="0.16" stop-color="#6D8671"/>
<stop offset="0.4" stop-color="#A56649"/>
<stop offset="0.75" stop-color="#D67746"/>
<stop offset="1" stop-color="#FDC89D"/>
</linearGradient>
<linearGradient id="paint7_linear_359_2154" x1="8.05566" y1="13.983" x2="13.8902" y2="13.983" gradientUnits="userSpaceOnUse">
<stop stop-color="#00A7A5"/>
<stop offset="0.16" stop-color="#6D8671"/>
<stop offset="0.4" stop-color="#A56649"/>
<stop offset="0.75" stop-color="#D67746"/>
<stop offset="1" stop-color="#FDC89D"/>
</linearGradient>
<linearGradient id="paint8_linear_359_2154" x1="22.4272" y1="29.5203" x2="26.3701" y2="29.5203" gradientUnits="userSpaceOnUse">
<stop stop-color="#00A7A5"/>
<stop offset="0.16" stop-color="#6D8671"/>
<stop offset="0.4" stop-color="#A56649"/>
<stop offset="0.75" stop-color="#D67746"/>
<stop offset="1" stop-color="#FDC89D"/>
</linearGradient>
<linearGradient id="paint9_linear_359_2154" x1="23.2273" y1="33.9849" x2="25.5761" y2="33.9849" gradientUnits="userSpaceOnUse">
<stop stop-color="#00A7A5"/>
<stop offset="0.16" stop-color="#6D8671"/>
<stop offset="0.4" stop-color="#A56649"/>
<stop offset="0.75" stop-color="#D67746"/>
<stop offset="1" stop-color="#FDC89D"/>
</linearGradient>
<linearGradient id="paint10_linear_359_2154" x1="29.6563" y1="15.7806" x2="32.2025" y2="15.7806" gradientUnits="userSpaceOnUse">
<stop stop-color="#00A7A5"/>
<stop offset="0.16" stop-color="#6D8671"/>
<stop offset="0.4" stop-color="#A56649"/>
<stop offset="0.75" stop-color="#D67746"/>
<stop offset="1" stop-color="#FDC89D"/>
</linearGradient>
<linearGradient id="paint11_linear_359_2154" x1="31.5679" y1="19.0937" x2="34.1109" y2="19.0937" gradientUnits="userSpaceOnUse">
<stop stop-color="#00A7A5"/>
<stop offset="0.16" stop-color="#6D8671"/>
<stop offset="0.4" stop-color="#A56649"/>
<stop offset="0.75" stop-color="#D67746"/>
<stop offset="1" stop-color="#FDC89D"/>
</linearGradient>
<linearGradient id="paint12_linear_359_2154" x1="27.7497" y1="19.0884" x2="30.2906" y2="19.0884" gradientUnits="userSpaceOnUse">
<stop stop-color="#00A7A5"/>
<stop offset="0.16" stop-color="#6D8671"/>
<stop offset="0.4" stop-color="#A56649"/>
<stop offset="0.75" stop-color="#D67746"/>
<stop offset="1" stop-color="#FDC89D"/>
</linearGradient>
<clipPath id="clip0_359_2154">
<rect width="38" height="38" fill="white"/>
</clipPath>
</defs>
</svg>
