<svg width="37" height="34" viewBox="0 0 37 34" fill="none" xmlns="http://www.w3.org/2000/svg">
<g id="_&#229;&#156;&#150;&#229;&#177;&#164;_1" clip-path="url(#clip0_359_2168)">
<path id="Vector" d="M18.5023 5.65332C23.0669 5.66496 27.081 7.26134 30.6991 9.99708C33.1783 11.8727 35.2418 14.1462 36.9385 16.7613C37.0033 16.8618 37.0242 17.0755 36.9636 17.1644C33.9881 21.5007 30.3167 25.0288 25.3884 26.9722C19.6797 29.2234 14.1194 28.6892 8.79621 25.689C5.15827 23.6377 2.34257 20.6819 0.0565838 17.1877C-0.0040137 17.0956 -0.021775 16.8978 0.0346433 16.8163C3.23064 12.1711 7.21022 8.50649 12.5909 6.62659C14.5018 5.95905 16.4775 5.6438 18.5033 5.65438L18.5023 5.65332ZM26.5701 16.9983C26.5722 12.4832 22.9886 8.83761 18.5315 8.82069C14.063 8.80376 10.4407 12.4556 10.4376 16.9814C10.4344 21.4923 14.0295 25.1505 18.4761 25.159C22.952 25.1685 26.569 21.5219 26.5711 16.9972L26.5701 16.9983Z" fill="url(#paint0_linear_359_2168)"/>
<path id="Vector_2" d="M5.59458 2.87988C6.30503 3.59926 7.04683 4.35037 7.78549 5.09831C7.44907 5.42097 7.07504 5.77854 6.72712 6.11178C6.03443 5.40722 5.2895 4.64976 4.54248 3.89124C4.87368 3.57281 5.24562 3.21524 5.59458 2.87988Z" fill="url(#paint1_linear_359_2168)"/>
<path id="Vector_3" d="M31.4437 2.83789C31.776 3.19123 32.1228 3.56044 32.4383 3.8958C31.7143 4.62681 30.9642 5.38321 30.2203 6.13326C29.9173 5.82541 29.5527 5.45515 29.21 5.1071C29.9392 4.36656 30.6789 3.61545 31.4437 2.83789Z" fill="url(#paint2_linear_359_2168)"/>
<path id="Vector_4" d="M5.54447 31.1379C5.22686 30.8036 4.8779 30.4365 4.57178 30.1149C5.29059 29.386 6.03761 28.6286 6.78463 27.8711C7.06672 28.1726 7.41986 28.5492 7.74165 28.893C7.03433 29.6156 6.29045 30.3752 5.54343 31.139L5.54447 31.1379Z" fill="url(#paint3_linear_359_2168)"/>
<path id="Vector_5" d="M31.3634 31.1369C30.6508 30.4133 29.9174 29.6686 29.2007 28.9407C29.5695 28.58 29.9467 28.2108 30.3082 27.8574C30.9988 28.5588 31.7395 29.312 32.4625 30.0462C32.1125 30.3932 31.7468 30.7571 31.3634 31.1369Z" fill="url(#paint4_linear_359_2168)"/>
<path id="Vector_6" d="M19.2629 3.21497H17.7417V0H19.2629V3.21497Z" fill="url(#paint5_linear_359_2168)"/>
<path id="Vector_7" d="M17.73 33.9999V30.7754H19.2742V33.9999H17.73Z" fill="url(#paint6_linear_359_2168)"/>
<path id="Vector_8" d="M19.3067 12.1623C19.2325 13.3186 19.4018 14.3871 20.2554 15.2376C21.0943 16.0744 22.137 16.2405 23.2403 16.1728C23.5736 18.2569 22.5894 20.178 20.9627 21.1619C19.1312 22.2695 16.8954 22.0304 15.2812 20.5546C13.7401 19.1455 13.2679 16.8678 14.1277 14.9827C15.0346 12.9938 17.1022 11.8502 19.3067 12.1623Z" fill="url(#paint7_linear_359_2168)"/>
</g>
<defs>
<linearGradient id="paint0_linear_359_2168" x1="0.000165437" y1="17.0057" x2="37.0002" y2="17.0057" gradientUnits="userSpaceOnUse">
<stop stop-color="#00A7A5"/>
<stop offset="0.16" stop-color="#6D8671"/>
<stop offset="0.4" stop-color="#A56649"/>
<stop offset="0.75" stop-color="#D67746"/>
<stop offset="1" stop-color="#FDC89D"/>
</linearGradient>
<linearGradient id="paint1_linear_359_2168" x1="4.54248" y1="4.4953" x2="7.78445" y2="4.4953" gradientUnits="userSpaceOnUse">
<stop stop-color="#00A7A5"/>
<stop offset="0.16" stop-color="#6D8671"/>
<stop offset="0.4" stop-color="#A56649"/>
<stop offset="0.75" stop-color="#D67746"/>
<stop offset="1" stop-color="#FDC89D"/>
</linearGradient>
<linearGradient id="paint2_linear_359_2168" x1="29.21" y1="4.48505" x2="32.4394" y2="4.48505" gradientUnits="userSpaceOnUse">
<stop stop-color="#00A7A5"/>
<stop offset="0.16" stop-color="#6D8671"/>
<stop offset="0.4" stop-color="#A56649"/>
<stop offset="0.75" stop-color="#D67746"/>
<stop offset="1" stop-color="#FDC89D"/>
</linearGradient>
<linearGradient id="paint3_linear_359_2168" x1="4.57178" y1="29.5045" x2="7.7427" y2="29.5045" gradientUnits="userSpaceOnUse">
<stop stop-color="#00A7A5"/>
<stop offset="0.16" stop-color="#6D8671"/>
<stop offset="0.4" stop-color="#A56649"/>
<stop offset="0.75" stop-color="#D67746"/>
<stop offset="1" stop-color="#FDC89D"/>
</linearGradient>
<linearGradient id="paint4_linear_359_2168" x1="29.2007" y1="29.4972" x2="32.4625" y2="29.4972" gradientUnits="userSpaceOnUse">
<stop stop-color="#00A7A5"/>
<stop offset="0.16" stop-color="#6D8671"/>
<stop offset="0.4" stop-color="#A56649"/>
<stop offset="0.75" stop-color="#D67746"/>
<stop offset="1" stop-color="#FDC89D"/>
</linearGradient>
<linearGradient id="paint5_linear_359_2168" x1="17.7417" y1="1.60802" x2="19.2629" y2="1.60802" gradientUnits="userSpaceOnUse">
<stop stop-color="#00A7A5"/>
<stop offset="0.16" stop-color="#6D8671"/>
<stop offset="0.4" stop-color="#A56649"/>
<stop offset="0.75" stop-color="#D67746"/>
<stop offset="1" stop-color="#FDC89D"/>
</linearGradient>
<linearGradient id="paint6_linear_359_2168" x1="17.73" y1="32.3876" x2="19.2742" y2="32.3876" gradientUnits="userSpaceOnUse">
<stop stop-color="#00A7A5"/>
<stop offset="0.16" stop-color="#6D8671"/>
<stop offset="0.4" stop-color="#A56649"/>
<stop offset="0.75" stop-color="#D67746"/>
<stop offset="1" stop-color="#FDC89D"/>
</linearGradient>
<linearGradient id="paint7_linear_359_2168" x1="13.7025" y1="16.9821" x2="23.3062" y2="16.9821" gradientUnits="userSpaceOnUse">
<stop stop-color="#00A7A5"/>
<stop offset="0.16" stop-color="#6D8671"/>
<stop offset="0.4" stop-color="#A56649"/>
<stop offset="0.75" stop-color="#D67746"/>
<stop offset="1" stop-color="#FDC89D"/>
</linearGradient>
<clipPath id="clip0_359_2168">
<rect width="37" height="34" fill="white"/>
</clipPath>
</defs>
</svg>
