<svg width="28" height="41" viewBox="0 0 28 41" fill="none" xmlns="http://www.w3.org/2000/svg">
<g id="_&#229;&#156;&#150;&#229;&#177;&#164;_1" clip-path="url(#clip0_359_2183)">
<path id="Vector" d="M11.5658 0C11.9341 0.238634 12.033 0.594581 12.0183 1.01971C11.9997 1.59023 12.0232 2.16275 11.9997 2.73327C11.986 3.06415 11.8205 3.3118 11.4738 3.38199C11.1712 3.44416 10.9244 3.34088 10.7834 3.06816C10.7089 2.92377 10.6864 2.73928 10.6825 2.57284C10.6707 2.01536 10.6903 1.45687 10.6737 0.899391C10.6609 0.484288 10.7951 0.177472 11.1741 0.00100267H11.5649L11.5658 0Z" fill="url(#paint0_linear_359_2183)"/>
<path id="Vector_2" d="M23.3424 18.9426C24.0083 18.5656 24.6459 18.4072 25.3461 18.4804C26.7035 18.6218 27.8757 19.8149 27.9785 21.2157C28.0069 21.6007 28.0011 21.9887 28.0001 22.3757C27.9971 25.2704 28.0001 28.1661 27.9815 31.0608C27.9746 32.0675 27.7827 33.0501 27.4076 33.9826C27.3381 34.1551 27.1706 34.3456 27.0051 34.4097C26.0199 34.7877 25.0219 35.1337 24.0269 35.4836C23.7224 35.5909 23.4305 35.6992 23.3659 36.0782C23.2778 36.5965 23.6901 36.9896 24.2062 36.8472C24.8829 36.6597 25.5508 36.4391 26.2637 36.2195C26.0522 37.4328 25.6409 38.5086 24.7644 39.3619C23.6068 40.4879 22.2005 40.9662 20.6385 40.9822C18.528 41.0033 16.4156 41.0113 14.3061 40.9712C12.8792 40.9441 11.5581 40.514 10.4466 39.5554C9.31938 38.5838 8.74158 37.3255 8.67596 35.8225C8.65834 35.4244 8.67303 35.0254 8.67303 34.5712C8.80132 34.6484 8.90121 34.6985 8.99033 34.7627C9.51231 35.1377 10.0274 35.5257 10.5553 35.8917C10.9137 36.1403 11.2996 36.0661 11.517 35.7383C11.7266 35.4224 11.6629 35.0534 11.3221 34.7917C10.8324 34.4157 10.3232 34.0668 9.83059 33.6948C8.87673 32.9759 7.92678 32.252 6.98075 31.5231C6.87008 31.4378 6.779 31.3155 6.70164 31.1952C5.79576 29.7794 4.94178 28.3266 3.9791 26.9539C2.87148 25.3737 1.67964 23.8547 0.501504 22.3266C-0.272166 21.3239 -0.150729 20.3032 0.884422 19.5723C1.92447 18.8383 3.0791 18.7 4.28465 18.9516C5.7272 19.2524 6.91317 20.0044 7.83962 21.1806C7.87096 21.2207 7.91111 21.2548 7.9493 21.2888C7.95616 21.2949 7.97281 21.2888 8.03157 21.2888C8.03157 21.1505 8.03157 21.0111 8.03157 20.8707C8.03157 16.6415 8.03744 12.4122 8.02471 8.183C8.02079 6.96176 8.40861 5.94405 9.43201 5.27928C11.2457 4.10115 13.5707 5.18503 13.935 7.35681C13.981 7.63154 13.9927 7.91429 13.9937 8.19303C13.9986 9.79429 13.9967 11.3945 13.9967 12.9958V13.432C16.7505 12.4764 18.0942 13.2625 18.7151 16.1803C19.7502 15.6017 20.7981 15.5305 21.8352 16.1452C22.8557 16.7508 23.3111 17.7103 23.3444 18.9426H23.3424Z" fill="url(#paint1_linear_359_2183)"/>
<path id="Vector_3" d="M16.9943 8.18541C16.6565 8.18541 16.3186 8.20045 15.9817 8.1814C15.587 8.15834 15.3334 7.89364 15.3226 7.53368C15.3118 7.18174 15.5557 6.86791 15.9445 6.84986C16.631 6.81878 17.3204 6.81778 18.006 6.84986C18.4065 6.86891 18.6288 7.16269 18.619 7.53368C18.6092 7.90567 18.3703 8.15734 17.9668 8.1814C17.6436 8.20045 17.3175 8.18541 16.9933 8.18541H16.9943Z" fill="url(#paint2_linear_359_2183)"/>
<path id="Vector_4" d="M5.02964 8.18195C4.69177 8.18195 4.3539 8.2 4.01701 8.17694C3.64683 8.15188 3.40591 7.88717 3.3922 7.53925C3.37849 7.19533 3.6008 6.8805 3.97001 6.86144C4.681 6.82535 5.39689 6.82535 6.10788 6.85844C6.47513 6.87548 6.70919 7.19333 6.70037 7.52822C6.69156 7.88416 6.43204 8.15789 6.04227 8.18095C5.70538 8.20101 5.36751 8.18496 5.02964 8.18496C5.02964 8.18396 5.02964 8.18296 5.02964 8.18095V8.18195Z" fill="url(#paint3_linear_359_2183)"/>
<path id="Vector_5" d="M16.7306 2.70865C16.5818 2.9523 16.4976 3.15082 16.3624 3.29922C15.9893 3.70831 15.5995 4.10235 15.2078 4.49239C14.865 4.8343 14.487 4.86237 14.204 4.58664C13.9043 4.29386 13.9209 3.89881 14.2696 3.52883C14.6672 3.10671 15.0717 2.6906 15.483 2.28251C15.7072 2.05992 15.9971 1.96367 16.2645 2.14415C16.4505 2.26948 16.5671 2.5021 16.7306 2.70865Z" fill="url(#paint4_linear_359_2183)"/>
<path id="Vector_6" d="M5.9933 1.96777C6.23422 2.11216 6.43204 2.18836 6.57502 2.32472C6.9834 2.71676 7.37514 3.12685 7.76197 3.54096C8.092 3.8959 8.10963 4.28193 7.83052 4.5717C7.55533 4.85746 7.16458 4.84242 6.82573 4.50652C6.40462 4.08941 5.99428 3.66128 5.58786 3.22913C5.38122 3.00954 5.28818 2.72579 5.45173 2.46309C5.57121 2.27158 5.79156 2.14625 5.9933 1.96777Z" fill="url(#paint5_linear_359_2183)"/>
</g>
<defs>
<linearGradient id="paint0_linear_359_2183" x1="10.6747" y1="1.69952" x2="12.0202" y2="1.69952" gradientUnits="userSpaceOnUse">
<stop stop-color="#00A7A5"/>
<stop offset="0.16" stop-color="#6D8671"/>
<stop offset="0.4" stop-color="#A56649"/>
<stop offset="0.75" stop-color="#D67746"/>
<stop offset="1" stop-color="#FDC89D"/>
</linearGradient>
<linearGradient id="paint1_linear_359_2183" x1="8.76419e-05" y1="22.8981" x2="28.0001" y2="22.8981" gradientUnits="userSpaceOnUse">
<stop stop-color="#00A7A5"/>
<stop offset="0.16" stop-color="#6D8671"/>
<stop offset="0.4" stop-color="#A56649"/>
<stop offset="0.75" stop-color="#D67746"/>
<stop offset="1" stop-color="#FDC89D"/>
</linearGradient>
<linearGradient id="paint2_linear_359_2183" x1="15.3226" y1="7.50861" x2="18.62" y2="7.50861" gradientUnits="userSpaceOnUse">
<stop stop-color="#00A7A5"/>
<stop offset="0.16" stop-color="#6D8671"/>
<stop offset="0.4" stop-color="#A56649"/>
<stop offset="0.75" stop-color="#D67746"/>
<stop offset="1" stop-color="#FDC89D"/>
</linearGradient>
<linearGradient id="paint3_linear_359_2183" x1="3.3922" y1="7.51318" x2="6.70135" y2="7.51318" gradientUnits="userSpaceOnUse">
<stop stop-color="#00A7A5"/>
<stop offset="0.16" stop-color="#6D8671"/>
<stop offset="0.4" stop-color="#A56649"/>
<stop offset="0.75" stop-color="#D67746"/>
<stop offset="1" stop-color="#FDC89D"/>
</linearGradient>
<linearGradient id="paint4_linear_359_2183" x1="13.9934" y1="3.41252" x2="16.7306" y2="3.41252" gradientUnits="userSpaceOnUse">
<stop stop-color="#00A7A5"/>
<stop offset="0.16" stop-color="#6D8671"/>
<stop offset="0.4" stop-color="#A56649"/>
<stop offset="0.75" stop-color="#D67746"/>
<stop offset="1" stop-color="#FDC89D"/>
</linearGradient>
<linearGradient id="paint5_linear_359_2183" x1="5.36849" y1="3.37151" x2="8.02639" y2="3.37151" gradientUnits="userSpaceOnUse">
<stop stop-color="#00A7A5"/>
<stop offset="0.16" stop-color="#6D8671"/>
<stop offset="0.4" stop-color="#A56649"/>
<stop offset="0.75" stop-color="#D67746"/>
<stop offset="1" stop-color="#FDC89D"/>
</linearGradient>
<clipPath id="clip0_359_2183">
<rect width="28" height="41" fill="white"/>
</clipPath>
</defs>
</svg>
