<svg width="33" height="36" viewBox="0 0 33 36" fill="none" xmlns="http://www.w3.org/2000/svg">
<g id="_&#229;&#156;&#150;&#229;&#177;&#164;_1" clip-path="url(#clip0_359_2177)">
<path id="Vector" d="M25.0119 35.9997C24.3073 35.8139 23.568 35.7144 22.9047 35.4272C20.2129 34.2624 18.6471 32.1618 18.3586 29.1827C17.9545 25.0181 20.8817 21.412 24.9276 20.9746C29.3408 20.4978 33.2071 24.2419 32.9909 28.7838C32.815 32.4931 30.1489 35.4619 26.5721 35.934C26.508 35.9425 26.4466 35.9763 26.3843 35.9988H25.0119V35.9997ZM26.3834 27.7814C26.3834 27.6021 26.3834 27.4754 26.3834 27.3477C26.3834 26.213 26.388 25.0782 26.3816 23.9444C26.3779 23.2873 25.8997 22.8744 25.3105 22.9983C24.8864 23.0874 24.6353 23.445 24.6335 24.0007C24.6289 25.5099 24.6317 27.0183 24.6326 28.5275C24.6326 28.6092 24.6372 28.6918 24.6481 28.7725C24.705 29.209 24.978 29.5394 25.3994 29.5487C26.4943 29.5741 27.5909 29.5722 28.6858 29.5469C29.0806 29.5375 29.3555 29.2193 29.4187 28.8307C29.5103 28.2676 29.1265 27.7954 28.5438 27.7851C27.8383 27.772 27.1319 27.7823 26.3834 27.7823V27.7814Z" fill="url(#paint0_linear_359_2177)"/>
<path id="Vector_2" d="M18.8521 35.5381C18.6972 35.5484 18.5763 35.5634 18.4563 35.5625C15.9533 35.5437 13.4475 35.5822 10.9463 35.4827C9.34301 35.4189 7.72136 35.3034 6.16843 34.8201C3.0076 33.8355 0.779444 31.0131 0.435875 27.6463C-0.0579475 22.8013 -0.0735227 17.9431 0.0996359 13.084C0.16835 11.1673 0.240728 9.23383 0.547649 7.34818C1.05521 4.23297 2.87109 2.09296 5.74241 0.939422C6.85649 0.49171 8.05669 0.427885 9.23765 0.300235C12.7274 -0.0780204 16.2263 -0.0498624 19.7224 0.117208C21.2351 0.189481 22.7642 0.34435 24.242 0.669105C27.5476 1.39558 30.0295 4.17571 30.4665 7.61381C30.6901 9.37462 30.7652 11.1589 30.8211 12.9366C30.8935 15.2305 30.8797 17.5264 30.9026 19.8222C30.9026 19.9113 30.8953 20.0014 30.8889 20.1413C28.3346 18.5691 25.6556 18.1496 22.8292 19.0187C20.82 19.6363 19.2021 20.8462 17.9176 22.5479C15.4411 25.8302 14.9959 31.5838 18.8521 35.54V35.5381ZM15.4384 12.7311C17.9185 12.7311 20.3986 12.7367 22.8787 12.7282C23.8544 12.7254 24.5883 11.9867 24.5837 11.0453C24.5791 10.1283 23.8654 9.37931 22.9364 9.37744C17.9533 9.36899 12.9711 9.37274 7.98797 9.37274C7.95407 9.37274 7.91926 9.37368 7.88536 9.3765C6.993 9.44408 6.33609 10.1677 6.34434 11.0735C6.35259 12.0215 7.07637 12.7264 8.06768 12.7282C10.5249 12.7339 12.9821 12.7301 15.4393 12.7301L15.4384 12.7311ZM12.2922 16.5371C10.8978 16.5371 9.50425 16.5314 8.10982 16.5427C7.87528 16.5446 7.62791 16.5831 7.40803 16.6647C6.67783 16.9379 6.25455 17.7207 6.3929 18.4875C6.54773 19.3482 7.19547 19.8907 8.1025 19.8926C10.8794 19.8973 13.6555 19.8963 16.4324 19.8898C16.6459 19.8898 16.8685 19.856 17.071 19.7884C17.8333 19.534 18.2685 18.7738 18.1521 17.9365C18.0431 17.149 17.3651 16.5465 16.5433 16.5399C15.1269 16.5296 13.7095 16.5371 12.2922 16.5361V16.5371Z" fill="url(#paint1_linear_359_2177)"/>
</g>
<defs>
<linearGradient id="paint0_linear_359_2177" x1="18.3219" y1="28.4675" x2="33.0001" y2="28.4675" gradientUnits="userSpaceOnUse">
<stop stop-color="#00A7A5"/>
<stop offset="0.16" stop-color="#6D8671"/>
<stop offset="0.4" stop-color="#A56649"/>
<stop offset="0.75" stop-color="#D67746"/>
<stop offset="1" stop-color="#FDC89D"/>
</linearGradient>
<linearGradient id="paint1_linear_359_2177" x1="-0.000228012" y1="17.7817" x2="30.9026" y2="17.7817" gradientUnits="userSpaceOnUse">
<stop stop-color="#00A7A5"/>
<stop offset="0.16" stop-color="#6D8671"/>
<stop offset="0.4" stop-color="#A56649"/>
<stop offset="0.75" stop-color="#D67746"/>
<stop offset="1" stop-color="#FDC89D"/>
</linearGradient>
<clipPath id="clip0_359_2177">
<rect width="33" height="36" fill="white"/>
</clipPath>
</defs>
</svg>
