<svg width="26" height="41" viewBox="0 0 26 41" fill="none" xmlns="http://www.w3.org/2000/svg">
<g id="_&#229;&#156;&#150;&#229;&#177;&#164;_1" clip-path="url(#clip0_359_2180)">
<path id="Vector" d="M0 21.0812C4.33011 14.0589 8.64086 7.06549 13 0C17.3543 7.06549 21.6699 14.0637 26 21.086C25.8355 21.1869 25.7097 21.2685 25.5791 21.3406C21.5296 23.6845 17.4753 26.0237 13.4306 28.3772C13.1258 28.5549 12.8984 28.5742 12.5839 28.3868C8.55378 26.0381 4.51396 23.7085 0.474135 21.3742C0.33383 21.2925 0.193524 21.2013 0 21.0812Z" fill="url(#paint0_linear_359_2180)"/>
<path id="Vector_2" d="M12.9999 41.0003C8.71816 35.0972 4.48481 29.2566 0.251465 23.4159C0.265979 23.3919 0.280494 23.3726 0.295008 23.3486C0.440151 23.4303 0.590133 23.5119 0.735276 23.5984C4.67833 25.9712 8.62139 28.3439 12.5596 30.7311C12.8886 30.9281 13.1208 30.9281 13.445 30.7311C17.2913 28.3439 21.1473 25.9712 25.0032 23.5936C25.129 23.5167 25.2597 23.4399 25.458 23.4207C21.3263 29.2566 17.1897 35.0924 13.0047 41.0003H12.9999Z" fill="url(#paint1_linear_359_2180)"/>
</g>
<defs>
<linearGradient id="paint0_linear_359_2180" x1="0" y1="14.2607" x2="26" y2="14.2607" gradientUnits="userSpaceOnUse">
<stop stop-color="#00A7A5"/>
<stop offset="0.16" stop-color="#6D8671"/>
<stop offset="0.4" stop-color="#A56649"/>
<stop offset="0.75" stop-color="#D67746"/>
<stop offset="1" stop-color="#FDC89D"/>
</linearGradient>
<linearGradient id="paint1_linear_359_2180" x1="0.251465" y1="32.1769" x2="25.4532" y2="32.1769" gradientUnits="userSpaceOnUse">
<stop stop-color="#00A7A5"/>
<stop offset="0.16" stop-color="#6D8671"/>
<stop offset="0.4" stop-color="#A56649"/>
<stop offset="0.75" stop-color="#D67746"/>
<stop offset="1" stop-color="#FDC89D"/>
</linearGradient>
<clipPath id="clip0_359_2180">
<rect width="26" height="41" fill="white"/>
</clipPath>
</defs>
</svg>
