<svg xmlns="http://www.w3.org/2000/svg" width="23" height="27" viewBox="0 0 23 27" fill="none">
  <path d="M0.793736 24.1084C0.301326 24.7746 0.442212 25.7139 1.10841 26.2063C1.77461 26.6987 2.71385 26.5578 3.20626 25.8916L0.793736 24.1084ZM20.4834 1.77749C20.3605 0.958225 19.5968 0.393704 18.7775 0.516593L5.42685 2.51919C4.60759 2.64208 4.04307 3.40584 4.16596 4.2251C4.28885 5.04437 5.05261 5.60889 5.87187 5.486L17.7391 3.70591L19.5192 15.5731C19.6421 16.3924 20.4058 16.9569 21.2251 16.834C22.0444 16.7112 22.6089 15.9474 22.486 15.1281L20.4834 1.77749ZM3.20626 25.8916L20.2063 2.89158L17.7937 1.10841L0.793736 24.1084L3.20626 25.8916Z" fill="white"/>
</svg>