<svg xmlns="http://www.w3.org/2000/svg" width="149" height="147" viewBox="0 0 149 147" fill="none">
  <path opacity="0.2" d="M9.16382 116.186L29.217 126.413C32.0482 127.848 35.2145 128.574 38.3808 128.574C38.4311 128.574 38.4646 128.574 38.5148 128.574C40.1064 131.045 42.4183 133.147 45.283 134.612L65.3362 144.839C68.1674 146.275 71.3337 147 74.5 147C77.6663 147 80.8326 146.275 83.6638 144.839L103.717 134.612C106.582 133.147 108.894 131.045 110.485 128.574C110.535 128.574 110.569 128.574 110.619 128.574C113.785 128.574 116.969 127.848 119.783 126.413L139.836 116.186C145.499 113.3 149 107.927 149 102.155V81.7012C149 78.7707 148.095 75.9587 146.47 73.5018C148.095 71.0598 149 68.2329 149 65.3025V44.8485C149 39.0764 145.482 33.7039 139.836 30.8179L119.783 20.5909C116.918 19.1257 113.702 18.4152 110.485 18.43C108.894 15.9584 106.582 13.8568 103.717 12.3915L83.6638 2.16454C78.0181 -0.721513 70.9819 -0.721513 65.3362 2.16454L45.283 12.3915C42.4183 13.8568 40.1064 15.9584 38.5148 18.43C35.2983 18.4152 32.0817 19.1257 29.217 20.5909L9.16382 30.8179C3.50135 33.7039 0 39.0764 0 44.8485V65.3025C0 68.2329 0.904655 71.045 2.52968 73.5018C0.904655 75.9439 0 78.7707 0 81.7012V102.155C0 107.927 3.5181 113.3 9.16382 116.186ZM40.6592 120.582V100.128C40.6592 95.7911 43.3062 91.7506 47.5614 89.5749L67.6146 79.348C68.8543 78.7115 70.1945 78.2823 71.5682 78.0307C71.9871 79.2148 72.2384 80.4432 72.2384 81.716V102.17C72.2384 106.506 69.5914 110.547 65.3362 112.723L45.283 122.95C44.0433 123.586 42.7031 124.015 41.3293 124.267C40.9105 123.083 40.6592 121.854 40.6592 120.582ZM40.6592 46.891V26.437C40.6592 25.1642 40.9105 23.9357 41.3293 22.7517C42.7031 23.0181 44.0265 23.4473 45.283 24.0689L65.3362 34.2959C69.5914 36.4716 72.2384 40.512 72.2384 44.8485V65.3025C72.2384 66.5753 71.9871 67.8037 71.5682 68.9878C70.1945 68.7214 68.871 68.2922 67.6146 67.6705L47.5614 57.4436C43.3062 55.2679 40.6592 51.2274 40.6592 46.891ZM108.358 26.4222V46.8762C108.358 51.2126 105.711 55.2531 101.455 57.4288L81.4022 67.6557C80.1625 68.2922 78.8222 68.7214 77.4485 68.973C77.0297 67.7889 76.7784 66.5605 76.7784 65.2877V44.8337C76.7784 40.4972 79.4253 36.4568 83.6806 34.2811L103.734 24.0541C104.973 23.4177 106.314 22.9885 107.687 22.7369C108.106 23.9209 108.358 25.1494 108.358 26.4222ZM108.358 100.113V120.567C108.358 121.84 108.106 123.068 107.687 124.252C106.314 123.986 104.99 123.556 103.734 122.935L83.6806 112.708C79.4253 110.532 76.7784 106.492 76.7784 102.155V81.7012C76.7784 80.4284 77.0297 79.2 77.4485 78.0159C78.8222 78.2823 80.1457 78.7115 81.4022 79.3332L101.455 89.5601C105.711 91.7358 108.358 95.7763 108.358 100.113ZM74.2487 73.5018C74.2487 73.5018 74.3325 73.3686 74.3827 73.2946C74.433 73.2946 74.4665 73.2946 74.5167 73.2946C74.567 73.2946 74.6005 73.2946 74.6508 73.2946C74.701 73.3686 74.7345 73.4278 74.7848 73.5018C74.7345 73.5759 74.701 73.635 74.6508 73.7091C74.567 73.7091 74.4832 73.7091 74.3827 73.7091C74.3325 73.635 74.299 73.5759 74.2487 73.5018ZM103.734 86.0821L83.6806 75.8551C82.4409 75.2187 81.3519 74.4195 80.4138 73.5018C81.3519 72.5842 82.4409 71.785 83.6806 71.1486L103.734 60.9216C105.861 59.8412 108.24 59.2936 110.636 59.2936C113.032 59.2936 115.411 59.8412 117.538 60.9216L137.591 71.1486C138.831 71.785 139.92 72.599 140.858 73.5018C139.92 74.4195 138.831 75.2187 137.591 75.8551L117.538 86.0821C113.283 88.2577 108.006 88.2577 103.751 86.0821H103.734ZM45.283 60.9068L65.3362 71.1338C66.5759 71.7702 67.6648 72.5842 68.603 73.4871C67.6648 74.4047 66.5759 75.2039 65.3362 75.8403L45.283 86.0673C41.0278 88.2429 35.7339 88.2429 31.4954 86.0673L11.4422 75.8403C10.2025 75.2039 9.11356 74.4047 8.1754 73.4871C9.11356 72.5694 10.2025 71.7702 11.4422 71.1338L31.4954 60.9068C33.623 59.8264 36.0019 59.2788 38.3976 59.2788C40.7932 59.2788 43.1721 59.8264 45.2998 60.9068H45.283ZM101.455 131.134L81.4022 141.361C77.1469 143.537 71.853 143.537 67.6146 141.361L47.5614 131.134C45.9364 130.305 44.5626 129.21 43.4737 127.937C44.8809 127.582 46.2714 127.094 47.5614 126.428L67.6146 116.201C70.5631 114.691 72.9252 112.501 74.5167 109.925C76.1083 112.501 78.4537 114.691 81.4189 116.201L101.472 126.428C102.779 127.094 104.153 127.582 105.56 127.937C104.471 129.21 103.08 130.32 101.472 131.134H101.455ZM144.477 102.155C144.477 106.492 141.83 110.532 137.575 112.708L117.521 122.935C115.913 123.764 114.137 124.267 112.345 124.459C112.697 123.201 112.898 121.899 112.898 120.567V100.113C112.898 97.0935 111.926 94.2074 110.2 91.7062C110.351 91.7062 110.485 91.7358 110.636 91.7358C113.802 91.7358 116.985 91.0106 119.8 89.5749L139.853 79.348C141.16 78.6819 142.332 77.8827 143.388 76.9799C144.091 78.4599 144.477 80.0584 144.477 81.716V102.17V102.155ZM117.521 24.0689L137.575 34.2959C141.83 36.4716 144.477 40.512 144.477 44.8485V65.3025C144.477 66.9453 144.091 68.5586 143.388 70.0386C142.332 69.1358 141.16 68.3218 139.853 67.6705L119.8 57.4436C116.851 55.9339 113.517 55.2383 110.2 55.2975C111.926 52.7963 112.898 49.8954 112.898 46.891V26.437C112.898 25.105 112.697 23.8025 112.345 22.5445C114.154 22.7369 115.913 23.2549 117.521 24.0689ZM47.5614 15.8696L67.6146 5.6426C69.7422 4.56218 72.1211 4.01457 74.5167 4.01457C76.9124 4.01457 79.2913 4.56218 81.4189 5.6426L101.472 15.8696C103.097 16.6984 104.471 17.7936 105.56 19.0665C104.153 19.4217 102.762 19.9101 101.472 20.5761L81.4189 30.8031C78.4704 32.3127 76.1083 34.5031 74.5167 37.0784C72.9252 34.5031 70.5798 32.3127 67.6146 30.8031L47.5614 20.5761C46.2547 19.9101 44.8809 19.4217 43.4737 19.0665C44.5626 17.7936 45.9531 16.6836 47.5614 15.8696ZM4.54003 44.8485C4.54003 40.512 7.18698 36.4716 11.4422 34.2959L31.4954 24.0689C33.1037 23.2401 34.8795 22.7369 36.672 22.5445C36.3202 23.8025 36.1192 25.105 36.1192 26.437V46.891C36.1192 49.9102 37.0908 52.7963 38.8164 55.2975C35.4993 55.2235 32.1823 55.9339 29.217 57.4436L9.16382 67.6705C7.85709 68.3366 6.68439 69.1358 5.62896 70.0386C4.92534 68.5586 4.54003 66.9601 4.54003 65.3025V44.8485ZM4.54003 81.7012C4.54003 80.0584 4.92534 78.4451 5.62896 76.9651C6.68439 77.8679 7.85709 78.6819 9.16382 79.3332L29.217 89.5601C32.0482 91.0106 35.2145 91.721 38.3808 91.721C38.5316 91.721 38.6656 91.7062 38.8164 91.6914C37.0908 94.1926 36.1192 97.0935 36.1192 100.098V120.552C36.1192 121.884 36.3202 123.172 36.672 124.444C34.8627 124.252 33.1037 123.734 31.4954 122.92L11.4422 112.693C7.18698 110.517 4.54003 106.477 4.54003 102.14V81.6864V81.7012Z" fill="#A0F5EE"/>
</svg>