<svg xmlns="http://www.w3.org/2000/svg" width="46" height="46" viewBox="0 0 46 46" fill="none">
  <path d="M3.8147e-06 23.0504C1.49701 23.1348 2.99535 23.2017 4.49101 23.3048C7.68854 23.5258 10.8767 23.7922 14.0086 24.5542C18.1475 25.5612 20.6179 28.1389 21.5833 32.2592C22.1912 34.8544 22.4845 37.4883 22.6773 40.137C22.8139 42.0024 22.8996 43.8717 23.0094 45.7397C23.0147 45.8294 23.0375 45.9178 23.1366 45.9995C23.1808 45.2577 23.2089 44.5158 23.2705 43.7753C23.5021 40.9967 23.7016 38.2155 23.9989 35.4436C24.2011 33.5501 24.6309 31.6955 25.3821 29.9279C26.4734 27.3582 28.4243 25.7674 31.0286 24.8997C33.2608 24.1565 35.5719 23.8123 37.9004 23.6155C40.5128 23.3945 43.1305 23.2539 45.7469 23.0772C45.8273 23.0718 45.9089 23.0598 46 22.9433C45.8018 22.9312 45.6037 22.9218 45.4055 22.9058C42.0941 22.638 38.7774 22.4277 35.4755 22.0729C34.0267 21.9175 32.5859 21.5493 31.1826 21.1355C27.7869 20.1352 25.7342 17.8066 24.7876 14.4321C24.1074 12.0084 23.7914 9.52705 23.5972 7.02967C23.4218 4.78136 23.308 2.52903 23.166 0.279379C23.1607 0.185644 23.1433 0.0932472 23.0362 -0.000488281C22.988 0.885981 22.9438 1.77111 22.8902 2.65758C22.684 6.07491 22.4925 9.49491 21.7842 12.856C21.432 14.5298 20.9232 16.1501 19.9712 17.595C18.584 19.7014 16.5072 20.7592 14.1599 21.3966C11.8635 22.0206 9.50958 22.3072 7.14624 22.4893C4.86593 22.6647 2.58025 22.7799 0.29726 22.9218C0.199512 22.9285 0.10043 22.9419 0.00268173 22.9526C0.00268173 22.9848 0.00268173 23.0183 0.00402069 23.0504H3.8147e-06Z" fill="#B6FBFF"/>
</svg>