<svg width="1323" height="180" viewBox="0 0 1323 180" fill="none" xmlns="http://www.w3.org/2000/svg">
<g opacity="0.2">
<mask id="path-1-outside-1_111_261" maskUnits="userSpaceOnUse" x="-4" y="-4" width="1331" height="188" fill="black">
<rect fill="white" x="-4" y="-4" width="1331" height="188"/>
<path d="M0.72 3.39999H27.008L39.16 136.824H39.656L52.552 3.39999H82.312L95.208 136.824H95.704L107.856 3.39999H131.416L113.808 177H79.832L67.432 59.944H66.936L54.536 177H18.328L0.72 3.39999ZM170.015 3.39999H197.295V74.08H226.559V3.39999H253.839V177H226.559V98.88H197.295V177H170.015V3.39999ZM320.036 3.39999H356.988L385.26 177H357.98L353.02 142.528V143.024H322.02L317.06 177H291.764L320.036 3.39999ZM349.796 119.464L337.644 33.656H337.148L325.244 119.464H349.796ZM433.24 28.2H404.72V3.39999H489.04V28.2H460.52V177H433.24V28.2ZM585.118 3.39999H611.406L623.558 136.824H624.054L636.95 3.39999H666.71L679.606 136.824H680.102L692.254 3.39999H715.814L698.206 177H664.23L651.83 59.944H651.334L638.934 177H602.726L585.118 3.39999ZM754.413 3.39999H828.813V28.2H781.693V74.08H819.141V98.88H781.693V152.2H828.813V177H754.413V3.39999ZM933.826 3.39999H975.49C989.047 3.39999 999.215 7.03732 1005.99 14.312C1012.77 21.5867 1016.16 32.2507 1016.16 46.304V134.096C1016.16 148.149 1012.77 158.813 1005.99 166.088C999.215 173.363 989.047 177 975.49 177H933.826V3.39999ZM974.994 152.2C979.458 152.2 982.847 150.877 985.162 148.232C987.642 145.587 988.882 141.288 988.882 135.336V45.064C988.882 39.112 987.642 34.8133 985.162 32.168C982.847 29.5227 979.458 28.2 974.994 28.2H961.106V152.2H974.994ZM1098.81 179.48C1085.42 179.48 1075.17 175.677 1068.06 168.072C1060.95 160.467 1057.39 149.72 1057.39 135.832V44.568C1057.39 30.68 1060.95 19.9333 1068.06 12.328C1075.17 4.72266 1085.42 0.919991 1098.81 0.919991C1112.2 0.919991 1122.45 4.72266 1129.56 12.328C1136.67 19.9333 1140.22 30.68 1140.22 44.568V135.832C1140.22 149.72 1136.67 160.467 1129.56 168.072C1122.45 175.677 1112.2 179.48 1098.81 179.48ZM1098.81 154.68C1108.23 154.68 1112.94 148.976 1112.94 137.568V42.832C1112.94 31.424 1108.23 25.72 1098.81 25.72C1089.38 25.72 1084.67 31.424 1084.67 42.832V137.568C1084.67 148.976 1089.38 154.68 1098.81 154.68ZM1266.84 120.704C1266.84 114.587 1267.75 108.8 1269.57 103.344C1271.55 97.7227 1275.11 91.2747 1280.23 84C1286.18 75.568 1290.23 68.2933 1292.38 62.176C1294.53 56.0587 1295.61 49.6107 1295.61 42.832C1295.61 36.88 1294.45 32.5813 1292.14 29.936C1289.82 27.1253 1286.43 25.72 1281.97 25.72C1277.5 25.72 1274.11 27.1253 1271.8 29.936C1269.48 32.5813 1268.33 36.88 1268.33 42.832V61.68H1242.54V44.568C1242.54 30.5147 1245.92 19.768 1252.7 12.328C1259.48 4.72266 1269.4 0.919991 1282.46 0.919991C1295.69 0.919991 1305.69 4.72266 1312.47 12.328C1319.42 19.768 1322.89 30.5147 1322.89 44.568C1322.89 52.1733 1321.48 59.5307 1318.67 66.64C1316.03 73.584 1311.4 81.4373 1304.78 90.2C1299.49 97.3093 1295.77 103.261 1293.62 108.056C1291.64 112.685 1290.65 117.232 1290.65 121.696V131.12H1266.84V120.704ZM1265.6 150.712H1291.89V177H1265.6V150.712Z"/>
</mask>
<path d="M0.72 3.39999V-0.600012H-3.70624L-3.25958 3.80363L0.72 3.39999ZM27.008 3.39999L30.9915 3.03718L30.6602 -0.600012H27.008V3.39999ZM39.16 136.824L35.1765 137.187L35.5078 140.824H39.16V136.824ZM39.656 136.824V140.824H43.288L43.6374 137.209L39.656 136.824ZM52.552 3.39999V-0.600012H48.92L48.5706 3.01516L52.552 3.39999ZM82.312 3.39999L86.2934 3.01516L85.944 -0.600012H82.312V3.39999ZM95.208 136.824L91.2266 137.209L91.576 140.824H95.208V136.824ZM95.704 136.824V140.824H99.3563L99.6875 137.187L95.704 136.824ZM107.856 3.39999V-0.600012H104.204L103.872 3.03718L107.856 3.39999ZM131.416 3.39999L135.396 3.80363L135.842 -0.600012H131.416V3.39999ZM113.808 177V181H117.423L117.788 177.404L113.808 177ZM79.832 177L75.8543 177.421L76.2334 181H79.832V177ZM67.432 59.944L71.4097 59.5226L71.0307 55.944H67.432V59.944ZM66.936 59.944V55.944H63.3373L62.9583 59.5226L66.936 59.944ZM54.536 177V181H58.1347L58.5137 177.421L54.536 177ZM18.328 177L14.3484 177.404L14.7132 181H18.328V177ZM0.72 7.39999H27.008V-0.600012H0.72V7.39999ZM23.0245 3.7628L35.1765 137.187L43.1435 136.461L30.9915 3.03718L23.0245 3.7628ZM39.16 140.824H39.656V132.824H39.16V140.824ZM43.6374 137.209L56.5334 3.78481L48.5706 3.01516L35.6746 136.439L43.6374 137.209ZM52.552 7.39999H82.312V-0.600012H52.552V7.39999ZM78.3306 3.78481L91.2266 137.209L99.1895 136.439L86.2934 3.01516L78.3306 3.78481ZM95.208 140.824H95.704V132.824H95.208V140.824ZM99.6875 137.187L111.84 3.7628L103.872 3.03718L91.7205 136.461L99.6875 137.187ZM107.856 7.39999H131.416V-0.600012H107.856V7.39999ZM127.436 2.99634L109.828 176.596L117.788 177.404L135.396 3.80363L127.436 2.99634ZM113.808 173H79.832V181H113.808V173ZM83.8097 176.579L71.4097 59.5226L63.4543 60.3654L75.8543 177.421L83.8097 176.579ZM67.432 55.944H66.936V63.944H67.432V55.944ZM62.9583 59.5226L50.5583 176.579L58.5137 177.421L70.9137 60.3654L62.9583 59.5226ZM54.536 173H18.328V181H54.536V173ZM22.3076 176.596L4.69958 2.99634L-3.25958 3.80363L14.3484 177.404L22.3076 176.596ZM170.015 3.39999V-0.600012H166.015V3.39999H170.015ZM197.295 3.39999H201.295V-0.600012H197.295V3.39999ZM197.295 74.08H193.295V78.08H197.295V74.08ZM226.559 74.08V78.08H230.559V74.08H226.559ZM226.559 3.39999V-0.600012H222.559V3.39999H226.559ZM253.839 3.39999H257.839V-0.600012H253.839V3.39999ZM253.839 177V181H257.839V177H253.839ZM226.559 177H222.559V181H226.559V177ZM226.559 98.88H230.559V94.88H226.559V98.88ZM197.295 98.88V94.88H193.295V98.88H197.295ZM197.295 177V181H201.295V177H197.295ZM170.015 177H166.015V181H170.015V177ZM170.015 7.39999H197.295V-0.600012H170.015V7.39999ZM193.295 3.39999V74.08H201.295V3.39999H193.295ZM197.295 78.08H226.559V70.08H197.295V78.08ZM230.559 74.08V3.39999H222.559V74.08H230.559ZM226.559 7.39999H253.839V-0.600012H226.559V7.39999ZM249.839 3.39999V177H257.839V3.39999H249.839ZM253.839 173H226.559V181H253.839V173ZM230.559 177V98.88H222.559V177H230.559ZM226.559 94.88H197.295V102.88H226.559V94.88ZM193.295 98.88V177H201.295V98.88H193.295ZM197.295 173H170.015V181H197.295V173ZM174.015 177V3.39999H166.015V177H174.015ZM320.036 3.39999V-0.600012H316.634L316.088 2.75703L320.036 3.39999ZM356.988 3.39999L360.935 2.75703L360.389 -0.600012H356.988V3.39999ZM385.26 177V181H389.964L389.208 176.357L385.26 177ZM357.98 177L354.02 177.57L354.514 181H357.98V177ZM353.02 142.528L356.979 141.958L349.02 142.528H353.02ZM353.02 143.024V147.024H357.02V143.024H353.02ZM322.02 143.024V139.024H318.561L318.061 142.446L322.02 143.024ZM317.06 177V181H320.518L321.018 177.578L317.06 177ZM291.764 177L287.816 176.357L287.059 181H291.764V177ZM349.796 119.464V123.464H354.402L353.756 118.903L349.796 119.464ZM337.644 33.656L341.604 33.0951L341.117 29.656H337.644V33.656ZM337.148 33.656V29.656H333.664L333.185 33.1063L337.148 33.656ZM325.244 119.464L321.281 118.914L320.65 123.464H325.244V119.464ZM320.036 7.39999H356.988V-0.600012H320.036V7.39999ZM353.04 4.04295L381.312 177.643L389.208 176.357L360.935 2.75703L353.04 4.04295ZM385.26 173H357.98V181H385.26V173ZM361.939 176.43L356.979 141.958L349.06 143.098L354.02 177.57L361.939 176.43ZM349.02 142.528V143.024H357.02V142.528H349.02ZM353.02 139.024H322.02V147.024H353.02V139.024ZM318.061 142.446L313.101 176.422L321.018 177.578L325.978 143.602L318.061 142.446ZM317.06 173H291.764V181H317.06V173ZM295.711 177.643L323.983 4.04295L316.088 2.75703L287.816 176.357L295.711 177.643ZM353.756 118.903L341.604 33.0951L333.683 34.2169L345.835 120.025L353.756 118.903ZM337.644 29.656H337.148V37.656H337.644V29.656ZM333.185 33.1063L321.281 118.914L329.206 120.014L341.11 34.2056L333.185 33.1063ZM325.244 123.464H349.796V115.464H325.244V123.464ZM433.24 28.2H437.24V24.2H433.24V28.2ZM404.72 28.2H400.72V32.2H404.72V28.2ZM404.72 3.39999V-0.600012H400.72V3.39999H404.72ZM489.04 3.39999H493.04V-0.600012H489.04V3.39999ZM489.04 28.2V32.2H493.04V28.2H489.04ZM460.52 28.2V24.2H456.52V28.2H460.52ZM460.52 177V181H464.52V177H460.52ZM433.24 177H429.24V181H433.24V177ZM433.24 24.2H404.72V32.2H433.24V24.2ZM408.72 28.2V3.39999H400.72V28.2H408.72ZM404.72 7.39999H489.04V-0.600012H404.72V7.39999ZM485.04 3.39999V28.2H493.04V3.39999H485.04ZM489.04 24.2H460.52V32.2H489.04V24.2ZM456.52 28.2V177H464.52V28.2H456.52ZM460.52 173H433.24V181H460.52V173ZM437.24 177V28.2H429.24V177H437.24ZM585.118 3.39999V-0.600012H580.692L581.139 3.80363L585.118 3.39999ZM611.406 3.39999L615.39 3.03718L615.059 -0.600012H611.406V3.39999ZM623.558 136.824L619.575 137.187L619.906 140.824H623.558V136.824ZM624.054 136.824V140.824H627.686L628.036 137.209L624.054 136.824ZM636.95 3.39999V-0.600012H633.318L632.969 3.01516L636.95 3.39999ZM666.71 3.39999L670.692 3.01516L670.342 -0.600012H666.71V3.39999ZM679.606 136.824L675.625 137.209L675.974 140.824H679.606V136.824ZM680.102 136.824V140.824H683.755L684.086 137.187L680.102 136.824ZM692.254 3.39999V-0.600012H688.602L688.271 3.03718L692.254 3.39999ZM715.814 3.39999L719.794 3.80363L720.241 -0.600012H715.814V3.39999ZM698.206 177V181H701.821L702.186 177.404L698.206 177ZM664.23 177L660.253 177.421L660.632 181H664.23V177ZM651.83 59.944L655.808 59.5226L655.429 55.944H651.83V59.944ZM651.334 59.944V55.944H647.736L647.357 59.5226L651.334 59.944ZM638.934 177V181H642.533L642.912 177.421L638.934 177ZM602.726 177L598.747 177.404L599.112 181H602.726V177ZM585.118 7.39999H611.406V-0.600012H585.118V7.39999ZM607.423 3.7628L619.575 137.187L627.542 136.461L615.39 3.03718L607.423 3.7628ZM623.558 140.824H624.054V132.824H623.558V140.824ZM628.036 137.209L640.932 3.78481L632.969 3.01516L620.073 136.439L628.036 137.209ZM636.95 7.39999H666.71V-0.600012H636.95V7.39999ZM662.729 3.78481L675.625 137.209L683.588 136.439L670.692 3.01516L662.729 3.78481ZM679.606 140.824H680.102V132.824H679.606V140.824ZM684.086 137.187L696.238 3.7628L688.271 3.03718L676.119 136.461L684.086 137.187ZM692.254 7.39999H715.814V-0.600012H692.254V7.39999ZM711.835 2.99634L694.227 176.596L702.186 177.404L719.794 3.80363L711.835 2.99634ZM698.206 173H664.23V181H698.206V173ZM668.208 176.579L655.808 59.5226L647.853 60.3654L660.253 177.421L668.208 176.579ZM651.83 55.944H651.334V63.944H651.83V55.944ZM647.357 59.5226L634.957 176.579L642.912 177.421L655.312 60.3654L647.357 59.5226ZM638.934 173H602.726V181H638.934V173ZM606.706 176.596L589.098 2.99634L581.139 3.80363L598.747 177.404L606.706 176.596ZM754.413 3.39999V-0.600012H750.413V3.39999H754.413ZM828.813 3.39999H832.813V-0.600012H828.813V3.39999ZM828.813 28.2V32.2H832.813V28.2H828.813ZM781.693 28.2V24.2H777.693V28.2H781.693ZM781.693 74.08H777.693V78.08H781.693V74.08ZM819.141 74.08H823.141V70.08H819.141V74.08ZM819.141 98.88V102.88H823.141V98.88H819.141ZM781.693 98.88V94.88H777.693V98.88H781.693ZM781.693 152.2H777.693V156.2H781.693V152.2ZM828.813 152.2H832.813V148.2H828.813V152.2ZM828.813 177V181H832.813V177H828.813ZM754.413 177H750.413V181H754.413V177ZM754.413 7.39999H828.813V-0.600012H754.413V7.39999ZM824.813 3.39999V28.2H832.813V3.39999H824.813ZM828.813 24.2H781.693V32.2H828.813V24.2ZM777.693 28.2V74.08H785.693V28.2H777.693ZM781.693 78.08H819.141V70.08H781.693V78.08ZM815.141 74.08V98.88H823.141V74.08H815.141ZM819.141 94.88H781.693V102.88H819.141V94.88ZM777.693 98.88V152.2H785.693V98.88H777.693ZM781.693 156.2H828.813V148.2H781.693V156.2ZM824.813 152.2V177H832.813V152.2H824.813ZM828.813 173H754.413V181H828.813V173ZM758.413 177V3.39999H750.413V177H758.413ZM933.826 3.39999V-0.600012H929.826V3.39999H933.826ZM1005.99 14.312L1003.07 17.0389L1003.07 17.0389L1005.99 14.312ZM933.826 177H929.826V181H933.826V177ZM985.162 148.232L982.244 145.496L982.197 145.546L982.152 145.598L985.162 148.232ZM985.162 32.168L982.152 34.802L982.197 34.8537L982.244 34.9037L985.162 32.168ZM961.106 28.2V24.2H957.106V28.2H961.106ZM961.106 152.2H957.106V156.2H961.106V152.2ZM933.826 7.39999H975.49V-0.600012H933.826V7.39999ZM975.49 7.39999C988.355 7.39999 997.29 10.8384 1003.07 17.0389L1008.92 11.5851C1001.14 3.23623 989.739 -0.600012 975.49 -0.600012V7.39999ZM1003.07 17.0389C1008.92 23.3152 1012.16 32.8441 1012.16 46.304H1020.16C1020.16 31.6572 1016.63 19.8582 1008.92 11.5851L1003.07 17.0389ZM1012.16 46.304V134.096H1020.16V46.304H1012.16ZM1012.16 134.096C1012.16 147.556 1008.92 157.085 1003.07 163.361L1008.92 168.815C1016.63 160.542 1020.16 148.743 1020.16 134.096H1012.16ZM1003.07 163.361C997.29 169.562 988.355 173 975.49 173V181C989.739 181 1001.14 177.164 1008.92 168.815L1003.07 163.361ZM975.49 173H933.826V181H975.49V173ZM937.826 177V3.39999H929.826V177H937.826ZM974.994 156.2C980.277 156.2 984.902 154.603 988.172 150.866L982.152 145.598C980.792 147.152 978.639 148.2 974.994 148.2V156.2ZM988.08 150.968C991.585 147.23 992.882 141.69 992.882 135.336H984.882C984.882 140.886 983.699 143.944 982.244 145.496L988.08 150.968ZM992.882 135.336V45.064H984.882V135.336H992.882ZM992.882 45.064C992.882 38.7104 991.585 33.1705 988.08 29.4322L982.244 34.9037C983.699 36.4562 984.882 39.5136 984.882 45.064H992.882ZM988.172 29.534C984.902 25.7972 980.277 24.2 974.994 24.2V32.2C978.639 32.2 980.792 33.2481 982.152 34.802L988.172 29.534ZM974.994 24.2H961.106V32.2H974.994V24.2ZM957.106 28.2V152.2H965.106V28.2H957.106ZM961.106 156.2H974.994V148.2H961.106V156.2ZM1068.06 168.072L1070.98 165.34L1070.98 165.34L1068.06 168.072ZM1068.06 12.328L1070.98 15.0595L1070.98 15.0595L1068.06 12.328ZM1129.56 12.328L1126.64 15.0595L1126.64 15.0595L1129.56 12.328ZM1129.56 168.072L1126.64 165.34L1126.64 165.34L1129.56 168.072ZM1098.81 175.48C1086.19 175.48 1077.13 171.92 1070.98 165.34L1065.13 170.804C1073.2 179.434 1084.64 183.48 1098.81 183.48V175.48ZM1070.98 165.34C1064.77 158.695 1061.39 149.052 1061.39 135.832H1053.39C1053.39 150.388 1057.13 162.238 1065.13 170.804L1070.98 165.34ZM1061.39 135.832V44.568H1053.39V135.832H1061.39ZM1061.39 44.568C1061.39 31.3479 1064.77 21.7047 1070.98 15.0595L1065.13 9.59646C1057.13 18.162 1053.39 30.0121 1053.39 44.568H1061.39ZM1070.98 15.0595C1077.13 8.47952 1086.19 4.91999 1098.81 4.91999V-3.08001C1084.64 -3.08001 1073.2 0.965796 1065.13 9.59646L1070.98 15.0595ZM1098.81 4.91999C1111.43 4.91999 1120.49 8.47952 1126.64 15.0595L1132.48 9.59646C1124.41 0.965796 1112.97 -3.08001 1098.81 -3.08001V4.91999ZM1126.64 15.0595C1132.85 21.7047 1136.22 31.3479 1136.22 44.568H1144.22C1144.22 30.0121 1140.49 18.162 1132.48 9.59646L1126.64 15.0595ZM1136.22 44.568V135.832H1144.22V44.568H1136.22ZM1136.22 135.832C1136.22 149.052 1132.85 158.695 1126.64 165.34L1132.48 170.804C1140.49 162.238 1144.22 150.388 1144.22 135.832H1136.22ZM1126.64 165.34C1120.49 171.92 1111.43 175.48 1098.81 175.48V183.48C1112.97 183.48 1124.41 179.434 1132.48 170.804L1126.64 165.34ZM1098.81 158.68C1104.36 158.68 1109.18 156.963 1112.49 152.95C1115.69 149.082 1116.94 143.722 1116.94 137.568H1108.94C1108.94 142.822 1107.84 146.018 1106.33 147.854C1104.93 149.545 1102.68 150.68 1098.81 150.68V158.68ZM1116.94 137.568V42.832H1108.94V137.568H1116.94ZM1116.94 42.832C1116.94 36.6775 1115.69 31.3178 1112.49 27.4505C1109.18 23.4368 1104.36 21.72 1098.81 21.72V29.72C1102.68 29.72 1104.93 30.8552 1106.33 32.5455C1107.84 34.3822 1108.94 37.5785 1108.94 42.832H1116.94ZM1098.81 21.72C1093.26 21.72 1088.44 23.4368 1085.12 27.4505C1081.93 31.3178 1080.67 36.6775 1080.67 42.832H1088.67C1088.67 37.5785 1089.77 34.3822 1091.29 32.5455C1092.69 30.8552 1094.94 29.72 1098.81 29.72V21.72ZM1080.67 42.832V137.568H1088.67V42.832H1080.67ZM1080.67 137.568C1080.67 143.722 1081.93 149.082 1085.12 152.95C1088.44 156.963 1093.26 158.68 1098.81 158.68V150.68C1094.94 150.68 1092.69 149.545 1091.29 147.854C1089.77 146.018 1088.67 142.822 1088.67 137.568H1080.67ZM1269.57 103.344L1265.8 102.013L1265.78 102.046L1265.77 102.079L1269.57 103.344ZM1280.23 84L1276.96 81.6933L1276.96 81.6962L1280.23 84ZM1292.38 62.176L1288.61 60.85L1288.61 60.85L1292.38 62.176ZM1292.14 29.936L1289.05 32.4788L1289.09 32.525L1289.13 32.57L1292.14 29.936ZM1271.8 29.936L1274.81 32.57L1274.85 32.525L1274.89 32.4788L1271.8 29.936ZM1268.33 61.68V65.68H1272.33V61.68H1268.33ZM1242.54 61.68H1238.54V65.68H1242.54V61.68ZM1252.7 12.328L1255.66 15.022L1255.67 15.0058L1255.69 14.9895L1252.7 12.328ZM1312.47 12.328L1309.49 14.9895L1309.52 15.0237L1309.55 15.0573L1312.47 12.328ZM1318.67 66.64L1314.95 65.1694L1314.94 65.1926L1314.93 65.216L1318.67 66.64ZM1304.78 90.2L1301.59 87.7904L1301.58 87.8011L1301.57 87.812L1304.78 90.2ZM1293.62 108.056L1289.97 106.42L1289.96 106.45L1289.95 106.48L1293.62 108.056ZM1290.65 131.12V135.12H1294.65V131.12H1290.65ZM1266.84 131.12H1262.84V135.12H1266.84V131.12ZM1265.6 150.712V146.712H1261.6V150.712H1265.6ZM1291.89 150.712H1295.89V146.712H1291.89V150.712ZM1291.89 177V181H1295.89V177H1291.89ZM1265.6 177H1261.6V181H1265.6V177ZM1270.84 120.704C1270.84 114.989 1271.69 109.632 1273.36 104.609L1265.77 102.079C1263.81 107.968 1262.84 114.184 1262.84 120.704H1270.84ZM1273.34 104.675C1275.16 99.5245 1278.49 93.4108 1283.5 86.3038L1276.96 81.6962C1271.72 89.1385 1267.95 95.9209 1265.8 102.013L1273.34 104.675ZM1283.5 86.3067C1289.55 77.7285 1293.84 70.1111 1296.16 63.5019L1288.61 60.85C1286.63 66.4756 1282.81 73.4074 1276.96 81.6933L1283.5 86.3067ZM1296.16 63.5019C1298.46 56.9394 1299.61 50.0415 1299.61 42.832H1291.61C1291.61 49.1798 1290.6 55.1779 1288.61 60.85L1296.16 63.5019ZM1299.61 42.832C1299.61 36.53 1298.41 31.0363 1295.15 27.302L1289.13 32.57C1290.49 34.1264 1291.61 37.23 1291.61 42.832H1299.61ZM1295.22 27.3932C1291.98 23.453 1287.33 21.72 1281.97 21.72V29.72C1285.53 29.72 1287.66 30.7976 1289.05 32.4788L1295.22 27.3932ZM1281.97 21.72C1276.6 21.72 1271.96 23.453 1268.71 27.3932L1274.89 32.4788C1276.27 30.7976 1278.4 29.72 1281.97 29.72V21.72ZM1268.79 27.302C1265.52 31.0363 1264.33 36.53 1264.33 42.832H1272.33C1272.33 37.23 1273.45 34.1264 1274.81 32.57L1268.79 27.302ZM1264.33 42.832V61.68H1272.33V42.832H1264.33ZM1268.33 57.68H1242.54V65.68H1268.33V57.68ZM1246.54 61.68V44.568H1238.54V61.68H1246.54ZM1246.54 44.568C1246.54 31.1156 1249.78 21.4774 1255.66 15.022L1249.75 9.63403C1242.07 18.0586 1238.54 29.9138 1238.54 44.568H1246.54ZM1255.69 14.9895C1261.51 8.46212 1270.2 4.91999 1282.46 4.91999V-3.08001C1268.6 -3.08001 1257.46 0.983193 1249.72 9.66651L1255.69 14.9895ZM1282.46 4.91999C1294.91 4.91999 1303.68 8.47264 1309.49 14.9895L1315.46 9.66651C1307.71 0.972674 1296.47 -3.08001 1282.46 -3.08001V4.91999ZM1309.55 15.0573C1315.57 21.5139 1318.89 31.1382 1318.89 44.568H1326.89C1326.89 29.8911 1323.26 18.0221 1315.4 9.59872L1309.55 15.0573ZM1318.89 44.568C1318.89 51.6672 1317.58 58.5257 1314.95 65.1694L1322.39 68.1106C1325.39 60.5356 1326.89 52.6795 1326.89 44.568H1318.89ZM1314.93 65.216C1312.47 71.6828 1308.07 79.1998 1301.59 87.7904L1307.98 92.6096C1314.72 83.6749 1319.58 75.4852 1322.41 68.064L1314.93 65.216ZM1301.57 87.812C1296.21 95.0192 1292.3 101.24 1289.97 106.42L1297.27 109.692C1299.25 105.283 1302.77 99.5995 1307.99 92.588L1301.57 87.812ZM1289.95 106.48C1287.78 111.544 1286.65 116.625 1286.65 121.696H1294.65C1294.65 117.839 1295.5 113.827 1297.3 109.632L1289.95 106.48ZM1286.65 121.696V131.12H1294.65V121.696H1286.65ZM1290.65 127.12H1266.84V135.12H1290.65V127.12ZM1270.84 131.12V120.704H1262.84V131.12H1270.84ZM1265.6 154.712H1291.89V146.712H1265.6V154.712ZM1287.89 150.712V177H1295.89V150.712H1287.89ZM1291.89 173H1265.6V181H1291.89V173ZM1269.6 177V150.712H1261.6V177H1269.6Z" fill="#A0F5EE" mask="url(#path-1-outside-1_111_261)"/>
</g>
</svg>
