<svg xmlns="http://www.w3.org/2000/svg" width="199" height="183" viewBox="0 0 199 183" fill="none">
  <g opacity="0.15">
    <path d="M184.799 111.485C184.754 111.606 184.679 111.712 184.604 111.832V111.862C184 112.722 183.262 113.521 182.387 114.214C180.639 115.601 178.362 116.671 175.558 117.275C173.779 117.651 171.789 117.878 169.618 117.908C155.854 118.043 138.366 110.43 126.094 99.7413C123.109 97.1483 120.456 94.3743 118.225 91.4798C118.089 91.2989 117.953 91.133 117.803 90.9371C116.596 89.339 115.571 87.7711 114.742 86.2485L115.225 86.0223C115.632 85.8414 116.084 85.6756 116.536 85.4796C116.657 85.4495 116.777 85.3892 116.883 85.3288C118.571 84.6655 119.913 83.1127 120.818 80.7157C121.014 80.188 121.18 79.6151 121.345 79.0121C121.36 78.9819 121.36 78.9367 121.376 78.9066C121.496 78.3488 121.617 77.7759 121.722 77.1427C121.858 76.2231 121.963 75.2431 122.039 74.1878C122.175 71.7305 122.069 69.0168 121.737 66.1524C121.391 62.9262 120.757 59.5191 119.898 55.9913C119.37 53.8656 118.767 51.6947 118.089 49.5087C115.27 40.5688 111.139 31.463 106.315 23.925C105.275 22.3119 104.189 20.7591 103.089 19.2968C102.817 18.9199 102.531 18.543 102.259 18.1962C100.254 15.6484 98.3095 13.5981 96.4552 12.0152C93.7717 9.73871 91.2993 8.44219 89.1434 8.14067C88.4047 8.05021 87.7263 8.06529 87.0931 8.1859H87.0479C86.475 8.41203 85.9172 8.63817 85.3594 8.84923C85.4499 8.804 85.5403 8.7437 85.6308 8.69847C85.7061 8.66832 85.7815 8.62309 85.8569 8.59294L85.6308 8.6834C84.6056 9.10552 83.5955 9.51257 82.6307 9.93469L82.0578 10.1759C82.0578 10.1759 82.0427 10.1759 82.0427 10.191H81.9975C80.0829 11.0503 77.5803 12.2865 75.6355 13.1911C75.937 13.0554 76.2687 12.9649 76.6154 12.9499C77.1582 12.9046 77.7612 12.98 78.4245 13.1911C80.2487 13.7639 82.5251 15.3469 85.073 17.9249C86.8821 19.7189 88.8419 21.9953 90.9224 24.7542C91.043 24.905 91.1485 25.0859 91.2691 25.2366C92.5958 27.0156 93.8923 28.9001 95.1888 30.8599C99.3799 37.3425 103.345 44.7448 106.586 52.0415C107.581 54.3028 108.516 56.5642 109.375 58.7954C110.838 62.5945 112.059 66.2579 112.963 69.6651C113.717 72.4993 114.275 75.1527 114.546 77.5347C114.667 78.5297 114.742 79.4342 114.772 80.2935C114.802 81.4996 114.757 82.5549 114.622 83.4595C114.32 85.4796 113.596 86.746 112.496 87.2887C112.496 87.3038 112.481 87.3038 112.466 87.3038C112.42 87.3339 112.36 87.3792 112.315 87.3942C113.325 89.3089 114.622 91.3441 116.22 93.4547C116.416 93.7261 116.627 93.9824 116.808 94.2236C128.325 108.998 149.824 122.506 165.352 124.632C166.935 124.858 168.397 124.948 169.739 124.903C172.136 124.858 174.126 124.42 175.709 123.637C176.704 123.154 177.533 122.521 178.196 121.767C178.332 121.616 178.468 121.435 178.603 121.255C178.618 121.239 178.633 121.209 178.649 121.179L179.191 120.395C179.191 120.395 179.221 120.365 179.237 120.35C179.327 120.244 179.387 120.109 179.463 120.003C179.478 119.988 179.493 119.988 179.493 119.973C179.945 119.325 180.427 118.601 180.925 117.862C181.498 116.973 182.086 116.038 182.644 115.089L183.126 114.335C183.201 114.199 183.277 114.078 183.352 113.958C183.443 113.822 183.503 113.702 183.593 113.581L184.227 112.465C184.423 112.149 184.588 111.832 184.769 111.546C184.965 111.229 185.131 110.913 185.312 110.611C185.357 110.521 185.403 110.415 185.448 110.34C185.403 110.415 185.357 110.46 185.327 110.536C185.267 110.656 185.191 110.762 185.131 110.882L185.553 110.144C185.553 110.144 185.553 110.129 185.553 110.114C185.387 110.415 185.222 110.701 185.056 111.003C184.98 111.154 184.89 111.289 184.815 111.425L184.799 111.485Z" fill="white"/>
    <path d="M51.9663 27.8317H51.9831L51.9663 27.8149V27.8317Z" fill="white"/>
    <path d="M167.99 134.461C167.402 134.944 166.603 135.245 165.593 135.336C164.372 135.441 162.879 135.245 161.07 134.748C160.166 134.491 159.171 134.16 158.115 133.738C152.311 131.431 145.241 126.999 138.17 121.481C134.039 118.255 129.893 114.667 126.034 110.913C121.33 106.36 116.988 101.581 113.491 96.9075C111.667 94.4652 110.159 92.2189 109.013 90.1837C108.878 89.9575 108.757 89.7163 108.606 89.4902C108.606 89.4751 108.591 89.4751 108.591 89.46C108.124 89.7616 107.626 90.048 107.219 90.2892L107.129 90.3344C106.857 90.5153 106.556 90.7113 106.224 90.9073C106.179 90.9375 106.119 90.9827 106.074 90.9978C106.3 90.8621 106.42 90.5304 106.42 90.0329C106.42 89.5806 106.315 88.9927 106.119 88.254C105.923 87.5605 105.651 86.7012 105.29 85.7212C105.018 85.0277 104.702 84.2287 104.325 83.3694C103.36 81.1683 102.154 78.6507 100.707 75.8918C98.7618 72.1228 96.4099 67.9468 93.832 63.5899C89.0831 55.5847 83.5201 46.9915 78.1682 39.4837C76.8566 37.6595 75.5752 35.8957 74.3239 34.2072C72.967 32.3981 71.7007 30.7699 70.5248 29.3527C67.7508 25.9607 65.5497 23.5938 63.9819 22.2822C63.4241 21.8299 62.9416 21.4982 62.5346 21.3173C62.1878 21.1364 61.9014 21.0912 61.7054 21.1364H61.6753C61.5848 21.1817 61.4943 21.242 61.434 21.2872C61.4491 21.2721 61.4642 21.257 61.4793 21.242C61.3587 21.3324 61.2381 21.3927 61.1174 21.4832C60.1978 22.0561 59.2782 22.644 58.449 23.2018C58.3435 23.2923 58.2229 23.3526 58.1174 23.428L57.9968 23.5184C57.0168 24.1817 55.9012 24.9808 54.7856 25.7798C54.7705 25.7798 54.7705 25.7949 54.7555 25.7949C54.6499 25.8702 54.5444 25.9305 54.4539 26.0059C54.3484 26.0964 54.2429 26.1567 54.1373 26.2321C53.7604 26.4883 53.3836 26.7597 53.0217 27.016C52.9011 27.1065 52.7956 27.1969 52.6901 27.2572C52.6147 27.3326 52.5544 27.3627 52.479 27.408C52.4489 27.4381 52.4036 27.4833 52.3735 27.4984C52.3584 27.5135 52.3433 27.5135 52.3283 27.5286C52.2981 27.5587 52.2529 27.5738 52.2227 27.604C52.1775 27.6492 52.1172 27.6944 52.072 27.7246L52.0267 27.7698C52.0267 27.7698 52.283 28.1015 52.7202 28.6442C53.0519 29.0814 53.5042 29.6543 54.062 30.393C55.6299 32.4282 58.0571 35.6544 61.2984 39.936C61.826 40.6295 62.3537 41.3531 62.9115 42.0918C65.9568 46.1321 69.3036 50.5946 72.7258 55.1626C74.8967 58.0722 77.1129 61.027 79.2989 63.9367C83.9121 70.1178 88.3745 76.1179 92.0982 81.1231C94.0732 83.7915 95.8371 86.1886 97.3296 88.1937C97.8723 88.9324 98.3547 89.5806 98.7768 90.1837C99.3799 90.9978 99.8924 91.6762 100.299 92.234C101.174 93.4551 101.581 94.0431 101.581 94.0732C100.903 94.5858 100.104 95.1888 99.4553 95.7165C99.3497 95.807 99.2593 95.8974 99.1537 95.9577C99.1537 95.9728 99.1387 95.9728 99.1236 95.9879C99.1085 96.0029 99.0784 96.018 99.0482 96.0632H99.0633C99.8472 96.9979 100.707 98.0382 101.626 99.1839C102.742 100.601 103.963 102.184 105.29 103.918C106.707 105.787 108.154 107.777 109.616 109.812C114.802 117.049 120.215 125.175 124.964 132.773C127.602 136.994 130.014 141.049 132.079 144.713C133.708 147.592 135.11 150.216 136.21 152.477C136.602 153.276 136.949 154.015 137.235 154.678C137.748 155.824 138.11 156.774 138.351 157.527C138.698 158.643 138.773 159.352 138.577 159.638C138.562 159.668 138.532 159.683 138.517 159.698C138.803 159.517 139.09 159.321 139.361 159.156L139.979 158.748L140.054 158.703C142.09 157.301 144.637 155.432 146.793 153.849C147.185 153.562 147.562 153.276 147.924 153.02C147.924 153.02 147.894 153.02 147.894 153.005C147.743 152.929 147.351 152.507 146.733 151.799C146.205 151.196 145.527 150.381 144.713 149.386C144.245 148.814 143.733 148.195 143.175 147.517C141.426 145.361 139.316 142.723 136.979 139.753C132.064 133.542 126.124 125.913 120.275 118.3C120.245 118.255 120.2 118.21 120.169 118.164C115.888 112.601 111.652 107.038 107.913 102.063C107.415 101.385 106.918 100.737 106.465 100.134C104.551 97.5859 103.058 95.5507 101.852 93.9375C102.184 93.6963 102.516 93.44 102.862 93.1838L103.827 92.4903L104.4 92.0832C104.4 92.0832 104.445 92.0681 104.475 92.0531L104.611 91.9626C104.747 91.8722 104.867 91.7817 104.988 91.7063C105.003 91.7063 105.003 91.6913 105.018 91.6913C105.275 91.5103 105.561 91.3294 105.832 91.1485C107.189 93.425 109.013 96.1085 111.32 99.1387C112.601 100.857 113.988 102.621 115.451 104.4C123.23 113.928 133.044 124.029 141.652 131.522C145.542 134.883 149.16 137.733 152.266 139.768C153.08 140.311 153.849 140.763 154.542 141.155C155.914 141.924 157.045 142.421 157.98 142.678C158.899 142.934 159.593 142.919 160.06 142.648C160.09 142.632 160.135 142.602 160.166 142.572C160.196 142.542 160.241 142.497 160.271 142.482L160.316 142.436L160.362 142.391L161.447 141.366L161.522 141.291C161.522 141.291 161.553 141.261 161.568 141.245C161.749 141.065 161.944 140.884 162.14 140.703C162.894 139.979 163.693 139.165 164.462 138.366C164.643 138.185 164.809 138.004 164.99 137.823C165.427 137.371 165.864 136.904 166.286 136.451C166.301 136.421 166.332 136.406 166.347 136.376C166.347 136.376 166.377 136.346 166.377 136.331L166.467 136.24C166.844 135.833 167.236 135.396 167.658 134.944C167.613 134.989 167.583 135.034 167.538 135.079C167.568 135.034 167.613 134.989 167.658 134.959C167.779 134.838 167.884 134.718 167.99 134.597C168.02 134.582 168.035 134.552 168.08 134.507C168.156 134.431 168.216 134.356 168.291 134.265C168.216 134.311 168.186 134.371 168.141 134.416C168.126 134.431 168.111 134.446 168.095 134.446L167.99 134.461Z" fill="white"/>
    <path d="M168.502 133.964C168.502 133.964 168.547 133.889 168.578 133.858C168.457 133.994 168.321 134.13 168.216 134.281C168.321 134.175 168.412 134.069 168.517 133.964H168.502Z" fill="white"/>
    <path d="M5.84955 143.944C5.94001 144.14 6.01539 144.321 6.10584 144.502C6.22645 144.728 6.33198 144.939 6.43751 145.15C6.09077 144.426 5.7591 143.688 5.4425 142.964C5.57819 143.28 5.71387 143.612 5.84955 143.929V143.944Z" fill="white"/>
    <path d="M82.6606 114.425C82.6908 114.621 82.7059 114.817 82.736 115.013C82.736 114.878 82.7059 114.712 82.6757 114.516V114.425H82.6606Z" fill="white"/>
    <path d="M197.825 61.9464C197.825 61.9464 197.825 61.8861 197.825 61.8408V61.7504C197.81 61.5846 197.795 61.4036 197.78 61.2529C197.75 60.8609 197.719 60.4539 197.674 60.0167C197.644 59.6247 197.614 59.2177 197.569 58.8257C197.569 58.8106 197.569 58.7805 197.569 58.7654C197.569 58.7805 197.569 58.7955 197.569 58.8257C197.584 59.0669 197.599 59.3081 197.614 59.5342C197.689 60.7252 197.765 61.7202 197.81 62.5946C197.75 61.7202 197.689 60.7252 197.614 59.5342C198.096 68.5043 194.78 80.8665 176.915 90.3643C176.93 90.6055 176.945 90.8467 176.99 91.103C176.96 90.8618 176.945 90.6206 176.9 90.3643C174.005 91.7814 170.99 92.897 167.93 93.7262C163.452 94.9172 158.854 95.5051 154.346 95.5051C142.135 95.5051 130.406 91.2538 122.898 83.3842C123.23 83.2937 123.576 83.2334 123.893 83.1581L124.33 83.0676H124.36C124.466 83.0374 124.571 83.0224 124.677 82.9922C133.346 90.1683 146.039 92.6709 158.598 90.0779C162.276 89.3241 165.955 88.1481 169.497 86.5049C171.427 85.6003 173.342 84.5752 175.211 83.3993C191.9 72.9065 198.925 54.9361 193.031 40.5086C192.518 39.3929 192.111 38.4582 191.704 37.614C191.674 37.5386 191.629 37.4632 191.583 37.3728C191.237 36.6039 190.89 35.9104 190.543 35.232C190.121 34.433 189.714 33.634 189.202 32.7747C188.99 32.443 188.794 32.0963 188.598 31.7495C188.252 31.2068 187.905 30.6339 187.498 30.0007C190.106 34.4632 191.418 39.4533 191.508 44.6092C191.583 48.5741 190.935 52.6446 189.624 56.6246C186.85 64.9917 181.151 73.012 172.889 79.1026C171.352 80.2333 169.769 81.2585 168.156 82.1932C165.201 83.8968 162.125 85.2536 159.005 86.2938C147.11 90.1834 134.763 88.9472 125.793 82.8113H125.717C126.079 82.7359 126.471 82.6756 126.833 82.5852C135.562 87.0024 146.537 86.7612 156.804 81.8917C159.351 80.6705 161.854 79.1931 164.266 77.4142C165.593 76.4342 166.889 75.3789 168.156 74.2332C172.678 70.1325 176.297 65.3535 178.95 60.2579C185.372 47.956 186.171 33.8451 180.397 23.1261C179.704 21.8145 178.905 20.5633 178 19.3873C176.402 17.2466 174.563 15.4224 172.543 13.8997C170.764 12.5881 168.276 10.9901 166.407 9.78405H166.392C166.392 9.78405 166.377 9.76897 166.362 9.75389C165.698 9.377 165.035 8.98503 164.417 8.65336C164.146 8.5026 163.874 8.35184 163.603 8.21616C163.512 8.17093 163.407 8.11063 163.301 8.0654C162.879 7.85434 162.442 7.6282 162.005 7.41714L161.869 7.32669C161.869 7.32669 161.779 7.29653 161.748 7.28146C161.703 7.26638 161.643 7.23623 161.598 7.20608C161.462 7.1307 161.341 7.08547 161.191 7.01009C161.206 7.01009 161.221 7.02517 161.251 7.04025C161.236 7.04025 161.221 7.02517 161.206 7.01009C161.085 6.94979 160.965 6.88949 160.844 6.82918C160.874 6.82918 160.904 6.85934 160.934 6.87441C160.829 6.82918 160.708 6.76888 160.603 6.72365C160.588 6.72365 160.573 6.72365 160.557 6.70858C160.241 6.55782 159.909 6.42214 159.578 6.28645C159.578 6.28645 159.578 6.28645 159.593 6.28645C160.181 6.54274 160.784 6.81411 161.372 7.10055C161.688 7.26638 162.005 7.43222 162.336 7.59805C165.005 9.07548 167.462 11.0655 169.603 13.553C170.04 14.0354 170.462 14.548 170.854 15.0757C179.643 26.7745 179.704 44.6544 172.151 59.6096C169.98 63.9062 167.176 67.9767 163.769 71.5798H163.738C162.638 72.7859 161.507 73.8412 160.346 74.8513C158.311 76.6302 156.201 78.1227 154.03 79.4042C145.15 84.6053 135.456 85.6757 127.255 82.4947C130.361 81.6052 133.24 79.6454 135.728 76.5548C136.708 75.3638 137.597 74.007 138.426 72.4994C138.984 71.4743 139.512 70.3738 140.009 69.2129C139.964 69.2129 139.904 69.228 139.858 69.228C139.904 69.2129 139.964 69.2129 140.009 69.1978C141.125 66.5143 141.984 63.5896 142.572 60.5292C143.25 57.0618 143.597 53.4285 143.657 49.7048C143.673 47.3228 143.582 44.8956 143.356 42.4684C142.482 32.9556 139.693 23.4277 135.26 15.7691C134.341 14.156 133.331 12.6334 132.245 11.1861C131.883 10.7187 131.506 10.2514 131.145 9.79912C129.079 7.29654 126.893 5.30653 124.662 3.85925C121.888 2.03507 119.054 1.04007 116.28 0.859161C115.571 0.829009 114.848 0.829009 114.154 0.889312C113.928 0.904388 113.702 0.93454 113.476 0.964691L108.772 1.76371L108.636 1.79386C108.546 1.80894 108.44 1.82401 108.365 1.83909C108.259 1.85416 108.154 1.86924 108.063 1.88432C106.269 2.26121 104.099 2.78887 102.32 3.21099C103.104 3.07531 103.903 3.015 104.717 3.06023C107.295 3.18084 110.053 4.22107 112.827 6.21108C114.802 7.59805 116.777 9.48253 118.737 11.8193C119.22 12.3922 119.717 13.0103 120.184 13.6435C120.893 14.5631 121.571 15.5581 122.235 16.5682C127.511 24.6639 131.28 35.0662 133.029 45.3479C133.436 47.6696 133.723 49.9762 133.903 52.2677C134.175 55.7804 134.22 59.2026 133.949 62.459C133.723 65.3686 133.27 68.1576 132.577 70.7054C132.26 71.8512 131.913 72.9216 131.521 73.9166C130.949 75.3789 130.3 76.6905 129.577 77.8363C127.677 80.8514 125.28 82.7359 122.581 83.4746H122.536C122.536 83.4746 122.446 83.5048 122.401 83.5199C122.129 83.5952 121.828 83.6706 121.511 83.7611C121.496 83.7762 121.481 83.7762 121.481 83.7762C127.436 91.0276 136.677 95.9876 146.884 98.1434C152.251 99.2741 157.859 99.6359 163.422 99.1384C168.095 98.7012 172.709 97.661 177.065 95.9725C189.428 90.7713 196.197 83.0073 197.765 72.2884C197.78 72.1678 197.795 72.0472 197.81 71.9266C197.81 71.8813 197.81 71.821 197.825 71.7758C197.84 71.2029 197.87 70.615 197.9 69.9818C197.9 69.8009 197.915 69.6501 197.915 69.4994V69.3788C197.961 68.3536 197.976 67.4943 198.006 66.7405C197.991 67.5395 197.961 68.429 197.93 69.4994C197.93 69.4994 197.93 69.4843 197.93 69.4692C197.991 68.4591 198.021 67.4792 198.051 66.5897C198.081 65.2178 198.006 63.454 197.93 61.9614L197.825 61.9464Z" fill="white"/>
    <path d="M125.974 158.522C125.597 156.17 124.948 153.547 124.104 150.713C123.079 147.306 121.737 143.582 120.169 139.768C118.978 136.933 117.697 134.039 116.295 131.144C113.431 125.235 110.159 119.295 106.722 113.913C105.305 111.712 103.888 109.616 102.455 107.626C102.109 107.144 101.747 106.661 101.4 106.194C99.3949 103.51 97.4954 101.279 95.7767 99.5002L95.4451 99.1685L95.5958 99.0177C95.1285 99.4549 94.1636 99.3645 92.7013 98.7012C91.9927 98.3695 91.1635 97.9172 90.2288 97.3293C89.5655 96.9071 88.8419 96.4247 88.073 95.8669H88.0579C85.299 93.8769 82.1331 91.2386 78.7109 88.133C69.771 80.0373 59.2782 68.836 51.1071 58.5844C50.0066 57.2125 48.9512 55.8255 47.9412 54.5139C44.8808 50.4435 42.6043 47.0363 41.142 44.3981C40.4636 43.1618 39.951 42.0764 39.6193 41.1718C39.1067 39.815 39.0314 38.8502 39.348 38.3527C39.363 38.3225 39.363 38.3074 39.3781 38.2773L39.5138 38.1416C39.4233 38.217 39.363 38.2773 39.2726 38.3527L38.1268 39.4532L36.574 40.9156C36.378 41.1115 36.167 41.2924 35.971 41.5035C35.971 41.5035 35.9609 41.5085 35.9408 41.5186C35.5036 41.9558 35.0664 42.393 34.6443 42.8302C33.7548 43.7347 32.8503 44.6694 32.0513 45.5137C31.8553 45.7398 31.6442 45.9509 31.4482 46.1619C31.3728 46.2373 31.2975 46.3127 31.2221 46.4031C31.1769 46.4484 31.1316 46.5087 31.1015 46.5539C31.0713 46.569 31.0563 46.5991 31.0261 46.6293C30.2271 47.7449 30.2271 49.5691 31.0412 52.0114C31.4784 53.3531 32.1719 54.8908 33.0915 56.5793C34.3428 58.8407 36.0162 61.4036 38.157 64.2378C40.9611 67.9766 44.2928 71.8361 47.911 75.5899C53.1423 81.0474 58.9616 86.3088 64.6753 90.7863C70.8866 95.6709 77.0073 99.6208 82.0577 101.852H82.0728C83.098 102.304 84.0176 102.666 84.9071 102.968C86.1734 103.39 87.2891 103.631 88.269 103.721C89.9273 103.872 91.1032 103.54 91.8269 102.787H91.8419C91.8419 102.787 91.9324 102.681 91.9626 102.651C92.0379 102.576 92.0982 102.515 92.1736 102.44L92.6862 101.912L93.2289 101.354C94.7516 102.817 96.3345 104.596 97.9627 106.691C98.1738 106.963 98.3848 107.249 98.611 107.551C99.7266 109.043 100.827 110.641 101.898 112.284C106.692 119.702 110.853 128.612 113.822 137.325C114.561 139.481 115.209 141.622 115.797 143.733C116.777 147.336 117.516 150.863 117.968 154.135C118.375 156.954 118.541 159.623 118.496 162.05C118.481 163.03 118.406 163.949 118.3 164.809C118.149 166.241 117.878 167.477 117.516 168.532C116.838 170.568 115.812 171.97 114.501 172.693C114.456 172.708 114.395 172.738 114.35 172.769C114.094 172.874 113.807 172.995 113.536 173.1C113.687 173.055 113.868 172.995 114.018 172.95L115.933 172.12H115.948C115.948 172.12 115.948 172.105 115.963 172.105C118.194 171.11 120.999 169.738 123.365 168.562C123.773 168.366 124.134 168.201 124.496 168.02C124.617 167.944 124.722 167.884 124.843 167.794C125.612 167.206 126.094 166.105 126.29 164.477C126.396 163.542 126.396 162.427 126.29 161.115C126.215 160.316 126.109 159.457 125.974 158.537V158.522Z" fill="white"/>
    <path d="M107.792 140.356C105.893 130.452 102.154 120.441 97.1035 112.496C96.3195 111.26 95.4904 110.054 94.6311 108.923C94.5858 108.923 94.5557 108.938 94.5104 108.953C94.4652 108.953 94.4351 108.969 94.3898 108.984C94.4652 108.969 94.5557 108.938 94.6311 108.908C94.2089 108.335 93.7717 107.793 93.3496 107.28C92.4149 106.149 91.4802 105.124 90.5455 104.205C90.3797 104.385 90.2289 104.566 90.0782 104.732C90.0782 104.747 90.048 104.762 90.0329 104.777C90.0028 104.808 89.9877 104.838 89.9576 104.868C89.9576 104.868 89.9274 104.898 89.9274 104.913C89.9123 104.928 89.8822 104.958 89.8671 104.989C89.852 105.004 89.8369 105.019 89.8219 105.049C89.8219 105.049 89.8219 105.064 89.8068 105.079C89.5354 105.411 89.2339 105.788 88.9475 106.149C89.4902 106.722 90.0329 107.325 90.5757 107.974C90.9978 108.486 91.4199 109.014 91.842 109.572C91.9174 109.572 92.0079 109.541 92.0832 109.526C92.0531 109.526 92.0229 109.526 92.0079 109.541C91.9626 109.541 91.9023 109.557 91.8571 109.572C92.7767 110.808 93.6662 112.104 94.4803 113.476C99.2292 121.331 102.29 131.236 103.315 141.11C103.541 143.326 103.677 145.527 103.707 147.713C103.752 151.512 103.481 155.221 102.878 158.749C102.35 161.824 101.581 164.734 100.541 167.433C100.646 167.417 100.737 167.402 100.842 167.372C100.737 167.387 100.631 167.417 100.541 167.433C100.104 168.563 99.6362 169.619 99.1237 170.598C98.2794 172.242 97.3598 173.704 96.3497 174.97C93.9225 178.046 91.043 179.976 87.9675 180.744L87.666 180.79C87.1082 180.88 86.5504 180.986 86.0077 181.076C86.3243 181.046 86.6409 181.016 86.9575 180.956H87.0027L89.4148 180.503C89.4751 180.503 89.5354 180.473 89.5957 180.458C89.6259 180.458 89.656 180.458 89.6862 180.443C89.7465 180.443 89.7917 180.428 89.852 180.413C90.1385 180.353 90.44 180.292 90.7566 180.217C91.5857 180.051 92.4149 179.885 93.229 179.704C94.224 179.478 95.2341 179.237 96.1236 178.996C96.3195 178.935 96.5155 178.89 96.6964 178.83C97.0583 178.724 97.3899 178.634 97.7367 178.528C97.812 178.513 97.8874 178.483 97.9628 178.468C98.3246 178.363 98.7166 178.257 99.0935 178.151C99.2141 178.106 99.3196 178.076 99.4402 178.031C99.4553 178.031 99.4855 178.016 99.5005 178.001C101.687 177.141 103.616 175.438 105.169 172.86C105.908 171.654 106.556 170.252 107.114 168.669C107.43 167.749 107.732 166.754 107.988 165.714C107.883 165.744 107.777 165.774 107.687 165.789C107.792 165.759 107.898 165.729 107.988 165.699C108.621 163.121 108.998 160.332 109.149 157.377C109.315 153.97 109.194 150.352 108.772 146.658C108.546 144.578 108.214 142.467 107.807 140.341L107.792 140.356Z" fill="white"/>
    <path d="M90.5002 168.291C92.1737 165.412 93.5154 162.321 94.5707 159.035C95.9125 154.874 96.7718 150.471 97.1336 145.994C97.3748 142.888 97.405 139.753 97.209 136.662C96.7416 129.742 95.1134 123.003 92.3847 117.154C91.4048 115.028 90.2741 113.023 89.0077 111.169C88.6911 110.732 88.4047 110.309 88.0881 109.902C87.7564 109.465 87.4248 109.043 87.078 108.636C87.1836 108.515 87.274 108.38 87.3494 108.259L87.5303 108.003C86.7765 109.028 85.7212 109.842 84.3493 110.385C83.6558 110.656 82.887 110.867 82.0427 111.033C81.9523 111.033 81.892 111.048 81.8166 111.063C80.9422 111.184 80.0226 111.259 78.9974 111.244C77.6707 111.244 76.2234 111.108 74.6556 110.837C59.1878 108.214 37.4635 93.8467 26.1265 78.801C25.7195 78.2583 25.3426 77.7457 24.9807 77.2181C23.2018 74.6702 21.8601 72.2883 20.9404 70.1173C19.1163 65.7604 18.9353 62.1875 20.3525 59.715C20.3977 59.6095 20.4731 59.504 20.5485 59.3984L18.6188 62.097L18.5132 62.2478C18.5132 62.2478 18.4831 62.2779 18.468 62.3231C18.4529 62.3533 18.4228 62.3985 18.3775 62.4438C18.0459 62.9262 17.7142 63.4538 17.3524 63.9966C16.9001 64.675 16.4177 65.4137 15.9353 66.1373C15.4227 66.9363 14.9403 67.7504 14.4578 68.5645C14.4277 68.6098 14.4126 68.655 14.3674 68.6851L14.292 68.8208C14.292 68.8208 14.2618 68.8661 14.2468 68.9113C14.2317 68.9414 14.2015 69.0017 14.1714 69.0319C14.1563 69.047 14.1563 69.062 14.1412 69.062C14.1111 69.1374 14.096 69.1826 14.0508 69.243C14.0357 69.243 14.0357 69.258 14.0357 69.258C13.9453 69.4389 13.8548 69.5897 13.7794 69.7706C11.7894 73.7355 12.4527 79.2081 16.0257 85.4344C16.8398 86.8515 17.7896 88.2686 18.9052 89.7611C20.2168 91.5099 21.6791 93.2135 23.2772 94.8718C35.4735 107.551 55.1776 117.32 70.2233 117.591C72.4243 117.636 74.3993 117.47 76.1782 117.124C78.9069 116.581 81.1231 115.601 82.8116 114.259C82.8267 114.244 82.8417 114.229 82.887 114.214C86.6258 128.084 79.5703 144.441 64.208 154.406C62.3085 155.658 60.3335 156.743 58.3435 157.693C55.0872 159.23 51.7403 160.391 48.3633 161.19C33.1066 164.763 17.5182 160.663 9.15114 149.552C8.26167 148.361 7.47773 147.125 6.79932 145.858C7.13098 146.537 7.44758 147.125 7.71894 147.667C8.41243 148.979 8.98531 150.004 9.64865 151.059C10.508 152.416 11.4879 153.833 12.9804 155.974C12.9955 155.989 12.9955 156.004 13.0106 156.019C13.0407 156.049 13.0558 156.095 13.1161 156.14C13.4176 156.517 13.7493 156.954 14.096 157.376C14.3071 157.632 14.5332 157.904 14.7593 158.145C23.835 168.336 39.3028 170.914 53.8811 165.608C56.655 164.597 59.3838 163.286 62.0522 161.718C63.6351 160.753 65.203 159.713 66.7257 158.552C66.6805 158.507 66.6352 158.431 66.59 158.356C67.3739 158.462 68.0373 157.21 68.6403 156.713L70.0574 155.477C70.2082 155.341 70.374 155.205 70.5248 155.055C70.7811 154.828 71.0072 154.587 71.2635 154.346C71.3087 154.316 71.369 154.255 71.4143 154.21C71.6404 153.984 71.8665 153.773 72.0927 153.547L72.2887 153.351C72.4394 153.17 72.6203 153.004 72.7711 152.853C72.8615 152.763 72.952 152.657 73.0123 152.582C73.148 152.446 73.2837 152.281 73.4344 152.145C73.5249 152.039 73.6153 151.949 73.6907 151.843C73.8113 151.708 73.947 151.572 74.0676 151.406C74.1581 151.316 74.2485 151.21 74.3239 151.105C74.4445 150.969 74.5651 150.803 74.6857 150.667C74.7762 150.562 74.8666 150.471 74.942 150.366C74.9722 150.336 74.9872 150.291 75.0325 150.245C75.138 150.14 75.2284 150.019 75.3038 149.914C75.3792 149.808 75.4546 149.718 75.53 149.612C75.6656 149.461 75.7862 149.296 75.9069 149.13C75.9822 149.039 76.0425 148.949 76.1179 148.873C76.2687 148.662 76.4345 148.451 76.5853 148.24C76.6154 148.21 76.6606 148.15 76.6757 148.12C76.8265 147.893 76.9923 147.682 77.1431 147.456C77.1732 147.426 77.2185 147.381 77.2335 147.351C77.2788 147.275 77.3391 147.2 77.3843 147.125C77.4295 147.049 77.4747 146.989 77.52 146.914C77.535 146.898 77.5501 146.868 77.5953 146.823C77.6255 146.778 77.6707 146.718 77.6858 146.672C77.716 146.642 77.731 146.597 77.7612 146.582C77.8366 146.476 77.8969 146.371 77.9572 146.28C78.0476 146.16 78.1381 146.039 78.1984 145.919C78.2135 145.888 78.2285 145.843 78.2738 145.813C78.2738 145.813 78.2738 145.798 78.2888 145.798C78.3039 145.753 78.3341 145.692 78.3793 145.647C78.4094 145.602 78.4547 145.542 78.4848 145.496C78.5903 145.346 78.6808 145.18 78.7863 145.029C78.8014 144.999 78.8316 144.939 78.8617 144.908C78.8617 144.908 78.8768 144.893 78.8768 144.878C78.9069 144.833 78.9522 144.758 78.9823 144.697C79.0879 144.547 79.1783 144.381 79.2537 144.23C79.3291 144.125 79.3743 144.019 79.4497 143.913C79.4647 143.883 79.4949 143.838 79.525 143.793C79.5401 143.778 79.5552 143.748 79.5552 143.717C79.5854 143.672 79.6306 143.612 79.6607 143.537C79.6758 143.506 79.706 143.446 79.7361 143.401C79.8115 143.295 79.8567 143.19 79.917 143.084C79.9472 143.039 79.9622 142.994 80.0075 142.949C80.0226 142.918 80.0376 142.858 80.0527 142.828C80.0979 142.753 80.1432 142.692 80.1733 142.617C80.1884 142.602 80.1884 142.587 80.2035 142.572C80.2336 142.466 80.2939 142.376 80.3391 142.3C80.3542 142.27 80.3693 142.21 80.4145 142.18C80.4597 142.074 80.5201 141.969 80.5653 141.863C80.5954 141.788 80.6407 141.712 80.6859 141.637C80.6859 141.607 80.701 141.592 80.716 141.547C80.716 141.532 80.7311 141.516 80.7462 141.501C80.7613 141.471 80.7763 141.426 80.7914 141.396C80.8366 141.275 80.8969 141.155 80.9422 141.049C80.9874 140.928 81.0628 140.808 81.1231 140.687C81.1231 140.687 81.1382 140.672 81.1382 140.657C81.1532 140.627 81.1683 140.612 81.1683 140.567C81.2135 140.461 81.2738 140.356 81.3191 140.25C81.3342 140.205 81.3492 140.145 81.3945 140.114C81.4095 140.024 81.4397 139.933 81.5 139.873C81.5 139.858 81.5151 139.828 81.5151 139.798C81.5301 139.768 81.5301 139.753 81.5452 139.722C81.5603 139.677 81.5754 139.632 81.5904 139.602C81.6206 139.557 81.6357 139.496 81.6658 139.451C81.7412 139.315 81.7864 139.195 81.8467 139.044C81.8618 138.999 81.892 138.923 81.9221 138.863C81.9523 138.788 81.9673 138.742 81.9975 138.682C82.0126 138.667 82.0276 138.652 82.0276 138.637C82.0276 138.622 82.0276 138.607 82.0427 138.592C82.0578 138.562 82.0729 138.501 82.0879 138.471C82.1181 138.396 82.1332 138.335 82.1633 138.26C82.1784 138.245 82.1784 138.23 82.1784 138.215C82.2085 138.17 82.2538 138.094 82.2689 138.019C82.2839 137.943 82.3141 137.898 82.3442 137.823C82.3744 137.717 82.4347 137.612 82.4648 137.491C82.495 137.446 82.5101 137.371 82.5402 137.295C82.5553 137.25 82.5854 137.205 82.6156 137.16C82.6307 137.114 82.6307 137.069 82.6458 137.024C82.691 136.903 82.7362 136.783 82.7814 136.662C82.8116 136.556 82.8568 136.451 82.887 136.33C82.887 136.33 82.892 136.32 82.902 136.3C82.9774 136.089 83.0528 135.863 83.1131 135.652C83.1432 135.546 83.1583 135.441 83.2036 135.335C83.2186 135.305 83.2337 135.29 83.2337 135.26C83.2789 135.064 83.3392 134.898 83.3845 134.717C83.3995 134.672 83.4146 134.612 83.4297 134.566C83.4448 134.521 83.4448 134.476 83.4598 134.431C83.5352 134.205 83.6106 133.963 83.6709 133.737C83.701 133.617 83.7463 133.511 83.7614 133.406C83.8518 133.104 83.9121 132.833 83.9724 132.546C84.0176 132.396 84.0629 132.23 84.0779 132.079C84.1684 131.808 84.2136 131.521 84.2589 131.25C84.2739 131.129 84.3041 131.009 84.3342 130.888C84.3342 130.873 84.3342 130.858 84.3493 130.813C84.3644 130.677 84.3945 130.541 84.4247 130.39C84.5001 130.119 84.5302 129.818 84.5604 129.531C84.5754 129.486 84.5755 129.426 84.5755 129.38C84.6056 129.199 84.6207 129.049 84.6508 128.868C84.6508 128.838 84.6508 128.777 84.6659 128.747C84.6659 128.702 84.681 128.642 84.681 128.596C84.6961 128.476 84.7111 128.34 84.7262 128.189L84.7714 127.617C84.7714 127.617 84.7865 127.526 84.7865 127.481C84.7865 127.481 84.8016 127.375 84.8016 127.33C84.8016 127.3 84.8016 127.255 84.8167 127.24V127.059C84.8167 127.059 84.8317 126.938 84.8317 126.863C84.8468 126.772 84.8468 126.712 84.8468 126.622C84.8468 126.576 84.8619 126.516 84.8619 126.441V126.29C84.877 126.199 84.877 126.109 84.877 126.049V125.958C84.877 125.958 84.892 125.838 84.892 125.777V125.506C84.892 125.506 84.9071 125.37 84.9071 125.295V125.069V124.948C84.9071 124.858 84.9222 124.752 84.9222 124.647V123.787C84.9222 123.787 84.9222 123.667 84.9071 123.591V123.049C84.9071 123.049 84.892 122.958 84.892 122.928V122.792C84.892 122.702 84.877 122.596 84.877 122.491V122.4C84.877 122.4 84.877 122.37 84.8619 122.355C84.8619 122.355 84.8619 122.31 84.8619 122.265V122.084C84.8619 122.084 84.8619 122.008 84.8468 121.978C84.8468 121.888 84.8468 121.827 84.8317 121.737C84.8317 121.646 84.8317 121.586 84.8167 121.496C84.8167 121.42 84.8167 121.36 84.8016 121.27V121.194C84.8016 121.194 84.7865 121.119 84.7865 121.089V120.983C84.7865 120.983 84.7714 120.938 84.7714 120.878C84.7714 120.847 84.7714 120.802 84.7564 120.772V120.742C84.7413 120.651 84.7413 120.546 84.7262 120.471V120.38C84.7111 120.275 84.6961 120.169 84.681 120.064V119.943C84.681 119.943 84.6659 119.837 84.6508 119.792C84.6508 119.747 84.6508 119.702 84.6358 119.656C84.6358 119.626 84.6357 119.581 84.6207 119.551C84.6207 119.46 84.6056 119.355 84.5905 119.28C84.5905 119.265 84.5905 119.234 84.5755 119.204C84.5604 119.084 84.5453 118.978 84.5302 118.857C84.5302 118.857 84.5151 118.782 84.5151 118.752V118.722C84.5151 118.722 84.485 118.571 84.4699 118.481C84.4548 118.345 84.4247 118.209 84.3795 118.058C84.3795 118.013 84.3644 117.953 84.3644 117.908C84.3493 117.878 84.3493 117.817 84.3342 117.787C84.3342 117.742 84.3192 117.682 84.3192 117.636C84.289 117.516 84.2739 117.41 84.2287 117.29C84.2136 117.214 84.2136 117.169 84.1986 117.094C84.1835 117.048 84.1684 116.988 84.1533 116.913C84.1383 116.837 84.1232 116.777 84.1081 116.702C84.1081 116.656 84.093 116.611 84.0779 116.566C84.0779 116.536 84.0629 116.475 84.0629 116.445C84.0327 116.34 84.0176 116.234 83.9724 116.129C83.9423 116.008 83.897 115.888 83.8669 115.767C83.8669 115.752 83.8669 115.737 83.8518 115.722C83.8518 115.676 83.8367 115.601 83.8217 115.541C83.8066 115.526 83.8066 115.496 83.8066 115.496C83.8066 115.48 83.8066 115.465 83.7915 115.45H83.7764C83.7764 115.45 83.7764 115.375 83.7614 115.36C83.7161 115.164 83.6558 114.998 83.5804 114.802L83.7161 114.501L84.289 113.37C89.3243 124.134 88.2539 137.928 81.9221 149.944C79.3743 154.783 75.9672 159.321 71.761 163.256C71.7761 163.256 71.7912 163.271 71.8062 163.286C71.7912 163.286 71.7761 163.271 71.761 163.256C70.5097 164.371 69.2584 165.397 67.9921 166.361C65.7759 168.035 63.5296 169.467 61.2682 170.643C50.1272 176.492 38.5791 176.522 28.3577 170.447C28.2974 170.402 28.2221 170.372 28.1617 170.326C28.2522 170.387 28.3427 170.447 28.4331 170.507C28.7346 170.718 29.0211 170.914 29.3075 171.11C29.4281 171.201 29.5638 171.276 29.6995 171.367C29.7598 171.412 29.8201 171.442 29.8955 171.487C30.0161 171.563 30.1367 171.638 30.2573 171.713C30.7548 172.03 31.2372 172.316 31.7046 172.588C31.7649 172.633 31.8402 172.663 31.9005 172.708C32.4282 173.01 33.0463 173.357 33.6644 173.703C33.6795 173.703 33.7096 173.733 33.7247 173.733C34.177 173.975 34.6293 174.216 35.0815 174.442C35.9409 174.894 36.7399 175.286 37.75 175.739C38.3078 175.98 38.9108 176.251 39.6344 176.568C39.6797 176.583 39.7249 176.613 39.7852 176.628C39.755 176.628 39.7249 176.598 39.7098 176.598C39.1671 176.372 38.6244 176.115 38.0967 175.844C39.348 176.372 40.7048 176.93 42.0315 177.457C49.8106 179.899 58.7204 178.603 66.8915 173.643C69.0474 172.331 71.158 170.779 73.1781 168.954C74.2787 167.959 75.3641 166.904 76.4044 165.758C76.3742 165.758 76.3441 165.728 76.3139 165.713C76.3441 165.713 76.3742 165.743 76.4044 165.758C79.721 162.125 82.4498 158.055 84.5453 153.743C88.1183 146.401 89.8972 138.396 89.7766 130.737C89.7465 128.898 89.6108 127.089 89.3545 125.31C88.6911 120.591 87.2288 116.129 84.9674 112.179C85.1031 111.938 85.2388 111.712 85.3745 111.485C85.4046 111.47 85.4046 111.44 85.4197 111.41C85.4951 111.304 85.5554 111.199 85.6157 111.093L86.1433 110.279C87.0027 111.44 87.7866 112.707 88.4801 113.988C90.5002 117.666 91.9475 121.767 92.8219 126.109C92.9576 126.863 93.0933 127.601 93.229 128.37C93.9978 133.3 94.0431 138.471 93.4099 143.597C92.7767 148.512 91.5254 153.381 89.6409 157.964C88.1936 161.477 86.3695 164.824 84.1684 167.869C83.3091 169.06 82.4196 170.176 81.5151 171.201C79.9472 172.98 78.3039 174.532 76.6003 175.844C70.8112 180.352 64.3588 182.327 58.1928 181.633C59.3838 181.784 60.5898 181.935 61.7356 182.055H61.7808C61.9014 182.07 62.007 182.085 62.1125 182.085C62.3688 182.116 62.6401 182.131 62.8814 182.176C63.017 182.176 63.1527 182.191 63.3035 182.191C63.4693 182.191 63.6502 182.206 63.8311 182.221C63.6502 182.221 63.4693 182.206 63.3035 182.191C63.9216 182.236 64.5548 182.281 65.203 182.327C65.9719 182.372 66.7257 182.417 67.4041 182.432C67.4342 182.432 67.4795 182.432 67.5096 182.432C67.6302 182.432 67.7358 182.432 67.8564 182.432C67.9468 182.432 68.0373 182.432 68.1277 182.432C68.2333 182.432 68.3237 182.432 68.4293 182.432C68.6403 182.432 68.8665 182.432 69.0624 182.432C69.2132 182.432 69.3639 182.432 69.5147 182.432C69.575 182.432 69.6504 182.432 69.7107 182.432C69.7107 182.432 69.7408 182.432 69.7559 182.432H70.2082C70.6152 182.432 71.0072 182.417 71.3992 182.387C75.9822 182.04 80.4899 179.96 84.5001 176.221C85.872 174.924 87.1986 173.432 88.4499 171.728C89.2188 170.673 89.9424 169.527 90.6661 168.336L90.5002 168.291Z" fill="white"/>
    <path d="M6.70868 145.723C6.70868 145.723 6.73883 145.783 6.75391 145.798C6.70868 145.723 6.67853 145.633 6.6333 145.557C6.66345 145.617 6.67853 145.663 6.70868 145.723Z" fill="white"/>
    <path d="M186.262 28.1162C186.699 28.7494 187.106 29.3826 187.498 30.0459C187.121 29.458 186.714 28.8248 186.262 28.1162Z" fill="white"/>
    <path d="M189.654 97.0127C186.277 100.39 181.483 103.028 175.392 104.536C175.392 104.566 175.377 104.596 175.362 104.641C175.362 104.611 175.377 104.581 175.392 104.536C167.703 106.45 159.14 106.269 150.894 104.415C144.547 102.983 138.381 100.555 132.969 97.3142C127.798 94.2086 123.29 90.3642 119.958 85.932C119.958 85.932 119.958 85.947 119.958 85.9621C119.958 85.9621 119.958 85.947 119.958 85.932C119.611 85.4797 119.295 85.0274 118.978 84.5601C118.616 84.6807 118.209 84.8314 117.712 85.0123C117.471 85.1028 117.229 85.2083 116.958 85.3138C117.576 86.339 118.27 87.3642 119.054 88.4044C119.069 88.3592 119.099 88.3139 119.114 88.2687C119.099 88.3139 119.084 88.3592 119.054 88.4044C120.712 90.6055 122.657 92.7161 124.813 94.691C128.265 97.8418 132.26 100.676 136.572 103.058C147.969 109.375 161.567 112.676 172.995 111.124C176.628 110.626 179.764 109.676 182.387 108.35C185.583 106.737 187.995 104.551 189.563 101.973C189.608 101.897 189.654 101.837 189.684 101.762C189.85 101.49 190 101.204 190.136 100.932C190.181 100.857 190.212 100.782 190.257 100.706C190.332 100.54 190.408 100.375 190.483 100.209C190.483 100.209 190.483 100.179 190.498 100.164C190.769 99.47 191.056 98.7163 191.357 97.9474C191.403 97.8117 191.463 97.676 191.508 97.5403C192.413 95.1433 193.362 92.4899 194.146 90.1532C194.146 90.123 194.161 90.0929 194.176 90.0627C194.176 90.0627 194.176 90.0929 194.161 90.108C193.212 92.6407 191.689 94.9774 189.624 97.0278L189.654 97.0127Z" fill="white"/>
    <path d="M39.77 153.049C44.3229 152.974 48.9361 152.311 53.4136 151.014C56.4288 150.14 59.3686 148.994 62.2028 147.547C76.1178 140.476 83.6105 128.28 82.8567 116.43C82.8265 116.053 82.8115 115.661 82.7512 115.299C82.7662 115.571 82.7662 115.842 82.7813 116.31V116.34C81.2285 119.43 78.6204 122.053 75.0022 123.998C72.3338 125.43 69.1075 126.486 65.3989 127.089H65.3838C54.4388 128.853 41.5942 126.199 30.5135 120.682C25.2671 118.088 20.4428 114.832 16.4176 111.078C14.4276 109.254 12.6335 107.279 11.0807 105.229C5.80419 98.2035 4.26646 91.2988 6.03033 85.6001C6.06048 85.5097 6.07555 85.4041 6.12078 85.3287C6.12078 85.3137 6.13586 85.2986 6.13586 85.2835C6.13586 85.2684 6.15093 85.2534 6.15093 85.2383C6.27154 84.9066 6.39215 84.59 6.52783 84.2734C6.4223 84.4996 6.33184 84.7408 6.22631 84.9669C6.03033 85.4494 5.84942 85.9469 5.65343 86.4142C5.63836 86.4444 5.63836 86.4896 5.62328 86.5197C5.6082 86.5499 5.59313 86.5951 5.59313 86.6253C5.44237 87.0625 5.27654 87.4997 5.1107 87.9519C4.97502 88.3138 4.85441 88.7057 4.70366 89.0977C4.59812 89.4294 4.47752 89.746 4.37199 90.0324C3.82926 91.6003 3.22622 93.6506 2.77395 95.3391C2.7438 95.52 2.6835 95.6858 2.65334 95.8517C2.63827 95.8818 2.63827 95.9421 2.62319 95.9723V96.0024C2.62319 96.0024 2.60812 96.0326 2.60812 96.0477C0.105531 108.485 8.74397 120.38 22.0107 127.677C27.4681 130.677 33.6945 132.908 40.2675 134.069C47.73 135.396 55.5996 135.38 63.228 133.602H63.2431C71.5197 131.34 76.2535 127.541 79.0124 124.043C81.3793 121.013 82.2989 118.209 82.7813 116.732C82.6758 119.867 81.8466 124.224 78.8465 128.762C75.8464 133.33 70.6905 138.079 61.9465 142.029H61.9315C57.8007 143.597 53.6096 144.622 49.4487 145.165C43.7048 145.934 38.0363 145.768 32.6844 144.848C15.0758 141.803 1.07038 130.209 0.0904549 114.516C0.0753791 114.244 0.0753791 113.943 0.0603033 113.641V113.973C0.0603033 114.063 0.0452274 114.154 0.0452274 114.229V114.38C0.0301516 114.606 0.0301516 114.832 0.0301516 115.058L0 115.707C0 115.812 0.0150758 115.903 0.0150758 115.978C0 116.325 0 116.671 0 117.018C0.0150758 117.576 0.0301516 118.149 0.0753791 118.722C0.0904549 118.872 0.0904549 119.053 0.0904549 119.204C0.105531 119.415 0.105531 119.611 0.120607 119.792V120.033C0.120607 120.154 0.120607 120.274 0.135682 120.395V120.516C0.150758 120.727 0.150758 120.923 0.165834 121.119C0.18091 121.33 0.195986 121.556 0.211061 121.797V121.827C0.226137 121.963 0.241213 122.099 0.241213 122.234C0.256289 122.385 0.271365 122.551 0.286441 122.702C0.301516 122.852 0.316592 123.033 0.331668 123.184C0.346744 123.365 0.36182 123.531 0.376895 123.712C0.376895 123.727 0.391971 123.757 0.391971 123.802C0.407047 124.013 0.437199 124.224 0.46735 124.435C0.482426 124.586 0.497502 124.767 0.542729 124.918V124.993H0.557805C0.572881 125.144 0.587957 125.265 0.603033 125.415C0.603033 125.491 0.618109 125.536 0.618109 125.611V125.657L0.693488 126.094V126.124C0.693488 126.124 0.708563 126.169 0.708563 126.199C1.34175 130.451 3.04532 134.597 5.89464 138.411C13.1763 148.074 26.1716 153.215 39.7549 153.004L39.77 153.049Z" fill="white"/>
    <path d="M132.185 0.0452275C132.305 0.0603033 132.426 0.0753791 132.546 0.0904549C135.592 0.46735 138.592 1.62819 141.426 3.52774C143.883 5.18608 146.22 7.38715 148.331 10.2063C148.587 10.5531 148.858 10.945 149.115 11.3069C150.472 13.2366 151.663 15.3472 152.673 17.5784C155.401 23.5937 156.954 30.5135 157.256 37.6142C157.376 40.4484 157.301 43.3128 157.03 46.1471C156.607 50.5492 155.703 54.891 154.331 59.0067C153.185 62.3988 151.708 65.6401 149.884 68.61C149.175 69.8161 148.406 70.9317 147.607 71.9719C146.401 73.5549 145.12 74.9871 143.778 76.2384C139.029 80.6405 133.587 82.8265 128.19 82.7059C128.19 82.7059 128.039 82.6758 127.963 82.6758L128.174 82.7059H127.903C128.009 82.7059 128.144 82.7059 128.235 82.721C134.974 83.912 142.225 81.9823 148.647 77.0374C150.321 75.7711 151.919 74.2785 153.457 72.6202C154.391 71.58 155.296 70.4794 156.215 69.2885H156.231C158.613 66.0471 160.603 62.5194 162.17 58.7806C164.175 53.9865 165.487 48.9059 166.075 43.7802C167.221 34.0713 165.819 24.2721 161.778 16.3573C160.859 14.5632 159.804 12.8597 158.628 11.2918C157.014 9.13595 155.236 7.34192 153.336 5.86449C150.336 3.54282 147.064 2.06539 143.627 1.3719C143.582 1.35682 143.507 1.34175 143.431 1.32667L142.421 1.17591C141.607 1.04023 140.778 0.874397 139.964 0.753791C139.557 0.708563 139.165 0.64826 138.803 0.603033C138.607 0.587957 138.396 0.572881 138.2 0.557805C137.084 0.422123 135.969 0.316592 134.838 0.211061C134.642 0.195986 134.431 0.195986 134.25 0.18091C133.933 0.150758 133.617 0.135682 133.285 0.105531C133.21 0.105531 133.134 0.0904549 133.059 0.0904549H132.863C132.592 0.0753791 132.29 0.0603033 131.989 0.0452275C131.747 0.0301516 131.476 0.0301516 131.205 0.0150758C130.783 0.0150758 130.33 0 129.893 0C130.27 0.0150758 130.677 0.0301516 131.099 0.0452275C131.446 0.0603033 131.838 0.0753791 132.2 0.0904549L132.185 0.0452275Z" fill="white"/>
  </g>
</svg>