<svg width="984" height="244" viewBox="0 0 984 244" fill="none" xmlns="http://www.w3.org/2000/svg">
<path fill-rule="evenodd" clip-rule="evenodd" d="M557.638 119.983H586.53H643.686V52.4413H586.53H557.638V119.983ZM517.566 243.811V0L0 7.27177e-06V6.24941e-05H144.54L163.827 26.7507V243.811H124.533V219.785V180.555V152.881H38.4867V180.555V219.785V243.149L0 204.664V244H984V205.222L984.001 205.222V0.000244146H984V7.27177e-06L683.478 0V243.811H643.686V180.555V152.881H557.64V180.555H557.638V243.811H517.566ZM984 0.000244146H938.131L929.462 11.5131C920.069 23.9861 908.972 38.7225 898.662 52.4122L924.489 88.2323L944.255 61.9829L944.277 61.9536V170.567V243.811H945.41L984 205.222V0.000244146ZM38.4867 119.983H124.533V52.4414H38.4867V119.983ZM429.906 5.1107L426.057 4.21491e-05H240.001V243.811H280.181V175.299V114.852V53.2467H384.608H389.57H403.196L416.754 71.2507V96.712L403.196 114.713V114.852H384.5L384.499 114.853H365.272H364.943H364.942L364.942 114.852H349.688H330.958L358.377 152.881H432.673H434.344H437.682L456.001 128.556V39.7614L429.906 5.1107ZM364.986 114.91L365.048 114.992H384.396L384.474 114.886L384.394 114.991H365.048L364.986 114.91ZM329.61 114.852L358.25 152.882H358.376L330.957 114.852H329.61ZM760.697 0.000244146H806.861C825.48 24.7229 858.139 68.0909 872.496 87.1562L898.323 122.976L898.257 123.063L897.646 123.877C897.411 124.188 897.172 124.505 896.925 124.832C896.549 125.331 896.164 125.844 895.769 126.368C895.615 126.573 895.46 126.779 895.303 126.987L895.298 126.994C895.072 127.293 894.844 127.596 894.613 127.903L894.294 128.326L893.964 128.764H851.029C850.851 128.528 850.667 128.283 850.489 128.046L850.403 127.931C850.15 127.597 849.902 127.267 849.656 126.942C849.511 126.749 849.367 126.558 849.224 126.368C848.887 125.921 848.557 125.482 848.234 125.053L847.641 124.265C847.434 123.99 847.231 123.72 847.031 123.455C846.673 122.98 846.329 122.523 845.997 122.083C845.368 121.248 844.788 120.476 844.267 119.786C842.941 118.024 842 116.775 841.612 116.26C835.213 107.762 825.252 94.5356 814.773 80.6205L814.62 80.4179L800.737 61.9829V170.538L800.609 170.707V243.811H760.697V0.000244146Z" fill="#D9D9D9"/>
</svg>
