<svg width="1137" height="381" viewBox="0 0 1137 381" fill="none" xmlns="http://www.w3.org/2000/svg">
<path fill-rule="evenodd" clip-rule="evenodd" d="M1137 0H0V381H1137V0ZM115.487 187.983H201.533V120.441H115.487V187.983ZM77 68.0001H221.54L240.827 94.7507V311.811H201.533V287.785V248.555V220.881H115.487V248.555V287.785V311.149L77 272.664V68.0001ZM506.906 73.1107L503.057 68H317.001V311.811H357.181V243.299V182.852V121.247H461.608H466.57H480.196L493.754 139.251V164.712L480.196 182.713V182.852H461.5L461.499 182.853H442.272H441.943H441.942L441.942 182.852H426.688H407.958L435.377 220.881H509.673H511.344H514.682L533.001 196.556V107.761L506.906 73.1107ZM441.985 182.909L442.048 182.992H461.396L461.474 182.886L461.394 182.991H442.048L441.985 182.909ZM406.61 182.852L435.25 220.882H435.376L407.957 182.852H406.61ZM837.697 68.0002H883.861C902.48 92.7229 935.139 136.091 949.496 155.156L975.323 190.976C974.875 191.572 974.415 192.184 973.925 192.832C973.71 193.118 973.492 193.408 973.271 193.702L972.769 194.368L972.221 195.097C972.02 195.362 971.818 195.631 971.613 195.903L971.294 196.326C971.184 196.472 971.074 196.619 970.964 196.764H928.029C927.85 196.527 927.666 196.282 927.488 196.044L927.403 195.931C927.15 195.597 926.902 195.267 926.656 194.942L926.224 194.368C925.455 193.347 924.721 192.371 924.031 191.455L923.825 191.182C923.541 190.804 923.265 190.438 922.997 190.083C922.767 189.777 922.543 189.48 922.326 189.192L922.185 189.005L921.677 188.33L921.267 187.786C919.941 186.024 919 184.775 918.612 184.26C912.191 175.733 902.184 162.445 891.665 148.477L877.737 129.983V238.538L877.609 238.707V311.811H837.697V68.0002ZM1015.13 68.0002L1006.46 79.5131L1005.75 80.4552C996.513 92.7241 985.714 107.066 975.662 120.412L1001.49 156.232L1021.26 129.983L1021.28 129.954V238.567V311.811H1022.41L1061 273.222V68.0002H1015.13ZM634.638 187.983H663.53H720.686V120.441H663.53H634.638V187.983ZM594.566 311.811V68H760.478V311.811H720.686V248.555V220.881H634.64V248.555H634.638V311.811H594.566Z" fill="currentColor"/>
</svg>
