<svg width="984" height="244" viewBox="0 0 984 244" fill="none" xmlns="http://www.w3.org/2000/svg">
<path d="M124.533 119.983H38.4867V52.4413H124.533V119.983ZM144.54 -6.6848e-05H0V204.664L38.4867 243.149V219.785V180.555V152.881H124.533V180.555V219.785V243.811H163.827V26.7506L144.54 -6.6848e-05Z" fill="currentColor"/>
<path d="M429.906 5.11057L426.057 -8.7193e-05H240.001V243.811H280.181V175.299V114.852V53.2466H384.608H389.57H403.196L416.754 71.2506V96.7119L403.196 114.713V114.852H384.5L384.396 114.992H365.048L364.942 114.852H349.688H330.958L358.377 152.881H432.673H434.344H437.682L456.001 128.556V39.7612L429.906 5.11057Z" fill="currentColor"/>
<path d="M365.272 114.853H364.942L365.048 114.991H384.394L384.5 114.853H365.272Z" fill="currentColor"/>
<path d="M329.61 114.853L358.25 152.882H358.376L330.957 114.853H329.61Z" fill="currentColor"/>
<path d="M806.861 0.000358945H760.697V243.811H800.609V170.707L800.737 170.538V61.983C815.677 81.8217 832.364 103.979 841.612 116.26C842 116.775 842.941 118.024 844.267 119.786C844.788 120.476 845.368 121.248 845.997 122.083C846.329 122.523 846.673 122.98 847.031 123.455C847.721 124.371 848.455 125.347 849.224 126.368C849.609 126.879 850.001 127.4 850.403 127.931C850.607 128.203 850.821 128.49 851.029 128.764H893.964C894.181 128.476 894.4 128.186 894.613 127.903C895.007 127.38 895.392 126.87 895.769 126.368C896.164 125.844 896.549 125.331 896.925 124.832C897.415 124.184 897.875 123.572 898.323 122.976L872.496 87.1564C858.139 68.091 825.48 24.723 806.861 0.000358945Z" fill="currentColor"/>
<path d="M938.131 0.000358945C927.495 14.1244 912.382 34.195 898.662 52.4123L924.489 88.2324L944.255 61.983L944.277 61.9537V170.567V243.811H945.41L984.001 205.222V0.000358945H938.131Z" fill="currentColor"/>
<path d="M586.53 119.983H557.638V52.4412H586.53H643.686V119.983H586.53ZM517.566 -0.000129336V243.811H557.638V180.555H557.64V152.881H643.686V180.555V243.811H683.478V-0.000129336H517.566Z" fill="currentColor"/>
</svg>
