<?xml version="1.0" encoding="UTF-8" standalone="no"?>
<svg
   xmlns:dc="http://purl.org/dc/elements/1.1/"
   xmlns:cc="http://creativecommons.org/ns#"
   xmlns:rdf="http://www.w3.org/1999/02/22-rdf-syntax-ns#"
   xmlns:svg="http://www.w3.org/2000/svg"
   xmlns="http://www.w3.org/2000/svg"
   viewBox="0 0 2172.2932 1548.52"
   height="1548.52"
   width="2172.2932"
   xml:space="preserve"
   id="svg2"
   version="1.1"><metadata
     id="metadata8"><rdf:RDF><cc:Work
         rdf:about=""><dc:format>image/svg+xml</dc:format><dc:type
           rdf:resource="http://purl.org/dc/dcmitype/StillImage" /></cc:Work></rdf:RDF></metadata><defs
     id="defs6"><clipPath
       id="clipPath44"
       clipPathUnits="userSpaceOnUse"><path
         id="path42"
         d="M 0,1161.391 H 1629.217 V 0 H 0 Z" /></clipPath></defs><g
     transform="matrix(1.3333333,0,0,-1.3333333,0,1548.52)"
     id="g10"><g
       transform="translate(480.7341,616.6989)"
       id="g12"><path
         id="path14"
         style="fill:currentColor;fill-opacity:1;fill-rule:nonzero;stroke:none"
         d="M 0,0 V 50.656 Z" /></g><g
       transform="translate(545.2686,616.6989)"
       id="g16"><path
         id="path18"
         style="fill:currentColor;fill-opacity:1;fill-rule:nonzero;stroke:none"
         d="M 0,0 V 50.656 Z" /></g><path
       id="path20"
       style="fill:currentColor;fill-opacity:1;fill-rule:nonzero;stroke:none"
       d="m 545.269,616.699 h -64.535 v 50.656 h 64.535 z m 15.005,89.987 H 451.869 V 553.188 l 28.865,-28.864 v 17.523 29.423 20.755 h 64.535 V 571.27 541.847 523.828 h 29.47 v 162.795 z" /><g
       transform="translate(774.2986,702.853)"
       id="g22"><path
         id="path24"
         style="fill:currentColor;fill-opacity:1;fill-rule:nonzero;stroke:none"
         d="m 0,0 -2.887,3.833 h -139.542 v -182.858 h 30.135 v 51.384 45.335 46.204 h 78.32 3.722 10.219 l 10.169,-13.503 v -19.096 l -10.169,-13.501 v -0.104 h -14.022 l -0.078,-0.105 h -14.511 l -0.079,0.105 h -11.441 -14.047 l 20.564,-28.522 H 2.075 3.328 5.832 l 13.739,18.244 v 66.596 z" /></g><g
       transform="translate(725.823,620.5464)"
       id="g26"><path
         id="path28"
         style="fill:currentColor;fill-opacity:1;fill-rule:nonzero;stroke:none"
         d="m 0,0 h -0.247 l 0.079,-0.104 h 14.51 L 14.421,0 Z" /></g><g
       transform="translate(699.0772,620.5466)"
       id="g30"><path
         id="path32"
         style="fill:currentColor;fill-opacity:1;fill-rule:nonzero;stroke:none"
         d="m 0,0 21.48,-28.522 h 0.094 L 1.01,0 Z" /></g><g
       transform="translate(891.7669,616.699)"
       id="g34"><path
         id="path36"
         style="fill:currentColor;fill-opacity:1;fill-rule:nonzero;stroke:none"
         d="M 0,0 H -21.669 V 50.656 H 0 42.867 V 0 Z M -51.723,89.987 V -92.871 h 30.054 v 47.442 h 0.001 v 20.755 H 42.867 V -45.429 -92.871 H 72.711 V 89.987 Z" /></g><g
       id="g38"><g
         clip-path="url(#clipPath44)"
         id="g40"><g
           transform="translate(1057.0149,706.6858)"
           id="g46"><path
             id="path48"
             style="fill:currentColor;fill-opacity:1;fill-rule:nonzero;stroke:none"
             d="m 0,0 h -34.623 v -182.858 h 29.934 v 54.828 l 0.096,0.127 v 81.416 c 11.205,-14.879 23.72,-31.497 30.656,-40.708 0.291,-0.386 0.997,-1.323 1.991,-2.644 0.391,-0.518 0.826,-1.097 1.298,-1.723 0.249,-0.33 0.507,-0.673 0.775,-1.029 0.518,-0.687 1.068,-1.419 1.645,-2.185 0.289,-0.383 0.583,-0.774 0.884,-1.172 0.153,-0.204 0.314,-0.419 0.47,-0.625 v 0 h 32.201 c 0.163,0.216 0.327,0.434 0.487,0.646 0.295,0.392 0.584,0.775 0.867,1.151 0.296,0.393 0.585,0.778 0.867,1.152 0.367,0.486 0.712,0.945 1.048,1.392 l -19.37,26.865 C 38.458,-51.068 13.964,-18.542 0,0" /></g><g
           transform="translate(1155.4675,706.6858)"
           id="g50"><path
             id="path52"
             style="fill:currentColor;fill-opacity:1;fill-rule:nonzero;stroke:none"
             d="m 0,0 c -7.977,-10.593 -19.312,-25.646 -29.602,-39.309 l 19.37,-26.865 14.825,19.687 0.016,0.022 v -81.46 -54.933 h 0.85 l 28.943,28.942 V 0 Z" /></g></g></g></g></svg>