<svg width="33" height="32" viewBox="0 0 33 32" fill="none" xmlns="http://www.w3.org/2000/svg">
<g clip-path="url(#clip0_178_3089)">
<path d="M14.2429 31.9999C13.7436 31.8822 13.2528 31.7495 12.8356 31.4339C12.1768 30.9355 11.7719 30.295 11.7008 29.4861C11.664 29.0659 11.6944 28.6408 11.6944 28.2031H21.3174C21.3723 29.2149 21.3698 30.1917 20.6296 31.0075C20.1737 31.5103 19.6137 31.8259 18.9356 31.9474C18.8742 31.9586 18.8148 31.9824 18.7547 31.9999H14.2429Z" fill="url(#paint0_linear_178_3089)"/>
<path d="M32.9999 14.3774C32.7441 14.9184 32.3024 15.1068 31.7037 15.0711C31.1909 15.0405 30.6749 15.0699 30.1608 15.0636C29.5601 15.0561 29.1352 14.6641 29.1345 14.1282C29.1345 13.5941 29.5614 13.1996 30.1601 13.1921C30.6742 13.1859 31.1909 13.2153 31.703 13.184C32.3017 13.1477 32.7428 13.338 32.9992 13.8777V14.3774H32.9999Z" fill="url(#paint1_linear_178_3089)"/>
<path d="M21.3683 26.301H17.4662C17.4662 26.2058 17.4662 26.1075 17.4662 26.0092C17.4662 24.7282 17.4616 23.4478 17.4726 22.1667C17.4739 22.0121 17.5256 21.8355 17.6128 21.7078C18.7301 20.0661 19.8493 18.4256 20.9925 16.8008C21.2314 16.4615 21.5627 16.1822 21.8611 15.8842C22.2273 15.5179 22.6116 15.1679 22.9726 14.7972C23.3646 14.3946 23.3634 13.8493 22.9907 13.478C22.6097 13.0979 22.0355 13.0954 21.606 13.4805C21.3929 13.6715 21.1901 13.8724 20.9892 14.0753C20.7968 14.27 20.6121 14.4723 20.388 14.7102C19.9953 14.3251 19.6452 13.9783 19.2913 13.6345C18.6771 13.0391 18.1921 13.0359 17.5837 13.6283C17.2356 13.9676 16.8952 14.3145 16.5181 14.6908C16.2823 14.4635 16.0731 14.2606 15.8632 14.0584C15.6655 13.8674 15.4731 13.6702 15.2684 13.4861C14.826 13.0879 14.2989 13.0873 13.8598 13.4911C13.5246 13.7992 13.2049 14.1223 12.8768 14.4378C12.8019 14.5098 12.7231 14.5768 12.603 14.6845C12.189 14.2719 11.8015 13.8555 11.381 13.4723C10.8166 12.9577 9.94209 13.1818 9.7845 13.8956C9.73219 14.1317 9.85361 14.409 9.92013 14.662C9.94144 14.7428 10.0332 14.8129 10.1048 14.8742C11.465 16.0338 12.5203 17.4282 13.4768 18.9077C14.0865 19.8507 14.7478 20.7623 15.3814 21.6915C15.4498 21.7917 15.5267 21.9131 15.5273 22.0252C15.537 23.4403 15.5338 24.8553 15.5338 26.2916H11.6077C11.4553 25.7356 11.3313 25.1677 11.144 24.6199C10.781 23.558 10.1998 22.6106 9.3802 21.8217C8.24094 20.7241 7.30188 19.5051 6.67412 18.0593C4.24123 12.4561 7.46528 5.90187 13.4916 4.22698C19.642 2.51766 25.8996 6.27566 26.9743 12.4023C27.5542 15.7089 26.5971 18.641 24.2772 21.1424C23.7683 21.6915 23.218 22.2099 22.755 22.7935C22.0568 23.6738 21.5595 24.6787 21.3703 26.301H21.3683Z" fill="url(#paint2_linear_178_3089)"/>
<path d="M13.8838 16.1326C14.1266 15.9078 14.3423 15.7081 14.5974 15.4714C14.9365 15.8045 15.2859 16.1507 15.6392 16.4938C16.2611 17.0974 16.7397 17.0949 17.3681 16.4851C17.7149 16.1482 18.0572 15.8076 18.4312 15.4395C18.6462 15.6536 18.8374 15.8327 19.0111 16.0268C19.0518 16.0718 19.0673 16.1896 19.0357 16.2359C18.2058 17.4568 17.3675 18.6728 16.4995 19.9363C15.6146 18.6502 14.7563 17.4017 13.8838 16.1332V16.1326Z" fill="url(#paint3_linear_178_3089)"/>
<path d="M10.6959 2.51558C10.6914 2.97015 10.4317 3.31514 10.0397 3.44788C9.65545 3.57749 9.19754 3.4748 8.97925 3.13858C8.58658 2.53374 8.21199 1.9145 7.8755 1.27836C7.66044 0.872003 7.86194 0.380495 8.2643 0.143819C8.66601 -0.0928558 9.22273 -0.0433919 9.47978 0.336666C9.90087 0.95966 10.2606 1.62147 10.6378 2.27202C10.6875 2.3578 10.6862 2.47113 10.6959 2.51558Z" fill="url(#paint4_linear_178_3089)"/>
<path d="M25.2362 0.957083C25.1691 1.12927 25.1213 1.31147 25.0309 1.47113C24.7473 1.97078 24.4515 2.46479 24.1525 2.9563C23.8322 3.48162 23.2774 3.64817 22.7885 3.3758C22.3009 3.10407 22.1685 2.55558 22.4772 2.02463C22.7872 1.49117 23.0972 0.957709 23.4305 0.438026C23.672 0.0610982 24.108 -0.0735186 24.5226 0.0554631C24.9314 0.183193 25.1988 0.534449 25.2369 0.957709L25.2362 0.957083Z" fill="url(#paint5_linear_178_3089)"/>
<path d="M1.92592 15.0636C1.60364 15.0636 1.28137 15.073 0.959089 15.0617C0.404956 15.0417 -0.00257116 14.6366 1.22132e-05 14.1225C0.00259559 13.611 0.414643 13.2046 0.970069 13.194C1.61397 13.1821 2.25917 13.1808 2.90308 13.194C3.45527 13.2059 3.86538 13.6204 3.8628 14.1319C3.85957 14.6453 3.44946 15.0435 2.89274 15.0611C2.57111 15.0711 2.24819 15.063 1.92592 15.063V15.0636Z" fill="url(#paint6_linear_178_3089)"/>
<path d="M5.73715 7.44725C5.73262 8.2393 5.02543 8.71202 4.40219 8.41524C3.76022 8.10969 3.14344 7.74904 2.54022 7.37587C2.10944 7.10914 2.01709 6.58069 2.26768 6.16182C2.51439 5.74857 3.04656 5.55823 3.49026 5.78301C4.12447 6.10484 4.74125 6.46173 5.35158 6.82551C5.62348 6.98768 5.73198 7.2638 5.73715 7.44788V7.44725Z" fill="url(#paint7_linear_178_3089)"/>
<path d="M27.2629 7.43843C27.2707 7.21553 27.4192 6.94629 27.7144 6.77473C28.2834 6.44414 28.8549 6.11668 29.4394 5.81238C29.9161 5.56381 30.4618 5.72222 30.726 6.15237C30.9985 6.59566 30.8693 7.14227 30.3908 7.42716C29.8256 7.76339 29.2534 8.09085 28.6651 8.38701C28.0018 8.7201 27.2533 8.26178 27.2636 7.43843H27.2629Z" fill="url(#paint8_linear_178_3089)"/>
<path d="M5.73385 20.8135C5.72093 21.0546 5.56657 21.3194 5.27078 21.4897C4.70954 21.8128 4.1483 22.1359 3.57415 22.437C3.08266 22.695 2.52659 22.5341 2.26502 22.0902C2.00023 21.6406 2.13715 21.1059 2.62088 20.8198C3.1776 20.4898 3.74077 20.168 4.3188 19.8749C4.99565 19.5318 5.75645 19.9958 5.73449 20.8135H5.73385Z" fill="url(#paint9_linear_178_3089)"/>
<path d="M27.261 20.6743C27.27 20.0068 27.9817 19.541 28.6037 19.8409C29.2437 20.1502 29.8618 20.509 30.4644 20.884C30.8926 21.1508 30.981 21.6849 30.7279 22.1006C30.4844 22.5001 29.9619 22.6967 29.5311 22.4813C28.8853 22.1588 28.2595 21.7957 27.6407 21.4256C27.3714 21.2641 27.2584 20.9867 27.2616 20.6749L27.261 20.6743Z" fill="url(#paint10_linear_178_3089)"/>
</g>
<defs>
<linearGradient id="paint0_linear_178_3089" x1="11.6828" y1="30.1015" x2="21.3388" y2="30.1015" gradientUnits="userSpaceOnUse">
<stop stop-color="#00A7A5"/>
<stop offset="0.16" stop-color="#6D8671"/>
<stop offset="0.4" stop-color="#A56649"/>
<stop offset="0.75" stop-color="#D67746"/>
<stop offset="1" stop-color="#FDC89D"/>
</linearGradient>
<linearGradient id="paint1_linear_178_3089" x1="29.1352" y1="14.1276" x2="32.9999" y2="14.1276" gradientUnits="userSpaceOnUse">
<stop stop-color="#00A7A5"/>
<stop offset="0.16" stop-color="#6D8671"/>
<stop offset="0.4" stop-color="#A56649"/>
<stop offset="0.75" stop-color="#D67746"/>
<stop offset="1" stop-color="#FDC89D"/>
</linearGradient>
<linearGradient id="paint2_linear_178_3089" x1="5.85584" y1="15.0571" x2="27.1377" y2="15.0571" gradientUnits="userSpaceOnUse">
<stop stop-color="#00A7A5"/>
<stop offset="0.16" stop-color="#6D8671"/>
<stop offset="0.4" stop-color="#A56649"/>
<stop offset="0.75" stop-color="#D67746"/>
<stop offset="1" stop-color="#FDC89D"/>
</linearGradient>
<linearGradient id="paint3_linear_178_3089" x1="13.8838" y1="17.6872" x2="19.0525" y2="17.6872" gradientUnits="userSpaceOnUse">
<stop stop-color="#00A7A5"/>
<stop offset="0.16" stop-color="#6D8671"/>
<stop offset="0.4" stop-color="#A56649"/>
<stop offset="0.75" stop-color="#D67746"/>
<stop offset="1" stop-color="#FDC89D"/>
</linearGradient>
<linearGradient id="paint4_linear_178_3089" x1="7.78896" y1="1.75108" x2="10.6959" y2="1.75108" gradientUnits="userSpaceOnUse">
<stop stop-color="#00A7A5"/>
<stop offset="0.16" stop-color="#6D8671"/>
<stop offset="0.4" stop-color="#A56649"/>
<stop offset="0.75" stop-color="#D67746"/>
<stop offset="1" stop-color="#FDC89D"/>
</linearGradient>
<linearGradient id="paint5_linear_178_3089" x1="22.3106" y1="1.75539" x2="25.2362" y2="1.75539" gradientUnits="userSpaceOnUse">
<stop stop-color="#00A7A5"/>
<stop offset="0.16" stop-color="#6D8671"/>
<stop offset="0.4" stop-color="#A56649"/>
<stop offset="0.75" stop-color="#D67746"/>
<stop offset="1" stop-color="#FDC89D"/>
</linearGradient>
<linearGradient id="paint6_linear_178_3089" x1="1.22132e-05" y1="14.1256" x2="3.8628" y2="14.1256" gradientUnits="userSpaceOnUse">
<stop stop-color="#00A7A5"/>
<stop offset="0.16" stop-color="#6D8671"/>
<stop offset="0.4" stop-color="#A56649"/>
<stop offset="0.75" stop-color="#D67746"/>
<stop offset="1" stop-color="#FDC89D"/>
</linearGradient>
<linearGradient id="paint7_linear_178_3089" x1="2.13011" y1="7.09599" x2="5.73714" y2="7.09599" gradientUnits="userSpaceOnUse">
<stop stop-color="#00A7A5"/>
<stop offset="0.16" stop-color="#6D8671"/>
<stop offset="0.4" stop-color="#A56649"/>
<stop offset="0.75" stop-color="#D67746"/>
<stop offset="1" stop-color="#FDC89D"/>
</linearGradient>
<linearGradient id="paint8_linear_178_3089" x1="27.2629" y1="7.09531" x2="30.8661" y2="7.09531" gradientUnits="userSpaceOnUse">
<stop stop-color="#00A7A5"/>
<stop offset="0.16" stop-color="#6D8671"/>
<stop offset="0.4" stop-color="#A56649"/>
<stop offset="0.75" stop-color="#D67746"/>
<stop offset="1" stop-color="#FDC89D"/>
</linearGradient>
<linearGradient id="paint9_linear_178_3089" x1="2.13198" y1="21.1604" x2="5.73449" y2="21.1604" gradientUnits="userSpaceOnUse">
<stop stop-color="#00A7A5"/>
<stop offset="0.16" stop-color="#6D8671"/>
<stop offset="0.4" stop-color="#A56649"/>
<stop offset="0.75" stop-color="#D67746"/>
<stop offset="1" stop-color="#FDC89D"/>
</linearGradient>
<linearGradient id="paint10_linear_178_3089" x1="27.2603" y1="21.1589" x2="30.868" y2="21.1589" gradientUnits="userSpaceOnUse">
<stop stop-color="#00A7A5"/>
<stop offset="0.16" stop-color="#6D8671"/>
<stop offset="0.4" stop-color="#A56649"/>
<stop offset="0.75" stop-color="#D67746"/>
<stop offset="1" stop-color="#FDC89D"/>
</linearGradient>
<clipPath id="clip0_178_3089">
<rect width="33" height="32" fill="white"/>
</clipPath>
</defs>
</svg>
