<svg width="34" height="35" viewBox="0 0 34 35" fill="none" xmlns="http://www.w3.org/2000/svg">
<g clip-path="url(#clip0_178_3067)">
<path d="M18.1618 0C18.8395 0.243797 19.372 0.647387 19.5062 1.3943C19.572 1.75954 19.5391 2.14213 19.5446 2.51741C19.5492 2.79043 19.5501 3.06345 19.5437 3.33646C19.5208 4.33631 18.8367 5.05583 17.8348 5.10148C17.2786 5.12705 16.7187 5.12705 16.1625 5.10148C15.1596 5.05492 14.4737 4.33631 14.4545 3.33646C14.4454 2.83609 14.4482 2.33571 14.4527 1.83533C14.4609 0.938666 14.8783 0.3625 15.7241 0.0657431C15.7643 0.0520466 15.799 0.0228275 15.8355 0C16.61 0 17.3855 0 18.16 0L18.1618 0Z" fill="url(#paint0_linear_178_3067)"/>
<path d="M16.4146 21.2976C16.4146 22.4143 16.4164 23.5301 16.4146 24.6469C16.4137 25.171 16.2547 25.2641 15.7926 25.0121C13.9531 24.0123 12.1164 23.0069 10.2742 22.0126C9.97827 21.8528 9.84858 21.6327 9.84949 21.3003C9.85406 19.0788 9.84949 16.8581 9.85315 14.6366C9.85315 14.1864 10.0358 14.0796 10.4304 14.2941C12.321 15.3196 14.208 16.3514 16.1004 17.3722C16.3315 17.4964 16.421 17.6553 16.4182 17.9146C16.4082 19.0423 16.4137 20.1699 16.4137 21.2976H16.4146Z" fill="url(#paint1_linear_178_3067)"/>
<path d="M17.5855 21.3006C17.5855 20.173 17.5909 19.0453 17.5818 17.9176C17.58 17.6592 17.664 17.5012 17.8978 17.3752C19.7811 16.3599 21.6571 15.3326 23.5368 14.3118C23.9761 14.0726 24.1478 14.1721 24.1487 14.6679C24.1506 16.8666 24.146 19.0645 24.1533 21.2632C24.1542 21.6211 24.0218 21.8567 23.7003 22.0293C21.8562 23.0209 20.0204 24.0272 18.181 25.0261C17.7572 25.2562 17.59 25.1612 17.5882 24.6837C17.5846 23.556 17.5873 22.4283 17.5873 21.3006H17.5855Z" fill="url(#paint2_linear_178_3067)"/>
<path d="M16.9891 9.45312C17.1389 9.51248 17.2804 9.55265 17.4074 9.62114C19.2578 10.6237 21.1073 11.6272 22.9504 12.6426C23.0701 12.7083 23.2025 12.8626 23.2117 12.985C23.219 13.0836 23.0701 13.2324 22.955 13.2954C21.0708 14.3309 19.1811 15.3545 17.295 16.3872C17.0804 16.505 16.9032 16.4931 16.6904 16.3762C14.8254 15.3536 12.9539 14.3419 11.0907 13.3164C10.9583 13.2434 10.7902 13.0845 10.7911 12.9658C10.7911 12.848 10.9628 12.6928 11.0953 12.6188C12.8982 11.6254 14.7075 10.6429 16.5169 9.66131C16.6639 9.58187 16.8238 9.52526 16.9891 9.45312Z" fill="url(#paint3_linear_178_3067)"/>
<path d="M31.4545 7.51449C31.7385 7.51449 32.0235 7.50718 32.3075 7.51631C33.1633 7.54188 33.8967 8.1847 33.9598 9.03662C34.01 9.71505 34.0073 10.4017 33.9598 11.0801C33.9041 11.8846 33.2538 12.5274 32.4445 12.5831C31.7769 12.6288 31.101 12.6315 30.4343 12.5831C29.5639 12.521 28.9126 11.7869 28.8944 10.914C28.8825 10.3451 28.8816 9.77623 28.8944 9.20828C28.9145 8.26962 29.657 7.53823 30.6005 7.5154C30.8846 7.50809 31.1695 7.51448 31.4536 7.5154L31.4545 7.51449Z" fill="url(#paint4_linear_178_3067)"/>
<path d="M5.10645 24.9434C5.10645 25.2274 5.11376 25.5122 5.10554 25.7962C5.07722 26.7175 4.34381 27.4544 3.42134 27.4763C2.84137 27.49 2.26048 27.4909 1.68051 27.4763C0.829279 27.4544 0.0995198 26.7988 0.0374126 25.946C-0.0109944 25.2794 -0.0100811 24.6028 0.035586 23.9362C0.0912997 23.1126 0.739771 22.4652 1.56543 22.4095C2.23308 22.3648 2.90895 22.3639 3.57569 22.4123C4.42967 22.4744 5.07631 23.203 5.10462 24.0568C5.11467 24.3526 5.10645 24.6485 5.10645 24.9443V24.9434Z" fill="url(#paint5_linear_178_3067)"/>
<path d="M31.4281 27.4797C31.144 27.4797 30.859 27.487 30.575 27.4778C29.6543 27.4495 28.9164 26.7136 28.8954 25.7932C28.8826 25.2243 28.8835 24.6555 28.8954 24.0875C28.9127 23.1981 29.5703 22.4686 30.4617 22.4065C31.1066 22.3617 31.7596 22.3627 32.4044 22.4047C33.2648 22.4613 33.9142 23.1123 33.9699 23.9734C34.0119 24.6189 34.0128 25.2709 33.9671 25.9155C33.9041 26.8067 33.1744 27.4568 32.282 27.4788C31.998 27.4861 31.713 27.4797 31.429 27.4788L31.4281 27.4797Z" fill="url(#paint6_linear_178_3067)"/>
<path d="M5.10736 10.0624C5.10736 10.3464 5.11376 10.6312 5.10645 10.9152C5.08179 11.7891 4.43515 12.5214 3.56473 12.5835C2.89708 12.6309 2.22121 12.6291 1.55447 12.5835C0.734291 12.5259 0.0894731 11.8722 0.0346727 11.0467C-0.00916768 10.3902 -0.0109944 9.72637 0.035586 9.07076C0.0986065 8.18323 0.834759 7.5331 1.72801 7.51667C2.28514 7.50662 2.84319 7.50571 3.40033 7.51667C4.3429 7.53493 5.08088 8.26998 5.10736 9.20955C5.11558 9.49353 5.10828 9.77841 5.10828 10.0624H5.10736Z" fill="url(#paint7_linear_178_3067)"/>
<path d="M19.5428 32.4537C19.5428 32.7377 19.5519 33.0226 19.541 33.3066C19.5035 34.2525 18.7747 34.973 17.8257 34.9921C17.2686 35.0031 16.7105 35.0049 16.1534 34.9921C15.2236 34.9693 14.4911 34.248 14.4601 33.3212C14.4418 32.7642 14.4454 32.2063 14.4564 31.6493C14.4756 30.6531 15.1715 29.9354 16.1735 29.8934C16.7187 29.8706 17.2658 29.8724 17.8111 29.8934C18.8276 29.9317 19.5227 30.6531 19.5446 31.6703C19.5501 31.9314 19.5446 32.1935 19.5446 32.4546C19.5437 32.4546 19.5428 32.4546 19.5419 32.4546L19.5428 32.4537Z" fill="url(#paint8_linear_178_3067)"/>
<path d="M13.5239 4.6701C13.5248 4.98146 13.3165 5.12847 13.0745 5.25448C11.4908 6.07627 9.90795 6.89897 8.32513 7.72167C7.8712 7.95725 7.4191 8.19557 6.96243 8.42659C6.58978 8.61469 6.27103 8.53981 6.10754 8.23849C5.93401 7.9189 6.05183 7.59019 6.42538 7.39478C8.4804 6.32281 10.5363 5.25265 12.595 4.18615C13.0736 3.93779 13.5293 4.1825 13.5229 4.6701H13.5239Z" fill="url(#paint9_linear_178_3067)"/>
<path d="M27.3481 8.54594C27.265 8.51398 27.1445 8.48111 27.0349 8.42449C24.9771 7.35708 22.9203 6.28784 20.8653 5.21678C20.4935 5.0232 20.3766 4.72279 20.531 4.40594C20.6899 4.07997 21.0214 3.98866 21.405 4.18771C23.4628 5.25421 25.5196 6.32345 27.5747 7.39543C27.9135 7.57257 28.0295 7.8118 27.94 8.11404C27.8596 8.38614 27.6642 8.51763 27.3472 8.54594H27.3481Z" fill="url(#paint10_linear_178_3067)"/>
<path d="M6.65733 26.4501C6.74044 26.4821 6.86009 26.5168 6.96969 26.5734C9.01831 27.6344 11.0651 28.6964 13.111 29.761C13.5037 29.9656 13.6261 30.2705 13.4645 30.5947C13.2982 30.9271 12.9649 31.0019 12.5566 30.7892C10.5198 29.7309 8.48401 28.6717 6.44817 27.6116C6.09106 27.4253 5.96319 27.1833 6.05909 26.8738C6.14312 26.6026 6.33949 26.472 6.65733 26.4492V26.4501Z" fill="url(#paint11_linear_178_3067)"/>
<path d="M20.9794 30.9753C20.8323 30.8438 20.6296 30.7287 20.5282 30.5553C20.3994 30.3352 20.4579 30.0859 20.6643 29.9088C20.7492 29.8357 20.8534 29.7837 20.9538 29.7316C22.9184 28.7081 24.8839 27.6854 26.8494 26.6627C26.97 26.5997 27.0906 26.5303 27.2193 26.4892C27.507 26.397 27.7418 26.4938 27.8852 26.7531C28.0267 27.0088 27.9975 27.2626 27.7756 27.4662C27.6851 27.5493 27.5691 27.6059 27.4586 27.6635C25.4831 28.6925 23.5075 29.7198 21.5311 30.7452C21.3822 30.8219 21.2214 30.8758 20.9794 30.9753Z" fill="url(#paint12_linear_178_3067)"/>
<path d="M3.1382 17.4965C3.1382 18.521 3.14277 19.5446 3.13638 20.5691C3.13364 20.9937 2.88703 21.2311 2.50982 21.2028C2.18559 21.1781 1.98191 20.9508 1.97552 20.5709C1.96547 20.0021 1.97278 19.4332 1.97278 18.8643C1.97278 17.4079 1.97095 15.9506 1.97369 14.4942C1.97461 14.0487 2.18376 13.7985 2.54271 13.7902C2.90347 13.782 3.13455 14.0167 3.13729 14.4249C3.14368 15.4493 3.13912 16.4729 3.13912 17.4974L3.1382 17.4965Z" fill="url(#paint13_linear_178_3067)"/>
<path d="M30.8618 17.4974C30.8618 16.4957 30.86 15.495 30.8618 14.4933C30.8627 14.0368 31.0582 13.7975 31.4217 13.7902C31.8016 13.782 32.0254 14.0331 32.0263 14.4924C32.029 16.4948 32.0263 18.4982 32.029 20.5006C32.029 20.7964 31.9578 21.0841 31.6546 21.1544C31.4646 21.1991 31.1961 21.137 31.039 21.0202C30.9184 20.9307 30.8718 20.6814 30.8691 20.5015C30.8536 19.5008 30.8618 18.4991 30.8618 17.4974Z" fill="url(#paint14_linear_178_3067)"/>
<path d="M8.45937 12.6992C8.4685 13.2379 8.06754 13.542 7.67115 13.363C7.20535 13.1539 6.75507 12.9065 6.31119 12.6535C6.04176 12.5001 5.96321 12.1742 6.09199 11.9103C6.2226 11.6427 6.52948 11.4966 6.8117 11.6281C7.29486 11.8537 7.76797 12.1057 8.22738 12.3769C8.35433 12.4517 8.41644 12.6353 8.45937 12.6992Z" fill="url(#paint15_linear_178_3067)"/>
<path d="M27.4678 11.5166C27.6212 11.6636 27.8212 11.786 27.9171 11.964C28.0386 12.1886 27.9847 12.4653 27.7555 12.6023C27.2778 12.8863 26.7855 13.151 26.2786 13.3793C26.0137 13.4989 25.7598 13.3775 25.6164 13.11C25.4849 12.8662 25.4666 12.5794 25.7078 12.4315C26.2092 12.1238 26.7462 11.8736 27.2705 11.6033C27.3088 11.5833 27.3591 11.5869 27.4038 11.5796L27.4687 11.5175L27.4678 11.5166Z" fill="url(#paint16_linear_178_3067)"/>
<path d="M6.55321 23.4784C6.39429 23.3369 6.1897 23.2228 6.08924 23.0475C5.96319 22.8283 6.00155 22.5425 6.2308 22.4055C6.7167 22.1143 7.21995 21.844 7.7369 21.6121C8.00268 21.4934 8.25294 21.6258 8.38994 21.8969C8.51598 22.1453 8.52237 22.4265 8.28125 22.5736C7.78805 22.874 7.26288 23.1205 6.74867 23.3871C6.71031 23.4072 6.66007 23.4054 6.61532 23.4136L6.55321 23.4793V23.4784Z" fill="url(#paint17_linear_178_3067)"/>
<path d="M27.9619 22.7064C27.9683 23.246 27.5555 23.5382 27.1545 23.3556C26.6897 23.1438 26.2394 22.8972 25.7964 22.6407C25.5169 22.479 25.4594 22.1777 25.6064 21.8974C25.7526 21.6189 26.0366 21.4929 26.3271 21.6299C26.7892 21.8472 27.2459 22.0818 27.6834 22.3457C27.8286 22.4334 27.9062 22.6324 27.961 22.7064H27.9619Z" fill="url(#paint18_linear_178_3067)"/>
<path d="M17.5946 27.8788C17.5828 28.0139 17.5864 28.1536 17.5545 28.2842C17.4869 28.559 17.3005 28.7088 17.0156 28.7133C16.7169 28.7188 16.5041 28.5745 16.4475 28.2805C16.4073 28.0714 16.41 27.8504 16.4219 27.6368C16.442 27.2633 16.6585 27.0606 17.0019 27.0615C17.3471 27.0624 17.5499 27.2633 17.5809 27.6404C17.5873 27.719 17.5819 27.7993 17.5819 27.8788C17.5864 27.8788 17.591 27.8788 17.5946 27.8788Z" fill="url(#paint19_linear_178_3067)"/>
<path d="M17.5855 7.11346C17.5855 7.69419 17.3927 7.95077 16.9708 7.93433C16.5716 7.9179 16.4136 7.67867 16.4146 7.0888C16.4155 6.54368 16.5908 6.29258 16.9781 6.2798C17.3918 6.2661 17.5864 6.53273 17.5855 7.11346Z" fill="url(#paint20_linear_178_3067)"/>
</g>
<defs>
<linearGradient id="paint0_linear_178_3067" x1="14.45" y1="2.56033" x2="19.5492" y2="2.56033" gradientUnits="userSpaceOnUse">
<stop stop-color="#00A7A5"/>
<stop offset="0.16" stop-color="#6D8671"/>
<stop offset="0.4" stop-color="#A56649"/>
<stop offset="0.75" stop-color="#D67746"/>
<stop offset="1" stop-color="#FDC89D"/>
</linearGradient>
<linearGradient id="paint1_linear_178_3067" x1="9.84858" y1="19.6668" x2="16.4191" y2="19.6668" gradientUnits="userSpaceOnUse">
<stop stop-color="#00A7A5"/>
<stop offset="0.16" stop-color="#6D8671"/>
<stop offset="0.4" stop-color="#A56649"/>
<stop offset="0.75" stop-color="#D67746"/>
<stop offset="1" stop-color="#FDC89D"/>
</linearGradient>
<linearGradient id="paint2_linear_178_3067" x1="17.5818" y1="19.6671" x2="24.1515" y2="19.6671" gradientUnits="userSpaceOnUse">
<stop stop-color="#00A7A5"/>
<stop offset="0.16" stop-color="#6D8671"/>
<stop offset="0.4" stop-color="#A56649"/>
<stop offset="0.75" stop-color="#D67746"/>
<stop offset="1" stop-color="#FDC89D"/>
</linearGradient>
<linearGradient id="paint3_linear_178_3067" x1="10.7911" y1="12.9613" x2="23.2117" y2="12.9613" gradientUnits="userSpaceOnUse">
<stop stop-color="#00A7A5"/>
<stop offset="0.16" stop-color="#6D8671"/>
<stop offset="0.4" stop-color="#A56649"/>
<stop offset="0.75" stop-color="#D67746"/>
<stop offset="1" stop-color="#FDC89D"/>
</linearGradient>
<linearGradient id="paint4_linear_178_3067" x1="28.8852" y1="10.0657" x2="33.9963" y2="10.0657" gradientUnits="userSpaceOnUse">
<stop stop-color="#00A7A5"/>
<stop offset="0.16" stop-color="#6D8671"/>
<stop offset="0.4" stop-color="#A56649"/>
<stop offset="0.75" stop-color="#D67746"/>
<stop offset="1" stop-color="#FDC89D"/>
</linearGradient>
<linearGradient id="paint5_linear_178_3067" x1="0.000879032" y1="24.9315" x2="5.1101" y2="24.9315" gradientUnits="userSpaceOnUse">
<stop stop-color="#00A7A5"/>
<stop offset="0.16" stop-color="#6D8671"/>
<stop offset="0.4" stop-color="#A56649"/>
<stop offset="0.75" stop-color="#D67746"/>
<stop offset="1" stop-color="#FDC89D"/>
</linearGradient>
<linearGradient id="paint6_linear_178_3067" x1="28.8853" y1="24.9276" x2="34" y2="24.9276" gradientUnits="userSpaceOnUse">
<stop stop-color="#00A7A5"/>
<stop offset="0.16" stop-color="#6D8671"/>
<stop offset="0.4" stop-color="#A56649"/>
<stop offset="0.75" stop-color="#D67746"/>
<stop offset="1" stop-color="#FDC89D"/>
</linearGradient>
<linearGradient id="paint7_linear_178_3067" x1="-3.42747e-05" y1="10.0642" x2="5.1101" y2="10.0642" gradientUnits="userSpaceOnUse">
<stop stop-color="#00A7A5"/>
<stop offset="0.16" stop-color="#6D8671"/>
<stop offset="0.4" stop-color="#A56649"/>
<stop offset="0.75" stop-color="#D67746"/>
<stop offset="1" stop-color="#FDC89D"/>
</linearGradient>
<linearGradient id="paint8_linear_178_3067" x1="14.4473" y1="32.4382" x2="19.5474" y2="32.4382" gradientUnits="userSpaceOnUse">
<stop stop-color="#00A7A5"/>
<stop offset="0.16" stop-color="#6D8671"/>
<stop offset="0.4" stop-color="#A56649"/>
<stop offset="0.75" stop-color="#D67746"/>
<stop offset="1" stop-color="#FDC89D"/>
</linearGradient>
<linearGradient id="paint9_linear_178_3067" x1="6.02899" y1="6.3082" x2="13.5239" y2="6.3082" gradientUnits="userSpaceOnUse">
<stop stop-color="#00A7A5"/>
<stop offset="0.16" stop-color="#6D8671"/>
<stop offset="0.4" stop-color="#A56649"/>
<stop offset="0.75" stop-color="#D67746"/>
<stop offset="1" stop-color="#FDC89D"/>
</linearGradient>
<linearGradient id="paint10_linear_178_3067" x1="20.4652" y1="6.31432" x2="27.9701" y2="6.31432" gradientUnits="userSpaceOnUse">
<stop stop-color="#00A7A5"/>
<stop offset="0.16" stop-color="#6D8671"/>
<stop offset="0.4" stop-color="#A56649"/>
<stop offset="0.75" stop-color="#D67746"/>
<stop offset="1" stop-color="#FDC89D"/>
</linearGradient>
<linearGradient id="paint11_linear_178_3067" x1="6.02895" y1="28.679" x2="13.5339" y2="28.679" gradientUnits="userSpaceOnUse">
<stop stop-color="#00A7A5"/>
<stop offset="0.16" stop-color="#6D8671"/>
<stop offset="0.4" stop-color="#A56649"/>
<stop offset="0.75" stop-color="#D67746"/>
<stop offset="1" stop-color="#FDC89D"/>
</linearGradient>
<linearGradient id="paint12_linear_178_3067" x1="20.4606" y1="28.7154" x2="27.9719" y2="28.7154" gradientUnits="userSpaceOnUse">
<stop stop-color="#00A7A5"/>
<stop offset="0.16" stop-color="#6D8671"/>
<stop offset="0.4" stop-color="#A56649"/>
<stop offset="0.75" stop-color="#D67746"/>
<stop offset="1" stop-color="#FDC89D"/>
</linearGradient>
<linearGradient id="paint13_linear_178_3067" x1="1.96913" y1="17.4965" x2="3.13912" y2="17.4965" gradientUnits="userSpaceOnUse">
<stop stop-color="#00A7A5"/>
<stop offset="0.16" stop-color="#6D8671"/>
<stop offset="0.4" stop-color="#A56649"/>
<stop offset="0.75" stop-color="#D67746"/>
<stop offset="1" stop-color="#FDC89D"/>
</linearGradient>
<linearGradient id="paint14_linear_178_3067" x1="30.8591" y1="17.4792" x2="32.029" y2="17.4792" gradientUnits="userSpaceOnUse">
<stop stop-color="#00A7A5"/>
<stop offset="0.16" stop-color="#6D8671"/>
<stop offset="0.4" stop-color="#A56649"/>
<stop offset="0.75" stop-color="#D67746"/>
<stop offset="1" stop-color="#FDC89D"/>
</linearGradient>
<linearGradient id="paint15_linear_178_3067" x1="6.0308" y1="12.4974" x2="8.45937" y2="12.4974" gradientUnits="userSpaceOnUse">
<stop stop-color="#00A7A5"/>
<stop offset="0.16" stop-color="#6D8671"/>
<stop offset="0.4" stop-color="#A56649"/>
<stop offset="0.75" stop-color="#D67746"/>
<stop offset="1" stop-color="#FDC89D"/>
</linearGradient>
<linearGradient id="paint16_linear_178_3067" x1="25.5205" y1="12.4708" x2="27.9802" y2="12.4708" gradientUnits="userSpaceOnUse">
<stop stop-color="#00A7A5"/>
<stop offset="0.16" stop-color="#6D8671"/>
<stop offset="0.4" stop-color="#A56649"/>
<stop offset="0.75" stop-color="#D67746"/>
<stop offset="1" stop-color="#FDC89D"/>
</linearGradient>
<linearGradient id="paint17_linear_178_3067" x1="6.01799" y1="22.5233" x2="8.47579" y2="22.5233" gradientUnits="userSpaceOnUse">
<stop stop-color="#00A7A5"/>
<stop offset="0.16" stop-color="#6D8671"/>
<stop offset="0.4" stop-color="#A56649"/>
<stop offset="0.75" stop-color="#D67746"/>
<stop offset="1" stop-color="#FDC89D"/>
</linearGradient>
<linearGradient id="paint18_linear_178_3067" x1="25.5288" y1="22.4918" x2="27.9619" y2="22.4918" gradientUnits="userSpaceOnUse">
<stop stop-color="#00A7A5"/>
<stop offset="0.16" stop-color="#6D8671"/>
<stop offset="0.4" stop-color="#A56649"/>
<stop offset="0.75" stop-color="#D67746"/>
<stop offset="1" stop-color="#FDC89D"/>
</linearGradient>
<linearGradient id="paint19_linear_178_3067" x1="16.4137" y1="27.887" x2="17.5946" y2="27.887" gradientUnits="userSpaceOnUse">
<stop stop-color="#00A7A5"/>
<stop offset="0.16" stop-color="#6D8671"/>
<stop offset="0.4" stop-color="#A56649"/>
<stop offset="0.75" stop-color="#D67746"/>
<stop offset="1" stop-color="#FDC89D"/>
</linearGradient>
<linearGradient id="paint20_linear_178_3067" x1="16.4146" y1="7.10707" x2="17.5855" y2="7.10707" gradientUnits="userSpaceOnUse">
<stop stop-color="#00A7A5"/>
<stop offset="0.16" stop-color="#6D8671"/>
<stop offset="0.4" stop-color="#A56649"/>
<stop offset="0.75" stop-color="#D67746"/>
<stop offset="1" stop-color="#FDC89D"/>
</linearGradient>
<clipPath id="clip0_178_3067">
<rect width="34" height="35" fill="white"/>
</clipPath>
</defs>
</svg>
