<svg width="32" height="32" viewBox="0 0 32 32" fill="none" xmlns="http://www.w3.org/2000/svg">
<g clip-path="url(#clip0_178_3103)">
<path d="M31.998 15.8973C31.996 17.4573 31.8708 18.7852 31.397 20.0609C30.6968 21.9464 29.3236 22.978 27.3644 23.2642C25.9151 23.4762 24.4727 23.3235 23.0314 23.1538C21.556 22.981 20.0876 22.6867 18.5942 22.8223C18.1204 22.8655 17.6286 22.992 17.1989 23.1949C16.3205 23.6088 16 24.4757 16.2934 25.4028C16.5038 26.0688 16.9475 26.573 17.3992 27.0803C18.3358 28.133 18.3388 29.6407 17.4073 30.6744C16.9124 31.2228 16.3055 31.6075 15.6013 31.8416C14.7569 32.1218 13.9186 31.9782 13.0832 31.8195C6.57866 30.59 1.51944 25.5253 0.281425 19.0122C-1.26208 10.895 3.69197 2.86609 11.6339 0.613023C20.304 -1.84597 29.2806 3.31912 31.5082 12.0542C31.8467 13.3821 32.02 14.7351 31.998 15.8973ZM7.21169 17.6391C8.54285 17.6391 9.6226 16.5553 9.61159 15.2283C9.60157 13.9175 8.53384 12.8437 7.22571 12.8296C5.90456 12.8156 4.8218 13.8964 4.8178 15.2324C4.81479 16.5754 5.87151 17.6391 7.21069 17.6391H7.21169ZM12.1537 10.4178C13.4869 10.4138 14.5496 9.335 14.5376 7.99903C14.5256 6.67813 13.4648 5.61538 12.1537 5.60835C10.8336 5.60131 9.74981 6.68817 9.74881 8.01912C9.74881 9.35308 10.8195 10.4229 12.1537 10.4188V10.4178ZM22.3974 8.00405C22.3904 6.66909 21.3016 5.58926 19.9824 5.60935C18.6733 5.62944 17.6076 6.70726 17.6036 8.0151C17.6006 9.34103 18.6823 10.4209 20.0115 10.4178C21.3487 10.4148 22.4044 9.34705 22.3974 8.00405ZM27.1972 15.2243C27.1902 13.8894 26.1004 12.8095 24.7812 12.8306C23.4721 12.8507 22.4064 13.9295 22.4034 15.2374C22.4004 16.5643 23.4821 17.6431 24.8123 17.6401C26.1495 17.6371 27.2042 16.5683 27.1972 15.2253V15.2243Z" fill="url(#paint0_linear_178_3103)"/>
</g>
<defs>
<linearGradient id="paint0_linear_178_3103" x1="-3.19022e-05" y1="16.0008" x2="32" y2="16.0008" gradientUnits="userSpaceOnUse">
<stop stop-color="#00A7A5"/>
<stop offset="0.16" stop-color="#6D8671"/>
<stop offset="0.4" stop-color="#A56649"/>
<stop offset="0.75" stop-color="#D67746"/>
<stop offset="1" stop-color="#FDC89D"/>
</linearGradient>
<clipPath id="clip0_178_3103">
<rect width="32" height="32" fill="white"/>
</clipPath>
</defs>
</svg>
