<svg xmlns="http://www.w3.org/2000/svg" width="38" height="38" viewBox="0 0 38 38" fill="none">
  <g clip-path="url(#clip0_359_1947)">
    <path d="M17.679 30.9572H15.0269C15.0269 31.172 15.0269 31.3867 15.0269 31.6015C15.0269 32.4029 15.0347 33.2044 15.0247 34.0048C15.0136 34.7852 14.4425 35.3509 13.6932 35.3465C12.9482 35.3431 12.3848 34.7697 12.3782 33.9871C12.3693 32.993 12.376 31.9989 12.376 30.9893C8.99227 30.8266 7.20467 29.0664 7.01982 25.6303C6.2749 25.6303 5.50673 25.6303 4.73856 25.6303C4.48952 25.6303 4.24158 25.6359 3.99253 25.6292C3.21662 25.6082 2.65322 25.037 2.66207 24.2842C2.66982 23.5514 3.22768 22.9901 3.9881 22.9813C4.99536 22.9691 6.00261 22.9779 7.03975 22.9779V20.3245C6.89586 20.3245 6.74864 20.3245 6.60253 20.3245C4.84814 20.3245 3.09486 20.3289 1.34047 20.3211C0.736117 20.3189 0.224742 19.9326 0.0576048 19.389C-0.112853 18.8322 0.0908109 18.1935 0.598865 17.9068C0.850125 17.7651 1.1689 17.6854 1.4589 17.6821C3.15684 17.6621 4.85589 17.6721 6.55494 17.6721C6.70547 17.6721 6.85711 17.6721 7.03975 17.6721V15.0197C6.27601 15.0197 5.50784 15.0197 4.73967 15.0197C4.49062 15.0197 4.24269 15.0253 3.99364 15.0186C3.21662 14.9976 2.65433 14.4275 2.66097 13.6758C2.66871 12.943 3.22547 12.3806 3.98589 12.3707C4.99314 12.3585 6.0004 12.3673 7.06078 12.3673C7.0154 10.874 7.43047 9.55225 8.4975 8.48953C9.55456 7.43788 10.8551 7.00504 12.3738 7.05928C12.3738 6.02424 12.3682 5.02019 12.376 4.01724C12.3815 3.27777 12.8796 2.7143 13.5581 2.65785C14.3717 2.58921 15.0125 3.15711 15.0225 3.98403C15.0358 4.9903 15.0258 5.99767 15.0258 7.03271H17.6779C17.6779 6.88105 17.6779 6.73382 17.6779 6.58659C17.6779 4.832 17.6724 3.0774 17.6812 1.32391C17.6845 0.632037 18.1782 0.0807512 18.8202 0.00879616C19.5186 -0.0709079 20.1208 0.330933 20.2857 1.00399C20.3277 1.17557 20.3277 1.35934 20.3277 1.53756C20.3311 3.35969 20.33 5.18181 20.33 7.03271H22.982C22.982 6.09508 22.9809 5.16078 22.9831 4.22647C22.9831 4.04713 22.9765 3.86337 23.013 3.69068C23.1558 3.01984 23.7546 2.59696 24.453 2.65785C25.0972 2.7143 25.6153 3.26227 25.6274 3.94086C25.644 4.81096 25.6319 5.68107 25.633 6.55117C25.633 6.70172 25.633 6.85227 25.633 7.05264C27.1306 7.00836 28.4522 7.42127 29.5137 8.49285C30.5619 9.55225 30.998 10.8519 30.936 12.3662C31.9798 12.3662 32.9837 12.3596 33.9876 12.3685C34.7359 12.3751 35.3059 12.902 35.3447 13.6005C35.3878 14.3943 34.8211 15.0064 34.0065 15.0164C33.0014 15.0286 31.9953 15.0197 30.9637 15.0197V17.6732C31.1253 17.6732 31.2736 17.6732 31.4208 17.6732C33.1199 17.6732 34.8178 17.6721 36.5168 17.6732C37.4034 17.6732 37.9956 18.2035 37.9989 18.9916C38.0023 19.782 37.4101 20.3234 36.5323 20.3245C34.8333 20.3267 33.1353 20.3245 31.4363 20.3245C31.2869 20.3245 31.1374 20.3245 30.9637 20.3245V22.9768C31.9831 22.9768 32.987 22.9702 33.9921 22.9791C34.7392 22.9857 35.3092 23.5148 35.3458 24.2145C35.3867 25.0082 34.8189 25.6159 34.0042 25.627C33.1342 25.6381 32.2642 25.6292 31.3942 25.6303C31.2592 25.6303 31.1231 25.6303 30.9448 25.6303C30.9936 27.127 30.5752 28.4344 29.5258 29.4926C28.4721 30.5543 27.1726 30.9904 25.6352 30.9351C25.6352 31.0989 25.6352 31.245 25.6352 31.39C25.6352 32.2601 25.6429 33.1302 25.633 34.0004C25.623 34.7808 25.053 35.3476 24.3047 35.3454C23.5598 35.3431 22.9931 34.7708 22.9864 33.9893C22.9776 32.9852 22.9842 31.9801 22.9842 30.955H20.3322C20.3322 31.1 20.3322 31.245 20.3322 31.3912C20.3322 33.1037 20.3344 34.8173 20.3322 36.5298C20.3311 37.4099 19.7909 38.001 19.0006 37.9977C18.2125 37.9944 17.6834 37.4022 17.6823 36.5166C17.6801 34.8173 17.6823 33.1181 17.6823 31.4188C17.6823 31.2705 17.6823 31.1221 17.6823 30.955L17.679 30.9572ZM18.1206 21.2388C18.1206 21.7304 18.0941 22.1732 18.1262 22.6115C18.1804 23.3388 18.7848 23.8846 19.471 23.8658C20.1794 23.8469 20.7517 23.2923 20.7572 22.5606C20.7694 20.7252 20.7838 18.8887 20.7472 17.0533C20.7185 15.5954 19.5817 14.3456 18.1328 14.1928C17.3137 14.1064 16.4758 14.0943 15.6556 14.1629C13.9887 14.3013 12.8398 15.5732 12.8154 17.2614C12.7911 18.9861 12.8032 20.7119 12.8121 22.4377C12.8165 23.2658 13.4109 23.8801 14.1591 23.8658C14.9096 23.8514 15.4475 23.2669 15.4597 22.4444C15.4653 22.0481 15.4597 21.6518 15.4597 21.2377H18.1195L18.1206 21.2388ZM22.547 19.0027C22.547 20.1473 22.5293 21.2931 22.5592 22.4366C22.5669 22.7366 22.6621 23.0698 22.8215 23.3211C23.1281 23.806 23.7458 23.9709 24.2859 23.7938C24.8327 23.6145 25.1924 23.1075 25.1947 22.451C25.2024 20.1473 25.2046 17.8448 25.1947 15.5411C25.1913 14.7319 24.6113 14.1374 23.8719 14.133C23.1093 14.1286 22.5537 14.723 22.5481 15.5688C22.5415 16.7134 22.547 17.8581 22.547 19.0027Z" fill="url(#paint0_linear_359_1947)"/>
    <path d="M15.4707 18.5146C15.4707 18.074 15.432 17.6323 15.4918 17.2039C15.5128 17.0489 15.7607 16.8209 15.9201 16.8076C16.4946 16.7589 17.0757 16.7766 17.6535 16.791C17.9402 16.7987 18.1106 16.9648 18.1117 17.2681C18.1139 17.6666 18.1117 18.0663 18.1117 18.5157H15.4707V18.5146Z" fill="url(#paint1_linear_359_1947)"/>
  </g>
  <defs>
    <linearGradient id="paint0_linear_359_1947" x1="4.74845e-05" y1="19.0005" x2="38" y2="19.0005" gradientUnits="userSpaceOnUse">
      <stop stop-color="#00A7A5"/>
      <stop offset="0.16" stop-color="#6D8671"/>
      <stop offset="0.4" stop-color="#A56649"/>
      <stop offset="0.75" stop-color="#D67746"/>
      <stop offset="1" stop-color="#FDC89D"/>
    </linearGradient>
    <linearGradient id="paint1_linear_359_1947" x1="15.4586" y1="17.6445" x2="18.1128" y2="17.6445" gradientUnits="userSpaceOnUse">
      <stop stop-color="#00A7A5"/>
      <stop offset="0.16" stop-color="#6D8671"/>
      <stop offset="0.4" stop-color="#A56649"/>
      <stop offset="0.75" stop-color="#D67746"/>
      <stop offset="1" stop-color="#FDC89D"/>
    </linearGradient>
    <clipPath id="clip0_359_1947">
      <rect width="38" height="38" fill="white"/>
    </clipPath>
  </defs>
</svg>