<svg xmlns="http://www.w3.org/2000/svg" width="37" height="37" viewBox="0 0 37 37" fill="none">
  <g clip-path="url(#clip0_359_1903)">
    <path d="M37 6.86459V30.1327C36.943 30.4268 36.895 30.7228 36.8272 31.0133C35.9901 34.5945 32.9977 36.99 29.3166 36.9946C22.1055 37.0036 14.8945 37.0009 7.68341 36.99C7.12148 36.99 6.54687 36.943 6.00032 36.819C2.45225 36.0181 0.0244343 33.027 0.0144806 29.3924C-0.005427 22.1323 -0.00271233 14.8722 0.0144806 7.61123C0.0208148 4.30247 2.00705 1.53492 5.12891 0.429885C5.69085 0.230781 6.28989 0.140278 6.87173 0C14.6266 0 22.3815 0 30.1364 0C30.2278 0.0244356 30.3183 0.0561113 30.4115 0.0714967C33.3922 0.559303 35.4436 2.21187 36.5349 5.02287C36.7629 5.60932 36.8489 6.25008 37 6.86549V6.86459ZM18.5104 8.94704C18.3566 8.70902 18.2426 8.51444 18.1095 8.33253C17.7603 7.85378 17.2779 7.60671 16.6907 7.59404C15.3786 7.56417 14.4665 8.92261 15.0302 10.1172C15.3885 10.8766 15.8428 11.5906 16.2681 12.3164C16.3767 12.502 16.3939 12.6359 16.279 12.835C14.7452 15.4768 13.2204 18.1231 11.7002 20.773C11.5916 20.9621 11.4731 21.0363 11.2496 21.0336C10.1909 21.02 9.13124 21.0264 8.07161 21.0282C7.36761 21.0291 6.80658 21.3124 6.44462 21.9223C5.70714 23.1667 6.60026 24.6365 8.10238 24.6383C12.5445 24.6446 16.9857 24.641 21.4278 24.6401C21.5038 24.6401 21.5798 24.6293 21.6621 24.6229C21.6477 24.5659 21.6468 24.5415 21.6359 24.5225C21.102 23.5948 20.5301 22.6862 20.0478 21.7323C19.7664 21.1766 19.4334 20.9694 18.8036 21.0101C17.801 21.0743 16.7911 21.0273 15.7342 21.0273C15.8175 20.868 15.8736 20.7531 15.9369 20.6426C17.3313 18.2262 18.7267 15.8098 20.1211 13.3934C20.7048 12.3834 21.2984 11.3788 21.8685 10.3616C22.3969 9.41856 22.13 8.35425 21.2613 7.84111C20.379 7.31982 19.3185 7.62028 18.743 8.55517C18.6742 8.66739 18.6081 8.78142 18.5104 8.94614V8.94704ZM27.5502 24.6401C28.0416 24.6401 28.4506 24.6419 28.8596 24.6401C30.0061 24.6338 30.8214 23.8745 30.8124 22.8219C30.8042 21.7812 29.998 21.0327 28.8705 21.0282C27.8588 21.0246 26.8481 21.0173 25.8364 21.0336C25.564 21.0381 25.4138 20.963 25.2735 20.7159C24.0709 18.6045 22.8503 16.504 21.635 14.4007C21.5726 14.293 21.5047 14.1898 21.4151 14.0441C20.7627 15.1727 20.1446 16.2587 19.5076 17.333C19.3737 17.5592 19.3755 17.723 19.5076 17.9511C21.2658 20.9775 23.0131 24.0111 24.7641 27.0411C25.0772 27.5823 25.3713 28.138 25.7242 28.6512C26.1531 29.2747 26.7856 29.5046 27.5249 29.3562C28.2642 29.2069 28.7284 28.7462 28.9212 28.0113C29.0587 27.4855 28.9193 27.014 28.6587 26.5624C28.3004 25.9406 27.9412 25.3189 27.5502 24.6401ZM12.8159 26.0854H9.43618C8.54396 26.0854 8.43628 26.1615 8.13405 27.0068C7.8472 27.8086 8.19468 28.7489 8.92854 29.1616C9.71579 29.6033 10.7266 29.4431 11.2233 28.71C11.7808 27.8882 12.2585 27.0113 12.8159 26.0854Z" fill="url(#paint0_linear_359_1903)"/>
  </g>
  <defs>
    <linearGradient id="paint0_linear_359_1903" x1="2.33325e-06" y1="18.5005" x2="37" y2="18.5005" gradientUnits="userSpaceOnUse">
      <stop stop-color="#00A7A5"/>
      <stop offset="0.16" stop-color="#6D8671"/>
      <stop offset="0.4" stop-color="#A56649"/>
      <stop offset="0.75" stop-color="#D67746"/>
      <stop offset="1" stop-color="#FDC89D"/>
    </linearGradient>
    <clipPath id="clip0_359_1903">
      <rect width="37" height="37" fill="white"/>
    </clipPath>
  </defs>
</svg>