<svg xmlns="http://www.w3.org/2000/svg" width="35" height="33" viewBox="0 0 35 33" fill="none">
  <g clip-path="url(#clip0_359_1937)">
    <path d="M29.1726 22.3028C29.1726 25.4513 29.1726 28.6008 29.1726 31.7494C29.1726 32.6747 29.4905 32.9883 30.4274 32.9883C31.5553 32.9883 32.6822 32.9883 33.8101 32.9883C34.6484 32.9883 34.9991 32.6428 35 31.8169C35 25.4851 35 19.1533 35 12.8214C35 12.0001 34.6393 11.6419 33.8092 11.6409C32.6813 11.6391 31.5544 11.64 30.4265 11.6409C29.5032 11.6409 29.1726 11.97 29.1726 12.8916C29.1726 16.0293 29.1726 19.1669 29.1726 22.3046V22.3028ZM9.71694 23.2909C9.71694 25.1779 9.71694 27.0657 9.71694 28.9527C9.71694 29.9418 9.71146 30.9308 9.71876 31.9199C9.72333 32.5717 10.0987 32.9791 10.7087 32.9837C11.9955 32.9928 13.2831 33.0028 14.5699 32.9728C14.8156 32.9673 15.1416 32.8415 15.2795 32.6583C15.4539 32.4267 15.5462 32.0794 15.548 31.7813C15.5653 28.4276 15.5589 25.073 15.5589 21.7193C15.5589 19.4112 15.5599 17.1031 15.5589 14.795C15.5589 13.9336 15.2174 13.5917 14.3644 13.5917C13.2256 13.5917 12.0868 13.5917 10.9471 13.5917C10.0521 13.5917 9.71785 13.9281 9.71785 14.8315C9.71785 17.651 9.71785 20.4705 9.71785 23.29L9.71694 23.2909ZM25.2831 25.2471C25.2831 23.043 25.2841 20.8378 25.2831 18.6337C25.2831 17.8442 24.9215 17.476 24.1452 17.4741C22.9498 17.4705 21.7544 17.4705 20.5589 17.4741C19.8147 17.4769 19.4448 17.8378 19.4439 18.5844C19.4402 23.0165 19.4393 27.4477 19.4439 31.8798C19.4439 32.6245 19.8192 32.9855 20.5617 32.9873C21.7224 32.9901 22.8841 32.9883 24.0448 32.9873C24.9471 32.9873 25.2831 32.6537 25.2831 31.7576C25.2831 29.5872 25.2831 27.4167 25.2831 25.2462V25.2471Z" fill="url(#paint0_linear_359_1937)"/>
    <path d="M0 12.1678C0.0639269 11.9763 0.121461 11.7831 0.191781 11.5935C0.776256 10.0228 2.56895 9.26986 4.09041 9.97087C4.32329 10.0784 4.46849 10.0502 4.66393 9.9025C6.33699 8.64361 8.01553 7.39202 9.70137 6.15045C9.89406 6.00915 9.91507 5.89429 9.85297 5.67369C9.52237 4.48864 9.81461 3.454 10.7388 2.64999C11.6311 1.87424 12.6785 1.70742 13.7699 2.1705C14.8868 2.64452 15.5123 3.53149 15.5288 4.74206C15.5352 5.19056 15.7068 5.33276 16.0484 5.49593C17.2986 6.09302 18.5361 6.71745 19.8018 7.3437C20.3032 6.50687 21.0183 5.97998 21.9808 5.84872C22.9461 5.71745 23.7699 6.04744 24.4776 6.72018C26.0986 5.75847 27.7096 4.80223 29.3233 3.84507C28.9963 2.6901 29.2055 1.67825 30.0457 0.838688C31.0977 -0.213272 32.7735 -0.280728 33.9361 0.661842C35.0721 1.58254 35.3324 3.23431 34.5379 4.4777C33.7443 5.71927 32.1416 6.17597 30.8183 5.51417C30.6 5.40478 30.4557 5.42574 30.2612 5.54151C28.6804 6.48864 27.095 7.42757 25.5078 8.36376C25.3452 8.45947 25.2767 8.55792 25.274 8.7612C25.2557 10.196 24.2082 11.3984 22.8137 11.6099C21.4 11.8241 20.0712 11.0055 19.5927 9.64635C19.537 9.48864 19.3909 9.31909 19.242 9.24343C17.7909 8.50961 16.3297 7.79676 14.8749 7.06932C14.7096 6.98636 14.6073 6.99274 14.4548 7.11216C13.5416 7.82775 12.5406 7.93532 11.4658 7.51234C11.3562 7.4695 11.1717 7.48135 11.0813 7.54881C9.33059 8.83686 7.58721 10.1349 5.85114 11.4422C5.76347 11.5078 5.69132 11.691 5.71598 11.794C6.12055 13.4823 5.21461 15.062 3.60913 15.4403C1.97991 15.8241 0.453881 14.8487 0.0593607 13.1723C0.0493151 13.1304 0.0210046 13.093 0.00182648 13.0538C0.00182648 12.7585 0.00182648 12.4622 0.00182648 12.1669L0 12.1678Z" fill="url(#paint1_linear_359_1937)"/>
    <path d="M0 22.062C0.253881 21.5032 0.697717 21.3273 1.29406 21.3419C2.40913 21.3702 3.52603 21.3474 4.64201 21.351C5.48219 21.3537 5.82557 21.6956 5.82648 22.5288C5.8274 25.6208 5.8274 28.7138 5.82648 31.8059C5.82648 32.6482 5.48767 32.9873 4.65205 32.9882C3.53607 32.9891 2.41918 32.9627 1.30411 32.9991C0.70411 33.0174 0.269406 32.8387 0 32.2972V22.062Z" fill="url(#paint2_linear_359_1937)"/>
    <path d="M29.1726 22.3026C29.1726 19.165 29.1726 16.0273 29.1726 12.8897C29.1726 11.9681 29.5032 11.639 30.4265 11.639C31.5543 11.639 32.6813 11.6372 33.8091 11.639C34.6393 11.6408 35 11.9991 35 12.8195C35 19.1513 35 25.4831 35 31.8149C35 32.6417 34.6493 32.9863 33.8101 32.9863C32.6822 32.9863 31.5553 32.9863 30.4274 32.9863C29.4904 32.9863 29.1726 32.6727 29.1726 31.7475C29.1726 28.5989 29.1726 25.4494 29.1726 22.3008V22.3026Z" fill="url(#paint3_linear_359_1937)"/>
    <path d="M9.71688 23.2908C9.71688 20.4713 9.71688 17.6518 9.71688 14.8323C9.71688 13.9298 10.0511 13.5934 10.9461 13.5925C12.0849 13.5925 13.2237 13.5925 14.3635 13.5925C15.2164 13.5925 15.558 13.9344 15.558 14.7958C15.5598 17.1039 15.558 19.412 15.558 21.7201C15.558 25.0738 15.5644 28.4284 15.547 31.7821C15.5452 32.0802 15.4529 32.4275 15.2785 32.6591C15.1406 32.8423 14.8146 32.9681 14.5689 32.9736C13.2822 33.0036 11.9954 32.9936 10.7077 32.9845C10.0977 32.9799 9.72235 32.5716 9.71779 31.9207C9.71048 30.9316 9.71596 29.9426 9.71596 28.9535C9.71596 27.0665 9.71596 25.1787 9.71596 23.2917L9.71688 23.2908Z" fill="url(#paint4_linear_359_1937)"/>
    <path d="M25.2831 25.2471C25.2831 27.4176 25.2831 29.588 25.2831 31.7585C25.2831 32.6546 24.9471 32.9882 24.0448 32.9882C22.884 32.9882 21.7224 32.9901 20.5617 32.9882C19.8201 32.9864 19.4448 32.6254 19.4439 31.8807C19.4393 27.4486 19.4393 23.0174 19.4439 18.5853C19.4439 17.8387 19.8146 17.4777 20.5589 17.475C21.7544 17.4705 22.9498 17.4714 24.1452 17.475C24.9215 17.4768 25.2822 17.8451 25.2831 18.6345C25.285 20.8387 25.2831 23.0438 25.2831 25.248V25.2471Z" fill="url(#paint5_linear_359_1937)"/>
  </g>
  <defs>
    <linearGradient id="paint0_linear_359_1937" x1="9.71511" y1="22.3155" x2="35" y2="22.3155" gradientUnits="userSpaceOnUse">
      <stop stop-color="#00A7A5"/>
      <stop offset="0.16" stop-color="#6D8671"/>
      <stop offset="0.4" stop-color="#A56649"/>
      <stop offset="0.75" stop-color="#D67746"/>
      <stop offset="1" stop-color="#FDC89D"/>
    </linearGradient>
    <linearGradient id="paint1_linear_359_1937" x1="0" y1="7.76212" x2="34.9954" y2="7.76212" gradientUnits="userSpaceOnUse">
      <stop stop-color="#00A7A5"/>
      <stop offset="0.16" stop-color="#6D8671"/>
      <stop offset="0.4" stop-color="#A56649"/>
      <stop offset="0.75" stop-color="#D67746"/>
      <stop offset="1" stop-color="#FDC89D"/>
    </linearGradient>
    <linearGradient id="paint2_linear_359_1937" x1="0" y1="27.1705" x2="5.82831" y2="27.1705" gradientUnits="userSpaceOnUse">
      <stop stop-color="#00A7A5"/>
      <stop offset="0.16" stop-color="#6D8671"/>
      <stop offset="0.4" stop-color="#A56649"/>
      <stop offset="0.75" stop-color="#D67746"/>
      <stop offset="1" stop-color="#FDC89D"/>
    </linearGradient>
    <linearGradient id="paint3_linear_359_1937" x1="29.1726" y1="22.3126" x2="35" y2="22.3126" gradientUnits="userSpaceOnUse">
      <stop stop-color="#00A7A5"/>
      <stop offset="0.16" stop-color="#6D8671"/>
      <stop offset="0.4" stop-color="#A56649"/>
      <stop offset="0.75" stop-color="#D67746"/>
      <stop offset="1" stop-color="#FDC89D"/>
    </linearGradient>
    <linearGradient id="paint4_linear_359_1937" x1="-1.87428e-05" y1="23.2926" x2="15.5598" y2="23.2926" gradientUnits="userSpaceOnUse">
      <stop stop-color="#00A7A5"/>
      <stop offset="0.16" stop-color="#6D8671"/>
      <stop offset="0.4" stop-color="#A56649"/>
      <stop offset="0.75" stop-color="#D67746"/>
      <stop offset="1" stop-color="#FDC89D"/>
    </linearGradient>
    <linearGradient id="paint5_linear_359_1937" x1="19.4402" y1="25.2298" x2="25.284" y2="25.2298" gradientUnits="userSpaceOnUse">
      <stop stop-color="#00A7A5"/>
      <stop offset="0.16" stop-color="#6D8671"/>
      <stop offset="0.4" stop-color="#A56649"/>
      <stop offset="0.75" stop-color="#D67746"/>
      <stop offset="1" stop-color="#FDC89D"/>
    </linearGradient>
    <clipPath id="clip0_359_1937">
      <rect width="35" height="33" fill="white"/>
    </clipPath>
  </defs>
</svg>