<svg xmlns="http://www.w3.org/2000/svg" width="38" height="38" viewBox="0 0 38 38" fill="none">
  <g clip-path="url(#clip0_359_1944)">
    <path d="M38 26.7313C36.8443 26.856 35.6894 26.9861 34.5328 27.1005C34.3068 27.1228 34.2046 27.1944 34.1199 27.4223C33.8447 28.1606 33.5388 28.8887 33.2106 29.6048C33.1158 29.8112 33.1353 29.9265 33.2673 30.0883C34.0037 30.9857 34.7308 31.8914 35.4393 32.7674C34.5402 33.6639 33.6588 34.5436 32.7476 35.453C31.9851 34.8374 31.1799 34.1874 30.3747 33.5365C29.8475 33.1096 29.8596 33.1347 29.2515 33.4146C28.6592 33.688 28.0456 33.9205 27.4272 34.1307C27.1864 34.2125 27.1018 34.3148 27.0786 34.5631C26.9726 35.7059 26.8433 36.8469 26.7215 38H22.9344C22.8089 36.8451 22.676 35.7059 22.569 34.564C22.5458 34.3176 22.4686 34.2199 22.2297 34.1316C21.5026 33.8629 20.7847 33.5616 20.0809 33.2361C19.8624 33.1347 19.7424 33.1524 19.5667 33.2965C18.6797 34.0284 17.7815 34.7472 16.9205 35.4428C16.0316 34.5547 15.1511 33.6759 14.2371 32.7637C14.2548 32.7386 14.3124 32.6484 14.3784 32.5656C15.046 31.738 15.7118 30.9076 16.3877 30.0865C16.5235 29.9219 16.5318 29.8019 16.4389 29.5983C16.1162 28.8934 15.8112 28.1783 15.5444 27.4502C15.4496 27.1917 15.3268 27.12 15.0748 27.0968C13.9433 26.9899 12.8136 26.8625 11.6662 26.7406V22.9531C12.6239 22.8508 13.5658 22.7076 14.5123 22.663C15.1622 22.6323 15.5574 22.4844 15.7015 21.7563C15.8112 21.2021 16.1283 20.6813 16.3952 20.168C16.5216 19.9253 16.5318 19.7737 16.3487 19.5552C15.6197 18.682 14.9121 17.7912 14.2269 16.9421C15.1241 16.0411 16.0102 15.1511 16.914 14.2454C17.7675 14.9354 18.6657 15.6524 19.5509 16.3842C19.7387 16.5395 19.8689 16.5525 20.1004 16.4446C20.8033 16.1173 21.5249 15.8262 22.2501 15.551C22.4537 15.4738 22.5411 15.4022 22.5625 15.1762C22.6722 14.0204 22.8043 12.8663 22.9317 11.6909H26.7169C26.8126 12.579 26.9577 13.4596 26.9893 14.344C27.0172 15.1056 27.1669 15.6254 28.0511 15.7751C28.5681 15.8625 29.0562 16.1759 29.5314 16.4353C29.7741 16.5674 29.9172 16.5339 30.1125 16.373C30.9893 15.6496 31.8773 14.9391 32.7206 14.2565C33.6262 15.1614 34.5151 16.0485 35.417 16.9486C34.728 17.8005 34.0019 18.708 33.2627 19.6054C33.1269 19.77 33.1158 19.8844 33.2087 20.089C33.5388 20.818 33.8243 21.5666 34.1423 22.3012C34.1897 22.411 34.3161 22.5514 34.4203 22.5635C35.6113 22.7039 36.8052 22.822 37.9972 22.9457V26.7323L38 26.7313ZM29.2571 24.852C29.2617 22.3952 27.2906 20.4182 24.834 20.4144C22.3784 20.4116 20.3989 22.3849 20.3961 24.839C20.3933 27.2967 22.3617 29.27 24.821 29.2756C27.2785 29.2812 29.2534 27.3116 29.258 24.852H29.2571Z" fill="url(#paint0_linear_359_1944)"/>
    <path d="M11.7142 0C11.8136 0.871329 11.9234 1.74173 12.007 2.61492C12.0303 2.8567 12.1028 2.97107 12.3474 3.05384C12.8708 3.23238 13.3869 3.44626 13.8834 3.6899C14.113 3.80242 14.2497 3.78196 14.4366 3.62573C15.1005 3.07151 15.7783 2.53495 16.418 2.01884C17.1228 2.72465 17.809 3.41185 18.5184 4.12138C18.007 4.75465 17.4659 5.44465 16.8997 6.11325C16.7314 6.31133 16.75 6.44709 16.855 6.66469C17.0903 7.1529 17.3116 7.65133 17.4789 8.16557C17.5645 8.42967 17.6909 8.51057 17.9401 8.53289C18.7286 8.60263 19.5152 8.68912 20.3027 8.77095C20.3734 8.77839 20.4431 8.80257 20.5268 8.82209V11.7495C19.9438 11.8155 19.359 11.835 18.7955 11.9568C18.0368 12.1214 17.4194 11.9568 16.909 11.3747C16.8606 11.3198 16.7937 11.2817 16.7769 11.2696C14.9378 13.109 13.1061 14.94 11.252 16.7942C11.4241 17.0091 11.65 17.2843 11.8657 17.567C11.9299 17.6507 12.0173 17.7604 12.0089 17.8506C11.9289 18.7471 11.8322 19.6426 11.7374 20.5604C10.7964 20.5604 9.89454 20.5678 8.99263 20.5483C8.90895 20.5464 8.76948 20.3819 8.75739 20.2796C8.66069 19.5068 8.58259 18.7313 8.51471 17.9557C8.4924 17.7046 8.40965 17.581 8.14651 17.4954C7.63233 17.328 7.13303 17.1067 6.64582 16.8714C6.42731 16.7663 6.29249 16.7505 6.09444 16.9179C5.42592 17.4842 4.73508 18.0254 4.07399 18.5602C3.37292 17.8599 2.69138 17.1792 1.97822 16.466C2.49054 15.8299 3.01402 15.1604 3.5626 14.5113C3.75693 14.2816 3.78854 14.1152 3.63698 13.8334C3.39802 13.3908 3.20184 12.9165 3.05586 12.4357C2.96288 12.1307 2.82248 12.0424 2.52215 12.0182C1.68533 11.9513 0.852232 11.8462 0.00146484 11.755V8.80536C0.495189 8.74863 0.994491 8.69098 1.49379 8.63518C1.94847 8.58403 2.50077 8.67517 2.82899 8.44455C3.12931 8.23346 3.18603 7.67737 3.35246 7.27379C3.39524 7.1715 3.42592 7.05526 3.49565 6.97342C3.88524 6.51498 3.7123 6.16626 3.35153 5.77384C2.85967 5.23913 2.42731 4.64864 1.9931 4.11115C2.69974 3.40441 3.38687 2.71814 4.09259 2.01233C4.74623 2.53959 5.43522 3.08359 6.10746 3.64619C6.29063 3.79963 6.42173 3.79126 6.63001 3.69362C7.14326 3.4537 7.67789 3.26214 8.19579 3.03245C8.31109 2.9813 8.46729 2.86599 8.47938 2.76556C8.58352 1.84588 8.66069 0.922475 8.74531 0.000929914C9.73554 0.000929914 10.7258 0.000929914 11.716 0.000929914L11.7142 0ZM6.80574 10.2737C6.80295 12.1633 8.34363 13.7172 10.2376 13.7358C12.1298 13.7544 13.7151 12.1828 13.7197 10.2821C13.7244 8.38317 12.1484 6.81441 10.2469 6.82371C8.352 6.83301 6.80946 8.38038 6.80667 10.2728L6.80574 10.2737Z" fill="url(#paint1_linear_359_1944)"/>
  </g>
  <defs>
    <linearGradient id="paint0_linear_359_1944" x1="11.6699" y1="24.8455" x2="38" y2="24.8455" gradientUnits="userSpaceOnUse">
      <stop stop-color="#00A7A5"/>
      <stop offset="0.16" stop-color="#6D8671"/>
      <stop offset="0.4" stop-color="#A56649"/>
      <stop offset="0.75" stop-color="#D67746"/>
      <stop offset="1" stop-color="#FDC89D"/>
    </linearGradient>
    <linearGradient id="paint1_linear_359_1944" x1="0.000535044" y1="10.2811" x2="20.5259" y2="10.2811" gradientUnits="userSpaceOnUse">
      <stop stop-color="#00A7A5"/>
      <stop offset="0.16" stop-color="#6D8671"/>
      <stop offset="0.4" stop-color="#A56649"/>
      <stop offset="0.75" stop-color="#D67746"/>
      <stop offset="1" stop-color="#FDC89D"/>
    </linearGradient>
    <clipPath id="clip0_359_1944">
      <rect width="38" height="38" fill="white"/>
    </clipPath>
  </defs>
</svg>