<svg xmlns="http://www.w3.org/2000/svg" width="32" height="38" viewBox="0 0 32 38" fill="none">
  <g clip-path="url(#clip0_359_1925)">
    <path d="M9.21936 0C9.49542 0 9.77148 0 10.0475 0C11.0581 0.392913 12.0651 0.793014 13.0793 1.17754C13.961 1.51176 14.8512 1.5477 15.7706 1.28416C16.9369 0.948742 18.1105 0.630099 19.295 0.362966C19.9748 0.209634 20.6789 0.136561 21.3758 0.0994263C21.8866 0.0718744 22.0434 0.262342 22.0592 0.771452C22.0678 1.04098 22.0459 1.3189 21.9814 1.58004C21.3673 4.04892 20.1597 6.19318 18.3294 7.99004C18.2418 8.07629 18.1336 8.13978 18.0436 8.20686C18.8353 8.64889 19.5966 9.02503 20.3056 9.47904C22.8631 11.113 24.9694 13.2225 26.8119 15.5943C28.9109 18.2956 30.5843 21.2197 31.4855 24.5283C31.9914 26.3887 32.1847 28.2742 31.7822 30.1789C31.1972 32.9484 29.4776 34.8375 26.9663 36.0857C24.4866 37.3172 21.8087 37.7412 19.0761 37.9173C16.5015 38.0839 13.9306 37.9964 11.3707 37.6921C9.02721 37.4142 6.75669 36.868 4.6832 35.7048C2.33971 34.3895 0.779422 32.486 0.226083 29.8482C-0.210507 27.7651 0.0205573 25.7131 0.601867 23.6922C1.68422 19.9284 3.67259 16.6497 6.2143 13.6801C7.8658 11.7503 9.71797 10.0385 11.9581 8.77107C12.1271 8.67524 12.2986 8.5854 12.5078 8.4716C12.3302 8.34102 12.1891 8.2428 12.0554 8.13738C10.0913 6.57172 8.72318 4.62632 8.20754 2.16102C7.97526 1.05416 8.24402 0.539058 9.21814 0.00239581L9.21936 0ZM14.9084 17.0486C14.7442 17.0857 14.6226 17.1133 14.501 17.1397C13.7543 17.299 13.0769 17.5984 12.4774 18.0728C10.9122 19.3091 10.7176 22.093 12.9018 23.2238C13.4296 23.4969 14.0024 23.6958 14.5728 23.8755C14.844 23.9605 14.9194 24.0719 14.9145 24.3355C14.8987 25.1261 14.9084 25.9179 14.9084 26.7097C14.9084 27.0152 14.9084 27.3195 14.9084 27.6681C14.0474 27.4237 13.4515 26.9709 13.1389 26.1898C13.0891 26.0641 13.0575 25.9299 13.0027 25.8065C12.7984 25.3513 12.3156 25.1345 11.8547 25.2842C11.3658 25.4435 11.091 25.9011 11.2223 26.3935C11.6163 27.8729 12.5965 28.824 14.0231 29.3607C14.3101 29.4685 14.7199 29.4829 14.8622 29.6841C15.0106 29.895 14.9023 30.2795 14.9108 30.5885C14.9279 31.2139 15.3 31.6152 15.8558 31.6152C16.4115 31.6152 16.791 31.2127 16.8104 30.5921C16.8189 30.2987 16.8116 30.0052 16.8116 29.7776C17.4671 29.5871 18.091 29.4733 18.6553 29.2277C20.0271 28.63 20.8006 27.5758 20.8078 26.0748C20.8151 24.5906 19.9979 23.6251 18.6529 23.0693C18.1579 22.8644 17.6398 22.7099 17.1193 22.5758C16.8712 22.5123 16.8044 22.4116 16.8068 22.1745C16.8189 21.3096 16.8116 20.4435 16.8116 19.5786C16.8116 19.3857 16.8116 19.1941 16.8116 19C17.7383 19.0527 18.4814 19.5822 18.7562 20.3512C18.9812 20.9813 19.4774 21.2593 20.0247 21.0616C20.5464 20.8747 20.758 20.3464 20.5488 19.7379C20.1365 18.5376 19.2743 17.7805 18.0862 17.3673C17.6775 17.2247 17.2495 17.1385 16.8116 17.0211C16.8116 16.7336 16.8153 16.4509 16.8116 16.1681C16.8007 15.5273 16.4201 15.1068 15.8558 15.1092C15.2891 15.1116 14.923 15.5189 14.9096 16.1729C14.9035 16.4568 14.9096 16.7407 14.9096 17.0534L14.9084 17.0486Z" fill="url(#paint0_linear_359_1925)"/>
    <path d="M16.8312 27.7974C17.4247 27.7435 17.9476 27.5794 18.3988 27.2152C19.0677 26.6762 19.199 25.3717 18.1471 24.8961C17.7312 24.708 17.2958 24.5631 16.8312 24.3846V27.7974ZM14.8866 18.9736C14.2932 19.1054 13.8079 19.3114 13.4589 19.7535C13.1014 20.2063 13.0795 20.9358 13.4309 21.2976C13.8225 21.7001 14.3418 21.8594 14.8866 22.0211V18.9736Z" fill="url(#paint1_linear_359_1925)"/>
    <path d="M16.8312 27.7974V24.3845C17.2958 24.563 17.7312 24.708 18.1471 24.896C19.199 25.3716 19.0677 26.6761 18.3988 27.2152C17.9476 27.5781 17.4247 27.7435 16.8312 27.7974Z" fill="url(#paint2_linear_359_1925)"/>
    <path d="M14.8866 18.9749V22.0223C14.3418 21.8606 13.8213 21.7013 13.4309 21.2988C13.0795 20.937 13.1014 20.2075 13.4589 19.7547C13.8079 19.3127 14.2932 19.1066 14.8866 18.9749Z" fill="url(#paint3_linear_359_1925)"/>
  </g>
  <defs>
    <linearGradient id="paint0_linear_359_1925" x1="-0.000116905" y1="19" x2="31.9999" y2="19" gradientUnits="userSpaceOnUse">
      <stop stop-color="#00A7A5"/>
      <stop offset="0.16" stop-color="#6D8671"/>
      <stop offset="0.4" stop-color="#A56649"/>
      <stop offset="0.75" stop-color="#D67746"/>
      <stop offset="1" stop-color="#FDC89D"/>
    </linearGradient>
    <linearGradient id="paint1_linear_359_1925" x1="13.1792" y1="23.3867" x2="18.9193" y2="23.3867" gradientUnits="userSpaceOnUse">
      <stop stop-color="#00A7A5"/>
      <stop offset="0.16" stop-color="#6D8671"/>
      <stop offset="0.4" stop-color="#A56649"/>
      <stop offset="0.75" stop-color="#D67746"/>
      <stop offset="1" stop-color="#FDC89D"/>
    </linearGradient>
    <linearGradient id="paint2_linear_359_1925" x1="16.8312" y1="26.0915" x2="18.9193" y2="26.0915" gradientUnits="userSpaceOnUse">
      <stop stop-color="#00A7A5"/>
      <stop offset="0.16" stop-color="#6D8671"/>
      <stop offset="0.4" stop-color="#A56649"/>
      <stop offset="0.75" stop-color="#D67746"/>
      <stop offset="1" stop-color="#FDC89D"/>
    </linearGradient>
    <linearGradient id="paint3_linear_359_1925" x1="13.1792" y1="20.4986" x2="14.8866" y2="20.4986" gradientUnits="userSpaceOnUse">
      <stop stop-color="#00A7A5"/>
      <stop offset="0.16" stop-color="#6D8671"/>
      <stop offset="0.4" stop-color="#A56649"/>
      <stop offset="0.75" stop-color="#D67746"/>
      <stop offset="1" stop-color="#FDC89D"/>
    </linearGradient>
    <clipPath id="clip0_359_1925">
      <rect width="32" height="38" fill="white"/>
    </clipPath>
  </defs>
</svg>